G75*
%MOIN*%
%OFA0B0*%
%FSLAX24Y24*%
%IPPOS*%
%LPD*%
%AMOC8*
5,1,8,0,0,1.08239X$1,22.5*
%
%ADD10R,0.0197X0.0591*%
%ADD11R,0.0591X0.0197*%
%ADD12R,0.0820X0.1500*%
%ADD13R,0.4500X0.3500*%
%ADD14R,0.0827X0.0551*%
%ADD15R,0.0394X0.1102*%
%ADD16R,0.0591X0.0512*%
%ADD17R,0.0630X0.0512*%
%ADD18R,0.0866X0.0236*%
%ADD19R,0.0709X0.0551*%
%ADD20R,0.0551X0.0394*%
%ADD21R,0.0512X0.0630*%
%ADD22R,0.0551X0.0709*%
%ADD23R,0.0630X0.0709*%
%ADD24R,0.0709X0.0630*%
%ADD25R,0.0709X0.0669*%
%ADD26R,0.0512X0.0591*%
%ADD27R,0.0236X0.0866*%
%ADD28R,0.0472X0.0472*%
D10*
X017368Y008849D03*
X017683Y008849D03*
X017998Y008849D03*
X018313Y008849D03*
X018628Y008849D03*
X018943Y008849D03*
X019257Y008849D03*
X019572Y008849D03*
X019887Y008849D03*
X020202Y008849D03*
X020517Y008849D03*
X020517Y013416D03*
X020202Y013416D03*
X019887Y013416D03*
X019572Y013416D03*
X019257Y013416D03*
X018943Y013416D03*
X018628Y013416D03*
X018313Y013416D03*
X017998Y013416D03*
X017683Y013416D03*
X017368Y013416D03*
D11*
X016659Y012708D03*
X016659Y012393D03*
X016659Y012078D03*
X016659Y011763D03*
X016659Y011448D03*
X016659Y011133D03*
X016659Y010818D03*
X016659Y010503D03*
X016659Y010188D03*
X016659Y009873D03*
X016659Y009558D03*
X021226Y009558D03*
X021226Y009873D03*
X021226Y010188D03*
X021226Y010503D03*
X021226Y010818D03*
X021226Y011133D03*
X021226Y011448D03*
X021226Y011763D03*
X021226Y012078D03*
X021226Y012393D03*
X021226Y012708D03*
D12*
X025443Y007133D03*
X027443Y007133D03*
D13*
X026443Y002633D03*
D14*
X002006Y001094D03*
X002006Y002865D03*
X005588Y002865D03*
X007517Y002865D03*
X007517Y001094D03*
X005588Y001094D03*
X011100Y001094D03*
X013033Y001094D03*
X013033Y002865D03*
X011100Y002865D03*
X016616Y002865D03*
X018557Y002865D03*
X018557Y001094D03*
X016616Y001094D03*
X022139Y001094D03*
X022139Y002865D03*
X005592Y004956D03*
X005592Y006727D03*
X002009Y006727D03*
X002009Y004956D03*
D15*
X021797Y004389D03*
X021797Y006239D03*
D16*
X023647Y005771D03*
X023647Y005023D03*
X023041Y011042D03*
X023041Y011790D03*
X029423Y015279D03*
X029423Y016027D03*
X028265Y017936D03*
X028265Y018684D03*
X034443Y018507D03*
X034443Y017759D03*
X007478Y018660D03*
X007478Y019408D03*
X007443Y017507D03*
X007443Y016759D03*
D17*
X007443Y015007D03*
X007443Y014259D03*
X021265Y007964D03*
X021265Y007216D03*
X013943Y006507D03*
X013943Y005759D03*
X012950Y005759D03*
X011943Y005759D03*
X010943Y005759D03*
X010943Y006507D03*
X011943Y006507D03*
X012950Y006507D03*
X029324Y017897D03*
X029324Y018645D03*
X034943Y005007D03*
X034943Y004259D03*
X034943Y003007D03*
X034943Y002259D03*
D18*
X033360Y013883D03*
X033360Y014383D03*
X033360Y014883D03*
X033360Y015383D03*
X033360Y015883D03*
X033360Y016383D03*
X033360Y016883D03*
X033360Y017383D03*
X030525Y017383D03*
X030525Y016883D03*
X030525Y016383D03*
X030525Y015883D03*
X030525Y015383D03*
X030525Y014883D03*
X030525Y014383D03*
X030525Y013883D03*
X007525Y010383D03*
X007525Y009883D03*
X007525Y009383D03*
X007525Y008883D03*
X005360Y008883D03*
X005360Y009383D03*
X005360Y009883D03*
X005360Y010383D03*
D19*
X027147Y017503D03*
X027147Y018842D03*
X029159Y011216D03*
X029159Y009877D03*
D20*
X022509Y015759D03*
X023376Y016133D03*
X022509Y016507D03*
D21*
X022817Y017633D03*
X022069Y017633D03*
X021817Y018633D03*
X021069Y018633D03*
X023950Y017633D03*
X024698Y017633D03*
X023797Y014948D03*
X023049Y014948D03*
X023088Y012794D03*
X023836Y012794D03*
X034069Y006133D03*
X034817Y006133D03*
D22*
X027112Y009310D03*
X025773Y009310D03*
D23*
X031604Y005605D03*
X032706Y005605D03*
X035891Y005633D03*
X036994Y005633D03*
X023797Y013901D03*
X022694Y013901D03*
X022891Y018633D03*
X023994Y018633D03*
X025049Y018633D03*
X026151Y018633D03*
D24*
X029159Y013223D03*
X029159Y012121D03*
D25*
X032135Y007633D03*
X033750Y007633D03*
D26*
X032596Y012826D03*
X031848Y012826D03*
X031317Y018633D03*
X030569Y018633D03*
X032569Y018633D03*
X033317Y018633D03*
X019817Y016633D03*
X019069Y016633D03*
X017817Y016633D03*
X017069Y016633D03*
X006817Y011133D03*
X006069Y011133D03*
X009836Y009940D03*
X010584Y009940D03*
X012069Y008133D03*
X012817Y008133D03*
X014069Y008133D03*
X014817Y008133D03*
D27*
X014693Y011468D03*
X015193Y011468D03*
X014193Y011468D03*
X013693Y011468D03*
X013193Y011468D03*
X012693Y011468D03*
X012193Y011468D03*
X011693Y011468D03*
X011193Y011468D03*
X010693Y011468D03*
X010193Y011468D03*
X009693Y011468D03*
X009193Y011468D03*
X008693Y011468D03*
X008693Y015798D03*
X009193Y015798D03*
X009693Y015798D03*
X010193Y015798D03*
X010693Y015798D03*
X011193Y015798D03*
X011693Y015798D03*
X012193Y015798D03*
X012693Y015798D03*
X013193Y015798D03*
X013693Y015798D03*
X014193Y015798D03*
X014693Y015798D03*
X015193Y015798D03*
D28*
X007443Y013046D03*
X007443Y012219D03*
M02*
