G75*
%MOIN*%
%OFA0B0*%
%FSLAX24Y24*%
%IPPOS*%
%LPD*%
%AMOC8*
5,1,8,0,0,1.08239X$1,22.5*
%
%ADD10R,0.0595X0.0595*%
%ADD11C,0.0940*%
%ADD12C,0.0600*%
%ADD13C,0.0680*%
%ADD14R,0.0730X0.0730*%
%ADD15OC8,0.0680*%
%ADD16C,0.2080*%
%ADD17C,0.0674*%
%ADD18C,0.1486*%
%ADD19C,0.0600*%
%ADD20C,0.0700*%
%ADD21C,0.2380*%
%ADD22C,0.0476*%
%ADD23C,0.0437*%
D10*
X029943Y006141D03*
X029943Y007125D03*
D11*
X035506Y007616D02*
X035506Y008476D01*
X037868Y008476D02*
X037868Y007616D01*
X037117Y009936D02*
X036257Y009936D01*
D12*
X028203Y010633D02*
X027683Y010633D01*
X027683Y011633D02*
X028203Y011633D01*
X028203Y012633D02*
X027683Y012633D01*
X027683Y013633D02*
X028203Y013633D01*
X028203Y014633D02*
X027683Y014633D01*
X027683Y015633D02*
X028203Y015633D01*
X028203Y016633D02*
X027683Y016633D01*
X025203Y016633D02*
X024683Y016633D01*
X024683Y015633D02*
X025203Y015633D01*
X025203Y014633D02*
X024683Y014633D01*
X024683Y013633D02*
X025203Y013633D01*
X025203Y012633D02*
X024683Y012633D01*
X024683Y011633D02*
X025203Y011633D01*
X025203Y010633D02*
X024683Y010633D01*
X014943Y017373D02*
X014943Y017893D01*
X013943Y017893D02*
X013943Y017373D01*
X012943Y017373D02*
X012943Y017893D01*
X011943Y017893D02*
X011943Y017373D01*
X010943Y017373D02*
X010943Y017893D01*
X009943Y017893D02*
X009943Y017373D01*
X008943Y017373D02*
X008943Y017893D01*
X008943Y020373D02*
X008943Y020893D01*
X009943Y020893D02*
X009943Y020373D01*
X010943Y020373D02*
X010943Y020893D01*
X011943Y020893D02*
X011943Y020373D01*
X012943Y020373D02*
X012943Y020893D01*
X013943Y020893D02*
X013943Y020373D01*
X014943Y020373D02*
X014943Y020893D01*
D13*
X014596Y021880D02*
X014596Y022480D01*
X013596Y022480D02*
X013596Y021880D01*
X012596Y021880D02*
X012596Y022480D01*
X011596Y022480D02*
X011596Y021880D01*
X010596Y021880D02*
X010596Y022480D01*
X009596Y022480D02*
X009596Y021880D01*
X008596Y021880D02*
X008596Y022480D01*
X007596Y022480D02*
X007596Y021880D01*
X006596Y021880D02*
X006596Y022480D01*
X005596Y022480D02*
X005596Y021880D01*
X004596Y021880D02*
X004596Y022480D01*
X015596Y022480D02*
X015596Y021880D01*
X016596Y021880D02*
X016596Y022480D01*
X017596Y022480D02*
X017596Y021880D01*
X018596Y021880D02*
X018596Y022480D01*
X019596Y022480D02*
X019596Y021880D01*
X019443Y006433D02*
X019443Y005833D01*
X018443Y005833D02*
X018443Y006433D01*
X017443Y006433D02*
X017443Y005833D01*
X016443Y005833D02*
X016443Y006433D01*
X015443Y006433D02*
X015443Y005833D01*
X015462Y004834D02*
X015462Y004234D01*
X014462Y004234D02*
X014462Y004834D01*
X016462Y004834D02*
X016462Y004234D01*
X017462Y004234D02*
X017462Y004834D01*
X018462Y004834D02*
X018462Y004234D01*
X019462Y004234D02*
X019462Y004834D01*
D14*
X030033Y003865D03*
X031017Y003865D03*
X032986Y003865D03*
X033970Y003865D03*
X035935Y003865D03*
X036919Y003865D03*
X038887Y003865D03*
X039872Y003865D03*
X037903Y001897D03*
X032002Y001897D03*
X029742Y020239D03*
X028757Y020239D03*
X026789Y020239D03*
X025805Y020239D03*
X024714Y020251D03*
X023730Y020251D03*
X021761Y020251D03*
X020777Y020251D03*
X022746Y022219D03*
X027773Y022208D03*
D15*
X035860Y019442D03*
X036860Y018902D03*
X035860Y018362D03*
X036860Y017822D03*
X035860Y017282D03*
X036860Y016742D03*
X035860Y016202D03*
X036860Y015662D03*
X035860Y015122D03*
D16*
X036360Y012352D03*
X036360Y022212D03*
D17*
X005635Y017424D03*
X005635Y016440D03*
X005635Y015653D03*
X005635Y014668D03*
D18*
X004569Y013460D03*
X004569Y018633D03*
D19*
X017493Y015133D03*
X019393Y015133D03*
X014393Y009633D03*
X012493Y009633D03*
D20*
X008427Y006617D03*
X009411Y005633D03*
X007443Y005633D03*
D21*
X002411Y009975D03*
X002411Y022180D03*
X031939Y022180D03*
X031939Y009975D03*
D22*
X003242Y003912D03*
X008553Y001334D03*
X012057Y002869D03*
X013891Y002975D03*
X015462Y002180D03*
X014635Y001334D03*
X019458Y002889D03*
X020344Y001334D03*
X022675Y001901D03*
X022411Y006235D03*
X021171Y006235D03*
X021919Y007849D03*
X022608Y007830D03*
X021210Y008991D03*
X025305Y008361D03*
X026092Y008361D03*
X033257Y006550D03*
X034202Y014877D03*
X034734Y015448D03*
X032588Y016668D03*
X030935Y019621D03*
X023395Y017042D03*
X021820Y015763D03*
X018435Y016117D03*
X022765Y019601D03*
X018100Y020960D03*
X008584Y016727D03*
X006624Y016688D03*
X011702Y013243D03*
X008139Y012712D03*
X006624Y012286D03*
X005305Y011842D03*
X005324Y011137D03*
X008376Y009464D03*
X008395Y008775D03*
X008946Y008164D03*
X004360Y008932D03*
X010939Y005133D03*
X011935Y005133D03*
X012946Y005121D03*
X015943Y007633D03*
X015943Y008633D03*
X014675Y010645D03*
D23*
X015915Y010074D03*
X015856Y009405D03*
X017931Y009629D03*
X018848Y009582D03*
X017982Y010310D03*
X019124Y010802D03*
X019104Y011806D03*
X019722Y011609D03*
X020344Y011865D03*
X019608Y012279D03*
X020462Y012692D03*
X021899Y011452D03*
X023907Y011275D03*
X022391Y012771D03*
X019380Y014405D03*
X018750Y014247D03*
X015088Y012731D03*
X014419Y012751D03*
X013691Y012751D03*
X013218Y012259D03*
X010187Y010684D03*
X018033Y008109D03*
X020403Y007889D03*
X023710Y008538D03*
X023246Y003420D03*
M02*
