G75*
%MOIN*%
%OFA0B0*%
%FSLAX24Y24*%
%IPPOS*%
%LPD*%
%AMOC8*
5,1,8,0,0,1.08239X$1,22.5*
%
%ADD10C,0.0080*%
%ADD11C,0.0100*%
%ADD12C,0.0060*%
%ADD13C,0.0040*%
%ADD14R,0.0560X0.0980*%
%ADD15C,0.0050*%
%ADD16C,0.0039*%
%ADD17C,0.0079*%
%ADD18C,0.0030*%
%ADD19C,0.0070*%
%ADD20R,0.0300X0.7300*%
%ADD21R,0.0200X1.2200*%
%ADD22R,0.2850X0.0320*%
%ADD23R,0.1850X0.0320*%
%ADD24R,0.0620X0.0240*%
%ADD25R,0.0240X0.0620*%
%ADD26R,0.0059X0.0118*%
%ADD27R,0.0118X0.0118*%
%ADD28C,0.0160*%
D10*
X005694Y008688D02*
X005694Y010578D01*
X005891Y010578D02*
X005891Y008688D01*
X005694Y008688D01*
X005891Y008688D02*
X007191Y008688D01*
X007191Y010578D01*
X005891Y010578D01*
X008236Y011700D02*
X008236Y015566D01*
X008543Y012308D02*
X008545Y012334D01*
X008551Y012360D01*
X008560Y012384D01*
X008573Y012407D01*
X008590Y012427D01*
X008609Y012445D01*
X008631Y012460D01*
X008654Y012471D01*
X008679Y012479D01*
X008705Y012483D01*
X008731Y012483D01*
X008757Y012479D01*
X008782Y012471D01*
X008806Y012460D01*
X008827Y012445D01*
X008846Y012427D01*
X008863Y012407D01*
X008876Y012384D01*
X008885Y012360D01*
X008891Y012334D01*
X008893Y012308D01*
X008891Y012282D01*
X008885Y012256D01*
X008876Y012232D01*
X008863Y012209D01*
X008846Y012189D01*
X008827Y012171D01*
X008805Y012156D01*
X008782Y012145D01*
X008757Y012137D01*
X008731Y012133D01*
X008705Y012133D01*
X008679Y012137D01*
X008654Y012145D01*
X008630Y012156D01*
X008609Y012171D01*
X008590Y012189D01*
X008573Y012209D01*
X008560Y012232D01*
X008551Y012256D01*
X008545Y012282D01*
X008543Y012308D01*
X001781Y009975D02*
X001783Y010025D01*
X001789Y010075D01*
X001799Y010124D01*
X001813Y010172D01*
X001830Y010219D01*
X001851Y010264D01*
X001876Y010308D01*
X001904Y010349D01*
X001936Y010388D01*
X001970Y010425D01*
X002007Y010459D01*
X002047Y010489D01*
X002089Y010516D01*
X002133Y010540D01*
X002179Y010561D01*
X002226Y010577D01*
X002274Y010590D01*
X002324Y010599D01*
X002373Y010604D01*
X002424Y010605D01*
X002474Y010602D01*
X002523Y010595D01*
X002572Y010584D01*
X002620Y010569D01*
X002666Y010551D01*
X002711Y010529D01*
X002754Y010503D01*
X002795Y010474D01*
X002834Y010442D01*
X002870Y010407D01*
X002902Y010369D01*
X002932Y010329D01*
X002959Y010286D01*
X002982Y010242D01*
X003001Y010196D01*
X003017Y010148D01*
X003029Y010099D01*
X003037Y010050D01*
X003041Y010000D01*
X003041Y009950D01*
X003037Y009900D01*
X003029Y009851D01*
X003017Y009802D01*
X003001Y009754D01*
X002982Y009708D01*
X002959Y009664D01*
X002932Y009621D01*
X002902Y009581D01*
X002870Y009543D01*
X002834Y009508D01*
X002795Y009476D01*
X002754Y009447D01*
X002711Y009421D01*
X002666Y009399D01*
X002620Y009381D01*
X002572Y009366D01*
X002523Y009355D01*
X002474Y009348D01*
X002424Y009345D01*
X002373Y009346D01*
X002324Y009351D01*
X002274Y009360D01*
X002226Y009373D01*
X002179Y009389D01*
X002133Y009410D01*
X002089Y009434D01*
X002047Y009461D01*
X002007Y009491D01*
X001970Y009525D01*
X001936Y009562D01*
X001904Y009601D01*
X001876Y009642D01*
X001851Y009686D01*
X001830Y009731D01*
X001813Y009778D01*
X001799Y009826D01*
X001789Y009875D01*
X001783Y009925D01*
X001781Y009975D01*
X015649Y011700D02*
X015649Y015566D01*
X017210Y013023D02*
X020675Y013023D01*
X020832Y012865D01*
X020832Y009401D01*
X020675Y009243D01*
X017210Y009243D01*
X017053Y009401D01*
X017053Y012865D01*
X017210Y013023D01*
X026296Y009310D02*
X026689Y009074D01*
X026689Y009546D01*
X026296Y009310D01*
X028923Y010299D02*
X029159Y010693D01*
X029395Y010299D01*
X028923Y010299D01*
X031309Y009975D02*
X031311Y010025D01*
X031317Y010075D01*
X031327Y010124D01*
X031341Y010172D01*
X031358Y010219D01*
X031379Y010264D01*
X031404Y010308D01*
X031432Y010349D01*
X031464Y010388D01*
X031498Y010425D01*
X031535Y010459D01*
X031575Y010489D01*
X031617Y010516D01*
X031661Y010540D01*
X031707Y010561D01*
X031754Y010577D01*
X031802Y010590D01*
X031852Y010599D01*
X031901Y010604D01*
X031952Y010605D01*
X032002Y010602D01*
X032051Y010595D01*
X032100Y010584D01*
X032148Y010569D01*
X032194Y010551D01*
X032239Y010529D01*
X032282Y010503D01*
X032323Y010474D01*
X032362Y010442D01*
X032398Y010407D01*
X032430Y010369D01*
X032460Y010329D01*
X032487Y010286D01*
X032510Y010242D01*
X032529Y010196D01*
X032545Y010148D01*
X032557Y010099D01*
X032565Y010050D01*
X032569Y010000D01*
X032569Y009950D01*
X032565Y009900D01*
X032557Y009851D01*
X032545Y009802D01*
X032529Y009754D01*
X032510Y009708D01*
X032487Y009664D01*
X032460Y009621D01*
X032430Y009581D01*
X032398Y009543D01*
X032362Y009508D01*
X032323Y009476D01*
X032282Y009447D01*
X032239Y009421D01*
X032194Y009399D01*
X032148Y009381D01*
X032100Y009366D01*
X032051Y009355D01*
X032002Y009348D01*
X031952Y009345D01*
X031901Y009346D01*
X031852Y009351D01*
X031802Y009360D01*
X031754Y009373D01*
X031707Y009389D01*
X031661Y009410D01*
X031617Y009434D01*
X031575Y009461D01*
X031535Y009491D01*
X031498Y009525D01*
X031464Y009562D01*
X031432Y009601D01*
X031404Y009642D01*
X031379Y009686D01*
X031358Y009731D01*
X031341Y009778D01*
X031327Y009826D01*
X031317Y009875D01*
X031311Y009925D01*
X031309Y009975D01*
X027147Y018025D02*
X027383Y018419D01*
X026911Y018419D01*
X027147Y018025D01*
X031309Y022180D02*
X031311Y022230D01*
X031317Y022280D01*
X031327Y022329D01*
X031341Y022377D01*
X031358Y022424D01*
X031379Y022469D01*
X031404Y022513D01*
X031432Y022554D01*
X031464Y022593D01*
X031498Y022630D01*
X031535Y022664D01*
X031575Y022694D01*
X031617Y022721D01*
X031661Y022745D01*
X031707Y022766D01*
X031754Y022782D01*
X031802Y022795D01*
X031852Y022804D01*
X031901Y022809D01*
X031952Y022810D01*
X032002Y022807D01*
X032051Y022800D01*
X032100Y022789D01*
X032148Y022774D01*
X032194Y022756D01*
X032239Y022734D01*
X032282Y022708D01*
X032323Y022679D01*
X032362Y022647D01*
X032398Y022612D01*
X032430Y022574D01*
X032460Y022534D01*
X032487Y022491D01*
X032510Y022447D01*
X032529Y022401D01*
X032545Y022353D01*
X032557Y022304D01*
X032565Y022255D01*
X032569Y022205D01*
X032569Y022155D01*
X032565Y022105D01*
X032557Y022056D01*
X032545Y022007D01*
X032529Y021959D01*
X032510Y021913D01*
X032487Y021869D01*
X032460Y021826D01*
X032430Y021786D01*
X032398Y021748D01*
X032362Y021713D01*
X032323Y021681D01*
X032282Y021652D01*
X032239Y021626D01*
X032194Y021604D01*
X032148Y021586D01*
X032100Y021571D01*
X032051Y021560D01*
X032002Y021553D01*
X031952Y021550D01*
X031901Y021551D01*
X031852Y021556D01*
X031802Y021565D01*
X031754Y021578D01*
X031707Y021594D01*
X031661Y021615D01*
X031617Y021639D01*
X031575Y021666D01*
X031535Y021696D01*
X031498Y021730D01*
X031464Y021767D01*
X031432Y021806D01*
X031404Y021847D01*
X031379Y021891D01*
X031358Y021936D01*
X031341Y021983D01*
X031327Y022031D01*
X031317Y022080D01*
X031311Y022130D01*
X031309Y022180D01*
X001781Y022180D02*
X001783Y022230D01*
X001789Y022280D01*
X001799Y022329D01*
X001813Y022377D01*
X001830Y022424D01*
X001851Y022469D01*
X001876Y022513D01*
X001904Y022554D01*
X001936Y022593D01*
X001970Y022630D01*
X002007Y022664D01*
X002047Y022694D01*
X002089Y022721D01*
X002133Y022745D01*
X002179Y022766D01*
X002226Y022782D01*
X002274Y022795D01*
X002324Y022804D01*
X002373Y022809D01*
X002424Y022810D01*
X002474Y022807D01*
X002523Y022800D01*
X002572Y022789D01*
X002620Y022774D01*
X002666Y022756D01*
X002711Y022734D01*
X002754Y022708D01*
X002795Y022679D01*
X002834Y022647D01*
X002870Y022612D01*
X002902Y022574D01*
X002932Y022534D01*
X002959Y022491D01*
X002982Y022447D01*
X003001Y022401D01*
X003017Y022353D01*
X003029Y022304D01*
X003037Y022255D01*
X003041Y022205D01*
X003041Y022155D01*
X003037Y022105D01*
X003029Y022056D01*
X003017Y022007D01*
X003001Y021959D01*
X002982Y021913D01*
X002959Y021869D01*
X002932Y021826D01*
X002902Y021786D01*
X002870Y021748D01*
X002834Y021713D01*
X002795Y021681D01*
X002754Y021652D01*
X002711Y021626D01*
X002666Y021604D01*
X002620Y021586D01*
X002572Y021571D01*
X002523Y021560D01*
X002474Y021553D01*
X002424Y021550D01*
X002373Y021551D01*
X002324Y021556D01*
X002274Y021565D01*
X002226Y021578D01*
X002179Y021594D01*
X002133Y021615D01*
X002089Y021639D01*
X002047Y021666D01*
X002007Y021696D01*
X001970Y021730D01*
X001936Y021767D01*
X001904Y021806D01*
X001876Y021847D01*
X001851Y021891D01*
X001830Y021936D01*
X001813Y021983D01*
X001799Y022031D01*
X001789Y022080D01*
X001783Y022130D01*
X001781Y022180D01*
D11*
X017257Y009558D02*
X017259Y009578D01*
X017264Y009598D01*
X017274Y009616D01*
X017286Y009633D01*
X017301Y009647D01*
X017319Y009657D01*
X017338Y009665D01*
X017358Y009669D01*
X017378Y009669D01*
X017398Y009665D01*
X017417Y009657D01*
X017435Y009647D01*
X017450Y009633D01*
X017462Y009616D01*
X017472Y009598D01*
X017477Y009578D01*
X017479Y009558D01*
X017477Y009538D01*
X017472Y009518D01*
X017462Y009500D01*
X017450Y009483D01*
X017435Y009469D01*
X017417Y009459D01*
X017398Y009451D01*
X017378Y009447D01*
X017358Y009447D01*
X017338Y009451D01*
X017319Y009459D01*
X017301Y009469D01*
X017286Y009483D01*
X017274Y009500D01*
X017264Y009518D01*
X017259Y009538D01*
X017257Y009558D01*
X024423Y005243D02*
X024423Y004543D01*
X024423Y005243D02*
X028463Y005243D01*
X028463Y004543D01*
D12*
X019962Y004284D02*
X019962Y004784D01*
X019712Y005034D01*
X019212Y005034D01*
X018962Y004784D01*
X018712Y005034D01*
X018212Y005034D01*
X017962Y004784D01*
X017962Y004284D01*
X018212Y004034D01*
X018712Y004034D01*
X018962Y004284D01*
X018962Y004784D01*
X018962Y004284D02*
X019212Y004034D01*
X019712Y004034D01*
X019962Y004284D01*
X017962Y004284D02*
X017712Y004034D01*
X017212Y004034D01*
X016962Y004284D01*
X016712Y004034D01*
X016212Y004034D01*
X015962Y004284D01*
X015712Y004034D01*
X015212Y004034D01*
X014962Y004284D01*
X014712Y004034D01*
X014212Y004034D01*
X013962Y004284D01*
X013962Y004784D01*
X014212Y005034D01*
X014712Y005034D01*
X014962Y004784D01*
X015212Y005034D01*
X015712Y005034D01*
X015962Y004784D01*
X016212Y005034D01*
X016712Y005034D01*
X016962Y004784D01*
X017212Y005034D01*
X017712Y005034D01*
X017962Y004784D01*
X016962Y004784D02*
X016962Y004284D01*
X015962Y004284D02*
X015962Y004784D01*
X014962Y004784D02*
X014962Y004284D01*
X015193Y005633D02*
X015693Y005633D01*
X015943Y005883D01*
X016193Y005633D01*
X016693Y005633D01*
X016943Y005883D01*
X016943Y006383D01*
X016693Y006633D01*
X016193Y006633D01*
X015943Y006383D01*
X015943Y005883D01*
X015943Y006383D02*
X015693Y006633D01*
X015193Y006633D01*
X014943Y006383D01*
X014943Y005883D01*
X015193Y005633D01*
X016943Y005883D02*
X017193Y005633D01*
X017693Y005633D01*
X017943Y005883D01*
X018193Y005633D01*
X018693Y005633D01*
X018943Y005883D01*
X019193Y005633D01*
X019693Y005633D01*
X019943Y005883D01*
X019943Y006383D01*
X019693Y006633D01*
X019193Y006633D01*
X018943Y006383D01*
X018943Y005883D01*
X018943Y006383D02*
X018693Y006633D01*
X018193Y006633D01*
X017943Y006383D01*
X017943Y005883D01*
X017943Y006383D02*
X017693Y006633D01*
X017193Y006633D01*
X016943Y006383D01*
X014643Y008983D02*
X012243Y008983D01*
X012193Y008985D01*
X012144Y008991D01*
X012095Y009000D01*
X012047Y009013D01*
X012000Y009030D01*
X011955Y009050D01*
X011911Y009074D01*
X011869Y009101D01*
X011829Y009132D01*
X011792Y009165D01*
X011758Y009201D01*
X011726Y009239D01*
X011697Y009280D01*
X011672Y009322D01*
X011650Y009367D01*
X011631Y009413D01*
X011616Y009461D01*
X011605Y009509D01*
X011597Y009558D01*
X011593Y009608D01*
X011593Y009658D01*
X011597Y009708D01*
X011605Y009757D01*
X011616Y009805D01*
X011631Y009853D01*
X011650Y009899D01*
X011672Y009944D01*
X011697Y009986D01*
X011726Y010027D01*
X011758Y010065D01*
X011792Y010101D01*
X011829Y010134D01*
X011869Y010165D01*
X011911Y010192D01*
X011955Y010216D01*
X012000Y010236D01*
X012047Y010253D01*
X012095Y010266D01*
X012144Y010275D01*
X012193Y010281D01*
X012243Y010283D01*
X014643Y010283D01*
X015465Y010421D02*
X016319Y010421D01*
X016213Y010528D02*
X016106Y010634D01*
X015999Y010634D01*
X015892Y010528D01*
X015892Y010314D01*
X015785Y010207D01*
X015679Y010207D01*
X015572Y010314D01*
X015572Y010528D01*
X015679Y010634D01*
X015785Y010852D02*
X015572Y011065D01*
X016213Y011065D01*
X016213Y010852D02*
X016213Y011279D01*
X016213Y010528D02*
X016213Y010314D01*
X016106Y010207D01*
X016106Y009990D02*
X015572Y009990D01*
X016106Y009990D02*
X016213Y009883D01*
X016213Y009670D01*
X016106Y009563D01*
X015572Y009563D01*
X014643Y008983D02*
X014693Y008985D01*
X014742Y008991D01*
X014791Y009000D01*
X014839Y009013D01*
X014886Y009030D01*
X014931Y009050D01*
X014975Y009074D01*
X015017Y009101D01*
X015057Y009132D01*
X015094Y009165D01*
X015128Y009201D01*
X015160Y009239D01*
X015189Y009280D01*
X015214Y009322D01*
X015236Y009367D01*
X015255Y009413D01*
X015270Y009461D01*
X015281Y009509D01*
X015289Y009558D01*
X015293Y009608D01*
X015293Y009658D01*
X015289Y009708D01*
X015281Y009757D01*
X015270Y009805D01*
X015255Y009853D01*
X015236Y009899D01*
X015214Y009944D01*
X015189Y009986D01*
X015160Y010027D01*
X015128Y010065D01*
X015094Y010101D01*
X015057Y010134D01*
X015017Y010165D01*
X014975Y010192D01*
X014931Y010216D01*
X014886Y010236D01*
X014839Y010253D01*
X014791Y010266D01*
X014742Y010275D01*
X014693Y010281D01*
X014643Y010283D01*
X013693Y009933D02*
X013693Y009633D01*
X013943Y009633D01*
X013693Y009633D02*
X013693Y009333D01*
X013543Y009333D02*
X013543Y009933D01*
X013343Y009933D01*
X013343Y009333D01*
X013543Y009333D01*
X013193Y009333D02*
X013193Y009633D01*
X012943Y009633D01*
X013193Y009633D02*
X013193Y009933D01*
X017243Y014483D02*
X019643Y014483D01*
X019693Y014485D01*
X019742Y014491D01*
X019791Y014500D01*
X019839Y014513D01*
X019886Y014530D01*
X019931Y014550D01*
X019975Y014574D01*
X020017Y014601D01*
X020057Y014632D01*
X020094Y014665D01*
X020128Y014701D01*
X020160Y014739D01*
X020189Y014780D01*
X020214Y014822D01*
X020236Y014867D01*
X020255Y014913D01*
X020270Y014961D01*
X020281Y015009D01*
X020289Y015058D01*
X020293Y015108D01*
X020293Y015158D01*
X020289Y015208D01*
X020281Y015257D01*
X020270Y015305D01*
X020255Y015353D01*
X020236Y015399D01*
X020214Y015444D01*
X020189Y015486D01*
X020160Y015527D01*
X020128Y015565D01*
X020094Y015601D01*
X020057Y015634D01*
X020017Y015665D01*
X019975Y015692D01*
X019931Y015716D01*
X019886Y015736D01*
X019839Y015753D01*
X019791Y015766D01*
X019742Y015775D01*
X019693Y015781D01*
X019643Y015783D01*
X017243Y015783D01*
X018193Y015433D02*
X018193Y015133D01*
X017943Y015133D01*
X018193Y015133D02*
X018193Y014833D01*
X018343Y014833D02*
X018343Y015433D01*
X018543Y015433D01*
X018543Y014833D01*
X018343Y014833D01*
X018693Y014833D02*
X018693Y015133D01*
X018943Y015133D01*
X018693Y015133D02*
X018693Y015433D01*
X017243Y015783D02*
X017193Y015781D01*
X017144Y015775D01*
X017095Y015766D01*
X017047Y015753D01*
X017000Y015736D01*
X016955Y015716D01*
X016911Y015692D01*
X016869Y015665D01*
X016829Y015634D01*
X016792Y015601D01*
X016758Y015565D01*
X016726Y015527D01*
X016697Y015486D01*
X016672Y015444D01*
X016650Y015399D01*
X016631Y015353D01*
X016616Y015305D01*
X016605Y015257D01*
X016597Y015208D01*
X016593Y015158D01*
X016593Y015108D01*
X016597Y015058D01*
X016605Y015009D01*
X016616Y014961D01*
X016631Y014913D01*
X016650Y014867D01*
X016672Y014822D01*
X016697Y014780D01*
X016726Y014739D01*
X016758Y014701D01*
X016792Y014665D01*
X016829Y014632D01*
X016869Y014601D01*
X016911Y014574D01*
X016955Y014550D01*
X017000Y014530D01*
X017047Y014513D01*
X017095Y014500D01*
X017144Y014491D01*
X017193Y014485D01*
X017243Y014483D01*
X015443Y017983D02*
X015443Y020283D01*
X008443Y020283D01*
X008443Y019533D01*
X008482Y019531D01*
X008521Y019525D01*
X008559Y019516D01*
X008596Y019503D01*
X008632Y019486D01*
X008665Y019466D01*
X008697Y019442D01*
X008726Y019416D01*
X008752Y019387D01*
X008776Y019355D01*
X008796Y019322D01*
X008813Y019286D01*
X008826Y019249D01*
X008835Y019211D01*
X008841Y019172D01*
X008843Y019133D01*
X008841Y019094D01*
X008835Y019055D01*
X008826Y019017D01*
X008813Y018980D01*
X008796Y018944D01*
X008776Y018911D01*
X008752Y018879D01*
X008726Y018850D01*
X008697Y018824D01*
X008665Y018800D01*
X008632Y018780D01*
X008596Y018763D01*
X008559Y018750D01*
X008521Y018741D01*
X008482Y018735D01*
X008443Y018733D01*
X008443Y017983D01*
X015443Y017983D01*
X015346Y021680D02*
X015096Y021930D01*
X014846Y021680D01*
X014346Y021680D01*
X014096Y021930D01*
X013846Y021680D01*
X013346Y021680D01*
X013096Y021930D01*
X012846Y021680D01*
X012346Y021680D01*
X012096Y021930D01*
X011846Y021680D01*
X011346Y021680D01*
X011096Y021930D01*
X010846Y021680D01*
X010346Y021680D01*
X010096Y021930D01*
X009846Y021680D01*
X009346Y021680D01*
X009096Y021930D01*
X008846Y021680D01*
X008346Y021680D01*
X008096Y021930D01*
X007846Y021680D01*
X007346Y021680D01*
X007096Y021930D01*
X006846Y021680D01*
X006346Y021680D01*
X006096Y021930D01*
X005846Y021680D01*
X005346Y021680D01*
X005096Y021930D01*
X004846Y021680D01*
X004346Y021680D01*
X004096Y021930D01*
X004096Y022430D01*
X004346Y022680D01*
X004846Y022680D01*
X005096Y022430D01*
X005346Y022680D01*
X005846Y022680D01*
X006096Y022430D01*
X006096Y021930D01*
X007096Y021930D02*
X007096Y022430D01*
X007346Y022680D01*
X007846Y022680D01*
X008096Y022430D01*
X008346Y022680D01*
X008846Y022680D01*
X009096Y022430D01*
X009096Y021930D01*
X008096Y021930D02*
X008096Y022430D01*
X007096Y022430D02*
X006846Y022680D01*
X006346Y022680D01*
X006096Y022430D01*
X005096Y022430D02*
X005096Y021930D01*
X001061Y022180D02*
X001063Y022253D01*
X001069Y022326D01*
X001079Y022398D01*
X001093Y022470D01*
X001110Y022541D01*
X001132Y022611D01*
X001157Y022680D01*
X001186Y022747D01*
X001218Y022812D01*
X001254Y022876D01*
X001294Y022938D01*
X001336Y022997D01*
X001382Y023054D01*
X001431Y023108D01*
X001483Y023160D01*
X001537Y023209D01*
X001594Y023255D01*
X001653Y023297D01*
X001715Y023337D01*
X001779Y023373D01*
X001844Y023405D01*
X001911Y023434D01*
X001980Y023459D01*
X002050Y023481D01*
X002121Y023498D01*
X002193Y023512D01*
X002265Y023522D01*
X002338Y023528D01*
X002411Y023530D01*
X002484Y023528D01*
X002557Y023522D01*
X002629Y023512D01*
X002701Y023498D01*
X002772Y023481D01*
X002842Y023459D01*
X002911Y023434D01*
X002978Y023405D01*
X003043Y023373D01*
X003107Y023337D01*
X003169Y023297D01*
X003228Y023255D01*
X003285Y023209D01*
X003339Y023160D01*
X003391Y023108D01*
X003440Y023054D01*
X003486Y022997D01*
X003528Y022938D01*
X003568Y022876D01*
X003604Y022812D01*
X003636Y022747D01*
X003665Y022680D01*
X003690Y022611D01*
X003712Y022541D01*
X003729Y022470D01*
X003743Y022398D01*
X003753Y022326D01*
X003759Y022253D01*
X003761Y022180D01*
X003759Y022107D01*
X003753Y022034D01*
X003743Y021962D01*
X003729Y021890D01*
X003712Y021819D01*
X003690Y021749D01*
X003665Y021680D01*
X003636Y021613D01*
X003604Y021548D01*
X003568Y021484D01*
X003528Y021422D01*
X003486Y021363D01*
X003440Y021306D01*
X003391Y021252D01*
X003339Y021200D01*
X003285Y021151D01*
X003228Y021105D01*
X003169Y021063D01*
X003107Y021023D01*
X003043Y020987D01*
X002978Y020955D01*
X002911Y020926D01*
X002842Y020901D01*
X002772Y020879D01*
X002701Y020862D01*
X002629Y020848D01*
X002557Y020838D01*
X002484Y020832D01*
X002411Y020830D01*
X002338Y020832D01*
X002265Y020838D01*
X002193Y020848D01*
X002121Y020862D01*
X002050Y020879D01*
X001980Y020901D01*
X001911Y020926D01*
X001844Y020955D01*
X001779Y020987D01*
X001715Y021023D01*
X001653Y021063D01*
X001594Y021105D01*
X001537Y021151D01*
X001483Y021200D01*
X001431Y021252D01*
X001382Y021306D01*
X001336Y021363D01*
X001294Y021422D01*
X001254Y021484D01*
X001218Y021548D01*
X001186Y021613D01*
X001157Y021680D01*
X001132Y021749D01*
X001110Y021819D01*
X001093Y021890D01*
X001079Y021962D01*
X001069Y022034D01*
X001063Y022107D01*
X001061Y022180D01*
X009096Y022430D02*
X009346Y022680D01*
X009846Y022680D01*
X010096Y022430D01*
X010346Y022680D01*
X010846Y022680D01*
X011096Y022430D01*
X011346Y022680D01*
X011846Y022680D01*
X012096Y022430D01*
X012096Y021930D01*
X011096Y021930D02*
X011096Y022430D01*
X010096Y022430D02*
X010096Y021930D01*
X012096Y022430D02*
X012346Y022680D01*
X012846Y022680D01*
X013096Y022430D01*
X013346Y022680D01*
X013846Y022680D01*
X014096Y022430D01*
X014346Y022680D01*
X014846Y022680D01*
X015096Y022430D01*
X015096Y021930D01*
X015346Y021680D02*
X015846Y021680D01*
X016096Y021930D01*
X016346Y021680D01*
X016846Y021680D01*
X017096Y021930D01*
X017346Y021680D01*
X017846Y021680D01*
X018096Y021930D01*
X018096Y022430D01*
X017846Y022680D01*
X017346Y022680D01*
X017096Y022430D01*
X017096Y021930D01*
X018096Y021930D02*
X018346Y021680D01*
X018846Y021680D01*
X019096Y021930D01*
X019346Y021680D01*
X019846Y021680D01*
X020096Y021930D01*
X020096Y022430D01*
X019846Y022680D01*
X019346Y022680D01*
X019096Y022430D01*
X019096Y021930D01*
X019096Y022430D02*
X018846Y022680D01*
X018346Y022680D01*
X018096Y022430D01*
X017096Y022430D02*
X016846Y022680D01*
X016346Y022680D01*
X016096Y022430D01*
X016096Y021930D01*
X016096Y022430D02*
X015846Y022680D01*
X015346Y022680D01*
X015096Y022430D01*
X014096Y022430D02*
X014096Y021930D01*
X013096Y021930D02*
X013096Y022430D01*
X025293Y017133D02*
X026043Y017133D01*
X026045Y017094D01*
X026051Y017055D01*
X026060Y017017D01*
X026073Y016980D01*
X026090Y016944D01*
X026110Y016911D01*
X026134Y016879D01*
X026160Y016850D01*
X026189Y016824D01*
X026221Y016800D01*
X026254Y016780D01*
X026290Y016763D01*
X026327Y016750D01*
X026365Y016741D01*
X026404Y016735D01*
X026443Y016733D01*
X026482Y016735D01*
X026521Y016741D01*
X026559Y016750D01*
X026596Y016763D01*
X026632Y016780D01*
X026665Y016800D01*
X026697Y016824D01*
X026726Y016850D01*
X026752Y016879D01*
X026776Y016911D01*
X026796Y016944D01*
X026813Y016980D01*
X026826Y017017D01*
X026835Y017055D01*
X026841Y017094D01*
X026843Y017133D01*
X027593Y017133D01*
X027593Y010133D01*
X025293Y010133D01*
X025293Y017133D01*
X030589Y022180D02*
X030591Y022253D01*
X030597Y022326D01*
X030607Y022398D01*
X030621Y022470D01*
X030638Y022541D01*
X030660Y022611D01*
X030685Y022680D01*
X030714Y022747D01*
X030746Y022812D01*
X030782Y022876D01*
X030822Y022938D01*
X030864Y022997D01*
X030910Y023054D01*
X030959Y023108D01*
X031011Y023160D01*
X031065Y023209D01*
X031122Y023255D01*
X031181Y023297D01*
X031243Y023337D01*
X031307Y023373D01*
X031372Y023405D01*
X031439Y023434D01*
X031508Y023459D01*
X031578Y023481D01*
X031649Y023498D01*
X031721Y023512D01*
X031793Y023522D01*
X031866Y023528D01*
X031939Y023530D01*
X032012Y023528D01*
X032085Y023522D01*
X032157Y023512D01*
X032229Y023498D01*
X032300Y023481D01*
X032370Y023459D01*
X032439Y023434D01*
X032506Y023405D01*
X032571Y023373D01*
X032635Y023337D01*
X032697Y023297D01*
X032756Y023255D01*
X032813Y023209D01*
X032867Y023160D01*
X032919Y023108D01*
X032968Y023054D01*
X033014Y022997D01*
X033056Y022938D01*
X033096Y022876D01*
X033132Y022812D01*
X033164Y022747D01*
X033193Y022680D01*
X033218Y022611D01*
X033240Y022541D01*
X033257Y022470D01*
X033271Y022398D01*
X033281Y022326D01*
X033287Y022253D01*
X033289Y022180D01*
X033287Y022107D01*
X033281Y022034D01*
X033271Y021962D01*
X033257Y021890D01*
X033240Y021819D01*
X033218Y021749D01*
X033193Y021680D01*
X033164Y021613D01*
X033132Y021548D01*
X033096Y021484D01*
X033056Y021422D01*
X033014Y021363D01*
X032968Y021306D01*
X032919Y021252D01*
X032867Y021200D01*
X032813Y021151D01*
X032756Y021105D01*
X032697Y021063D01*
X032635Y021023D01*
X032571Y020987D01*
X032506Y020955D01*
X032439Y020926D01*
X032370Y020901D01*
X032300Y020879D01*
X032229Y020862D01*
X032157Y020848D01*
X032085Y020838D01*
X032012Y020832D01*
X031939Y020830D01*
X031866Y020832D01*
X031793Y020838D01*
X031721Y020848D01*
X031649Y020862D01*
X031578Y020879D01*
X031508Y020901D01*
X031439Y020926D01*
X031372Y020955D01*
X031307Y020987D01*
X031243Y021023D01*
X031181Y021063D01*
X031122Y021105D01*
X031065Y021151D01*
X031011Y021200D01*
X030959Y021252D01*
X030910Y021306D01*
X030864Y021363D01*
X030822Y021422D01*
X030782Y021484D01*
X030746Y021548D01*
X030714Y021613D01*
X030685Y021680D01*
X030660Y021749D01*
X030638Y021819D01*
X030621Y021890D01*
X030607Y021962D01*
X030597Y022034D01*
X030591Y022107D01*
X030589Y022180D01*
X035110Y021232D02*
X035310Y021032D01*
X039360Y021032D01*
X039360Y020932D01*
X039360Y013632D01*
X039360Y013532D01*
X035310Y013532D01*
X035110Y013332D01*
X035110Y011382D01*
X035310Y011182D01*
X039310Y011182D01*
X039360Y011182D01*
X039360Y013182D01*
X039360Y013532D01*
X039360Y013632D02*
X039060Y013632D01*
X039060Y020932D01*
X039360Y020932D01*
X039360Y021032D02*
X039360Y021382D01*
X039360Y023382D01*
X039310Y023382D01*
X035360Y023382D01*
X035110Y023132D01*
X035110Y021232D01*
X035710Y022212D02*
X035712Y022262D01*
X035718Y022312D01*
X035728Y022362D01*
X035741Y022410D01*
X035758Y022458D01*
X035779Y022504D01*
X035803Y022548D01*
X035831Y022590D01*
X035862Y022630D01*
X035896Y022667D01*
X035933Y022702D01*
X035972Y022733D01*
X036013Y022762D01*
X036057Y022787D01*
X036103Y022809D01*
X036150Y022827D01*
X036198Y022841D01*
X036247Y022852D01*
X036297Y022859D01*
X036347Y022862D01*
X036398Y022861D01*
X036448Y022856D01*
X036498Y022847D01*
X036546Y022835D01*
X036594Y022818D01*
X036640Y022798D01*
X036685Y022775D01*
X036728Y022748D01*
X036768Y022718D01*
X036806Y022685D01*
X036841Y022649D01*
X036874Y022610D01*
X036903Y022569D01*
X036929Y022526D01*
X036952Y022481D01*
X036971Y022434D01*
X036986Y022386D01*
X036998Y022337D01*
X037006Y022287D01*
X037010Y022237D01*
X037010Y022187D01*
X037006Y022137D01*
X036998Y022087D01*
X036986Y022038D01*
X036971Y021990D01*
X036952Y021943D01*
X036929Y021898D01*
X036903Y021855D01*
X036874Y021814D01*
X036841Y021775D01*
X036806Y021739D01*
X036768Y021706D01*
X036728Y021676D01*
X036685Y021649D01*
X036640Y021626D01*
X036594Y021606D01*
X036546Y021589D01*
X036498Y021577D01*
X036448Y021568D01*
X036398Y021563D01*
X036347Y021562D01*
X036297Y021565D01*
X036247Y021572D01*
X036198Y021583D01*
X036150Y021597D01*
X036103Y021615D01*
X036057Y021637D01*
X036013Y021662D01*
X035972Y021691D01*
X035933Y021722D01*
X035896Y021757D01*
X035862Y021794D01*
X035831Y021834D01*
X035803Y021876D01*
X035779Y021920D01*
X035758Y021966D01*
X035741Y022014D01*
X035728Y022062D01*
X035718Y022112D01*
X035712Y022162D01*
X035710Y022212D01*
X039360Y023382D02*
X040560Y023382D01*
X040760Y023382D01*
X040760Y022382D01*
X040760Y021382D01*
X040760Y013182D01*
X040560Y013182D01*
X040560Y013232D01*
X039610Y013232D01*
X039580Y013234D01*
X039550Y013239D01*
X039521Y013248D01*
X039494Y013261D01*
X039468Y013276D01*
X039444Y013295D01*
X039423Y013316D01*
X039404Y013340D01*
X039389Y013366D01*
X039376Y013393D01*
X039367Y013422D01*
X039362Y013452D01*
X039360Y013482D01*
X040760Y013182D02*
X040760Y012182D01*
X040760Y011182D01*
X040560Y011182D01*
X039360Y011182D01*
X040760Y011182D02*
X040960Y011182D01*
X040960Y014232D01*
X040960Y020332D01*
X040960Y023382D01*
X040760Y023382D01*
X040760Y021382D02*
X040560Y021382D01*
X040560Y021332D01*
X039610Y021332D01*
X039580Y021330D01*
X039550Y021325D01*
X039521Y021316D01*
X039494Y021303D01*
X039468Y021288D01*
X039444Y021269D01*
X039423Y021248D01*
X039404Y021224D01*
X039389Y021198D01*
X039376Y021171D01*
X039367Y021142D01*
X039362Y021112D01*
X039360Y021082D01*
X035710Y012352D02*
X035712Y012402D01*
X035718Y012452D01*
X035728Y012502D01*
X035741Y012550D01*
X035758Y012598D01*
X035779Y012644D01*
X035803Y012688D01*
X035831Y012730D01*
X035862Y012770D01*
X035896Y012807D01*
X035933Y012842D01*
X035972Y012873D01*
X036013Y012902D01*
X036057Y012927D01*
X036103Y012949D01*
X036150Y012967D01*
X036198Y012981D01*
X036247Y012992D01*
X036297Y012999D01*
X036347Y013002D01*
X036398Y013001D01*
X036448Y012996D01*
X036498Y012987D01*
X036546Y012975D01*
X036594Y012958D01*
X036640Y012938D01*
X036685Y012915D01*
X036728Y012888D01*
X036768Y012858D01*
X036806Y012825D01*
X036841Y012789D01*
X036874Y012750D01*
X036903Y012709D01*
X036929Y012666D01*
X036952Y012621D01*
X036971Y012574D01*
X036986Y012526D01*
X036998Y012477D01*
X037006Y012427D01*
X037010Y012377D01*
X037010Y012327D01*
X037006Y012277D01*
X036998Y012227D01*
X036986Y012178D01*
X036971Y012130D01*
X036952Y012083D01*
X036929Y012038D01*
X036903Y011995D01*
X036874Y011954D01*
X036841Y011915D01*
X036806Y011879D01*
X036768Y011846D01*
X036728Y011816D01*
X036685Y011789D01*
X036640Y011766D01*
X036594Y011746D01*
X036546Y011729D01*
X036498Y011717D01*
X036448Y011708D01*
X036398Y011703D01*
X036347Y011702D01*
X036297Y011705D01*
X036247Y011712D01*
X036198Y011723D01*
X036150Y011737D01*
X036103Y011755D01*
X036057Y011777D01*
X036013Y011802D01*
X035972Y011831D01*
X035933Y011862D01*
X035896Y011897D01*
X035862Y011934D01*
X035831Y011974D01*
X035803Y012016D01*
X035779Y012060D01*
X035758Y012106D01*
X035741Y012154D01*
X035728Y012202D01*
X035718Y012252D01*
X035712Y012302D01*
X035710Y012352D01*
X030589Y009975D02*
X030591Y010048D01*
X030597Y010121D01*
X030607Y010193D01*
X030621Y010265D01*
X030638Y010336D01*
X030660Y010406D01*
X030685Y010475D01*
X030714Y010542D01*
X030746Y010607D01*
X030782Y010671D01*
X030822Y010733D01*
X030864Y010792D01*
X030910Y010849D01*
X030959Y010903D01*
X031011Y010955D01*
X031065Y011004D01*
X031122Y011050D01*
X031181Y011092D01*
X031243Y011132D01*
X031307Y011168D01*
X031372Y011200D01*
X031439Y011229D01*
X031508Y011254D01*
X031578Y011276D01*
X031649Y011293D01*
X031721Y011307D01*
X031793Y011317D01*
X031866Y011323D01*
X031939Y011325D01*
X032012Y011323D01*
X032085Y011317D01*
X032157Y011307D01*
X032229Y011293D01*
X032300Y011276D01*
X032370Y011254D01*
X032439Y011229D01*
X032506Y011200D01*
X032571Y011168D01*
X032635Y011132D01*
X032697Y011092D01*
X032756Y011050D01*
X032813Y011004D01*
X032867Y010955D01*
X032919Y010903D01*
X032968Y010849D01*
X033014Y010792D01*
X033056Y010733D01*
X033096Y010671D01*
X033132Y010607D01*
X033164Y010542D01*
X033193Y010475D01*
X033218Y010406D01*
X033240Y010336D01*
X033257Y010265D01*
X033271Y010193D01*
X033281Y010121D01*
X033287Y010048D01*
X033289Y009975D01*
X033287Y009902D01*
X033281Y009829D01*
X033271Y009757D01*
X033257Y009685D01*
X033240Y009614D01*
X033218Y009544D01*
X033193Y009475D01*
X033164Y009408D01*
X033132Y009343D01*
X033096Y009279D01*
X033056Y009217D01*
X033014Y009158D01*
X032968Y009101D01*
X032919Y009047D01*
X032867Y008995D01*
X032813Y008946D01*
X032756Y008900D01*
X032697Y008858D01*
X032635Y008818D01*
X032571Y008782D01*
X032506Y008750D01*
X032439Y008721D01*
X032370Y008696D01*
X032300Y008674D01*
X032229Y008657D01*
X032157Y008643D01*
X032085Y008633D01*
X032012Y008627D01*
X031939Y008625D01*
X031866Y008627D01*
X031793Y008633D01*
X031721Y008643D01*
X031649Y008657D01*
X031578Y008674D01*
X031508Y008696D01*
X031439Y008721D01*
X031372Y008750D01*
X031307Y008782D01*
X031243Y008818D01*
X031181Y008858D01*
X031122Y008900D01*
X031065Y008946D01*
X031011Y008995D01*
X030959Y009047D01*
X030910Y009101D01*
X030864Y009158D01*
X030822Y009217D01*
X030782Y009279D01*
X030746Y009343D01*
X030714Y009408D01*
X030685Y009475D01*
X030660Y009544D01*
X030638Y009614D01*
X030621Y009685D01*
X030607Y009757D01*
X030597Y009829D01*
X030591Y009902D01*
X030589Y009975D01*
X001061Y009975D02*
X001063Y010048D01*
X001069Y010121D01*
X001079Y010193D01*
X001093Y010265D01*
X001110Y010336D01*
X001132Y010406D01*
X001157Y010475D01*
X001186Y010542D01*
X001218Y010607D01*
X001254Y010671D01*
X001294Y010733D01*
X001336Y010792D01*
X001382Y010849D01*
X001431Y010903D01*
X001483Y010955D01*
X001537Y011004D01*
X001594Y011050D01*
X001653Y011092D01*
X001715Y011132D01*
X001779Y011168D01*
X001844Y011200D01*
X001911Y011229D01*
X001980Y011254D01*
X002050Y011276D01*
X002121Y011293D01*
X002193Y011307D01*
X002265Y011317D01*
X002338Y011323D01*
X002411Y011325D01*
X002484Y011323D01*
X002557Y011317D01*
X002629Y011307D01*
X002701Y011293D01*
X002772Y011276D01*
X002842Y011254D01*
X002911Y011229D01*
X002978Y011200D01*
X003043Y011168D01*
X003107Y011132D01*
X003169Y011092D01*
X003228Y011050D01*
X003285Y011004D01*
X003339Y010955D01*
X003391Y010903D01*
X003440Y010849D01*
X003486Y010792D01*
X003528Y010733D01*
X003568Y010671D01*
X003604Y010607D01*
X003636Y010542D01*
X003665Y010475D01*
X003690Y010406D01*
X003712Y010336D01*
X003729Y010265D01*
X003743Y010193D01*
X003753Y010121D01*
X003759Y010048D01*
X003761Y009975D01*
X003759Y009902D01*
X003753Y009829D01*
X003743Y009757D01*
X003729Y009685D01*
X003712Y009614D01*
X003690Y009544D01*
X003665Y009475D01*
X003636Y009408D01*
X003604Y009343D01*
X003568Y009279D01*
X003528Y009217D01*
X003486Y009158D01*
X003440Y009101D01*
X003391Y009047D01*
X003339Y008995D01*
X003285Y008946D01*
X003228Y008900D01*
X003169Y008858D01*
X003107Y008818D01*
X003043Y008782D01*
X002978Y008750D01*
X002911Y008721D01*
X002842Y008696D01*
X002772Y008674D01*
X002701Y008657D01*
X002629Y008643D01*
X002557Y008633D01*
X002484Y008627D01*
X002411Y008625D01*
X002338Y008627D01*
X002265Y008633D01*
X002193Y008643D01*
X002121Y008657D01*
X002050Y008674D01*
X001980Y008696D01*
X001911Y008721D01*
X001844Y008750D01*
X001779Y008782D01*
X001715Y008818D01*
X001653Y008858D01*
X001594Y008900D01*
X001537Y008946D01*
X001483Y008995D01*
X001431Y009047D01*
X001382Y009101D01*
X001336Y009158D01*
X001294Y009217D01*
X001254Y009279D01*
X001218Y009343D01*
X001186Y009408D01*
X001157Y009475D01*
X001132Y009544D01*
X001110Y009614D01*
X001093Y009685D01*
X001079Y009757D01*
X001069Y009829D01*
X001063Y009902D01*
X001061Y009975D01*
D13*
X005581Y010230D02*
X005658Y010153D01*
X005812Y010153D01*
X005888Y010230D01*
X006042Y010153D02*
X006349Y010153D01*
X006195Y010153D02*
X006195Y010613D01*
X006042Y010460D01*
X005888Y010537D02*
X005812Y010613D01*
X005658Y010613D01*
X005581Y010537D01*
X005581Y010230D01*
X005789Y010703D02*
X005943Y010703D01*
X006019Y010780D01*
X006019Y011163D01*
X006173Y011087D02*
X006250Y011163D01*
X006403Y011163D01*
X006480Y011087D01*
X006403Y010933D02*
X006250Y010933D01*
X006173Y011010D01*
X006173Y011087D01*
X006326Y011240D02*
X006326Y010626D01*
X006250Y010703D02*
X006403Y010703D01*
X006480Y010780D01*
X006480Y010856D01*
X006403Y010933D01*
X006633Y010933D02*
X006864Y011163D01*
X006864Y010703D01*
X006732Y010613D02*
X006809Y010537D01*
X006809Y010460D01*
X006732Y010383D01*
X006809Y010306D01*
X006809Y010230D01*
X006732Y010153D01*
X006579Y010153D01*
X006502Y010230D01*
X006656Y010383D02*
X006732Y010383D01*
X006732Y010613D02*
X006579Y010613D01*
X006502Y010537D01*
X006250Y010703D02*
X006173Y010780D01*
X005789Y010703D02*
X005713Y010780D01*
X005713Y011163D01*
X006633Y010933D02*
X006940Y010933D01*
X007662Y011703D02*
X008046Y011703D01*
X008123Y011780D01*
X008123Y011933D01*
X008046Y012010D01*
X007662Y012010D01*
X007739Y012163D02*
X007662Y012240D01*
X007662Y012393D01*
X007739Y012470D01*
X007892Y012393D02*
X007892Y012240D01*
X007816Y012163D01*
X007739Y012163D01*
X007585Y012317D02*
X008199Y012317D01*
X008123Y012393D02*
X008046Y012470D01*
X007969Y012470D01*
X007892Y012393D01*
X008123Y012393D02*
X008123Y012240D01*
X008046Y012163D01*
X008123Y012624D02*
X008123Y012931D01*
X008123Y012777D02*
X007662Y012777D01*
X007816Y012624D01*
X006999Y012767D02*
X006385Y012767D01*
X006462Y012690D02*
X006462Y012843D01*
X006539Y012920D01*
X006692Y012843D02*
X006692Y012690D01*
X006616Y012613D01*
X006539Y012613D01*
X006462Y012690D01*
X006462Y012460D02*
X006846Y012460D01*
X006923Y012383D01*
X006923Y012230D01*
X006846Y012153D01*
X006462Y012153D01*
X006846Y012613D02*
X006923Y012690D01*
X006923Y012843D01*
X006846Y012920D01*
X006769Y012920D01*
X006692Y012843D01*
X006616Y013074D02*
X006462Y013227D01*
X006923Y013227D01*
X006923Y013074D02*
X006923Y013381D01*
X006846Y013534D02*
X006923Y013611D01*
X006923Y013764D01*
X006846Y013841D01*
X006769Y013841D01*
X006692Y013764D01*
X006692Y013534D01*
X006846Y013534D01*
X006692Y013534D02*
X006539Y013688D01*
X006462Y013841D01*
X007662Y013391D02*
X007662Y013084D01*
X007892Y013084D01*
X007816Y013238D01*
X007816Y013314D01*
X007892Y013391D01*
X008046Y013391D01*
X008123Y013314D01*
X008123Y013161D01*
X008046Y013084D01*
X007962Y013772D02*
X007962Y014002D01*
X008039Y014079D01*
X008192Y014079D01*
X008269Y014002D01*
X008269Y013772D01*
X008269Y013925D02*
X008423Y014079D01*
X008423Y014232D02*
X008423Y014539D01*
X008423Y014386D02*
X007962Y014386D01*
X008116Y014232D01*
X008039Y014692D02*
X007962Y014769D01*
X007962Y014923D01*
X008039Y014999D01*
X008116Y014999D01*
X008423Y014692D01*
X008423Y014999D01*
X008423Y013772D02*
X007962Y013772D01*
X003610Y015683D02*
X003533Y015606D01*
X003610Y015683D02*
X003610Y015759D01*
X003533Y015836D01*
X003149Y015836D01*
X003149Y015759D02*
X003149Y015913D01*
X003226Y016066D02*
X003149Y016143D01*
X003149Y016296D01*
X003226Y016373D01*
X003303Y016373D01*
X003610Y016066D01*
X003610Y016373D01*
X006462Y016730D02*
X006539Y016653D01*
X006846Y016653D01*
X006923Y016730D01*
X006923Y016883D01*
X006846Y016960D01*
X006923Y017113D02*
X006923Y017420D01*
X006923Y017267D02*
X006462Y017267D01*
X006616Y017113D01*
X006539Y016960D02*
X006462Y016883D01*
X006462Y016730D01*
X006462Y017574D02*
X006692Y017574D01*
X006616Y017727D01*
X006616Y017804D01*
X006692Y017881D01*
X006846Y017881D01*
X006923Y017804D01*
X006923Y017650D01*
X006846Y017574D01*
X006462Y017574D02*
X006462Y017881D01*
X007998Y018250D02*
X008074Y018173D01*
X008381Y018173D01*
X008458Y018250D01*
X008458Y018403D01*
X008381Y018480D01*
X008458Y018634D02*
X008458Y018941D01*
X008458Y019094D02*
X008151Y019401D01*
X008074Y019401D01*
X007998Y019324D01*
X007998Y019171D01*
X008074Y019094D01*
X008458Y019094D02*
X008458Y019401D01*
X008458Y018787D02*
X007998Y018787D01*
X008151Y018634D01*
X008074Y018480D02*
X007998Y018403D01*
X007998Y018250D01*
X016963Y017537D02*
X016963Y017230D01*
X017039Y017153D01*
X017193Y017153D01*
X017269Y017230D01*
X017423Y017153D02*
X017730Y017460D01*
X017730Y017537D01*
X017653Y017613D01*
X017500Y017613D01*
X017423Y017537D01*
X017269Y017537D02*
X017193Y017613D01*
X017039Y017613D01*
X016963Y017537D01*
X017423Y017153D02*
X017730Y017153D01*
X017883Y017153D02*
X018190Y017460D01*
X018190Y017537D01*
X018114Y017613D01*
X017960Y017613D01*
X017883Y017537D01*
X017883Y017153D02*
X018190Y017153D01*
X018658Y016113D02*
X018581Y016037D01*
X018581Y015730D01*
X018658Y015653D01*
X018812Y015653D01*
X018888Y015730D01*
X019042Y015653D02*
X019349Y015960D01*
X019349Y016037D01*
X019272Y016113D01*
X019118Y016113D01*
X019042Y016037D01*
X018888Y016037D02*
X018812Y016113D01*
X018658Y016113D01*
X019042Y015653D02*
X019349Y015653D01*
X019502Y015653D02*
X019809Y015653D01*
X019656Y015653D02*
X019656Y016113D01*
X019502Y015960D01*
X023022Y014428D02*
X023252Y014428D01*
X023329Y014351D01*
X023329Y014198D01*
X023252Y014121D01*
X023022Y014121D01*
X023022Y013968D02*
X023022Y014428D01*
X023176Y014121D02*
X023329Y013968D01*
X023482Y013968D02*
X023482Y014045D01*
X023789Y014351D01*
X023789Y014428D01*
X023482Y014428D01*
X023712Y015061D02*
X024096Y015061D01*
X024173Y015138D01*
X024173Y015291D01*
X024096Y015368D01*
X023712Y015368D01*
X023789Y015522D02*
X023712Y015598D01*
X023712Y015752D01*
X023789Y015829D01*
X023866Y015982D02*
X023712Y016136D01*
X024173Y016136D01*
X024173Y016289D02*
X024173Y015982D01*
X024096Y015829D02*
X024019Y015829D01*
X023942Y015752D01*
X023942Y015598D01*
X023866Y015522D01*
X023789Y015522D01*
X023635Y015675D02*
X024249Y015675D01*
X024173Y015598D02*
X024173Y015752D01*
X024096Y015829D01*
X024173Y015598D02*
X024096Y015522D01*
X024173Y016442D02*
X023866Y016749D01*
X023789Y016749D01*
X023712Y016673D01*
X023712Y016519D01*
X023789Y016442D01*
X023924Y016653D02*
X023924Y017113D01*
X024154Y017113D01*
X024231Y017037D01*
X024231Y016883D01*
X024154Y016806D01*
X023924Y016806D01*
X024077Y016806D02*
X024231Y016653D01*
X024173Y016749D02*
X024173Y016442D01*
X024384Y016730D02*
X024384Y016806D01*
X024461Y016883D01*
X024614Y016883D01*
X024691Y016806D01*
X024691Y016730D01*
X024614Y016653D01*
X024461Y016653D01*
X024384Y016730D01*
X024461Y016883D02*
X024384Y016960D01*
X024384Y017037D01*
X024461Y017113D01*
X024614Y017113D01*
X024691Y017037D01*
X024691Y016960D01*
X024614Y016883D01*
X025276Y017653D02*
X025199Y017730D01*
X025199Y018037D01*
X025276Y018113D01*
X025429Y018113D01*
X025506Y018037D01*
X025660Y017883D02*
X025967Y017883D01*
X025890Y017653D02*
X025890Y018113D01*
X025660Y017883D01*
X025506Y017730D02*
X025429Y017653D01*
X025276Y017653D01*
X026217Y017592D02*
X026601Y017592D01*
X026677Y017669D01*
X026677Y017822D01*
X026601Y017899D01*
X026217Y017899D01*
X026294Y018053D02*
X026217Y018129D01*
X026217Y018283D01*
X026294Y018360D01*
X026370Y018513D02*
X026217Y018666D01*
X026677Y018666D01*
X026677Y018513D02*
X026677Y018820D01*
X026677Y018973D02*
X026677Y019280D01*
X026677Y019127D02*
X026217Y019127D01*
X026370Y018973D01*
X026524Y018360D02*
X026447Y018283D01*
X026447Y018129D01*
X026370Y018053D01*
X026294Y018053D01*
X026140Y018206D02*
X026754Y018206D01*
X026677Y018129D02*
X026677Y018283D01*
X026601Y018360D01*
X026524Y018360D01*
X026677Y018129D02*
X026601Y018053D01*
X027285Y018060D02*
X027362Y018137D01*
X027285Y018060D02*
X027285Y017907D01*
X027362Y017830D01*
X027669Y017830D01*
X027745Y017907D01*
X027745Y018060D01*
X027669Y018137D01*
X027745Y018290D02*
X027745Y018597D01*
X027745Y018444D02*
X027285Y018444D01*
X027438Y018290D01*
X027438Y018751D02*
X027285Y018904D01*
X027745Y018904D01*
X027745Y018751D02*
X027745Y019058D01*
X028344Y018942D02*
X028344Y018788D01*
X028421Y018711D01*
X028728Y018711D01*
X028421Y019018D01*
X028728Y019018D01*
X028804Y018942D01*
X028804Y018788D01*
X028728Y018711D01*
X028804Y018558D02*
X028804Y018251D01*
X028804Y018098D02*
X028651Y017944D01*
X028651Y018021D02*
X028651Y017791D01*
X028804Y017791D02*
X028344Y017791D01*
X028344Y018021D01*
X028421Y018098D01*
X028574Y018098D01*
X028651Y018021D01*
X028497Y018251D02*
X028344Y018405D01*
X028804Y018405D01*
X028344Y018942D02*
X028421Y019018D01*
X030542Y018037D02*
X030542Y017730D01*
X030618Y017653D01*
X030772Y017653D01*
X030849Y017730D01*
X031002Y017730D02*
X031002Y017806D01*
X031079Y017883D01*
X031232Y017883D01*
X031309Y017806D01*
X031309Y017730D01*
X031232Y017653D01*
X031079Y017653D01*
X031002Y017730D01*
X031116Y017613D02*
X031116Y017153D01*
X030963Y017153D02*
X031269Y017153D01*
X031336Y017143D02*
X031259Y017066D01*
X031259Y016913D01*
X031336Y016836D01*
X031413Y016836D01*
X031490Y016913D01*
X031490Y017143D01*
X031643Y017143D02*
X031336Y017143D01*
X031643Y017143D02*
X031720Y017066D01*
X031720Y016913D01*
X031643Y016836D01*
X031643Y016683D02*
X031566Y016683D01*
X031490Y016606D01*
X031490Y016453D01*
X031413Y016376D01*
X031336Y016376D01*
X031259Y016453D01*
X031259Y016606D01*
X031336Y016683D01*
X031183Y016529D02*
X031796Y016529D01*
X031720Y016453D02*
X031643Y016376D01*
X031720Y016453D02*
X031720Y016606D01*
X031643Y016683D01*
X031643Y016222D02*
X031259Y016222D01*
X031643Y016222D02*
X031720Y016146D01*
X031720Y015992D01*
X031643Y015915D01*
X031259Y015915D01*
X030403Y015942D02*
X030403Y015789D01*
X030326Y015712D01*
X030326Y015559D02*
X030403Y015482D01*
X030403Y015329D01*
X030326Y015252D01*
X030019Y015252D01*
X029942Y015329D01*
X029942Y015482D01*
X030019Y015559D01*
X030019Y015712D02*
X030096Y015712D01*
X030173Y015789D01*
X030173Y016019D01*
X030326Y016019D02*
X030019Y016019D01*
X029942Y015942D01*
X029942Y015789D01*
X030019Y015712D01*
X030326Y016019D02*
X030403Y015942D01*
X030963Y017460D02*
X031116Y017613D01*
X031079Y017883D02*
X031002Y017960D01*
X031002Y018037D01*
X031079Y018113D01*
X031232Y018113D01*
X031309Y018037D01*
X031309Y017960D01*
X031232Y017883D01*
X030849Y018037D02*
X030772Y018113D01*
X030618Y018113D01*
X030542Y018037D01*
X032463Y019230D02*
X032539Y019153D01*
X032693Y019153D01*
X032769Y019230D01*
X032923Y019230D02*
X033000Y019153D01*
X033153Y019153D01*
X033230Y019230D01*
X033230Y019306D01*
X033153Y019383D01*
X033076Y019383D01*
X033153Y019383D02*
X033230Y019460D01*
X033230Y019537D01*
X033153Y019613D01*
X033000Y019613D01*
X032923Y019537D01*
X032769Y019537D02*
X032693Y019613D01*
X032539Y019613D01*
X032463Y019537D01*
X032463Y019230D01*
X034962Y018423D02*
X034962Y018269D01*
X035039Y018192D01*
X035346Y018192D01*
X035039Y018499D01*
X035346Y018499D01*
X035423Y018423D01*
X035423Y018269D01*
X035346Y018192D01*
X035423Y018039D02*
X035423Y017732D01*
X035423Y017886D02*
X034962Y017886D01*
X035116Y017732D01*
X035039Y017579D02*
X034962Y017502D01*
X034962Y017348D01*
X035039Y017272D01*
X035346Y017272D01*
X035423Y017348D01*
X035423Y017502D01*
X035346Y017579D01*
X034962Y018423D02*
X035039Y018499D01*
X028288Y023151D02*
X027981Y023151D01*
X027828Y023228D02*
X027521Y023228D01*
X027521Y023688D01*
X027828Y023688D01*
X027674Y023458D02*
X027521Y023458D01*
X027367Y023228D02*
X027367Y023688D01*
X027061Y023688D02*
X027367Y023228D01*
X027061Y023228D02*
X027061Y023688D01*
X026907Y023688D02*
X026754Y023688D01*
X026830Y023688D02*
X026830Y023228D01*
X026754Y023228D02*
X026907Y023228D01*
X026600Y023228D02*
X026293Y023228D01*
X026293Y023688D01*
X028442Y023688D02*
X028595Y023688D01*
X028518Y023688D02*
X028518Y023228D01*
X028442Y023228D02*
X028595Y023228D01*
X028749Y023228D02*
X028749Y023688D01*
X029056Y023228D01*
X029056Y023688D01*
X023568Y023700D02*
X023568Y023239D01*
X023261Y023700D01*
X023261Y023239D01*
X023107Y023239D02*
X022954Y023239D01*
X023031Y023239D02*
X023031Y023700D01*
X023107Y023700D02*
X022954Y023700D01*
X022340Y023623D02*
X022263Y023700D01*
X022110Y023700D01*
X022033Y023623D01*
X022033Y023316D01*
X022110Y023239D01*
X022263Y023239D01*
X022340Y023316D01*
X022493Y023163D02*
X022800Y023163D01*
X021880Y023239D02*
X021726Y023239D01*
X021803Y023239D02*
X021803Y023700D01*
X021726Y023700D02*
X021880Y023700D01*
X021573Y023700D02*
X021419Y023546D01*
X021266Y023700D01*
X021266Y023239D01*
X021573Y023239D02*
X021573Y023700D01*
X021500Y019613D02*
X021423Y019537D01*
X021423Y019460D01*
X021500Y019383D01*
X021730Y019383D01*
X021730Y019230D02*
X021730Y019537D01*
X021653Y019613D01*
X021500Y019613D01*
X021269Y019537D02*
X021269Y019383D01*
X021193Y019306D01*
X020963Y019306D01*
X021116Y019306D02*
X021269Y019153D01*
X021423Y019230D02*
X021500Y019153D01*
X021653Y019153D01*
X021730Y019230D01*
X020963Y019153D02*
X020963Y019613D01*
X021193Y019613D01*
X021269Y019537D01*
X021963Y018613D02*
X022193Y018613D01*
X022269Y018537D01*
X022269Y018383D01*
X022193Y018306D01*
X021963Y018306D01*
X022116Y018306D02*
X022269Y018153D01*
X022423Y018153D02*
X022730Y018153D01*
X022883Y018153D02*
X023190Y018153D01*
X023037Y018153D02*
X023037Y018613D01*
X022883Y018460D01*
X022576Y018613D02*
X022576Y018153D01*
X022423Y018460D02*
X022576Y018613D01*
X021963Y018613D02*
X021963Y018153D01*
X023039Y019153D02*
X023193Y019153D01*
X023269Y019230D01*
X023423Y019153D02*
X023730Y019153D01*
X023576Y019153D02*
X023576Y019613D01*
X023423Y019460D01*
X023269Y019537D02*
X023193Y019613D01*
X023039Y019613D01*
X022963Y019537D01*
X022963Y019230D01*
X023039Y019153D01*
X023883Y019230D02*
X023960Y019153D01*
X024114Y019153D01*
X024190Y019230D01*
X024190Y019306D01*
X024114Y019383D01*
X023883Y019383D01*
X023883Y019230D01*
X023883Y019383D02*
X024037Y019537D01*
X024190Y019613D01*
X023612Y013381D02*
X023459Y013304D01*
X023305Y013151D01*
X023535Y013151D01*
X023612Y013074D01*
X023612Y012997D01*
X023535Y012921D01*
X023382Y012921D01*
X023305Y012997D01*
X023305Y013151D01*
X023152Y013304D02*
X023075Y013381D01*
X022922Y013381D01*
X022845Y013304D01*
X022845Y012997D01*
X022922Y012921D01*
X023075Y012921D01*
X023152Y012997D01*
X023061Y012275D02*
X023292Y012275D01*
X023368Y012198D01*
X023368Y012044D01*
X023292Y011968D01*
X023061Y011968D01*
X023061Y011814D02*
X023061Y012275D01*
X023215Y011968D02*
X023368Y011814D01*
X023522Y011891D02*
X023599Y011814D01*
X023752Y011814D01*
X023829Y011891D01*
X023829Y011968D01*
X023752Y012044D01*
X023522Y012044D01*
X023522Y011891D01*
X023522Y012044D02*
X023675Y012198D01*
X023829Y012275D01*
X023867Y011783D02*
X023944Y011783D01*
X024021Y011706D01*
X024021Y011553D01*
X023944Y011476D01*
X024021Y011322D02*
X024021Y011016D01*
X023714Y011322D01*
X023637Y011322D01*
X023561Y011246D01*
X023561Y011092D01*
X023637Y011016D01*
X023637Y010862D02*
X023561Y010785D01*
X023561Y010632D01*
X023637Y010555D01*
X023944Y010555D01*
X024021Y010632D01*
X024021Y010785D01*
X023944Y010862D01*
X023637Y011476D02*
X023561Y011553D01*
X023561Y011706D01*
X023637Y011783D01*
X023714Y011783D01*
X023791Y011706D01*
X023867Y011783D01*
X023791Y011706D02*
X023791Y011629D01*
X025863Y010240D02*
X025863Y009857D01*
X025939Y009780D01*
X026093Y009780D01*
X026169Y009857D01*
X026169Y010240D01*
X026323Y010164D02*
X026400Y010240D01*
X026553Y010240D01*
X026630Y010164D01*
X026783Y010087D02*
X026937Y010240D01*
X026937Y009780D01*
X027090Y009780D02*
X026783Y009780D01*
X026630Y009857D02*
X026630Y009934D01*
X026553Y010010D01*
X026400Y010010D01*
X026323Y010087D01*
X026323Y010164D01*
X026476Y010317D02*
X026476Y009703D01*
X026400Y009780D02*
X026553Y009780D01*
X026630Y009857D01*
X026400Y009780D02*
X026323Y009857D01*
X027244Y009857D02*
X027320Y009780D01*
X027474Y009780D01*
X027551Y009857D01*
X027551Y009934D01*
X027474Y010010D01*
X027397Y010010D01*
X027474Y010010D02*
X027551Y010087D01*
X027551Y010164D01*
X027474Y010240D01*
X027320Y010240D01*
X027244Y010164D01*
X029552Y009939D02*
X030166Y009939D01*
X030089Y010015D02*
X030012Y010092D01*
X029936Y010092D01*
X029859Y010015D01*
X029859Y009862D01*
X029782Y009785D01*
X029705Y009785D01*
X029629Y009862D01*
X029629Y010015D01*
X029705Y010092D01*
X029782Y010245D02*
X029629Y010399D01*
X030089Y010399D01*
X030089Y010552D02*
X030089Y010245D01*
X030089Y010015D02*
X030089Y009862D01*
X030012Y009785D01*
X030012Y009632D02*
X029629Y009632D01*
X029629Y009325D02*
X030012Y009325D01*
X030089Y009401D01*
X030089Y009555D01*
X030012Y009632D01*
X030012Y010706D02*
X029705Y011013D01*
X030012Y011013D01*
X030089Y010936D01*
X030089Y010783D01*
X030012Y010706D01*
X029705Y010706D01*
X029629Y010783D01*
X029629Y010936D01*
X029705Y011013D01*
X028562Y012192D02*
X028255Y012192D01*
X028179Y012269D01*
X028179Y012422D01*
X028255Y012499D01*
X028179Y012653D02*
X028409Y012653D01*
X028332Y012806D01*
X028332Y012883D01*
X028409Y012960D01*
X028562Y012960D01*
X028639Y012883D01*
X028639Y012729D01*
X028562Y012653D01*
X028562Y012499D02*
X028639Y012422D01*
X028639Y012269D01*
X028562Y012192D01*
X028179Y012653D02*
X028179Y012960D01*
X031821Y012229D02*
X031821Y011923D01*
X031898Y011846D01*
X032051Y011846D01*
X032128Y011923D01*
X032282Y011923D02*
X032589Y012229D01*
X032589Y012306D01*
X032282Y012306D01*
X032128Y012229D02*
X032051Y012306D01*
X031898Y012306D01*
X031821Y012229D01*
X032282Y011923D02*
X032282Y011846D01*
X032985Y007065D02*
X032985Y006451D01*
X032903Y006509D02*
X032596Y006202D01*
X032596Y006125D01*
X032442Y006125D02*
X032136Y006125D01*
X032289Y006125D02*
X032289Y006586D01*
X032136Y006432D01*
X031982Y006509D02*
X031905Y006586D01*
X031752Y006586D01*
X031675Y006509D01*
X031675Y006202D01*
X031752Y006125D01*
X031905Y006125D01*
X031982Y006202D01*
X032371Y006605D02*
X032448Y006528D01*
X032601Y006528D01*
X032678Y006605D01*
X032678Y006988D01*
X032831Y006912D02*
X032908Y006988D01*
X033062Y006988D01*
X033138Y006912D01*
X033062Y006758D02*
X033138Y006681D01*
X033138Y006605D01*
X033062Y006528D01*
X032908Y006528D01*
X032831Y006605D01*
X032903Y006586D02*
X032903Y006509D01*
X032903Y006586D02*
X032596Y006586D01*
X032371Y006605D02*
X032371Y006988D01*
X032831Y006912D02*
X032831Y006835D01*
X032908Y006758D01*
X033062Y006758D01*
X033292Y006835D02*
X033445Y006988D01*
X033445Y006528D01*
X033292Y006528D02*
X033599Y006528D01*
X033752Y006758D02*
X034059Y006758D01*
X033982Y006528D02*
X033982Y006988D01*
X033752Y006758D01*
X033812Y005613D02*
X033888Y005537D01*
X033888Y005383D01*
X033812Y005306D01*
X033581Y005306D01*
X033581Y005153D02*
X033581Y005613D01*
X033812Y005613D01*
X034042Y005460D02*
X034195Y005613D01*
X034195Y005153D01*
X034192Y005074D02*
X034192Y005381D01*
X033962Y005304D02*
X034192Y005074D01*
X034042Y005153D02*
X034349Y005153D01*
X034423Y005304D02*
X033962Y005304D01*
X033888Y005153D02*
X033735Y005306D01*
X034502Y005230D02*
X034579Y005153D01*
X034732Y005153D01*
X034809Y005230D01*
X034809Y005383D01*
X034732Y005460D01*
X034656Y005460D01*
X034502Y005383D01*
X034502Y005613D01*
X034809Y005613D01*
X035581Y005037D02*
X035658Y005113D01*
X035812Y005113D01*
X035888Y005037D01*
X036042Y004960D02*
X036195Y005113D01*
X036195Y004653D01*
X036042Y004653D02*
X036349Y004653D01*
X036502Y004730D02*
X036502Y004806D01*
X036579Y004883D01*
X036732Y004883D01*
X036809Y004806D01*
X036809Y004730D01*
X036732Y004653D01*
X036579Y004653D01*
X036502Y004730D01*
X036579Y004883D02*
X036502Y004960D01*
X036502Y005037D01*
X036579Y005113D01*
X036732Y005113D01*
X036809Y005037D01*
X036809Y004960D01*
X036732Y004883D01*
X035888Y004730D02*
X035812Y004653D01*
X035658Y004653D01*
X035581Y004730D01*
X035581Y005037D01*
X034423Y004920D02*
X034423Y004613D01*
X034423Y004460D02*
X034269Y004306D01*
X034269Y004383D02*
X034269Y004153D01*
X034423Y004153D02*
X033962Y004153D01*
X033962Y004383D01*
X034039Y004460D01*
X034192Y004460D01*
X034269Y004383D01*
X034116Y004613D02*
X033962Y004767D01*
X034423Y004767D01*
X034346Y003381D02*
X034423Y003304D01*
X034423Y003150D01*
X034346Y003074D01*
X034423Y002920D02*
X034423Y002613D01*
X034423Y002460D02*
X034269Y002306D01*
X034269Y002383D02*
X034269Y002153D01*
X034423Y002153D02*
X033962Y002153D01*
X033962Y002383D01*
X034039Y002460D01*
X034192Y002460D01*
X034269Y002383D01*
X034116Y002613D02*
X033962Y002767D01*
X034423Y002767D01*
X034039Y003074D02*
X033962Y003150D01*
X033962Y003304D01*
X034039Y003381D01*
X034116Y003381D01*
X034192Y003304D01*
X034269Y003381D01*
X034346Y003381D01*
X034192Y003304D02*
X034192Y003227D01*
X033368Y000877D02*
X033061Y000877D01*
X032908Y000877D02*
X032908Y000493D01*
X032831Y000417D01*
X032678Y000417D01*
X032601Y000493D01*
X032601Y000877D01*
X032447Y000800D02*
X032371Y000877D01*
X032217Y000877D01*
X032140Y000800D01*
X032140Y000493D01*
X032217Y000417D01*
X032371Y000417D01*
X032447Y000493D01*
X032447Y000800D01*
X031987Y000340D02*
X031680Y000340D01*
X031527Y000417D02*
X031220Y000417D01*
X031220Y000877D01*
X031527Y000877D01*
X031373Y000647D02*
X031220Y000647D01*
X031066Y000417D02*
X031066Y000877D01*
X030759Y000877D02*
X031066Y000417D01*
X030759Y000417D02*
X030759Y000877D01*
X030606Y000877D02*
X030452Y000877D01*
X030529Y000877D02*
X030529Y000417D01*
X030452Y000417D02*
X030606Y000417D01*
X030299Y000417D02*
X029992Y000417D01*
X029992Y000877D01*
X028509Y000687D02*
X028432Y000763D01*
X028279Y000763D01*
X028202Y000687D01*
X028049Y000687D02*
X027972Y000763D01*
X027818Y000763D01*
X027742Y000687D01*
X027742Y000610D01*
X027818Y000533D01*
X027972Y000533D01*
X028049Y000456D01*
X028049Y000380D01*
X027972Y000303D01*
X027818Y000303D01*
X027742Y000380D01*
X027588Y000380D02*
X027588Y000763D01*
X027281Y000763D02*
X027281Y000380D01*
X027358Y000303D01*
X027512Y000303D01*
X027588Y000380D01*
X027895Y000226D02*
X027895Y000840D01*
X028202Y000303D02*
X028509Y000610D01*
X028509Y000687D01*
X028509Y000303D02*
X028202Y000303D01*
X033215Y000417D02*
X033215Y000877D01*
X036354Y000877D02*
X036354Y000417D01*
X036661Y000417D02*
X036661Y000877D01*
X036507Y000724D01*
X036354Y000877D01*
X036814Y000877D02*
X036968Y000877D01*
X036891Y000877D02*
X036891Y000417D01*
X036814Y000417D02*
X036968Y000417D01*
X037121Y000493D02*
X037198Y000417D01*
X037351Y000417D01*
X037428Y000493D01*
X037582Y000340D02*
X037889Y000340D01*
X038042Y000493D02*
X038119Y000417D01*
X038272Y000417D01*
X038349Y000493D01*
X038349Y000800D01*
X038272Y000877D01*
X038119Y000877D01*
X038042Y000800D01*
X038042Y000493D01*
X038502Y000493D02*
X038579Y000417D01*
X038733Y000417D01*
X038809Y000493D01*
X038809Y000877D01*
X038963Y000877D02*
X039270Y000877D01*
X039116Y000877D02*
X039116Y000417D01*
X038502Y000493D02*
X038502Y000877D01*
X037428Y000800D02*
X037351Y000877D01*
X037198Y000877D01*
X037121Y000800D01*
X037121Y000493D01*
X039863Y005566D02*
X039939Y005566D01*
X040016Y005643D01*
X040016Y006027D01*
X039939Y006027D02*
X040093Y006027D01*
X040246Y005873D02*
X040400Y006027D01*
X040400Y005566D01*
X040553Y005566D02*
X040246Y005566D01*
X039863Y005566D02*
X039786Y005643D01*
X030838Y005854D02*
X030531Y005854D01*
X030684Y006007D02*
X030684Y005700D01*
X029362Y005854D02*
X029055Y005854D01*
X029208Y006007D02*
X029208Y005700D01*
X023127Y005684D02*
X023127Y005377D01*
X022820Y005684D01*
X022744Y005684D01*
X022667Y005607D01*
X022667Y005454D01*
X022744Y005377D01*
X022744Y005224D02*
X022667Y005147D01*
X022667Y004993D01*
X022744Y004917D01*
X023051Y004917D01*
X023127Y004993D01*
X023127Y005147D01*
X023051Y005224D01*
X022132Y004143D02*
X022198Y004164D01*
X022262Y004189D01*
X022325Y004217D01*
X022387Y004248D01*
X022447Y004283D01*
X022504Y004322D01*
X022559Y004364D01*
X022612Y004408D01*
X022662Y004456D01*
X022710Y004506D01*
X022754Y004559D01*
X022796Y004615D01*
X022834Y004673D01*
X022869Y004732D01*
X022900Y004794D01*
X022928Y004857D01*
X022952Y004922D01*
X022972Y004988D01*
X022989Y005055D01*
X023002Y005123D01*
X023011Y005192D01*
X023016Y005261D01*
X023017Y005330D01*
X023014Y005399D01*
X023007Y005468D01*
X022997Y005537D01*
X022982Y005604D01*
X022964Y005671D01*
X022942Y005737D01*
X022916Y005801D01*
X022887Y005863D01*
X022854Y005924D01*
X022817Y005983D01*
X022778Y006040D01*
X022735Y006094D01*
X022689Y006146D01*
X022641Y006196D01*
X022589Y006242D01*
X022535Y006285D01*
X022479Y006326D01*
X022421Y006362D01*
X022360Y006396D01*
X022298Y006426D01*
X022234Y006453D01*
X022168Y006476D01*
X022102Y006495D01*
X022112Y006594D02*
X023076Y006594D01*
X023076Y004349D01*
X022761Y004034D01*
X020832Y004034D02*
X020517Y004349D01*
X020517Y006594D01*
X021521Y006594D01*
X021785Y007189D02*
X021785Y007419D01*
X021862Y007496D01*
X022015Y007496D01*
X022092Y007419D01*
X022092Y007189D01*
X022092Y007342D02*
X022245Y007496D01*
X022245Y007649D02*
X021938Y007956D01*
X021862Y007956D01*
X021785Y007879D01*
X021785Y007726D01*
X021862Y007649D01*
X022245Y007649D02*
X022245Y007956D01*
X022245Y007189D02*
X021785Y007189D01*
X021462Y006485D02*
X021396Y006464D01*
X021332Y006439D01*
X021269Y006411D01*
X021207Y006380D01*
X021147Y006345D01*
X021090Y006306D01*
X021035Y006264D01*
X020982Y006220D01*
X020932Y006172D01*
X020884Y006122D01*
X020840Y006069D01*
X020798Y006013D01*
X020760Y005955D01*
X020725Y005896D01*
X020694Y005834D01*
X020666Y005771D01*
X020642Y005706D01*
X020622Y005640D01*
X020605Y005573D01*
X020592Y005505D01*
X020583Y005436D01*
X020578Y005367D01*
X020577Y005298D01*
X020580Y005229D01*
X020587Y005160D01*
X020597Y005091D01*
X020612Y005024D01*
X020630Y004957D01*
X020652Y004891D01*
X020678Y004827D01*
X020707Y004765D01*
X020740Y004704D01*
X020777Y004645D01*
X020816Y004588D01*
X020859Y004534D01*
X020905Y004482D01*
X020953Y004432D01*
X021005Y004386D01*
X021059Y004343D01*
X021115Y004302D01*
X021173Y004266D01*
X021234Y004232D01*
X021296Y004202D01*
X021360Y004175D01*
X021426Y004152D01*
X021492Y004133D01*
X020480Y002210D02*
X020250Y001980D01*
X020557Y001980D01*
X020480Y002210D02*
X020480Y001749D01*
X020096Y001826D02*
X020020Y001749D01*
X019866Y001749D01*
X019790Y001826D01*
X019866Y001980D02*
X020020Y001980D01*
X020096Y001903D01*
X020096Y001826D01*
X019866Y001980D02*
X019790Y002056D01*
X019790Y002133D01*
X019866Y002210D01*
X020020Y002210D01*
X020096Y002133D01*
X015033Y002133D02*
X015033Y002056D01*
X014956Y001980D01*
X015033Y001903D01*
X015033Y001826D01*
X014956Y001749D01*
X014803Y001749D01*
X014726Y001826D01*
X014573Y001826D02*
X014496Y001749D01*
X014343Y001749D01*
X014266Y001826D01*
X014343Y001980D02*
X014496Y001980D01*
X014573Y001903D01*
X014573Y001826D01*
X014343Y001980D02*
X014266Y002056D01*
X014266Y002133D01*
X014343Y002210D01*
X014496Y002210D01*
X014573Y002133D01*
X014726Y002133D02*
X014803Y002210D01*
X014956Y002210D01*
X015033Y002133D01*
X014956Y001980D02*
X014880Y001980D01*
X009517Y002056D02*
X009211Y001749D01*
X009517Y001749D01*
X009517Y002056D02*
X009517Y002133D01*
X009441Y002210D01*
X009287Y002210D01*
X009211Y002133D01*
X009057Y002133D02*
X008980Y002210D01*
X008827Y002210D01*
X008750Y002133D01*
X008750Y002056D01*
X008827Y001980D01*
X008980Y001980D01*
X009057Y001903D01*
X009057Y001826D01*
X008980Y001749D01*
X008827Y001749D01*
X008750Y001826D01*
X004006Y001749D02*
X003699Y001749D01*
X003852Y001749D02*
X003852Y002210D01*
X003699Y002056D01*
X003545Y002133D02*
X003469Y002210D01*
X003315Y002210D01*
X003238Y002133D01*
X003238Y002056D01*
X003315Y001980D01*
X003469Y001980D01*
X003545Y001903D01*
X003545Y001826D01*
X003469Y001749D01*
X003315Y001749D01*
X003238Y001826D01*
X003319Y005612D02*
X003242Y005688D01*
X003319Y005612D02*
X003472Y005612D01*
X003549Y005688D01*
X003549Y005765D01*
X003472Y005842D01*
X003319Y005842D01*
X003242Y005918D01*
X003242Y005995D01*
X003319Y006072D01*
X003472Y006072D01*
X003549Y005995D01*
X003703Y006072D02*
X003703Y005842D01*
X003856Y005918D01*
X003933Y005918D01*
X004010Y005842D01*
X004010Y005688D01*
X003933Y005612D01*
X003779Y005612D01*
X003703Y005688D01*
X003703Y006072D02*
X004010Y006072D01*
X007678Y006099D02*
X007678Y005793D01*
X007832Y005639D01*
X007985Y005793D01*
X007985Y006099D01*
X008139Y006099D02*
X008369Y006099D01*
X008446Y006023D01*
X008446Y005869D01*
X008369Y005793D01*
X008139Y005793D01*
X008292Y005793D02*
X008446Y005639D01*
X008599Y005639D02*
X008906Y005639D01*
X008752Y005639D02*
X008752Y006099D01*
X008599Y005946D01*
X008139Y006099D02*
X008139Y005639D01*
X009962Y005653D02*
X009962Y005883D01*
X010039Y005960D01*
X010192Y005960D01*
X010269Y005883D01*
X010269Y005653D01*
X010269Y005806D02*
X010423Y005960D01*
X010346Y006113D02*
X010423Y006190D01*
X010423Y006343D01*
X010346Y006420D01*
X010192Y006420D01*
X010116Y006343D01*
X010116Y006267D01*
X010192Y006113D01*
X009962Y006113D01*
X009962Y006420D01*
X009962Y005653D02*
X010423Y005653D01*
X010962Y005653D02*
X010962Y005883D01*
X011039Y005960D01*
X011192Y005960D01*
X011269Y005883D01*
X011269Y005653D01*
X011269Y005806D02*
X011423Y005960D01*
X011423Y006113D02*
X011423Y006420D01*
X011423Y006267D02*
X010962Y006267D01*
X011116Y006113D01*
X010962Y005653D02*
X011423Y005653D01*
X011970Y005653D02*
X011970Y005883D01*
X012047Y005960D01*
X012200Y005960D01*
X012277Y005883D01*
X012277Y005653D01*
X012277Y005806D02*
X012430Y005960D01*
X012354Y006113D02*
X012430Y006190D01*
X012430Y006343D01*
X012354Y006420D01*
X012277Y006420D01*
X012200Y006343D01*
X012200Y006267D01*
X012200Y006343D02*
X012123Y006420D01*
X012047Y006420D01*
X011970Y006343D01*
X011970Y006190D01*
X012047Y006113D01*
X011970Y005653D02*
X012430Y005653D01*
X012962Y005653D02*
X012962Y005883D01*
X013039Y005960D01*
X013192Y005960D01*
X013269Y005883D01*
X013269Y005653D01*
X013269Y005806D02*
X013423Y005960D01*
X013192Y006113D02*
X013192Y006420D01*
X012962Y006343D02*
X013423Y006343D01*
X013192Y006113D02*
X012962Y006343D01*
X012962Y005653D02*
X013423Y005653D01*
X013658Y007153D02*
X013812Y007153D01*
X013888Y007230D01*
X014042Y007153D02*
X014349Y007460D01*
X014349Y007537D01*
X014272Y007613D01*
X014118Y007613D01*
X014042Y007537D01*
X013888Y007537D02*
X013812Y007613D01*
X013658Y007613D01*
X013581Y007537D01*
X013581Y007230D01*
X013658Y007153D01*
X014042Y007153D02*
X014349Y007153D01*
X014502Y007230D02*
X014809Y007537D01*
X014809Y007230D01*
X014732Y007153D01*
X014579Y007153D01*
X014502Y007230D01*
X014502Y007537D01*
X014579Y007613D01*
X014732Y007613D01*
X014809Y007537D01*
X013190Y008730D02*
X013114Y008653D01*
X012960Y008653D01*
X012883Y008730D01*
X012960Y008883D02*
X013190Y008883D01*
X013190Y008730D02*
X013190Y009037D01*
X013114Y009113D01*
X012960Y009113D01*
X012883Y009037D01*
X012883Y008960D01*
X012960Y008883D01*
X012730Y008653D02*
X012423Y008653D01*
X012576Y008653D02*
X012576Y009113D01*
X012423Y008960D01*
X012269Y009037D02*
X012193Y009113D01*
X012039Y009113D01*
X011963Y009037D01*
X011963Y008730D01*
X012039Y008653D01*
X012193Y008653D01*
X012269Y008730D01*
X010577Y009190D02*
X010270Y009190D01*
X010500Y009420D01*
X010500Y008960D01*
X010116Y008960D02*
X009809Y008960D01*
X009963Y008960D02*
X009963Y009420D01*
X009809Y009267D01*
X009656Y009344D02*
X009579Y009420D01*
X009426Y009420D01*
X009349Y009344D01*
X009349Y009037D01*
X009426Y008960D01*
X009579Y008960D01*
X009656Y009037D01*
D14*
X025443Y005793D03*
X026443Y005793D03*
X027443Y005793D03*
D15*
X028703Y006633D02*
X028705Y006703D01*
X028711Y006773D01*
X028721Y006843D01*
X028735Y006911D01*
X028752Y006979D01*
X028774Y007046D01*
X028799Y007112D01*
X028828Y007176D01*
X028860Y007238D01*
X028896Y007298D01*
X028936Y007356D01*
X028978Y007412D01*
X029024Y007465D01*
X029072Y007516D01*
X029124Y007564D01*
X029178Y007609D01*
X029234Y007650D01*
X029293Y007689D01*
X029354Y007724D01*
X029416Y007756D01*
X029481Y007784D01*
X029546Y007808D01*
X029614Y007828D01*
X029682Y007845D01*
X029751Y007858D01*
X029820Y007867D01*
X029890Y007872D01*
X029961Y007873D01*
X030031Y007870D01*
X030101Y007863D01*
X030170Y007852D01*
X030238Y007837D01*
X030306Y007819D01*
X030373Y007796D01*
X030438Y007770D01*
X030501Y007740D01*
X030563Y007707D01*
X030623Y007670D01*
X030680Y007630D01*
X030736Y007587D01*
X030788Y007540D01*
X030838Y007491D01*
X030885Y007439D01*
X030929Y007384D01*
X030970Y007327D01*
X031008Y007268D01*
X031042Y007207D01*
X031073Y007144D01*
X031100Y007079D01*
X031123Y007013D01*
X031143Y006945D01*
X031159Y006877D01*
X031171Y006808D01*
X031179Y006738D01*
X031183Y006668D01*
X031183Y006598D01*
X031179Y006528D01*
X031171Y006458D01*
X031159Y006389D01*
X031143Y006321D01*
X031123Y006253D01*
X031100Y006187D01*
X031073Y006122D01*
X031042Y006059D01*
X031008Y005998D01*
X030970Y005939D01*
X030929Y005882D01*
X030885Y005827D01*
X030838Y005775D01*
X030788Y005726D01*
X030736Y005679D01*
X030680Y005636D01*
X030623Y005596D01*
X030563Y005559D01*
X030501Y005526D01*
X030438Y005496D01*
X030373Y005470D01*
X030306Y005447D01*
X030238Y005429D01*
X030170Y005414D01*
X030101Y005403D01*
X030031Y005396D01*
X029961Y005393D01*
X029890Y005394D01*
X029820Y005399D01*
X029751Y005408D01*
X029682Y005421D01*
X029614Y005438D01*
X029546Y005458D01*
X029481Y005482D01*
X029416Y005510D01*
X029354Y005542D01*
X029293Y005577D01*
X029234Y005616D01*
X029178Y005657D01*
X029124Y005702D01*
X029072Y005750D01*
X029024Y005801D01*
X028978Y005854D01*
X028936Y005910D01*
X028896Y005968D01*
X028860Y006028D01*
X028828Y006090D01*
X028799Y006154D01*
X028774Y006220D01*
X028752Y006287D01*
X028735Y006355D01*
X028721Y006423D01*
X028711Y006493D01*
X028705Y006563D01*
X028703Y006633D01*
X032505Y007633D02*
X032818Y007633D01*
X032818Y007820D01*
X032818Y007633D02*
X033068Y007820D01*
X033068Y007633D01*
X033380Y007633D01*
X033068Y007633D02*
X033068Y007445D01*
X032818Y007633D01*
X032818Y007445D01*
X037845Y011257D02*
X037995Y011407D01*
X037920Y011407D01*
X037920Y011483D01*
X037995Y011483D01*
X037995Y011407D01*
X038152Y011483D02*
X038227Y011407D01*
X038377Y011407D01*
X038452Y011483D01*
X038452Y011633D01*
X038377Y011708D01*
X038302Y011708D01*
X038152Y011633D01*
X038152Y011858D01*
X038452Y011858D01*
X038613Y011633D02*
X038913Y011633D01*
X038838Y011858D02*
X038838Y011407D01*
X038613Y011633D02*
X038838Y011858D01*
X037685Y011783D02*
X037610Y011858D01*
X037460Y011858D01*
X037385Y011783D01*
X037685Y011783D02*
X037685Y011708D01*
X037385Y011407D01*
X037685Y011407D01*
X037010Y014097D02*
X037085Y014172D01*
X037085Y014322D01*
X037010Y014397D01*
X036710Y014397D01*
X036634Y014322D01*
X036634Y014172D01*
X036710Y014097D01*
X036785Y014097D01*
X036860Y014172D01*
X036860Y014397D01*
X036085Y014322D02*
X036085Y014172D01*
X036010Y014097D01*
X035860Y014097D02*
X035785Y014247D01*
X035785Y014322D01*
X035860Y014397D01*
X036010Y014397D01*
X036085Y014322D01*
X035860Y014097D02*
X035634Y014097D01*
X035634Y014397D01*
X030443Y017883D02*
X030445Y017914D01*
X030451Y017945D01*
X030461Y017975D01*
X030474Y018003D01*
X030491Y018030D01*
X030511Y018054D01*
X030534Y018076D01*
X030559Y018094D01*
X030587Y018109D01*
X030616Y018121D01*
X030646Y018129D01*
X030677Y018133D01*
X030709Y018133D01*
X030740Y018129D01*
X030770Y018121D01*
X030799Y018109D01*
X030827Y018094D01*
X030852Y018076D01*
X030875Y018054D01*
X030895Y018030D01*
X030912Y018003D01*
X030925Y017975D01*
X030935Y017945D01*
X030941Y017914D01*
X030943Y017883D01*
X030941Y017852D01*
X030935Y017821D01*
X030925Y017791D01*
X030912Y017763D01*
X030895Y017736D01*
X030875Y017712D01*
X030852Y017690D01*
X030827Y017672D01*
X030799Y017657D01*
X030770Y017645D01*
X030740Y017637D01*
X030709Y017633D01*
X030677Y017633D01*
X030646Y017637D01*
X030616Y017645D01*
X030587Y017657D01*
X030559Y017672D01*
X030534Y017690D01*
X030511Y017712D01*
X030491Y017736D01*
X030474Y017763D01*
X030461Y017791D01*
X030451Y017821D01*
X030445Y017852D01*
X030443Y017883D01*
X026335Y017683D02*
X026260Y017758D01*
X026110Y017758D01*
X026035Y017683D01*
X025875Y017683D02*
X025800Y017758D01*
X025650Y017758D01*
X025574Y017683D01*
X025574Y017383D01*
X025650Y017308D01*
X025800Y017308D01*
X025875Y017383D01*
X026035Y017308D02*
X026335Y017608D01*
X026335Y017683D01*
X026335Y017308D02*
X026035Y017308D01*
X025418Y017308D02*
X025268Y017308D01*
X025343Y017308D02*
X025343Y017758D01*
X025268Y017758D02*
X025418Y017758D01*
X017228Y016583D02*
X017153Y016658D01*
X017003Y016658D01*
X016928Y016583D01*
X016768Y016583D02*
X016768Y016283D01*
X016693Y016208D01*
X016543Y016208D01*
X016468Y016283D01*
X016468Y016583D01*
X016543Y016658D01*
X016693Y016658D01*
X016768Y016583D01*
X016618Y016358D02*
X016768Y016208D01*
X016928Y016208D02*
X017228Y016508D01*
X017228Y016583D01*
X017228Y016208D02*
X016928Y016208D01*
X008268Y017958D02*
X008268Y018108D01*
X008268Y018033D02*
X007817Y018033D01*
X007817Y017958D02*
X007817Y018108D01*
X007892Y018265D02*
X007817Y018340D01*
X007817Y018490D01*
X007892Y018565D01*
X007967Y018725D02*
X007817Y018875D01*
X008268Y018875D01*
X008268Y018725D02*
X008268Y019025D01*
X008192Y018565D02*
X008268Y018490D01*
X008268Y018340D01*
X008192Y018265D01*
X007892Y018265D01*
X005312Y022925D02*
X005012Y022925D01*
X005162Y022925D02*
X005162Y023376D01*
X005012Y023225D01*
X004852Y023300D02*
X004852Y023150D01*
X004777Y023075D01*
X004551Y023075D01*
X004551Y022925D02*
X004551Y023376D01*
X004777Y023376D01*
X004852Y023300D01*
X004391Y023376D02*
X004241Y023376D01*
X004316Y023376D02*
X004316Y023000D01*
X004241Y022925D01*
X004166Y022925D01*
X004091Y023000D01*
X014622Y008558D02*
X014772Y008558D01*
X014847Y008483D01*
X014847Y008183D01*
X014772Y008108D01*
X014622Y008108D01*
X014547Y008183D01*
X014547Y008483D01*
X014622Y008558D01*
X014697Y008258D02*
X014847Y008108D01*
X015007Y008108D02*
X015307Y008108D01*
X015157Y008108D02*
X015157Y008558D01*
X015007Y008408D01*
X014938Y007328D02*
X015163Y007328D01*
X015238Y007253D01*
X015238Y006953D01*
X015163Y006878D01*
X014938Y006878D01*
X014938Y007328D01*
X015398Y007328D02*
X015398Y006878D01*
X015698Y006878D01*
X015858Y006878D02*
X016083Y006878D01*
X016159Y006953D01*
X016159Y007028D01*
X016083Y007103D01*
X015858Y007103D01*
X015858Y006878D02*
X015858Y007328D01*
X016083Y007328D01*
X016159Y007253D01*
X016159Y007178D01*
X016083Y007103D01*
X016319Y006953D02*
X016394Y006878D01*
X016544Y006878D01*
X016619Y006953D01*
X016619Y007328D01*
X016779Y007253D02*
X016779Y006953D01*
X016854Y006878D01*
X017004Y006878D01*
X017079Y006953D01*
X017079Y007103D01*
X016929Y007103D01*
X016779Y007253D02*
X016854Y007328D01*
X017004Y007328D01*
X017079Y007253D01*
X016319Y007328D02*
X016319Y006953D01*
X015698Y007328D02*
X015398Y007328D01*
X015398Y007103D02*
X015548Y007103D01*
X016794Y003790D02*
X017020Y003790D01*
X017095Y003715D01*
X017095Y003565D01*
X017020Y003490D01*
X016794Y003490D01*
X016794Y003339D02*
X016794Y003790D01*
X017255Y003790D02*
X017480Y003790D01*
X017555Y003715D01*
X017555Y003565D01*
X017480Y003490D01*
X017255Y003490D01*
X017405Y003490D02*
X017555Y003339D01*
X017715Y003415D02*
X017790Y003339D01*
X017940Y003339D01*
X018015Y003415D01*
X018015Y003715D01*
X017940Y003790D01*
X017790Y003790D01*
X017715Y003715D01*
X017715Y003415D01*
X018176Y003415D02*
X018251Y003339D01*
X018401Y003339D01*
X018476Y003415D01*
X018476Y003565D01*
X018326Y003565D01*
X018476Y003715D02*
X018401Y003790D01*
X018251Y003790D01*
X018176Y003715D01*
X018176Y003415D01*
X018636Y003490D02*
X018861Y003490D01*
X018936Y003565D01*
X018936Y003715D01*
X018861Y003790D01*
X018636Y003790D01*
X018636Y003339D01*
X018786Y003490D02*
X018936Y003339D01*
X019096Y003339D02*
X019096Y003640D01*
X019247Y003790D01*
X019397Y003640D01*
X019397Y003339D01*
X019557Y003339D02*
X019557Y003790D01*
X019707Y003640D01*
X019857Y003790D01*
X019857Y003339D01*
X019397Y003565D02*
X019096Y003565D01*
X017255Y003339D02*
X017255Y003790D01*
X039734Y018926D02*
X039734Y019227D01*
X039810Y019387D02*
X039734Y019462D01*
X039734Y019612D01*
X039810Y019687D01*
X040110Y019387D01*
X040185Y019462D01*
X040185Y019612D01*
X040110Y019687D01*
X039810Y019687D01*
X039810Y019847D02*
X039885Y019847D01*
X039960Y019922D01*
X039960Y020147D01*
X040110Y020147D02*
X039810Y020147D01*
X039734Y020072D01*
X039734Y019922D01*
X039810Y019847D01*
X040110Y019847D02*
X040185Y019922D01*
X040185Y020072D01*
X040110Y020147D01*
X040110Y019387D02*
X039810Y019387D01*
X039960Y019076D02*
X039960Y018926D01*
X040185Y018926D02*
X039734Y018926D01*
X037085Y019922D02*
X037085Y020072D01*
X037010Y020147D01*
X036935Y020147D01*
X036860Y020072D01*
X036860Y019847D01*
X037010Y019847D01*
X037085Y019922D01*
X036860Y019847D02*
X036710Y019997D01*
X036634Y020147D01*
X036085Y020147D02*
X036085Y019847D01*
X036085Y019997D02*
X035634Y019997D01*
X035785Y019847D01*
D16*
X002616Y003160D02*
X002616Y000798D01*
X004978Y000798D01*
X004978Y003160D01*
X002616Y003160D01*
X002620Y004660D02*
X002620Y007023D01*
X004982Y007023D01*
X004982Y004660D01*
X002620Y004660D01*
X006931Y005594D02*
X006931Y005594D01*
X006930Y005594D02*
X006932Y005602D01*
X006936Y005608D01*
X006942Y005612D01*
X006950Y005614D01*
X006958Y005612D01*
X006964Y005608D01*
X006968Y005602D01*
X006970Y005594D01*
X006970Y005594D01*
X006968Y005586D01*
X006964Y005580D01*
X006958Y005576D01*
X006950Y005574D01*
X006942Y005576D01*
X006936Y005580D01*
X006932Y005586D01*
X006930Y005594D01*
X007086Y005298D02*
X007086Y004275D01*
X009767Y004275D01*
X009767Y005298D01*
X009767Y006086D02*
X009767Y007464D01*
X007086Y007464D01*
X007086Y006086D01*
X008128Y003160D02*
X008128Y000798D01*
X010490Y000798D01*
X010490Y003160D01*
X008128Y003160D01*
X013643Y003160D02*
X013643Y000798D01*
X016006Y000798D01*
X016006Y003160D01*
X013643Y003160D01*
X019167Y003160D02*
X019167Y000798D01*
X021529Y000798D01*
X021529Y003160D01*
X019167Y003160D01*
X035407Y006471D02*
X035407Y007121D01*
X035604Y007121D02*
X035604Y006471D01*
X035407Y006471D01*
X035604Y006471D02*
X036194Y006471D01*
X036194Y009121D01*
X035604Y008971D02*
X035604Y009621D01*
X035407Y009621D01*
X035407Y008971D01*
X037376Y009070D02*
X037376Y009306D01*
X037769Y009306D01*
X038163Y009306D02*
X038557Y009306D01*
X038950Y009306D02*
X039344Y009306D01*
X039738Y009306D02*
X040131Y009306D01*
X040525Y009306D02*
X040919Y009306D01*
X040919Y006786D01*
X040525Y006786D01*
X040131Y006786D02*
X039738Y006786D01*
X039344Y006786D02*
X038950Y006786D01*
X038557Y006786D02*
X038163Y006786D01*
X037769Y006786D02*
X037376Y006786D01*
X037376Y007023D01*
X037376Y007416D02*
X037376Y007653D01*
X037376Y008440D01*
X037376Y008676D01*
X037694Y009818D02*
X040919Y009818D01*
X040919Y009306D01*
X039541Y009818D02*
X039541Y006471D01*
X036194Y006471D01*
X036194Y006275D01*
X040919Y006275D01*
X040919Y006786D01*
X039541Y006471D02*
X039541Y006275D01*
X040131Y007652D02*
X040170Y007654D01*
X040208Y007660D01*
X040245Y007669D01*
X040282Y007682D01*
X040317Y007699D01*
X040350Y007718D01*
X040381Y007741D01*
X040410Y007767D01*
X040436Y007796D01*
X040459Y007827D01*
X040478Y007860D01*
X040495Y007895D01*
X040508Y007932D01*
X040517Y007969D01*
X040523Y008007D01*
X040525Y008046D01*
X040523Y008085D01*
X040517Y008123D01*
X040508Y008160D01*
X040495Y008197D01*
X040478Y008232D01*
X040459Y008265D01*
X040436Y008296D01*
X040410Y008325D01*
X040381Y008351D01*
X040350Y008374D01*
X040317Y008393D01*
X040282Y008410D01*
X040245Y008423D01*
X040208Y008432D01*
X040170Y008438D01*
X040131Y008440D01*
X006226Y017424D02*
X006226Y017424D01*
X006218Y017426D01*
X006212Y017430D01*
X006208Y017436D01*
X006206Y017444D01*
X006208Y017452D01*
X006212Y017458D01*
X006218Y017462D01*
X006226Y017464D01*
X006226Y017464D01*
X006234Y017462D01*
X006240Y017458D01*
X006244Y017452D01*
X006246Y017444D01*
X006244Y017436D01*
X006240Y017430D01*
X006234Y017426D01*
X006226Y017424D01*
X006025Y018625D02*
X005395Y018625D01*
X006025Y018625D02*
X006025Y013468D01*
X005395Y013460D01*
X003742Y013468D02*
X000513Y013460D01*
X000513Y018625D01*
X003742Y018625D01*
D17*
X001399Y006747D02*
X001399Y006747D01*
X001388Y006745D01*
X001378Y006741D01*
X001370Y006734D01*
X001364Y006724D01*
X001360Y006714D01*
X001360Y006702D01*
X001364Y006692D01*
X001370Y006682D01*
X001378Y006675D01*
X001388Y006671D01*
X001399Y006669D01*
X001399Y006668D02*
X001399Y006668D01*
X001399Y006669D02*
X001410Y006671D01*
X001420Y006675D01*
X001428Y006682D01*
X001434Y006692D01*
X001438Y006702D01*
X001438Y006714D01*
X001434Y006724D01*
X001428Y006734D01*
X001420Y006741D01*
X001410Y006745D01*
X001399Y006747D01*
X001395Y002885D02*
X001395Y002885D01*
X001395Y002884D02*
X001384Y002882D01*
X001374Y002878D01*
X001366Y002871D01*
X001360Y002861D01*
X001356Y002851D01*
X001356Y002839D01*
X001360Y002829D01*
X001366Y002819D01*
X001374Y002812D01*
X001384Y002808D01*
X001395Y002806D01*
X001395Y002806D01*
X001406Y002808D01*
X001416Y002812D01*
X001424Y002819D01*
X001430Y002829D01*
X001434Y002839D01*
X001434Y002851D01*
X001430Y002861D01*
X001424Y002871D01*
X001416Y002878D01*
X001406Y002882D01*
X001395Y002884D01*
X006907Y002885D02*
X006907Y002885D01*
X006907Y002884D02*
X006896Y002882D01*
X006886Y002878D01*
X006878Y002871D01*
X006872Y002861D01*
X006868Y002851D01*
X006868Y002839D01*
X006872Y002829D01*
X006878Y002819D01*
X006886Y002812D01*
X006896Y002808D01*
X006907Y002806D01*
X006907Y002806D01*
X006918Y002808D01*
X006928Y002812D01*
X006936Y002819D01*
X006942Y002829D01*
X006946Y002839D01*
X006946Y002851D01*
X006942Y002861D01*
X006936Y002871D01*
X006928Y002878D01*
X006918Y002882D01*
X006907Y002884D01*
X012423Y002885D02*
X012423Y002885D01*
X012423Y002884D02*
X012412Y002882D01*
X012402Y002878D01*
X012394Y002871D01*
X012388Y002861D01*
X012384Y002851D01*
X012384Y002839D01*
X012388Y002829D01*
X012394Y002819D01*
X012402Y002812D01*
X012412Y002808D01*
X012423Y002806D01*
X012423Y002806D01*
X012434Y002808D01*
X012444Y002812D01*
X012452Y002819D01*
X012458Y002829D01*
X012462Y002839D01*
X012462Y002851D01*
X012458Y002861D01*
X012452Y002871D01*
X012444Y002878D01*
X012434Y002882D01*
X012423Y002884D01*
X017946Y002885D02*
X017946Y002885D01*
X017946Y002884D02*
X017935Y002882D01*
X017925Y002878D01*
X017917Y002871D01*
X017911Y002861D01*
X017907Y002851D01*
X017907Y002839D01*
X017911Y002829D01*
X017917Y002819D01*
X017925Y002812D01*
X017935Y002808D01*
X017946Y002806D01*
X017946Y002806D01*
X017957Y002808D01*
X017967Y002812D01*
X017975Y002819D01*
X017981Y002829D01*
X017985Y002839D01*
X017985Y002851D01*
X017981Y002861D01*
X017975Y002871D01*
X017967Y002878D01*
X017957Y002882D01*
X017946Y002884D01*
D18*
X023312Y005904D02*
X023373Y005842D01*
X023620Y005842D01*
X023682Y005904D01*
X023682Y006028D01*
X023620Y006089D01*
X023682Y006211D02*
X023682Y006458D01*
X023682Y006334D02*
X023312Y006334D01*
X023435Y006211D01*
X023373Y006089D02*
X023312Y006028D01*
X023312Y005904D01*
D19*
X033894Y022028D02*
X034525Y022449D01*
X034525Y022673D02*
X034525Y023093D01*
X034525Y022883D02*
X033894Y022883D01*
X034104Y022673D01*
X033894Y022449D02*
X034525Y022028D01*
D20*
X039210Y017282D03*
D21*
X040860Y017282D03*
D22*
X037635Y017292D03*
X037635Y016202D03*
X037635Y015122D03*
X037635Y018362D03*
X037635Y019442D03*
D23*
X038135Y018902D03*
X038135Y017822D03*
X038135Y016752D03*
X038135Y015662D03*
D24*
X029159Y010766D03*
X027147Y017952D03*
D25*
X026223Y009310D03*
D26*
X007679Y012692D03*
X007206Y012692D03*
D27*
X007443Y012692D03*
D28*
X012243Y010483D02*
X014643Y010483D01*
X014700Y010481D01*
X014756Y010475D01*
X014812Y010466D01*
X014868Y010453D01*
X014922Y010436D01*
X014975Y010416D01*
X015026Y010392D01*
X015076Y010364D01*
X015124Y010334D01*
X015170Y010300D01*
X015213Y010263D01*
X015254Y010224D01*
X015292Y010182D01*
X015327Y010137D01*
X015359Y010090D01*
X015388Y010041D01*
X015414Y009991D01*
X015436Y009938D01*
X015455Y009885D01*
X015470Y009830D01*
X015481Y009774D01*
X015489Y009718D01*
X015493Y009661D01*
X015493Y009605D01*
X015489Y009548D01*
X015481Y009492D01*
X015470Y009436D01*
X015455Y009381D01*
X015436Y009328D01*
X015414Y009275D01*
X015388Y009225D01*
X015359Y009176D01*
X015327Y009129D01*
X015292Y009084D01*
X015254Y009042D01*
X015213Y009003D01*
X015170Y008966D01*
X015124Y008932D01*
X015076Y008902D01*
X015026Y008874D01*
X014975Y008850D01*
X014922Y008830D01*
X014868Y008813D01*
X014812Y008800D01*
X014756Y008791D01*
X014700Y008785D01*
X014643Y008783D01*
X012243Y008783D01*
X012186Y008785D01*
X012130Y008791D01*
X012074Y008800D01*
X012018Y008813D01*
X011964Y008830D01*
X011911Y008850D01*
X011860Y008874D01*
X011810Y008902D01*
X011762Y008932D01*
X011716Y008966D01*
X011673Y009003D01*
X011632Y009042D01*
X011594Y009084D01*
X011559Y009129D01*
X011527Y009176D01*
X011498Y009225D01*
X011472Y009275D01*
X011450Y009328D01*
X011431Y009381D01*
X011416Y009436D01*
X011405Y009492D01*
X011397Y009548D01*
X011393Y009605D01*
X011393Y009661D01*
X011397Y009718D01*
X011405Y009774D01*
X011416Y009830D01*
X011431Y009885D01*
X011450Y009938D01*
X011472Y009991D01*
X011498Y010041D01*
X011527Y010090D01*
X011559Y010137D01*
X011594Y010182D01*
X011632Y010224D01*
X011673Y010263D01*
X011716Y010300D01*
X011762Y010334D01*
X011810Y010364D01*
X011860Y010392D01*
X011911Y010416D01*
X011964Y010436D01*
X012018Y010453D01*
X012074Y010466D01*
X012130Y010475D01*
X012186Y010481D01*
X012243Y010483D01*
X017243Y014283D02*
X019643Y014283D01*
X019700Y014285D01*
X019756Y014291D01*
X019812Y014300D01*
X019868Y014313D01*
X019922Y014330D01*
X019975Y014350D01*
X020026Y014374D01*
X020076Y014402D01*
X020124Y014432D01*
X020170Y014466D01*
X020213Y014503D01*
X020254Y014542D01*
X020292Y014584D01*
X020327Y014629D01*
X020359Y014676D01*
X020388Y014725D01*
X020414Y014775D01*
X020436Y014828D01*
X020455Y014881D01*
X020470Y014936D01*
X020481Y014992D01*
X020489Y015048D01*
X020493Y015105D01*
X020493Y015161D01*
X020489Y015218D01*
X020481Y015274D01*
X020470Y015330D01*
X020455Y015385D01*
X020436Y015438D01*
X020414Y015491D01*
X020388Y015541D01*
X020359Y015590D01*
X020327Y015637D01*
X020292Y015682D01*
X020254Y015724D01*
X020213Y015763D01*
X020170Y015800D01*
X020124Y015834D01*
X020076Y015864D01*
X020026Y015892D01*
X019975Y015916D01*
X019922Y015936D01*
X019868Y015953D01*
X019812Y015966D01*
X019756Y015975D01*
X019700Y015981D01*
X019643Y015983D01*
X017243Y015983D01*
X017186Y015981D01*
X017130Y015975D01*
X017074Y015966D01*
X017018Y015953D01*
X016964Y015936D01*
X016911Y015916D01*
X016860Y015892D01*
X016810Y015864D01*
X016762Y015834D01*
X016716Y015800D01*
X016673Y015763D01*
X016632Y015724D01*
X016594Y015682D01*
X016559Y015637D01*
X016527Y015590D01*
X016498Y015541D01*
X016472Y015491D01*
X016450Y015438D01*
X016431Y015385D01*
X016416Y015330D01*
X016405Y015274D01*
X016397Y015218D01*
X016393Y015161D01*
X016393Y015105D01*
X016397Y015048D01*
X016405Y014992D01*
X016416Y014936D01*
X016431Y014881D01*
X016450Y014828D01*
X016472Y014775D01*
X016498Y014725D01*
X016527Y014676D01*
X016559Y014629D01*
X016594Y014584D01*
X016632Y014542D01*
X016673Y014503D01*
X016716Y014466D01*
X016762Y014432D01*
X016810Y014402D01*
X016860Y014374D01*
X016911Y014350D01*
X016964Y014330D01*
X017018Y014313D01*
X017074Y014300D01*
X017130Y014291D01*
X017186Y014285D01*
X017243Y014283D01*
M02*
