G75*
%MOIN*%
%OFA0B0*%
%FSLAX24Y24*%
%IPPOS*%
%LPD*%
%AMOC8*
5,1,8,0,0,1.08239X$1,22.5*
%
%ADD10R,0.0515X0.0515*%
%ADD11C,0.0860*%
%ADD12C,0.0520*%
%ADD13C,0.0600*%
%ADD14R,0.0650X0.0650*%
%ADD15OC8,0.0600*%
%ADD16C,0.2000*%
%ADD17C,0.0594*%
%ADD18C,0.1406*%
%ADD19C,0.0520*%
%ADD20C,0.0620*%
%ADD21C,0.2300*%
%ADD22C,0.0160*%
%ADD23C,0.0396*%
%ADD24C,0.0500*%
%ADD25C,0.0357*%
%ADD26C,0.0320*%
%ADD27C,0.0240*%
%ADD28C,0.0560*%
%ADD29C,0.0120*%
D10*
X029943Y006141D03*
X029943Y007125D03*
D11*
X035506Y007616D02*
X035506Y008476D01*
X037868Y008476D02*
X037868Y007616D01*
X037117Y009936D02*
X036257Y009936D01*
D12*
X028203Y010633D02*
X027683Y010633D01*
X027683Y011633D02*
X028203Y011633D01*
X028203Y012633D02*
X027683Y012633D01*
X027683Y013633D02*
X028203Y013633D01*
X028203Y014633D02*
X027683Y014633D01*
X027683Y015633D02*
X028203Y015633D01*
X028203Y016633D02*
X027683Y016633D01*
X025203Y016633D02*
X024683Y016633D01*
X024683Y015633D02*
X025203Y015633D01*
X025203Y014633D02*
X024683Y014633D01*
X024683Y013633D02*
X025203Y013633D01*
X025203Y012633D02*
X024683Y012633D01*
X024683Y011633D02*
X025203Y011633D01*
X025203Y010633D02*
X024683Y010633D01*
X014943Y017373D02*
X014943Y017893D01*
X013943Y017893D02*
X013943Y017373D01*
X012943Y017373D02*
X012943Y017893D01*
X011943Y017893D02*
X011943Y017373D01*
X010943Y017373D02*
X010943Y017893D01*
X009943Y017893D02*
X009943Y017373D01*
X008943Y017373D02*
X008943Y017893D01*
X008943Y020373D02*
X008943Y020893D01*
X009943Y020893D02*
X009943Y020373D01*
X010943Y020373D02*
X010943Y020893D01*
X011943Y020893D02*
X011943Y020373D01*
X012943Y020373D02*
X012943Y020893D01*
X013943Y020893D02*
X013943Y020373D01*
X014943Y020373D02*
X014943Y020893D01*
D13*
X014596Y021880D02*
X014596Y022480D01*
X013596Y022480D02*
X013596Y021880D01*
X012596Y021880D02*
X012596Y022480D01*
X011596Y022480D02*
X011596Y021880D01*
X010596Y021880D02*
X010596Y022480D01*
X009596Y022480D02*
X009596Y021880D01*
X008596Y021880D02*
X008596Y022480D01*
X007596Y022480D02*
X007596Y021880D01*
X006596Y021880D02*
X006596Y022480D01*
X005596Y022480D02*
X005596Y021880D01*
X004596Y021880D02*
X004596Y022480D01*
X015596Y022480D02*
X015596Y021880D01*
X016596Y021880D02*
X016596Y022480D01*
X017596Y022480D02*
X017596Y021880D01*
X018596Y021880D02*
X018596Y022480D01*
X019596Y022480D02*
X019596Y021880D01*
X019443Y006433D02*
X019443Y005833D01*
X018443Y005833D02*
X018443Y006433D01*
X017443Y006433D02*
X017443Y005833D01*
X016443Y005833D02*
X016443Y006433D01*
X015443Y006433D02*
X015443Y005833D01*
X015462Y004834D02*
X015462Y004234D01*
X014462Y004234D02*
X014462Y004834D01*
X016462Y004834D02*
X016462Y004234D01*
X017462Y004234D02*
X017462Y004834D01*
X018462Y004834D02*
X018462Y004234D01*
X019462Y004234D02*
X019462Y004834D01*
D14*
X030033Y003865D03*
X031017Y003865D03*
X032986Y003865D03*
X033970Y003865D03*
X035935Y003865D03*
X036919Y003865D03*
X038887Y003865D03*
X039872Y003865D03*
X037903Y001897D03*
X032002Y001897D03*
X029742Y020239D03*
X028757Y020239D03*
X026789Y020239D03*
X025805Y020239D03*
X024714Y020251D03*
X023730Y020251D03*
X021761Y020251D03*
X020777Y020251D03*
X022746Y022219D03*
X027773Y022208D03*
D15*
X035860Y019442D03*
X036860Y018902D03*
X035860Y018362D03*
X036860Y017822D03*
X035860Y017282D03*
X036860Y016742D03*
X035860Y016202D03*
X036860Y015662D03*
X035860Y015122D03*
D16*
X036360Y012352D03*
X036360Y022212D03*
D17*
X005635Y017424D03*
X005635Y016440D03*
X005635Y015653D03*
X005635Y014668D03*
D18*
X004569Y013460D03*
X004569Y018633D03*
D19*
X017493Y015133D03*
X019393Y015133D03*
X014393Y009633D03*
X012493Y009633D03*
D20*
X008427Y006617D03*
X009411Y005633D03*
X007443Y005633D03*
D21*
X002411Y009975D03*
X002411Y022180D03*
X031939Y022180D03*
X031939Y009975D03*
D22*
X034202Y009975D01*
X036360Y012133D01*
X034793Y013381D02*
X034793Y015389D01*
X034734Y015448D01*
X034202Y014877D02*
X034301Y014779D01*
X034301Y013578D01*
X033856Y013133D01*
X031443Y013133D01*
X027943Y009633D01*
X024919Y009633D01*
X021860Y012692D01*
X020462Y012692D01*
X020344Y011865D02*
X020344Y011412D01*
X020206Y011275D01*
X020206Y008873D01*
X019596Y008263D01*
X019596Y007751D01*
X018478Y006633D01*
X018443Y006633D01*
X018443Y006133D01*
X018946Y006688D02*
X018946Y005050D01*
X019462Y004534D01*
X019443Y004515D01*
X019443Y002905D01*
X019458Y002889D01*
X017462Y001353D02*
X017443Y001334D01*
X017462Y001353D02*
X017462Y004534D01*
X016462Y004534D02*
X016462Y005153D01*
X016943Y005633D01*
X016943Y006633D01*
X017352Y007042D01*
X017746Y007042D01*
X018002Y007298D01*
X018277Y007298D01*
X018946Y007968D01*
X018946Y008479D01*
X019576Y009109D01*
X019891Y008991D02*
X019891Y011460D01*
X019722Y011609D01*
X020521Y011078D02*
X020895Y011452D01*
X021899Y011452D01*
X021781Y012279D02*
X024923Y009137D01*
X024943Y009137D01*
X024943Y009133D01*
X027943Y009133D01*
X031443Y012633D01*
X034045Y012633D01*
X034793Y013381D01*
X035860Y015122D02*
X035860Y015216D01*
X034443Y016633D01*
X032624Y016633D01*
X032588Y016668D01*
X027943Y014633D02*
X027443Y014633D01*
X025443Y012633D01*
X024943Y012633D01*
X026443Y012633D02*
X026443Y011633D01*
X025443Y010633D01*
X024943Y010633D01*
X023927Y008991D02*
X021210Y008991D01*
X020521Y008775D02*
X020521Y011078D01*
X018238Y012692D02*
X016013Y014916D01*
X016013Y016196D01*
X015679Y016531D01*
X010698Y016531D01*
X009943Y017286D01*
X009943Y017633D01*
X010943Y017633D02*
X010943Y018133D01*
X010443Y018633D01*
X010443Y022027D01*
X010596Y022180D01*
X011443Y022027D02*
X011596Y022180D01*
X011443Y022027D02*
X011443Y018633D01*
X011943Y018133D01*
X011943Y017633D01*
X012943Y017633D02*
X012943Y018133D01*
X012443Y018633D01*
X012443Y022027D01*
X012596Y022180D01*
X013443Y022027D02*
X013596Y022180D01*
X013443Y022027D02*
X013443Y018633D01*
X013943Y018133D01*
X013943Y017633D01*
X014443Y017196D02*
X014793Y016845D01*
X015836Y016845D01*
X016506Y016176D01*
X016506Y014975D01*
X018651Y012830D01*
X016053Y012515D02*
X016053Y010212D01*
X015915Y010074D01*
X015541Y009405D02*
X015226Y009719D01*
X015226Y012594D01*
X015088Y012731D01*
X014419Y012751D02*
X011053Y009385D01*
X008454Y009385D01*
X008376Y009464D01*
X008395Y008775D02*
X014281Y008775D01*
X015226Y009719D01*
X015541Y009405D02*
X015856Y009405D01*
X016533Y008231D02*
X016466Y008164D01*
X008946Y008164D01*
X008946Y006983D02*
X007470Y008460D01*
X007470Y010389D01*
X007785Y010704D01*
X010167Y010704D01*
X010187Y010684D01*
X012493Y009633D02*
X013504Y010645D01*
X014675Y010645D01*
X013218Y012259D02*
X009317Y012259D01*
X005943Y015633D01*
X005655Y015633D01*
X005635Y015653D01*
X005635Y016440D02*
X009324Y012751D01*
X013691Y012751D01*
X015324Y013243D02*
X011702Y013243D01*
X008139Y012712D02*
X007962Y012889D01*
X006352Y012889D01*
X005305Y011842D01*
X005324Y011137D02*
X004364Y011137D01*
X004360Y011133D01*
X002411Y011302D02*
X002411Y009975D01*
X002411Y011302D02*
X004569Y013460D01*
X006596Y012259D02*
X006624Y012286D01*
X006596Y012259D02*
X006596Y008448D01*
X008427Y006617D01*
X008946Y006294D02*
X008257Y005605D01*
X007470Y005605D01*
X007443Y005633D01*
X008946Y006294D02*
X008946Y006983D01*
X010939Y005133D02*
X012057Y004015D01*
X012057Y002869D01*
X013750Y003117D02*
X013891Y002975D01*
X013750Y003117D02*
X013750Y004345D01*
X013722Y004345D01*
X012946Y005121D01*
X011943Y005141D02*
X011935Y005133D01*
X011943Y005141D02*
X011943Y006133D01*
X012943Y007133D01*
X015443Y007133D01*
X015943Y007633D01*
X016624Y007397D02*
X017628Y007397D01*
X017824Y007594D01*
X018120Y007594D01*
X018139Y006944D02*
X018356Y006944D01*
X019261Y007849D01*
X019261Y008361D01*
X019891Y008991D01*
X020521Y008775D02*
X019943Y008196D01*
X019943Y007684D01*
X018946Y006688D01*
X018139Y006944D02*
X017443Y006247D01*
X017443Y006133D01*
X016624Y007397D02*
X015954Y006727D01*
X015954Y005408D01*
X015462Y004916D01*
X015462Y004534D01*
X015462Y002180D01*
X022667Y001948D02*
X022675Y001901D01*
X022667Y001948D02*
X022667Y003834D01*
X022923Y004090D01*
X022923Y006806D01*
X021919Y007810D01*
X021919Y007849D01*
X022608Y007830D02*
X022608Y007810D01*
X023257Y007160D01*
X023257Y003432D01*
X023246Y003420D01*
X025108Y007810D02*
X023927Y008991D01*
X023710Y008538D02*
X023612Y008440D01*
X020954Y008440D01*
X020403Y007889D01*
X025108Y007810D02*
X030679Y007810D01*
X031939Y006550D01*
X033257Y006550D01*
X026443Y012633D02*
X027443Y013633D01*
X027943Y013633D01*
X016053Y012515D02*
X015324Y013243D01*
X008584Y016727D02*
X008513Y016727D01*
X007608Y017633D01*
X007608Y022168D01*
X007596Y022180D01*
X006596Y022180D02*
X006596Y016716D01*
X006624Y016688D01*
X014443Y017196D02*
X014443Y018133D01*
X014943Y018633D01*
X014943Y020633D01*
X018100Y020960D02*
X018100Y022712D01*
X017679Y023133D01*
X009943Y023133D01*
X009596Y022786D01*
X009596Y022180D01*
X005635Y022141D02*
X005596Y022180D01*
X004596Y022180D02*
X002411Y022180D01*
X031939Y022180D02*
X036327Y022180D01*
X036360Y022212D01*
D23*
X030935Y019621D03*
X032588Y016668D03*
X034734Y015448D03*
X034202Y014877D03*
X023395Y017042D03*
X021820Y015763D03*
X018435Y016117D03*
X022765Y019601D03*
X018100Y020960D03*
X008584Y016727D03*
X006624Y016688D03*
X011702Y013243D03*
X008139Y012712D03*
X006624Y012286D03*
X005305Y011842D03*
X005324Y011137D03*
X008376Y009464D03*
X008395Y008775D03*
X008946Y008164D03*
X004360Y008932D03*
X010939Y005133D03*
X011935Y005133D03*
X012946Y005121D03*
X013891Y002975D03*
X015462Y002180D03*
X014635Y001334D03*
X012057Y002869D03*
X008553Y001334D03*
X003242Y003912D03*
X014675Y010645D03*
X015943Y008633D03*
X015943Y007633D03*
X021171Y006235D03*
X022411Y006235D03*
X022608Y007830D03*
X021919Y007849D03*
X021210Y008991D03*
X025305Y008361D03*
X026092Y008361D03*
X033257Y006550D03*
X022675Y001901D03*
X020344Y001334D03*
X019458Y002889D03*
D24*
X020344Y001334D02*
X017443Y001334D01*
X014635Y001334D01*
X008553Y001334D01*
X005443Y001334D01*
X004360Y002416D01*
X004360Y003873D01*
X004320Y003912D01*
X003242Y003912D01*
X004360Y003873D02*
X004360Y005633D01*
X007443Y005633D01*
X004360Y005633D02*
X004360Y008932D01*
X004360Y011133D01*
X004360Y012101D01*
X004596Y012338D01*
X004569Y012365D01*
X004569Y013460D01*
X004569Y013601D02*
X005635Y014668D01*
X005635Y017424D02*
X005943Y017731D01*
X005943Y020633D01*
X005635Y020940D01*
X005635Y022141D01*
X014943Y017633D02*
X016053Y017633D01*
X018435Y020015D01*
X018435Y016117D01*
X021820Y015763D02*
X021820Y017755D01*
X018998Y020578D01*
X019596Y021176D01*
X019596Y022180D01*
X019635Y022219D01*
X022746Y022219D01*
X022757Y022208D01*
X027773Y022208D01*
X028466Y022208D01*
X028474Y022200D01*
X029143Y022200D01*
X031131Y020212D01*
X033631Y020212D01*
X035632Y022212D01*
X036360Y022212D01*
X030935Y019621D02*
X030931Y019621D01*
X027943Y016633D01*
X023395Y017042D02*
X023395Y018971D01*
X022765Y019601D01*
X018998Y020578D02*
X018435Y020015D01*
X035860Y015122D02*
X035953Y015122D01*
X036687Y009936D02*
X036687Y009889D01*
X037943Y008633D01*
X037943Y008121D01*
X037868Y008046D01*
X037903Y008011D01*
X037903Y001897D01*
X032002Y001897D01*
X032002Y005574D01*
X030443Y007133D01*
X029950Y007133D01*
X029943Y007125D01*
X022439Y006235D02*
X021171Y006235D01*
X021198Y006235D01*
X021801Y006243D01*
X021801Y002534D01*
X020600Y001334D01*
X020344Y001334D01*
X019443Y006133D02*
X019545Y006235D01*
X021171Y006235D01*
D25*
X020403Y007889D03*
X018033Y008109D03*
X015856Y009405D03*
X015915Y010074D03*
X017931Y009629D03*
X018848Y009582D03*
X017982Y010310D03*
X019124Y010802D03*
X019104Y011806D03*
X019722Y011609D03*
X020344Y011865D03*
X019608Y012279D03*
X020462Y012692D03*
X021899Y011452D03*
X023907Y011275D03*
X022391Y012771D03*
X019380Y014405D03*
X018750Y014247D03*
X015088Y012731D03*
X014419Y012751D03*
X013691Y012751D03*
X013218Y012259D03*
X010187Y010684D03*
X023246Y003420D03*
X023710Y008538D03*
D26*
X019380Y014405D02*
X019714Y014739D01*
X021624Y014739D01*
X021643Y014759D01*
X023395Y016511D01*
X023395Y017042D01*
D27*
X021643Y014759D02*
X022391Y014011D01*
X022391Y012771D01*
X023907Y011275D02*
X024549Y010633D01*
X024943Y010633D01*
X018750Y014247D02*
X018435Y014562D01*
X018435Y016117D01*
D28*
X004569Y013601D02*
X004569Y013460D01*
X004569Y013601D02*
X004569Y018633D01*
X035953Y015122D02*
X035953Y012759D01*
X036360Y012352D01*
X036360Y012133D01*
X037943Y013716D01*
X037943Y021633D01*
X037363Y022212D01*
X036360Y022212D01*
X036360Y012133D02*
X036360Y009936D01*
X036687Y009936D01*
D29*
X000943Y000633D02*
X000943Y023633D01*
X040443Y023633D01*
X040443Y000633D01*
X000943Y000633D01*
X000943Y000725D02*
X040443Y000725D01*
X040443Y000844D02*
X000943Y000844D01*
X000943Y000962D02*
X040443Y000962D01*
X040443Y001081D02*
X000943Y001081D01*
X000943Y001199D02*
X040443Y001199D01*
X040443Y001318D02*
X000943Y001318D01*
X000943Y001436D02*
X031591Y001436D01*
X031579Y001444D02*
X031615Y001423D01*
X031656Y001412D01*
X031953Y001412D01*
X031953Y001848D01*
X032050Y001848D01*
X032050Y001412D01*
X032347Y001412D01*
X032388Y001423D01*
X032425Y001444D01*
X032454Y001474D01*
X032475Y001510D01*
X032486Y001551D01*
X032486Y001848D01*
X032050Y001848D01*
X032050Y001945D01*
X032486Y001945D01*
X032486Y002243D01*
X032475Y002283D01*
X032454Y002320D01*
X032425Y002349D01*
X032388Y002371D01*
X032347Y002381D01*
X032050Y002381D01*
X032050Y001945D01*
X031953Y001945D01*
X031953Y001848D01*
X031517Y001848D01*
X031517Y001551D01*
X031528Y001510D01*
X031549Y001474D01*
X031579Y001444D01*
X031517Y001555D02*
X022776Y001555D01*
X022746Y001542D02*
X022878Y001597D01*
X022978Y001698D01*
X023033Y001829D01*
X023033Y001972D01*
X022978Y002103D01*
X022907Y002175D01*
X022907Y003734D01*
X023017Y003845D01*
X023017Y003671D01*
X022959Y003612D01*
X022907Y003488D01*
X022907Y003353D01*
X022959Y003229D01*
X023054Y003133D01*
X023178Y003082D01*
X023313Y003082D01*
X023437Y003133D01*
X023533Y003229D01*
X023584Y003353D01*
X023584Y003488D01*
X023533Y003612D01*
X023497Y003647D01*
X023497Y007208D01*
X023461Y007296D01*
X023393Y007364D01*
X022966Y007791D01*
X022966Y007901D01*
X022911Y008033D01*
X022811Y008133D01*
X022679Y008188D01*
X022537Y008188D01*
X022405Y008133D01*
X022304Y008033D01*
X022267Y007944D01*
X022222Y008052D01*
X022122Y008153D01*
X022008Y008200D01*
X023778Y008200D01*
X023902Y008251D01*
X023997Y008347D01*
X024049Y008471D01*
X024049Y008530D01*
X024972Y007607D01*
X025060Y007570D01*
X030579Y007570D01*
X031803Y006347D01*
X031891Y006310D01*
X032991Y006310D01*
X033055Y006247D01*
X033186Y006192D01*
X033329Y006192D01*
X033460Y006247D01*
X033561Y006347D01*
X033616Y006479D01*
X033616Y006621D01*
X033561Y006753D01*
X033460Y006854D01*
X033329Y006908D01*
X033186Y006908D01*
X033055Y006854D01*
X032991Y006790D01*
X032038Y006790D01*
X030882Y007946D01*
X030815Y008014D01*
X030726Y008050D01*
X025207Y008050D01*
X024130Y009127D01*
X024063Y009195D01*
X023975Y009231D01*
X021477Y009231D01*
X021413Y009295D01*
X021281Y009349D01*
X021139Y009349D01*
X021007Y009295D01*
X020907Y009194D01*
X020852Y009062D01*
X020852Y008920D01*
X020907Y008788D01*
X021007Y008688D01*
X021026Y008680D01*
X020907Y008680D01*
X020818Y008643D01*
X020751Y008576D01*
X020402Y008227D01*
X020336Y008227D01*
X020297Y008211D01*
X020657Y008571D01*
X020725Y008639D01*
X020761Y008727D01*
X020761Y010978D01*
X020995Y011212D01*
X021661Y011212D01*
X021708Y011165D01*
X021832Y011113D01*
X021967Y011113D01*
X022091Y011165D01*
X022186Y011260D01*
X022238Y011384D01*
X022238Y011483D01*
X024787Y008933D01*
X024875Y008897D01*
X024885Y008897D01*
X024895Y008893D01*
X027990Y008893D01*
X028078Y008929D01*
X031542Y012393D01*
X034093Y012393D01*
X034181Y012429D01*
X034929Y013177D01*
X034996Y013245D01*
X035033Y013333D01*
X035033Y015240D01*
X035037Y015245D01*
X035092Y015377D01*
X035092Y015519D01*
X035037Y015651D01*
X034937Y015751D01*
X034805Y015806D01*
X034663Y015806D01*
X034531Y015751D01*
X034430Y015651D01*
X034376Y015519D01*
X034376Y015377D01*
X034430Y015245D01*
X034531Y015144D01*
X034553Y015135D01*
X034553Y014966D01*
X034506Y015080D01*
X034405Y015181D01*
X034274Y015235D01*
X034131Y015235D01*
X034000Y015181D01*
X033899Y015080D01*
X033844Y014948D01*
X033844Y014806D01*
X033899Y014674D01*
X034000Y014573D01*
X034061Y014548D01*
X034061Y013677D01*
X033756Y013373D01*
X031395Y013373D01*
X031307Y013336D01*
X031239Y013269D01*
X028623Y010652D01*
X028623Y010716D01*
X028559Y010871D01*
X028440Y010989D01*
X028286Y011053D01*
X027599Y011053D01*
X027445Y010989D01*
X027326Y010871D01*
X027263Y010716D01*
X027263Y010549D01*
X027326Y010395D01*
X027445Y010277D01*
X027599Y010213D01*
X028183Y010213D01*
X027843Y009873D01*
X025018Y009873D01*
X024678Y010213D01*
X024923Y010213D01*
X024923Y010613D01*
X024963Y010613D01*
X024963Y010653D01*
X025623Y010653D01*
X025623Y010666D01*
X025612Y010731D01*
X025592Y010794D01*
X025562Y010853D01*
X025523Y010906D01*
X025476Y010953D01*
X025423Y010992D01*
X025364Y011022D01*
X025301Y011043D01*
X025236Y011053D01*
X024963Y011053D01*
X024963Y010653D01*
X024923Y010653D01*
X024923Y011053D01*
X024649Y011053D01*
X024584Y011043D01*
X024521Y011022D01*
X024462Y010992D01*
X024409Y010953D01*
X024362Y010906D01*
X024323Y010853D01*
X024293Y010794D01*
X024273Y010731D01*
X024263Y010666D01*
X024263Y010653D01*
X024923Y010653D01*
X024923Y010613D01*
X024278Y010613D01*
X022459Y012432D01*
X022583Y012484D01*
X022678Y012579D01*
X022730Y012703D01*
X022730Y012838D01*
X022678Y012962D01*
X022671Y012969D01*
X022671Y014067D01*
X022629Y014169D01*
X022068Y014731D01*
X023667Y016330D01*
X023715Y016447D01*
X023715Y016782D01*
X023743Y016810D01*
X023805Y016961D01*
X023805Y019053D01*
X023743Y019204D01*
X022998Y019949D01*
X022847Y020011D01*
X022684Y020011D01*
X022533Y019949D01*
X022418Y019834D01*
X022355Y019683D01*
X022355Y019520D01*
X022418Y019369D01*
X022985Y018802D01*
X022985Y016961D01*
X023048Y016810D01*
X023075Y016782D01*
X023075Y016643D01*
X021491Y015059D01*
X019813Y015059D01*
X019813Y015216D01*
X019749Y015371D01*
X019630Y015489D01*
X019476Y015553D01*
X019309Y015553D01*
X019155Y015489D01*
X019036Y015371D01*
X018973Y015216D01*
X018973Y015049D01*
X019036Y014895D01*
X019155Y014777D01*
X019257Y014734D01*
X019232Y014710D01*
X019188Y014691D01*
X019093Y014596D01*
X019041Y014472D01*
X019041Y014337D01*
X019093Y014213D01*
X019188Y014118D01*
X019312Y014066D01*
X019447Y014066D01*
X019571Y014118D01*
X019666Y014213D01*
X019685Y014257D01*
X019847Y014419D01*
X021587Y014419D01*
X022111Y013895D01*
X022111Y012969D01*
X022104Y012962D01*
X022053Y012838D01*
X021996Y012895D01*
X021908Y012932D01*
X020701Y012932D01*
X020654Y012979D01*
X020530Y013030D01*
X020395Y013030D01*
X020271Y012979D01*
X020175Y012884D01*
X020124Y012759D01*
X020124Y012625D01*
X020175Y012500D01*
X020177Y012499D01*
X019866Y012499D01*
X019800Y012565D01*
X019675Y012617D01*
X019541Y012617D01*
X019416Y012565D01*
X019321Y012470D01*
X019269Y012346D01*
X019269Y012211D01*
X019321Y012087D01*
X019416Y011992D01*
X019541Y011940D01*
X019636Y011940D01*
X019530Y011896D01*
X019442Y011808D01*
X019442Y011873D01*
X019391Y011998D01*
X019296Y012093D01*
X019171Y012145D01*
X019037Y012145D01*
X018912Y012093D01*
X018871Y012052D01*
X018871Y012734D01*
X018891Y012782D01*
X018891Y012877D01*
X018855Y012966D01*
X016746Y015075D01*
X016746Y016224D01*
X016709Y016312D01*
X016641Y016380D01*
X015972Y017049D01*
X015884Y017085D01*
X015249Y017085D01*
X015263Y017099D01*
X015302Y017153D01*
X015332Y017212D01*
X015352Y017275D01*
X015363Y017340D01*
X015363Y017613D01*
X014963Y017613D01*
X014963Y017653D01*
X015363Y017653D01*
X015363Y017926D01*
X015352Y017991D01*
X015332Y018054D01*
X015302Y018113D01*
X015263Y018166D01*
X015216Y018213D01*
X015163Y018252D01*
X015104Y018282D01*
X015041Y018303D01*
X014976Y018313D01*
X014963Y018313D01*
X014963Y017653D01*
X014923Y017653D01*
X014923Y018273D01*
X015146Y018497D01*
X015183Y018585D01*
X015183Y020019D01*
X015299Y020135D01*
X015363Y020289D01*
X015363Y020976D01*
X015299Y021131D01*
X015180Y021249D01*
X015026Y021313D01*
X014859Y021313D01*
X014705Y021249D01*
X014586Y021131D01*
X014523Y020976D01*
X014523Y020289D01*
X014586Y020135D01*
X014703Y020019D01*
X014703Y018732D01*
X014307Y018336D01*
X014239Y018269D01*
X014216Y018213D01*
X014180Y018249D01*
X014149Y018262D01*
X014146Y018269D01*
X013683Y018732D01*
X013683Y020039D01*
X013705Y020017D01*
X013859Y019953D01*
X014026Y019953D01*
X014180Y020017D01*
X014299Y020135D01*
X014363Y020289D01*
X014363Y020976D01*
X014299Y021131D01*
X014180Y021249D01*
X014026Y021313D01*
X013859Y021313D01*
X013705Y021249D01*
X013683Y021227D01*
X013683Y021420D01*
X013688Y021420D01*
X013857Y021490D01*
X013986Y021620D01*
X014056Y021789D01*
X014056Y022572D01*
X013986Y022741D01*
X013857Y022870D01*
X013802Y022893D01*
X014391Y022893D01*
X014335Y022870D01*
X014206Y022741D01*
X014136Y022572D01*
X014136Y021789D01*
X014206Y021620D01*
X014335Y021490D01*
X014505Y021420D01*
X014688Y021420D01*
X014857Y021490D01*
X014986Y021620D01*
X015056Y021789D01*
X015056Y022572D01*
X014986Y022741D01*
X014857Y022870D01*
X014802Y022893D01*
X015391Y022893D01*
X015335Y022870D01*
X015206Y022741D01*
X015136Y022572D01*
X015136Y021789D01*
X015206Y021620D01*
X015335Y021490D01*
X015505Y021420D01*
X015688Y021420D01*
X015857Y021490D01*
X015986Y021620D01*
X016056Y021789D01*
X016056Y022572D01*
X015986Y022741D01*
X015857Y022870D01*
X015802Y022893D01*
X016391Y022893D01*
X016335Y022870D01*
X016206Y022741D01*
X016136Y022572D01*
X016136Y021789D01*
X016206Y021620D01*
X016335Y021490D01*
X016505Y021420D01*
X016688Y021420D01*
X016857Y021490D01*
X016986Y021620D01*
X017056Y021789D01*
X017056Y022572D01*
X016986Y022741D01*
X016857Y022870D01*
X016802Y022893D01*
X017391Y022893D01*
X017335Y022870D01*
X017206Y022741D01*
X017136Y022572D01*
X017136Y021789D01*
X017206Y021620D01*
X017335Y021490D01*
X017505Y021420D01*
X017688Y021420D01*
X017857Y021490D01*
X017860Y021494D01*
X017860Y021226D01*
X017796Y021162D01*
X017742Y021031D01*
X017742Y020888D01*
X017796Y020757D01*
X017897Y020656D01*
X018029Y020602D01*
X018171Y020602D01*
X018303Y020656D01*
X018404Y020757D01*
X018458Y020888D01*
X018458Y021031D01*
X018404Y021162D01*
X018340Y021226D01*
X018340Y021488D01*
X018505Y021420D01*
X018688Y021420D01*
X018857Y021490D01*
X018986Y021620D01*
X019056Y021789D01*
X019056Y022572D01*
X018986Y022741D01*
X018857Y022870D01*
X018688Y022940D01*
X018505Y022940D01*
X018335Y022870D01*
X018306Y022841D01*
X018303Y022848D01*
X018236Y022915D01*
X017815Y023336D01*
X017726Y023373D01*
X009895Y023373D01*
X009807Y023336D01*
X009739Y023269D01*
X009393Y022922D01*
X009378Y022888D01*
X009335Y022870D01*
X009206Y022741D01*
X009136Y022572D01*
X009136Y021789D01*
X009206Y021620D01*
X009335Y021490D01*
X009505Y021420D01*
X009688Y021420D01*
X009857Y021490D01*
X009986Y021620D01*
X010056Y021789D01*
X010056Y022572D01*
X009986Y022741D01*
X009938Y022789D01*
X010042Y022893D01*
X010391Y022893D01*
X010335Y022870D01*
X010206Y022741D01*
X010136Y022572D01*
X010136Y021789D01*
X010203Y021628D01*
X010203Y021227D01*
X010180Y021249D01*
X010026Y021313D01*
X009859Y021313D01*
X009705Y021249D01*
X009586Y021131D01*
X009523Y020976D01*
X009523Y020289D01*
X009586Y020135D01*
X009705Y020017D01*
X009859Y019953D01*
X010026Y019953D01*
X010180Y020017D01*
X010203Y020039D01*
X010203Y018585D01*
X010239Y018497D01*
X010307Y018429D01*
X010596Y018140D01*
X010586Y018131D01*
X010523Y017976D01*
X010523Y017289D01*
X010586Y017135D01*
X010705Y017017D01*
X010859Y016953D01*
X011026Y016953D01*
X011180Y017017D01*
X011299Y017135D01*
X011363Y017289D01*
X011363Y017976D01*
X011299Y018131D01*
X011180Y018249D01*
X011149Y018262D01*
X011146Y018269D01*
X010683Y018732D01*
X010683Y020039D01*
X010705Y020017D01*
X010859Y019953D01*
X011026Y019953D01*
X011180Y020017D01*
X011203Y020039D01*
X011203Y018585D01*
X011239Y018497D01*
X011307Y018429D01*
X011596Y018140D01*
X011586Y018131D01*
X011523Y017976D01*
X011523Y017289D01*
X011586Y017135D01*
X011705Y017017D01*
X011859Y016953D01*
X012026Y016953D01*
X012180Y017017D01*
X012299Y017135D01*
X012363Y017289D01*
X012363Y017976D01*
X012299Y018131D01*
X012180Y018249D01*
X012149Y018262D01*
X012146Y018269D01*
X011683Y018732D01*
X011683Y020039D01*
X011705Y020017D01*
X011859Y019953D01*
X012026Y019953D01*
X012180Y020017D01*
X012203Y020039D01*
X012203Y018585D01*
X012239Y018497D01*
X012307Y018429D01*
X012596Y018140D01*
X012586Y018131D01*
X012523Y017976D01*
X012523Y017289D01*
X012586Y017135D01*
X012705Y017017D01*
X012859Y016953D01*
X013026Y016953D01*
X013180Y017017D01*
X013299Y017135D01*
X013363Y017289D01*
X013363Y017976D01*
X013299Y018131D01*
X013180Y018249D01*
X013149Y018262D01*
X013146Y018269D01*
X013078Y018336D01*
X012683Y018732D01*
X012683Y020039D01*
X012705Y020017D01*
X012859Y019953D01*
X013026Y019953D01*
X013180Y020017D01*
X013203Y020039D01*
X013203Y018585D01*
X013239Y018497D01*
X013307Y018429D01*
X013596Y018140D01*
X013586Y018131D01*
X013523Y017976D01*
X013523Y017289D01*
X013586Y017135D01*
X013705Y017017D01*
X013859Y016953D01*
X014026Y016953D01*
X014180Y017017D01*
X014235Y017071D01*
X014239Y017060D01*
X014528Y016771D01*
X010798Y016771D01*
X010338Y017230D01*
X010363Y017289D01*
X010363Y017976D01*
X010299Y018131D01*
X010180Y018249D01*
X010026Y018313D01*
X009859Y018313D01*
X009705Y018249D01*
X009586Y018131D01*
X009523Y017976D01*
X009523Y017289D01*
X009586Y017135D01*
X009705Y017017D01*
X009859Y016953D01*
X009937Y016953D01*
X010495Y016395D01*
X010562Y016327D01*
X010651Y016291D01*
X015579Y016291D01*
X015773Y016096D01*
X015773Y014869D01*
X015810Y014780D01*
X018102Y012488D01*
X018150Y012468D01*
X018215Y012404D01*
X018215Y010556D01*
X018174Y010597D01*
X018049Y010648D01*
X017915Y010648D01*
X017790Y010597D01*
X017723Y010530D01*
X017529Y010530D01*
X015990Y008991D01*
X015871Y008991D01*
X015740Y008936D01*
X015639Y008836D01*
X015584Y008704D01*
X015584Y008562D01*
X015639Y008430D01*
X015665Y008404D01*
X009213Y008404D01*
X009149Y008468D01*
X009018Y008522D01*
X008875Y008522D01*
X008744Y008468D01*
X008643Y008367D01*
X008588Y008236D01*
X008588Y008093D01*
X008643Y007962D01*
X008744Y007861D01*
X008875Y007806D01*
X009018Y007806D01*
X009149Y007861D01*
X009213Y007924D01*
X015728Y007924D01*
X015639Y007836D01*
X015584Y007704D01*
X015584Y007614D01*
X015343Y007373D01*
X012895Y007373D01*
X012807Y007336D01*
X011807Y006336D01*
X011739Y006269D01*
X011703Y006181D01*
X011703Y005407D01*
X011631Y005336D01*
X011577Y005204D01*
X011577Y005062D01*
X011631Y004930D01*
X011732Y004829D01*
X011863Y004775D01*
X012006Y004775D01*
X012137Y004829D01*
X012238Y004930D01*
X012293Y005062D01*
X012293Y005204D01*
X012238Y005336D01*
X012183Y005391D01*
X012183Y006033D01*
X013042Y006893D01*
X015490Y006893D01*
X015578Y006929D01*
X015924Y007275D01*
X016014Y007275D01*
X016145Y007329D01*
X016246Y007430D01*
X016301Y007562D01*
X016301Y007704D01*
X016246Y007836D01*
X016157Y007924D01*
X016514Y007924D01*
X016602Y007961D01*
X016737Y008095D01*
X016757Y008144D01*
X017903Y009291D01*
X017998Y009291D01*
X018122Y009342D01*
X018215Y009434D01*
X018215Y008602D01*
X018060Y008448D01*
X017966Y008448D01*
X017841Y008396D01*
X017746Y008301D01*
X017695Y008177D01*
X017695Y008042D01*
X017746Y007918D01*
X017830Y007834D01*
X017777Y007834D01*
X017688Y007797D01*
X017621Y007729D01*
X017528Y007637D01*
X016576Y007637D01*
X016488Y007600D01*
X016420Y007533D01*
X015751Y006863D01*
X015725Y006801D01*
X015703Y006823D01*
X015534Y006893D01*
X015351Y006893D01*
X015182Y006823D01*
X015053Y006693D01*
X014983Y006524D01*
X014983Y005741D01*
X015053Y005572D01*
X015182Y005443D01*
X015351Y005373D01*
X015534Y005373D01*
X015611Y005405D01*
X015501Y005294D01*
X015371Y005294D01*
X015202Y005224D01*
X015072Y005095D01*
X015002Y004926D01*
X015002Y004143D01*
X015072Y003974D01*
X015202Y003844D01*
X015222Y003836D01*
X015222Y002447D01*
X015159Y002383D01*
X015104Y002251D01*
X015104Y002109D01*
X015159Y001977D01*
X015259Y001877D01*
X015391Y001822D01*
X015533Y001822D01*
X015665Y001877D01*
X015766Y001977D01*
X015820Y002109D01*
X015820Y002251D01*
X015766Y002383D01*
X015702Y002447D01*
X015702Y003836D01*
X015723Y003844D01*
X015852Y003974D01*
X015922Y004143D01*
X015922Y004926D01*
X015890Y005004D01*
X016090Y005205D01*
X016158Y005273D01*
X016194Y005361D01*
X016194Y005438D01*
X016345Y005375D01*
X016259Y005289D01*
X016239Y005240D01*
X016202Y005224D01*
X016072Y005095D01*
X016002Y004926D01*
X016002Y004143D01*
X016072Y003974D01*
X016202Y003844D01*
X016371Y003774D01*
X016554Y003774D01*
X016723Y003844D01*
X016852Y003974D01*
X016922Y004143D01*
X016922Y004926D01*
X016852Y005095D01*
X016798Y005149D01*
X017078Y005429D01*
X017078Y005429D01*
X017137Y005488D01*
X017182Y005443D01*
X017351Y005373D01*
X017534Y005373D01*
X017703Y005443D01*
X017832Y005572D01*
X017903Y005741D01*
X017903Y006368D01*
X017983Y006448D01*
X017983Y005741D01*
X018053Y005572D01*
X018182Y005443D01*
X018351Y005373D01*
X018534Y005373D01*
X018703Y005443D01*
X018706Y005446D01*
X018706Y005231D01*
X018554Y005294D01*
X018371Y005294D01*
X018202Y005224D01*
X018072Y005095D01*
X018002Y004926D01*
X018002Y004143D01*
X018072Y003974D01*
X018202Y003844D01*
X018371Y003774D01*
X018554Y003774D01*
X018723Y003844D01*
X018852Y003974D01*
X018922Y004143D01*
X018922Y004735D01*
X019002Y004655D01*
X019002Y004143D01*
X019072Y003974D01*
X019202Y003844D01*
X019203Y003844D02*
X019203Y003139D01*
X019155Y003092D01*
X019100Y002960D01*
X019100Y002818D01*
X019155Y002686D01*
X019255Y002585D01*
X019387Y002531D01*
X019530Y002531D01*
X019661Y002585D01*
X019762Y002686D01*
X019816Y002818D01*
X019816Y002960D01*
X019762Y003092D01*
X019683Y003171D01*
X019683Y003828D01*
X019723Y003844D01*
X019852Y003974D01*
X019922Y004143D01*
X019922Y004926D01*
X019852Y005095D01*
X019723Y005224D01*
X019554Y005294D01*
X019371Y005294D01*
X019202Y005224D01*
X019186Y005209D01*
X019186Y005450D01*
X019201Y005439D01*
X019266Y005407D01*
X019335Y005384D01*
X019403Y005373D01*
X019403Y006093D01*
X019483Y006093D01*
X019483Y006173D01*
X019903Y006173D01*
X019903Y006469D01*
X019891Y006541D01*
X019869Y006609D01*
X019836Y006674D01*
X019793Y006733D01*
X019742Y006784D01*
X019684Y006826D01*
X019619Y006859D01*
X019550Y006882D01*
X019489Y006891D01*
X020078Y007481D01*
X020146Y007548D01*
X020181Y007632D01*
X020211Y007602D01*
X020336Y007550D01*
X020470Y007550D01*
X020595Y007602D01*
X020690Y007697D01*
X020742Y007821D01*
X020742Y007888D01*
X021054Y008200D01*
X021829Y008200D01*
X021716Y008153D01*
X021615Y008052D01*
X021561Y007921D01*
X021561Y007778D01*
X021615Y007647D01*
X021716Y007546D01*
X021848Y007491D01*
X021898Y007491D01*
X022683Y006707D01*
X022683Y004189D01*
X022531Y004037D01*
X022463Y003970D01*
X022427Y003881D01*
X022427Y002159D01*
X022371Y002103D01*
X022317Y001972D01*
X022317Y001829D01*
X022371Y001698D01*
X022472Y001597D01*
X022604Y001542D01*
X022746Y001542D01*
X022574Y001555D02*
X000943Y001555D01*
X000943Y001673D02*
X022396Y001673D01*
X022332Y001792D02*
X000943Y001792D01*
X000943Y001910D02*
X015226Y001910D01*
X015137Y002029D02*
X000943Y002029D01*
X000943Y002147D02*
X015104Y002147D01*
X015110Y002266D02*
X000943Y002266D01*
X000943Y002384D02*
X015160Y002384D01*
X015222Y002503D02*
X000943Y002503D01*
X000943Y002621D02*
X011798Y002621D01*
X011753Y002666D02*
X011854Y002566D01*
X011985Y002511D01*
X012128Y002511D01*
X012260Y002566D01*
X012360Y002666D01*
X012415Y002798D01*
X012415Y002940D01*
X012360Y003072D01*
X012297Y003136D01*
X012297Y004063D01*
X012260Y004151D01*
X011297Y005114D01*
X011297Y005204D01*
X011242Y005336D01*
X011141Y005436D01*
X011010Y005491D01*
X010867Y005491D01*
X010736Y005436D01*
X010635Y005336D01*
X010580Y005204D01*
X010580Y005062D01*
X010635Y004930D01*
X010736Y004829D01*
X010867Y004775D01*
X010957Y004775D01*
X011817Y003915D01*
X011817Y003136D01*
X011753Y003072D01*
X011699Y002940D01*
X011699Y002798D01*
X011753Y002666D01*
X011723Y002740D02*
X000943Y002740D01*
X000943Y002858D02*
X011699Y002858D01*
X011714Y002977D02*
X000943Y002977D01*
X000943Y003095D02*
X011777Y003095D01*
X011817Y003214D02*
X000943Y003214D01*
X000943Y003332D02*
X011817Y003332D01*
X011817Y003451D02*
X000943Y003451D01*
X000943Y003569D02*
X011817Y003569D01*
X011817Y003688D02*
X000943Y003688D01*
X000943Y003806D02*
X011817Y003806D01*
X011807Y003925D02*
X000943Y003925D01*
X000943Y004043D02*
X011689Y004043D01*
X011570Y004162D02*
X000943Y004162D01*
X000943Y004280D02*
X011452Y004280D01*
X011333Y004399D02*
X000943Y004399D01*
X000943Y004517D02*
X011215Y004517D01*
X011096Y004636D02*
X000943Y004636D01*
X000943Y004754D02*
X010978Y004754D01*
X010692Y004873D02*
X000943Y004873D01*
X000943Y004991D02*
X010610Y004991D01*
X010580Y005110D02*
X000943Y005110D01*
X000943Y005228D02*
X007201Y005228D01*
X007196Y005231D02*
X007262Y005197D01*
X007332Y005174D01*
X007399Y005164D01*
X007399Y005590D01*
X006973Y005590D01*
X006984Y005523D01*
X007007Y005452D01*
X007041Y005387D01*
X007084Y005327D01*
X007136Y005274D01*
X007196Y005231D01*
X007069Y005347D02*
X000943Y005347D01*
X000943Y005465D02*
X007003Y005465D01*
X006974Y005584D02*
X000943Y005584D01*
X000943Y005702D02*
X006978Y005702D01*
X006973Y005676D02*
X007399Y005676D01*
X007399Y005590D01*
X007486Y005590D01*
X007486Y005676D01*
X007912Y005676D01*
X007901Y005743D01*
X007878Y005813D01*
X007845Y005879D01*
X007801Y005939D01*
X007749Y005991D01*
X007689Y006035D01*
X007623Y006068D01*
X007553Y006091D01*
X007486Y006102D01*
X007486Y005676D01*
X007399Y005676D01*
X007399Y006102D01*
X007332Y006091D01*
X007262Y006068D01*
X007196Y006035D01*
X007136Y005991D01*
X007084Y005939D01*
X007041Y005879D01*
X007007Y005813D01*
X006984Y005743D01*
X006973Y005676D01*
X007011Y005821D02*
X000943Y005821D01*
X000943Y005939D02*
X007084Y005939D01*
X007241Y006058D02*
X000943Y006058D01*
X000943Y006176D02*
X008263Y006176D01*
X008333Y006147D02*
X008161Y006219D01*
X008028Y006351D01*
X007957Y006524D01*
X007957Y006711D01*
X007968Y006737D01*
X006460Y008244D01*
X006460Y008244D01*
X006393Y008312D01*
X006356Y008400D01*
X006356Y012048D01*
X006320Y012084D01*
X006266Y012215D01*
X006266Y012358D01*
X006320Y012489D01*
X006421Y012590D01*
X006552Y012645D01*
X006695Y012645D01*
X006826Y012590D01*
X006927Y012489D01*
X006982Y012358D01*
X006982Y012215D01*
X006927Y012084D01*
X006836Y011992D01*
X006836Y008547D01*
X008307Y007076D01*
X008333Y007087D01*
X008520Y007087D01*
X008693Y007016D01*
X008825Y006883D01*
X008897Y006711D01*
X008897Y006524D01*
X008825Y006351D01*
X008693Y006219D01*
X008520Y006147D01*
X008333Y006147D01*
X008591Y006176D02*
X011703Y006176D01*
X011703Y006058D02*
X009613Y006058D01*
X009677Y006031D02*
X009505Y006103D01*
X009318Y006103D01*
X009145Y006031D01*
X009013Y005899D01*
X008941Y005726D01*
X008941Y005539D01*
X009013Y005367D01*
X009145Y005234D01*
X009318Y005163D01*
X009505Y005163D01*
X009677Y005234D01*
X009810Y005367D01*
X009881Y005539D01*
X009881Y005726D01*
X009810Y005899D01*
X009677Y006031D01*
X009769Y005939D02*
X011703Y005939D01*
X011703Y005821D02*
X009842Y005821D01*
X009881Y005702D02*
X011703Y005702D01*
X011703Y005584D02*
X009881Y005584D01*
X009850Y005465D02*
X010806Y005465D01*
X010646Y005347D02*
X009790Y005347D01*
X009663Y005228D02*
X010591Y005228D01*
X011072Y005465D02*
X011703Y005465D01*
X011642Y005347D02*
X011231Y005347D01*
X011287Y005228D02*
X011587Y005228D01*
X011577Y005110D02*
X011301Y005110D01*
X011419Y004991D02*
X011606Y004991D01*
X011538Y004873D02*
X011688Y004873D01*
X011656Y004754D02*
X012974Y004754D01*
X012965Y004763D02*
X013510Y004219D01*
X013510Y003069D01*
X013533Y003012D01*
X013533Y002904D01*
X013588Y002773D01*
X013688Y002672D01*
X013820Y002617D01*
X013963Y002617D01*
X014094Y002672D01*
X014195Y002773D01*
X014249Y002904D01*
X014249Y003047D01*
X014195Y003178D01*
X014094Y003279D01*
X013990Y003322D01*
X013990Y004393D01*
X013953Y004481D01*
X013886Y004549D01*
X013839Y004568D01*
X013305Y005102D01*
X013305Y005192D01*
X013250Y005324D01*
X013149Y005425D01*
X013018Y005479D01*
X012875Y005479D01*
X012744Y005425D01*
X012643Y005324D01*
X012588Y005192D01*
X012588Y005050D01*
X012643Y004918D01*
X012744Y004817D01*
X012875Y004763D01*
X012965Y004763D01*
X013092Y004636D02*
X011775Y004636D01*
X011893Y004517D02*
X013211Y004517D01*
X013329Y004399D02*
X012012Y004399D01*
X012130Y004280D02*
X013448Y004280D01*
X013510Y004162D02*
X012249Y004162D01*
X012297Y004043D02*
X013510Y004043D01*
X013510Y003925D02*
X012297Y003925D01*
X012297Y003806D02*
X013510Y003806D01*
X013510Y003688D02*
X012297Y003688D01*
X012297Y003569D02*
X013510Y003569D01*
X013510Y003451D02*
X012297Y003451D01*
X012297Y003332D02*
X013510Y003332D01*
X013510Y003214D02*
X012297Y003214D01*
X012337Y003095D02*
X013510Y003095D01*
X013533Y002977D02*
X012400Y002977D01*
X012415Y002858D02*
X013552Y002858D01*
X013620Y002740D02*
X012391Y002740D01*
X012315Y002621D02*
X013810Y002621D01*
X013972Y002621D02*
X015222Y002621D01*
X015222Y002740D02*
X014162Y002740D01*
X014230Y002858D02*
X015222Y002858D01*
X015222Y002977D02*
X014249Y002977D01*
X014229Y003095D02*
X015222Y003095D01*
X015222Y003214D02*
X014159Y003214D01*
X013990Y003332D02*
X015222Y003332D01*
X015222Y003451D02*
X013990Y003451D01*
X013990Y003569D02*
X015222Y003569D01*
X015222Y003688D02*
X013990Y003688D01*
X013990Y003806D02*
X014294Y003806D01*
X014371Y003774D02*
X014202Y003844D01*
X014072Y003974D01*
X014002Y004143D01*
X014002Y004926D01*
X014072Y005095D01*
X014202Y005224D01*
X014371Y005294D01*
X014554Y005294D01*
X014723Y005224D01*
X014852Y005095D01*
X014922Y004926D01*
X014922Y004143D01*
X014852Y003974D01*
X014723Y003844D01*
X014554Y003774D01*
X014371Y003774D01*
X014631Y003806D02*
X015222Y003806D01*
X015121Y003925D02*
X014803Y003925D01*
X014881Y004043D02*
X015043Y004043D01*
X015002Y004162D02*
X014922Y004162D01*
X014922Y004280D02*
X015002Y004280D01*
X015002Y004399D02*
X014922Y004399D01*
X014922Y004517D02*
X015002Y004517D01*
X015002Y004636D02*
X014922Y004636D01*
X014922Y004754D02*
X015002Y004754D01*
X015002Y004873D02*
X014922Y004873D01*
X014895Y004991D02*
X015029Y004991D01*
X015087Y005110D02*
X014837Y005110D01*
X014713Y005228D02*
X015211Y005228D01*
X015159Y005465D02*
X013051Y005465D01*
X012842Y005465D02*
X012183Y005465D01*
X012183Y005584D02*
X015048Y005584D01*
X014999Y005702D02*
X012183Y005702D01*
X012183Y005821D02*
X014983Y005821D01*
X014983Y005939D02*
X012183Y005939D01*
X012207Y006058D02*
X014983Y006058D01*
X014983Y006176D02*
X012325Y006176D01*
X012444Y006295D02*
X014983Y006295D01*
X014983Y006413D02*
X012562Y006413D01*
X012681Y006532D02*
X014986Y006532D01*
X015035Y006650D02*
X012799Y006650D01*
X012918Y006769D02*
X015128Y006769D01*
X015338Y006887D02*
X013036Y006887D01*
X012595Y007124D02*
X008259Y007124D01*
X008140Y007243D02*
X012713Y007243D01*
X012867Y007361D02*
X008022Y007361D01*
X007903Y007480D02*
X015450Y007480D01*
X015569Y007598D02*
X007785Y007598D01*
X007666Y007717D02*
X015590Y007717D01*
X015639Y007835D02*
X009088Y007835D01*
X008805Y007835D02*
X007548Y007835D01*
X007429Y007954D02*
X008650Y007954D01*
X008597Y008072D02*
X007311Y008072D01*
X007192Y008191D02*
X008588Y008191D01*
X008619Y008309D02*
X007074Y008309D01*
X006955Y008428D02*
X008297Y008428D01*
X008324Y008416D02*
X008467Y008416D01*
X008598Y008471D01*
X008662Y008535D01*
X014329Y008535D01*
X014417Y008571D01*
X015226Y009380D01*
X015405Y009201D01*
X015493Y009165D01*
X015617Y009165D01*
X015664Y009118D01*
X015789Y009066D01*
X015923Y009066D01*
X016048Y009118D01*
X016143Y009213D01*
X016194Y009337D01*
X016194Y009472D01*
X016143Y009596D01*
X016048Y009691D01*
X015941Y009735D01*
X015982Y009735D01*
X016107Y009787D01*
X016202Y009882D01*
X016253Y010007D01*
X016253Y010073D01*
X016256Y010076D01*
X016293Y010164D01*
X016293Y012563D01*
X016256Y012651D01*
X016189Y012718D01*
X015528Y013379D01*
X015460Y013447D01*
X015372Y013483D01*
X011969Y013483D01*
X011905Y013547D01*
X011774Y013601D01*
X011631Y013601D01*
X011500Y013547D01*
X011399Y013446D01*
X011344Y013314D01*
X011344Y013172D01*
X011399Y013040D01*
X011448Y012991D01*
X009424Y012991D01*
X006085Y016330D01*
X006092Y016349D01*
X006092Y016531D01*
X006023Y016699D01*
X005894Y016827D01*
X005726Y016897D01*
X005545Y016897D01*
X005377Y016827D01*
X005248Y016699D01*
X005179Y016531D01*
X005179Y016349D01*
X005248Y016181D01*
X005377Y016053D01*
X005392Y016046D01*
X005377Y016040D01*
X005248Y015911D01*
X005179Y015743D01*
X005179Y015562D01*
X005248Y015394D01*
X005377Y015265D01*
X005545Y015196D01*
X005726Y015196D01*
X005894Y015265D01*
X005932Y015304D01*
X008166Y013070D01*
X008121Y013070D01*
X008098Y013092D01*
X008010Y013129D01*
X006304Y013129D01*
X006216Y013092D01*
X005323Y012200D01*
X005233Y012200D01*
X005102Y012145D01*
X005001Y012044D01*
X004947Y011913D01*
X004947Y011770D01*
X005001Y011639D01*
X005102Y011538D01*
X005233Y011483D01*
X005376Y011483D01*
X005508Y011538D01*
X005608Y011639D01*
X005663Y011770D01*
X005663Y011860D01*
X006451Y012649D01*
X007781Y012649D01*
X007781Y012640D01*
X007836Y012509D01*
X007937Y012408D01*
X008068Y012354D01*
X008211Y012354D01*
X008342Y012408D01*
X008443Y012509D01*
X008497Y012640D01*
X008497Y012739D01*
X009181Y012055D01*
X009269Y012019D01*
X012980Y012019D01*
X013026Y011972D01*
X013151Y011920D01*
X013249Y011920D01*
X010953Y009625D01*
X008696Y009625D01*
X008679Y009666D01*
X008578Y009767D01*
X008447Y009822D01*
X008304Y009822D01*
X008173Y009767D01*
X008072Y009666D01*
X008017Y009535D01*
X008017Y009392D01*
X008072Y009261D01*
X008173Y009160D01*
X008281Y009115D01*
X008192Y009078D01*
X008092Y008977D01*
X008037Y008846D01*
X008037Y008703D01*
X008092Y008572D01*
X008192Y008471D01*
X008324Y008416D01*
X008494Y008428D02*
X008704Y008428D01*
X008117Y008546D02*
X006837Y008546D01*
X006836Y008665D02*
X008053Y008665D01*
X008037Y008783D02*
X006836Y008783D01*
X006836Y008902D02*
X008060Y008902D01*
X008135Y009020D02*
X006836Y009020D01*
X006836Y009139D02*
X008224Y009139D01*
X008075Y009257D02*
X006836Y009257D01*
X006836Y009376D02*
X008024Y009376D01*
X008017Y009494D02*
X006836Y009494D01*
X006836Y009613D02*
X008050Y009613D01*
X008137Y009731D02*
X006836Y009731D01*
X006836Y009850D02*
X011178Y009850D01*
X011060Y009731D02*
X008614Y009731D01*
X006836Y009968D02*
X011297Y009968D01*
X011415Y010087D02*
X006836Y010087D01*
X006836Y010205D02*
X011534Y010205D01*
X011652Y010324D02*
X006836Y010324D01*
X006836Y010442D02*
X011771Y010442D01*
X011889Y010561D02*
X006836Y010561D01*
X006836Y010679D02*
X012008Y010679D01*
X012126Y010798D02*
X006836Y010798D01*
X006836Y010916D02*
X012245Y010916D01*
X012363Y011035D02*
X006836Y011035D01*
X006836Y011153D02*
X012482Y011153D01*
X012600Y011272D02*
X006836Y011272D01*
X006836Y011390D02*
X012719Y011390D01*
X012837Y011509D02*
X006836Y011509D01*
X006836Y011627D02*
X012956Y011627D01*
X013074Y011746D02*
X006836Y011746D01*
X006836Y011864D02*
X013193Y011864D01*
X013015Y011983D02*
X006836Y011983D01*
X006935Y012101D02*
X009135Y012101D01*
X009016Y012220D02*
X006982Y012220D01*
X006982Y012338D02*
X008898Y012338D01*
X008779Y012457D02*
X008391Y012457D01*
X008471Y012575D02*
X008661Y012575D01*
X008542Y012694D02*
X008497Y012694D01*
X007888Y012457D02*
X006941Y012457D01*
X006841Y012575D02*
X007808Y012575D01*
X008068Y013168D02*
X005381Y013168D01*
X005387Y013182D02*
X005416Y013291D01*
X005431Y013400D01*
X004629Y013400D01*
X004629Y013520D01*
X005431Y013520D01*
X005416Y013628D01*
X005387Y013738D01*
X005344Y013842D01*
X005287Y013940D01*
X005219Y014030D01*
X005139Y014110D01*
X005049Y014179D01*
X004951Y014235D01*
X004846Y014278D01*
X004737Y014308D01*
X004629Y014322D01*
X004629Y013520D01*
X004509Y013520D01*
X004509Y014322D01*
X004400Y014308D01*
X004291Y014278D01*
X004186Y014235D01*
X004088Y014179D01*
X003998Y014110D01*
X003918Y014030D01*
X003850Y013940D01*
X003793Y013842D01*
X003750Y013738D01*
X003721Y013628D01*
X003706Y013520D01*
X004508Y013520D01*
X004508Y013400D01*
X003706Y013400D01*
X003721Y013291D01*
X003750Y013182D01*
X003793Y013077D01*
X003850Y012979D01*
X003918Y012890D01*
X003998Y012810D01*
X004088Y012741D01*
X004186Y012684D01*
X004291Y012641D01*
X004400Y012612D01*
X004509Y012597D01*
X004509Y013400D01*
X004629Y013400D01*
X004629Y012597D01*
X004737Y012612D01*
X004846Y012641D01*
X004951Y012684D01*
X005049Y012741D01*
X005139Y012810D01*
X005219Y012890D01*
X005287Y012979D01*
X005344Y013077D01*
X005387Y013182D01*
X005415Y013286D02*
X007950Y013286D01*
X007831Y013405D02*
X004629Y013405D01*
X004629Y013523D02*
X004509Y013523D01*
X004508Y013405D02*
X000943Y013405D01*
X000943Y013523D02*
X003707Y013523D01*
X003724Y013642D02*
X000943Y013642D01*
X000943Y013760D02*
X003759Y013760D01*
X003814Y013879D02*
X000943Y013879D01*
X000943Y013997D02*
X003894Y013997D01*
X004007Y014116D02*
X000943Y014116D01*
X000943Y014234D02*
X004185Y014234D01*
X004509Y014234D02*
X004629Y014234D01*
X004629Y014116D02*
X004509Y014116D01*
X004509Y013997D02*
X004629Y013997D01*
X004629Y013879D02*
X004509Y013879D01*
X004509Y013760D02*
X004629Y013760D01*
X004629Y013642D02*
X004509Y013642D01*
X004509Y013286D02*
X004629Y013286D01*
X004629Y013168D02*
X004509Y013168D01*
X004509Y013049D02*
X004629Y013049D01*
X004629Y012931D02*
X004509Y012931D01*
X004509Y012812D02*
X004629Y012812D01*
X004629Y012694D02*
X004509Y012694D01*
X004169Y012694D02*
X000943Y012694D01*
X000943Y012812D02*
X003996Y012812D01*
X003887Y012931D02*
X000943Y012931D01*
X000943Y013049D02*
X003809Y013049D01*
X003756Y013168D02*
X000943Y013168D01*
X000943Y013286D02*
X003722Y013286D01*
X004968Y012694D02*
X005818Y012694D01*
X005936Y012812D02*
X005141Y012812D01*
X005250Y012931D02*
X006055Y012931D01*
X006173Y013049D02*
X005328Y013049D01*
X005430Y013523D02*
X007713Y013523D01*
X007594Y013642D02*
X005413Y013642D01*
X005378Y013760D02*
X007476Y013760D01*
X007357Y013879D02*
X005323Y013879D01*
X005243Y013997D02*
X007239Y013997D01*
X007120Y014116D02*
X005130Y014116D01*
X004952Y014234D02*
X005492Y014234D01*
X005460Y014245D02*
X005528Y014223D01*
X005597Y014212D01*
X005597Y014630D01*
X005179Y014630D01*
X005190Y014561D01*
X005212Y014493D01*
X005245Y014429D01*
X005287Y014371D01*
X005338Y014320D01*
X005396Y014278D01*
X005460Y014245D01*
X005597Y014234D02*
X005674Y014234D01*
X005674Y014212D02*
X005742Y014223D01*
X005811Y014245D01*
X005875Y014278D01*
X005933Y014320D01*
X005984Y014371D01*
X006026Y014429D01*
X006059Y014493D01*
X006081Y014561D01*
X006092Y014630D01*
X005674Y014630D01*
X005674Y014707D01*
X005597Y014707D01*
X005597Y015125D01*
X005528Y015114D01*
X005460Y015092D01*
X005396Y015059D01*
X005338Y015017D01*
X005287Y014966D01*
X005245Y014908D01*
X005212Y014844D01*
X005190Y014775D01*
X005179Y014707D01*
X005597Y014707D01*
X005597Y014630D01*
X005674Y014630D01*
X005674Y014212D01*
X005778Y014234D02*
X007002Y014234D01*
X006883Y014353D02*
X005966Y014353D01*
X006048Y014471D02*
X006765Y014471D01*
X006646Y014590D02*
X006086Y014590D01*
X006092Y014707D02*
X006081Y014775D01*
X006059Y014844D01*
X006026Y014908D01*
X005984Y014966D01*
X005933Y015017D01*
X005875Y015059D01*
X005811Y015092D01*
X005742Y015114D01*
X005674Y015125D01*
X005674Y014707D01*
X006092Y014707D01*
X006092Y014708D02*
X006528Y014708D01*
X006409Y014827D02*
X006064Y014827D01*
X005999Y014945D02*
X006291Y014945D01*
X006172Y015064D02*
X005865Y015064D01*
X005674Y015064D02*
X005597Y015064D01*
X005597Y014945D02*
X005674Y014945D01*
X005674Y014827D02*
X005597Y014827D01*
X005597Y014708D02*
X005674Y014708D01*
X005674Y014590D02*
X005597Y014590D01*
X005597Y014471D02*
X005674Y014471D01*
X005674Y014353D02*
X005597Y014353D01*
X005305Y014353D02*
X000943Y014353D01*
X000943Y014471D02*
X005223Y014471D01*
X005185Y014590D02*
X000943Y014590D01*
X000943Y014708D02*
X005179Y014708D01*
X005207Y014827D02*
X000943Y014827D01*
X000943Y014945D02*
X005272Y014945D01*
X005406Y015064D02*
X000943Y015064D01*
X000943Y015182D02*
X006054Y015182D01*
X005935Y015301D02*
X005930Y015301D01*
X005341Y015301D02*
X000943Y015301D01*
X000943Y015419D02*
X005238Y015419D01*
X005188Y015538D02*
X000943Y015538D01*
X000943Y015656D02*
X005179Y015656D01*
X005192Y015775D02*
X000943Y015775D01*
X000943Y015893D02*
X005241Y015893D01*
X005349Y016012D02*
X000943Y016012D01*
X000943Y016130D02*
X005299Y016130D01*
X005220Y016249D02*
X000943Y016249D01*
X000943Y016367D02*
X005179Y016367D01*
X005179Y016486D02*
X000943Y016486D01*
X000943Y016604D02*
X005209Y016604D01*
X005272Y016723D02*
X000943Y016723D01*
X000943Y016841D02*
X005411Y016841D01*
X005545Y016967D02*
X005726Y016967D01*
X005894Y017037D01*
X006023Y017165D01*
X006070Y017279D01*
X006290Y017499D01*
X006353Y017650D01*
X006353Y020714D01*
X006290Y020865D01*
X006175Y020980D01*
X006045Y021110D01*
X006045Y021763D01*
X006056Y021789D01*
X006056Y022572D01*
X005986Y022741D01*
X005857Y022870D01*
X005688Y022940D01*
X005505Y022940D01*
X005335Y022870D01*
X005206Y022741D01*
X005136Y022572D01*
X005136Y021789D01*
X005206Y021620D01*
X005225Y021600D01*
X005225Y020858D01*
X005288Y020708D01*
X005533Y020463D01*
X005533Y017901D01*
X005490Y017858D01*
X005377Y017812D01*
X005248Y017683D01*
X005179Y017515D01*
X005179Y017333D01*
X005248Y017165D01*
X005377Y017037D01*
X005545Y016967D01*
X005335Y017078D02*
X000943Y017078D01*
X000943Y016960D02*
X006356Y016960D01*
X006356Y016927D02*
X006320Y016891D01*
X006266Y016759D01*
X006266Y016617D01*
X006320Y016485D01*
X006421Y016384D01*
X006552Y016330D01*
X006695Y016330D01*
X006826Y016384D01*
X006927Y016485D01*
X006982Y016617D01*
X006982Y016759D01*
X006927Y016891D01*
X006836Y016982D01*
X006836Y021482D01*
X006857Y021490D01*
X006986Y021620D01*
X007056Y021789D01*
X007056Y022572D01*
X006986Y022741D01*
X006857Y022870D01*
X006688Y022940D01*
X006505Y022940D01*
X006335Y022870D01*
X006206Y022741D01*
X006136Y022572D01*
X006136Y021789D01*
X006206Y021620D01*
X006335Y021490D01*
X006356Y021482D01*
X006356Y016927D01*
X006300Y016841D02*
X005860Y016841D01*
X005999Y016723D02*
X006266Y016723D01*
X006271Y016604D02*
X006062Y016604D01*
X006092Y016486D02*
X006320Y016486D01*
X006462Y016367D02*
X006092Y016367D01*
X006166Y016249D02*
X015621Y016249D01*
X015739Y016130D02*
X006284Y016130D01*
X006403Y016012D02*
X015773Y016012D01*
X015773Y015893D02*
X006521Y015893D01*
X006640Y015775D02*
X015773Y015775D01*
X015773Y015656D02*
X006758Y015656D01*
X006877Y015538D02*
X015773Y015538D01*
X015773Y015419D02*
X006995Y015419D01*
X007114Y015301D02*
X015773Y015301D01*
X015773Y015182D02*
X007232Y015182D01*
X007351Y015064D02*
X015773Y015064D01*
X015773Y014945D02*
X007469Y014945D01*
X007588Y014827D02*
X015791Y014827D01*
X015882Y014708D02*
X007706Y014708D01*
X007825Y014590D02*
X016000Y014590D01*
X016119Y014471D02*
X007943Y014471D01*
X008062Y014353D02*
X016237Y014353D01*
X016356Y014234D02*
X008180Y014234D01*
X008299Y014116D02*
X016474Y014116D01*
X016593Y013997D02*
X008417Y013997D01*
X008536Y013879D02*
X016711Y013879D01*
X016830Y013760D02*
X008654Y013760D01*
X008773Y013642D02*
X016948Y013642D01*
X017067Y013523D02*
X011929Y013523D01*
X011476Y013523D02*
X008891Y013523D01*
X009010Y013405D02*
X011382Y013405D01*
X011344Y013286D02*
X009128Y013286D01*
X009247Y013168D02*
X011346Y013168D01*
X011395Y013049D02*
X009365Y013049D01*
X006406Y012575D02*
X006378Y012575D01*
X006307Y012457D02*
X006259Y012457D01*
X006266Y012338D02*
X006141Y012338D01*
X006022Y012220D02*
X006266Y012220D01*
X006313Y012101D02*
X005904Y012101D01*
X005785Y011983D02*
X006356Y011983D01*
X006356Y011864D02*
X005667Y011864D01*
X005653Y011746D02*
X006356Y011746D01*
X006356Y011627D02*
X005597Y011627D01*
X005437Y011509D02*
X006356Y011509D01*
X006356Y011390D02*
X000943Y011390D01*
X000943Y011272D02*
X002214Y011272D01*
X002219Y011273D02*
X002092Y011248D01*
X001969Y011210D01*
X001850Y011161D01*
X001737Y011100D01*
X001630Y011029D01*
X001530Y010947D01*
X001439Y010856D01*
X001358Y010757D01*
X001286Y010650D01*
X001225Y010536D01*
X001176Y010417D01*
X001139Y010294D01*
X001114Y010168D01*
X001101Y010040D01*
X001101Y010035D01*
X002351Y010035D01*
X002351Y009915D01*
X002471Y009915D01*
X002471Y008665D01*
X002475Y008665D01*
X002603Y008678D01*
X002730Y008703D01*
X002853Y008740D01*
X002972Y008790D01*
X003085Y008850D01*
X003192Y008922D01*
X003292Y009004D01*
X003383Y009095D01*
X003464Y009194D01*
X003536Y009301D01*
X003597Y009415D01*
X003646Y009534D01*
X003683Y009657D01*
X003708Y009783D01*
X003721Y009911D01*
X003721Y009915D01*
X002471Y009915D01*
X002471Y010035D01*
X003721Y010035D01*
X003721Y010040D01*
X003708Y010168D01*
X003683Y010294D01*
X003646Y010417D01*
X003597Y010536D01*
X003536Y010650D01*
X003464Y010757D01*
X003383Y010856D01*
X003292Y010947D01*
X003192Y011029D01*
X003085Y011100D01*
X002972Y011161D01*
X002853Y011210D01*
X002730Y011248D01*
X002603Y011273D01*
X002475Y011285D01*
X002471Y011285D01*
X002471Y010035D01*
X002351Y010035D01*
X002351Y011285D01*
X002347Y011285D01*
X002219Y011273D01*
X002351Y011272D02*
X002471Y011272D01*
X002471Y011153D02*
X002351Y011153D01*
X002351Y011035D02*
X002471Y011035D01*
X002471Y010916D02*
X002351Y010916D01*
X002351Y010798D02*
X002471Y010798D01*
X002471Y010679D02*
X002351Y010679D01*
X002351Y010561D02*
X002471Y010561D01*
X002471Y010442D02*
X002351Y010442D01*
X002351Y010324D02*
X002471Y010324D01*
X002471Y010205D02*
X002351Y010205D01*
X002351Y010087D02*
X002471Y010087D01*
X002471Y009968D02*
X006356Y009968D01*
X006356Y009850D02*
X003715Y009850D01*
X003698Y009731D02*
X006356Y009731D01*
X006356Y009613D02*
X003670Y009613D01*
X003630Y009494D02*
X006356Y009494D01*
X006356Y009376D02*
X003576Y009376D01*
X003507Y009257D02*
X006356Y009257D01*
X006356Y009139D02*
X003419Y009139D01*
X003309Y009020D02*
X006356Y009020D01*
X006356Y008902D02*
X003162Y008902D01*
X002956Y008783D02*
X006356Y008783D01*
X006356Y008665D02*
X000943Y008665D01*
X000943Y008783D02*
X001866Y008783D01*
X001850Y008790D02*
X001969Y008740D01*
X002092Y008703D01*
X002219Y008678D01*
X002347Y008665D01*
X002351Y008665D01*
X002351Y009915D01*
X001101Y009915D01*
X001101Y009911D01*
X001114Y009783D01*
X001139Y009657D01*
X001176Y009534D01*
X001225Y009415D01*
X001286Y009301D01*
X001358Y009194D01*
X001439Y009095D01*
X001530Y009004D01*
X001630Y008922D01*
X001737Y008850D01*
X001850Y008790D01*
X001660Y008902D02*
X000943Y008902D01*
X000943Y009020D02*
X001513Y009020D01*
X001403Y009139D02*
X000943Y009139D01*
X000943Y009257D02*
X001315Y009257D01*
X001246Y009376D02*
X000943Y009376D01*
X000943Y009494D02*
X001192Y009494D01*
X001152Y009613D02*
X000943Y009613D01*
X000943Y009731D02*
X001124Y009731D01*
X001107Y009850D02*
X000943Y009850D01*
X000943Y009968D02*
X002351Y009968D01*
X002351Y009850D02*
X002471Y009850D01*
X002471Y009731D02*
X002351Y009731D01*
X002351Y009613D02*
X002471Y009613D01*
X002471Y009494D02*
X002351Y009494D01*
X002351Y009376D02*
X002471Y009376D01*
X002471Y009257D02*
X002351Y009257D01*
X002351Y009139D02*
X002471Y009139D01*
X002471Y009020D02*
X002351Y009020D01*
X002351Y008902D02*
X002471Y008902D01*
X002471Y008783D02*
X002351Y008783D01*
X000943Y008546D02*
X006356Y008546D01*
X006356Y008428D02*
X000943Y008428D01*
X000943Y008309D02*
X006395Y008309D01*
X006514Y008191D02*
X000943Y008191D01*
X000943Y008072D02*
X006632Y008072D01*
X006751Y007954D02*
X000943Y007954D01*
X000943Y007835D02*
X006869Y007835D01*
X006988Y007717D02*
X000943Y007717D01*
X000943Y007598D02*
X007106Y007598D01*
X007225Y007480D02*
X000943Y007480D01*
X000943Y007361D02*
X007343Y007361D01*
X007462Y007243D02*
X000943Y007243D01*
X000943Y007124D02*
X007580Y007124D01*
X007699Y007006D02*
X000943Y007006D01*
X000943Y006887D02*
X007817Y006887D01*
X007936Y006769D02*
X000943Y006769D01*
X000943Y006650D02*
X007957Y006650D01*
X007957Y006532D02*
X000943Y006532D01*
X000943Y006413D02*
X008002Y006413D01*
X008084Y006295D02*
X000943Y006295D01*
X007399Y006058D02*
X007486Y006058D01*
X007486Y005939D02*
X007399Y005939D01*
X007399Y005821D02*
X007486Y005821D01*
X007486Y005702D02*
X007399Y005702D01*
X007399Y005584D02*
X007486Y005584D01*
X007486Y005590D02*
X007486Y005164D01*
X007553Y005174D01*
X007623Y005197D01*
X007689Y005231D01*
X007749Y005274D01*
X007801Y005327D01*
X007845Y005387D01*
X007878Y005452D01*
X007901Y005523D01*
X007912Y005590D01*
X007486Y005590D01*
X007486Y005465D02*
X007399Y005465D01*
X007399Y005347D02*
X007486Y005347D01*
X007486Y005228D02*
X007399Y005228D01*
X007684Y005228D02*
X009159Y005228D01*
X009032Y005347D02*
X007816Y005347D01*
X007882Y005465D02*
X008972Y005465D01*
X008941Y005584D02*
X007911Y005584D01*
X007907Y005702D02*
X008941Y005702D01*
X008980Y005821D02*
X007874Y005821D01*
X007801Y005939D02*
X009053Y005939D01*
X009209Y006058D02*
X007644Y006058D01*
X008769Y006295D02*
X011765Y006295D01*
X011884Y006413D02*
X008851Y006413D01*
X008897Y006532D02*
X012002Y006532D01*
X012121Y006650D02*
X008897Y006650D01*
X008873Y006769D02*
X012239Y006769D01*
X012358Y006887D02*
X008821Y006887D01*
X008703Y007006D02*
X012476Y007006D01*
X014357Y008546D02*
X015591Y008546D01*
X015584Y008665D02*
X014511Y008665D01*
X014629Y008783D02*
X015617Y008783D01*
X015705Y008902D02*
X014748Y008902D01*
X014866Y009020D02*
X016019Y009020D01*
X016069Y009139D02*
X016137Y009139D01*
X016161Y009257D02*
X016256Y009257D01*
X016194Y009376D02*
X016374Y009376D01*
X016493Y009494D02*
X016185Y009494D01*
X016126Y009613D02*
X016611Y009613D01*
X016730Y009731D02*
X015951Y009731D01*
X016170Y009850D02*
X016848Y009850D01*
X016967Y009968D02*
X016238Y009968D01*
X016261Y010087D02*
X017085Y010087D01*
X017204Y010205D02*
X016293Y010205D01*
X016293Y010324D02*
X017322Y010324D01*
X017441Y010442D02*
X016293Y010442D01*
X016293Y010561D02*
X017754Y010561D01*
X017620Y010310D02*
X015943Y008633D01*
X015641Y008428D02*
X009189Y008428D01*
X006356Y010087D02*
X003716Y010087D01*
X003701Y010205D02*
X006356Y010205D01*
X006356Y010324D02*
X003674Y010324D01*
X003636Y010442D02*
X006356Y010442D01*
X006356Y010561D02*
X003583Y010561D01*
X003516Y010679D02*
X006356Y010679D01*
X006356Y010798D02*
X003431Y010798D01*
X003323Y010916D02*
X006356Y010916D01*
X006356Y011035D02*
X003183Y011035D01*
X002986Y011153D02*
X006356Y011153D01*
X006356Y011272D02*
X002608Y011272D01*
X001836Y011153D02*
X000943Y011153D01*
X000943Y011035D02*
X001639Y011035D01*
X001499Y010916D02*
X000943Y010916D01*
X000943Y010798D02*
X001391Y010798D01*
X001306Y010679D02*
X000943Y010679D01*
X000943Y010561D02*
X001239Y010561D01*
X001187Y010442D02*
X000943Y010442D01*
X000943Y010324D02*
X001148Y010324D01*
X001121Y010205D02*
X000943Y010205D01*
X000943Y010087D02*
X001106Y010087D01*
X000943Y011509D02*
X005172Y011509D01*
X005012Y011627D02*
X000943Y011627D01*
X000943Y011746D02*
X004957Y011746D01*
X004947Y011864D02*
X000943Y011864D01*
X000943Y011983D02*
X004976Y011983D01*
X005058Y012101D02*
X000943Y012101D01*
X000943Y012220D02*
X005344Y012220D01*
X005462Y012338D02*
X000943Y012338D01*
X000943Y012457D02*
X005581Y012457D01*
X005699Y012575D02*
X000943Y012575D01*
X006785Y016367D02*
X010522Y016367D01*
X010404Y016486D02*
X008849Y016486D01*
X008888Y016525D02*
X008942Y016656D01*
X008942Y016799D01*
X008888Y016930D01*
X008865Y016953D01*
X009026Y016953D01*
X009180Y017017D01*
X009299Y017135D01*
X009363Y017289D01*
X009363Y017976D01*
X009299Y018131D01*
X009180Y018249D01*
X009026Y018313D01*
X008859Y018313D01*
X008705Y018249D01*
X008586Y018131D01*
X008523Y017976D01*
X008523Y017289D01*
X008586Y017135D01*
X008636Y017085D01*
X008513Y017085D01*
X008500Y017080D01*
X007848Y017732D01*
X007848Y021487D01*
X007857Y021490D01*
X007986Y021620D01*
X008056Y021789D01*
X008056Y022572D01*
X007986Y022741D01*
X007857Y022870D01*
X007688Y022940D01*
X007505Y022940D01*
X007335Y022870D01*
X007206Y022741D01*
X007136Y022572D01*
X007136Y021789D01*
X007206Y021620D01*
X007335Y021490D01*
X007368Y021477D01*
X007368Y017585D01*
X007404Y017497D01*
X008226Y016675D01*
X008226Y016656D01*
X008281Y016525D01*
X008381Y016424D01*
X008513Y016369D01*
X008655Y016369D01*
X008787Y016424D01*
X008888Y016525D01*
X008921Y016604D02*
X010285Y016604D01*
X010167Y016723D02*
X008942Y016723D01*
X008925Y016841D02*
X010048Y016841D01*
X009842Y016960D02*
X009043Y016960D01*
X009242Y017078D02*
X009643Y017078D01*
X009561Y017197D02*
X009324Y017197D01*
X009363Y017315D02*
X009523Y017315D01*
X009523Y017434D02*
X009363Y017434D01*
X009363Y017552D02*
X009523Y017552D01*
X009523Y017671D02*
X009363Y017671D01*
X009363Y017789D02*
X009523Y017789D01*
X009523Y017908D02*
X009363Y017908D01*
X009342Y018026D02*
X009543Y018026D01*
X009601Y018145D02*
X009284Y018145D01*
X009145Y018263D02*
X009740Y018263D01*
X010145Y018263D02*
X010473Y018263D01*
X010591Y018145D02*
X010284Y018145D01*
X010342Y018026D02*
X010543Y018026D01*
X010523Y017908D02*
X010363Y017908D01*
X010363Y017789D02*
X010523Y017789D01*
X010523Y017671D02*
X010363Y017671D01*
X010363Y017552D02*
X010523Y017552D01*
X010523Y017434D02*
X010363Y017434D01*
X010363Y017315D02*
X010523Y017315D01*
X010561Y017197D02*
X010371Y017197D01*
X010490Y017078D02*
X010643Y017078D01*
X010608Y016960D02*
X010842Y016960D01*
X010727Y016841D02*
X014458Y016841D01*
X014339Y016960D02*
X014043Y016960D01*
X013842Y016960D02*
X013043Y016960D01*
X012842Y016960D02*
X012043Y016960D01*
X011842Y016960D02*
X011043Y016960D01*
X011242Y017078D02*
X011643Y017078D01*
X011561Y017197D02*
X011324Y017197D01*
X011363Y017315D02*
X011523Y017315D01*
X011523Y017434D02*
X011363Y017434D01*
X011363Y017552D02*
X011523Y017552D01*
X011523Y017671D02*
X011363Y017671D01*
X011363Y017789D02*
X011523Y017789D01*
X011523Y017908D02*
X011363Y017908D01*
X011342Y018026D02*
X011543Y018026D01*
X011591Y018145D02*
X011284Y018145D01*
X011148Y018263D02*
X011473Y018263D01*
X011354Y018382D02*
X011033Y018382D01*
X010914Y018500D02*
X011238Y018500D01*
X011203Y018619D02*
X010796Y018619D01*
X010683Y018737D02*
X011203Y018737D01*
X011203Y018856D02*
X010683Y018856D01*
X010683Y018974D02*
X011203Y018974D01*
X011203Y019093D02*
X010683Y019093D01*
X010683Y019211D02*
X011203Y019211D01*
X011203Y019330D02*
X010683Y019330D01*
X010683Y019448D02*
X011203Y019448D01*
X011203Y019567D02*
X010683Y019567D01*
X010683Y019685D02*
X011203Y019685D01*
X011203Y019804D02*
X010683Y019804D01*
X010683Y019922D02*
X011203Y019922D01*
X011683Y019922D02*
X012203Y019922D01*
X012203Y019804D02*
X011683Y019804D01*
X011683Y019685D02*
X012203Y019685D01*
X012203Y019567D02*
X011683Y019567D01*
X011683Y019448D02*
X012203Y019448D01*
X012203Y019330D02*
X011683Y019330D01*
X011683Y019211D02*
X012203Y019211D01*
X012203Y019093D02*
X011683Y019093D01*
X011683Y018974D02*
X012203Y018974D01*
X012203Y018856D02*
X011683Y018856D01*
X011683Y018737D02*
X012203Y018737D01*
X012203Y018619D02*
X011796Y018619D01*
X011914Y018500D02*
X012238Y018500D01*
X012307Y018429D02*
X012307Y018429D01*
X012354Y018382D02*
X012033Y018382D01*
X012148Y018263D02*
X012473Y018263D01*
X012591Y018145D02*
X012284Y018145D01*
X012342Y018026D02*
X012543Y018026D01*
X012523Y017908D02*
X012363Y017908D01*
X012363Y017789D02*
X012523Y017789D01*
X012523Y017671D02*
X012363Y017671D01*
X012363Y017552D02*
X012523Y017552D01*
X012523Y017434D02*
X012363Y017434D01*
X012363Y017315D02*
X012523Y017315D01*
X012561Y017197D02*
X012324Y017197D01*
X012242Y017078D02*
X012643Y017078D01*
X013242Y017078D02*
X013643Y017078D01*
X013561Y017197D02*
X013324Y017197D01*
X013363Y017315D02*
X013523Y017315D01*
X013523Y017434D02*
X013363Y017434D01*
X013363Y017552D02*
X013523Y017552D01*
X013523Y017671D02*
X013363Y017671D01*
X013363Y017789D02*
X013523Y017789D01*
X013523Y017908D02*
X013363Y017908D01*
X013342Y018026D02*
X013543Y018026D01*
X013591Y018145D02*
X013284Y018145D01*
X013148Y018263D02*
X013473Y018263D01*
X013354Y018382D02*
X013033Y018382D01*
X013078Y018336D02*
X013078Y018336D01*
X013238Y018500D02*
X012914Y018500D01*
X012796Y018619D02*
X013203Y018619D01*
X013203Y018737D02*
X012683Y018737D01*
X012683Y018856D02*
X013203Y018856D01*
X013203Y018974D02*
X012683Y018974D01*
X012683Y019093D02*
X013203Y019093D01*
X013203Y019211D02*
X012683Y019211D01*
X012683Y019330D02*
X013203Y019330D01*
X013203Y019448D02*
X012683Y019448D01*
X012683Y019567D02*
X013203Y019567D01*
X013203Y019685D02*
X012683Y019685D01*
X012683Y019804D02*
X013203Y019804D01*
X013203Y019922D02*
X012683Y019922D01*
X013683Y019922D02*
X014703Y019922D01*
X014703Y019804D02*
X013683Y019804D01*
X013683Y019685D02*
X014703Y019685D01*
X014703Y019567D02*
X013683Y019567D01*
X013683Y019448D02*
X014703Y019448D01*
X014703Y019330D02*
X013683Y019330D01*
X013683Y019211D02*
X014703Y019211D01*
X014703Y019093D02*
X013683Y019093D01*
X013683Y018974D02*
X014703Y018974D01*
X014703Y018856D02*
X013683Y018856D01*
X013683Y018737D02*
X014703Y018737D01*
X014589Y018619D02*
X013796Y018619D01*
X013914Y018500D02*
X014471Y018500D01*
X014352Y018382D02*
X014033Y018382D01*
X014148Y018263D02*
X014237Y018263D01*
X014923Y018263D02*
X014963Y018263D01*
X014963Y018145D02*
X014923Y018145D01*
X014923Y018026D02*
X014963Y018026D01*
X014963Y017908D02*
X014923Y017908D01*
X014923Y017789D02*
X014963Y017789D01*
X014963Y017671D02*
X014923Y017671D01*
X015363Y017671D02*
X022985Y017671D01*
X022985Y017789D02*
X015363Y017789D01*
X015363Y017908D02*
X022985Y017908D01*
X022985Y018026D02*
X015341Y018026D01*
X015279Y018145D02*
X022985Y018145D01*
X022985Y018263D02*
X015140Y018263D01*
X015031Y018382D02*
X022985Y018382D01*
X022985Y018500D02*
X015147Y018500D01*
X015183Y018619D02*
X022985Y018619D01*
X022985Y018737D02*
X015183Y018737D01*
X015183Y018856D02*
X022931Y018856D01*
X022812Y018974D02*
X015183Y018974D01*
X015183Y019093D02*
X022694Y019093D01*
X022575Y019211D02*
X015183Y019211D01*
X015183Y019330D02*
X022457Y019330D01*
X022385Y019448D02*
X015183Y019448D01*
X015183Y019567D02*
X022355Y019567D01*
X022356Y019685D02*
X015183Y019685D01*
X015183Y019804D02*
X020348Y019804D01*
X020386Y019766D02*
X020292Y019860D01*
X020292Y020642D01*
X020386Y020736D01*
X021168Y020736D01*
X021262Y020642D01*
X021262Y019860D01*
X021168Y019766D01*
X020386Y019766D01*
X020292Y019922D02*
X015183Y019922D01*
X015205Y020041D02*
X020292Y020041D01*
X020292Y020159D02*
X015309Y020159D01*
X015358Y020278D02*
X020292Y020278D01*
X020292Y020396D02*
X015363Y020396D01*
X015363Y020515D02*
X020292Y020515D01*
X020292Y020633D02*
X018248Y020633D01*
X018399Y020752D02*
X040443Y020752D01*
X040443Y020870D02*
X032006Y020870D01*
X032003Y020870D02*
X032131Y020883D01*
X032257Y020908D01*
X032380Y020945D01*
X032499Y020994D01*
X032613Y021055D01*
X032720Y021127D01*
X032819Y021208D01*
X032910Y021299D01*
X032992Y021399D01*
X033064Y021506D01*
X033124Y021619D01*
X033173Y021738D01*
X033211Y021861D01*
X033236Y021988D01*
X033249Y022116D01*
X033249Y022120D01*
X031999Y022120D01*
X031999Y022240D01*
X033249Y022240D01*
X033249Y022244D01*
X033236Y022373D01*
X033211Y022499D01*
X033173Y022622D01*
X033124Y022741D01*
X033064Y022854D01*
X032992Y022961D01*
X032910Y023061D01*
X032819Y023152D01*
X032720Y023234D01*
X032613Y023305D01*
X032499Y023366D01*
X032380Y023415D01*
X032257Y023452D01*
X032131Y023478D01*
X032003Y023490D01*
X031999Y023490D01*
X031999Y022240D01*
X031879Y022240D01*
X031879Y023490D01*
X031874Y023490D01*
X031746Y023478D01*
X031620Y023452D01*
X031497Y023415D01*
X031378Y023366D01*
X031264Y023305D01*
X031157Y023234D01*
X031058Y023152D01*
X030967Y023061D01*
X030885Y022961D01*
X030814Y022854D01*
X030753Y022741D01*
X030704Y022622D01*
X030666Y022499D01*
X030641Y022373D01*
X030629Y022244D01*
X030629Y022240D01*
X031879Y022240D01*
X031879Y022120D01*
X031999Y022120D01*
X031999Y020870D01*
X032003Y020870D01*
X031999Y020870D02*
X031879Y020870D01*
X031879Y022120D01*
X030629Y022120D01*
X030629Y022116D01*
X030641Y021988D01*
X030666Y021861D01*
X030704Y021738D01*
X030753Y021619D01*
X030814Y021506D01*
X030885Y021399D01*
X030967Y021299D01*
X031058Y021208D01*
X031157Y021127D01*
X031264Y021055D01*
X031378Y020994D01*
X031497Y020945D01*
X031620Y020908D01*
X031746Y020883D01*
X031874Y020870D01*
X031879Y020870D01*
X031871Y020870D02*
X018451Y020870D01*
X018458Y020989D02*
X031391Y020989D01*
X031186Y021107D02*
X018426Y021107D01*
X018340Y021226D02*
X031040Y021226D01*
X030930Y021344D02*
X018340Y021344D01*
X018340Y021463D02*
X018401Y021463D01*
X018791Y021463D02*
X019402Y021463D01*
X019419Y021454D02*
X019488Y021431D01*
X019556Y021421D01*
X019556Y022140D01*
X019636Y022140D01*
X019636Y021421D01*
X019704Y021431D01*
X019773Y021454D01*
X019837Y021487D01*
X019896Y021529D01*
X019947Y021580D01*
X019989Y021639D01*
X020022Y021704D01*
X020045Y021772D01*
X020056Y021844D01*
X020056Y022140D01*
X019636Y022140D01*
X019636Y022220D01*
X020056Y022220D01*
X020056Y022516D01*
X020045Y022588D01*
X020022Y022657D01*
X019989Y022721D01*
X019947Y022780D01*
X019896Y022831D01*
X019837Y022874D01*
X019773Y022906D01*
X019704Y022929D01*
X019636Y022940D01*
X019636Y022220D01*
X019556Y022220D01*
X019556Y022140D01*
X019136Y022140D01*
X019136Y021844D01*
X019147Y021772D01*
X019170Y021704D01*
X019203Y021639D01*
X019245Y021580D01*
X019296Y021529D01*
X019355Y021487D01*
X019419Y021454D01*
X019556Y021463D02*
X019636Y021463D01*
X019636Y021581D02*
X019556Y021581D01*
X019556Y021700D02*
X019636Y021700D01*
X019636Y021818D02*
X019556Y021818D01*
X019556Y021937D02*
X019636Y021937D01*
X019636Y022055D02*
X019556Y022055D01*
X019556Y022174D02*
X019056Y022174D01*
X019136Y022220D02*
X019556Y022220D01*
X019556Y022940D01*
X019488Y022929D01*
X019419Y022906D01*
X019355Y022874D01*
X019296Y022831D01*
X019245Y022780D01*
X019203Y022721D01*
X019170Y022657D01*
X019147Y022588D01*
X019136Y022516D01*
X019136Y022220D01*
X019136Y022292D02*
X019056Y022292D01*
X019056Y022411D02*
X019136Y022411D01*
X019138Y022529D02*
X019056Y022529D01*
X019024Y022648D02*
X019167Y022648D01*
X019235Y022766D02*
X018960Y022766D01*
X018821Y022885D02*
X019377Y022885D01*
X019556Y022885D02*
X019636Y022885D01*
X019636Y022766D02*
X019556Y022766D01*
X019556Y022648D02*
X019636Y022648D01*
X019636Y022529D02*
X019556Y022529D01*
X019556Y022411D02*
X019636Y022411D01*
X019636Y022292D02*
X019556Y022292D01*
X019636Y022174D02*
X022697Y022174D01*
X022697Y022171D02*
X022261Y022171D01*
X022261Y021874D01*
X022272Y021833D01*
X022293Y021796D01*
X022323Y021767D01*
X022359Y021746D01*
X022400Y021735D01*
X022697Y021735D01*
X022697Y022171D01*
X022697Y022268D01*
X022261Y022268D01*
X022261Y022565D01*
X022272Y022606D01*
X022293Y022643D01*
X022323Y022672D01*
X022359Y022693D01*
X022400Y022704D01*
X022697Y022704D01*
X022697Y022268D01*
X022794Y022268D01*
X022794Y022704D01*
X023092Y022704D01*
X023132Y022693D01*
X023169Y022672D01*
X023199Y022643D01*
X023220Y022606D01*
X023230Y022565D01*
X023230Y022268D01*
X022794Y022268D01*
X022794Y022171D01*
X022794Y021735D01*
X023092Y021735D01*
X023132Y021746D01*
X023169Y021767D01*
X023199Y021796D01*
X023220Y021833D01*
X023230Y021874D01*
X023230Y022171D01*
X022794Y022171D01*
X022697Y022171D01*
X022794Y022174D02*
X027725Y022174D01*
X027725Y022159D02*
X027288Y022159D01*
X027288Y021862D01*
X027299Y021821D01*
X027320Y021785D01*
X027350Y021755D01*
X027387Y021734D01*
X027427Y021723D01*
X027725Y021723D01*
X027725Y022159D01*
X027821Y022159D01*
X027821Y021723D01*
X028119Y021723D01*
X028160Y021734D01*
X028196Y021755D01*
X028226Y021785D01*
X028247Y021821D01*
X028258Y021862D01*
X028258Y022159D01*
X027822Y022159D01*
X027822Y022256D01*
X028258Y022256D01*
X028258Y022554D01*
X028247Y022594D01*
X028226Y022631D01*
X028196Y022661D01*
X028160Y022682D01*
X028119Y022692D01*
X027821Y022692D01*
X027821Y022256D01*
X027725Y022256D01*
X027725Y022692D01*
X027427Y022692D01*
X027387Y022682D01*
X027350Y022661D01*
X027320Y022631D01*
X027299Y022594D01*
X027288Y022554D01*
X027288Y022256D01*
X027725Y022256D01*
X027725Y022159D01*
X027822Y022174D02*
X031879Y022174D01*
X031879Y022292D02*
X031999Y022292D01*
X031999Y022174D02*
X036300Y022174D01*
X036300Y022152D02*
X035200Y022152D01*
X035200Y022147D01*
X035214Y022018D01*
X035243Y021891D01*
X035286Y021768D01*
X035343Y021650D01*
X035412Y021540D01*
X035494Y021438D01*
X035586Y021346D01*
X035688Y021265D01*
X035798Y021196D01*
X035915Y021139D01*
X036038Y021096D01*
X036165Y021067D01*
X036295Y021052D01*
X036300Y021052D01*
X036300Y022152D01*
X036420Y022152D01*
X036420Y021052D01*
X036425Y021052D01*
X036554Y021067D01*
X036681Y021096D01*
X036804Y021139D01*
X036922Y021196D01*
X037032Y021265D01*
X037134Y021346D01*
X037226Y021438D01*
X037307Y021540D01*
X037377Y021650D01*
X037433Y021768D01*
X037476Y021891D01*
X037505Y022018D01*
X037520Y022147D01*
X037520Y022152D01*
X036420Y022152D01*
X036420Y022272D01*
X037520Y022272D01*
X037520Y022278D01*
X037505Y022407D01*
X037476Y022534D01*
X037433Y022657D01*
X037377Y022774D01*
X037307Y022885D01*
X040443Y022885D01*
X040443Y023003D02*
X037209Y023003D01*
X037226Y022987D02*
X037134Y023079D01*
X037032Y023160D01*
X036922Y023229D01*
X036804Y023286D01*
X036681Y023329D01*
X036554Y023358D01*
X036425Y023372D01*
X036420Y023372D01*
X036420Y022272D01*
X036300Y022272D01*
X036300Y022152D01*
X036300Y022055D02*
X036420Y022055D01*
X036420Y021937D02*
X036300Y021937D01*
X036300Y021818D02*
X036420Y021818D01*
X036420Y021700D02*
X036300Y021700D01*
X036300Y021581D02*
X036420Y021581D01*
X036420Y021463D02*
X036300Y021463D01*
X036300Y021344D02*
X036420Y021344D01*
X036420Y021226D02*
X036300Y021226D01*
X036300Y021107D02*
X036420Y021107D01*
X036714Y021107D02*
X040443Y021107D01*
X040443Y020989D02*
X032486Y020989D01*
X032691Y021107D02*
X036006Y021107D01*
X035750Y021226D02*
X032837Y021226D01*
X032947Y021344D02*
X035588Y021344D01*
X035474Y021463D02*
X033035Y021463D01*
X033104Y021581D02*
X035386Y021581D01*
X035319Y021700D02*
X033158Y021700D01*
X033198Y021818D02*
X035269Y021818D01*
X035233Y021937D02*
X033226Y021937D01*
X033243Y022055D02*
X035210Y022055D01*
X035200Y022272D02*
X036300Y022272D01*
X036300Y023372D01*
X036295Y023372D01*
X036165Y023358D01*
X036038Y023329D01*
X035915Y023286D01*
X035798Y023229D01*
X035688Y023160D01*
X035586Y023079D01*
X035494Y022987D01*
X035412Y022885D01*
X035343Y022774D01*
X035286Y022657D01*
X035243Y022534D01*
X035214Y022407D01*
X035200Y022278D01*
X035200Y022272D01*
X035202Y022292D02*
X033244Y022292D01*
X033228Y022411D02*
X035215Y022411D01*
X035242Y022529D02*
X033202Y022529D01*
X033163Y022648D02*
X035283Y022648D01*
X035339Y022766D02*
X033111Y022766D01*
X033043Y022885D02*
X035412Y022885D01*
X035510Y023003D02*
X032958Y023003D01*
X032849Y023122D02*
X035640Y023122D01*
X035821Y023240D02*
X032710Y023240D01*
X032512Y023359D02*
X036174Y023359D01*
X036300Y023359D02*
X036420Y023359D01*
X036420Y023240D02*
X036300Y023240D01*
X036300Y023122D02*
X036420Y023122D01*
X036420Y023003D02*
X036300Y023003D01*
X036300Y022885D02*
X036420Y022885D01*
X036420Y022766D02*
X036300Y022766D01*
X036300Y022648D02*
X036420Y022648D01*
X036420Y022529D02*
X036300Y022529D01*
X036300Y022411D02*
X036420Y022411D01*
X036420Y022292D02*
X036300Y022292D01*
X036420Y022174D02*
X040443Y022174D01*
X040443Y022292D02*
X037518Y022292D01*
X037504Y022411D02*
X040443Y022411D01*
X040443Y022529D02*
X037477Y022529D01*
X037436Y022648D02*
X040443Y022648D01*
X040443Y022766D02*
X037381Y022766D01*
X037307Y022885D02*
X037226Y022987D01*
X037080Y023122D02*
X040443Y023122D01*
X040443Y023240D02*
X036899Y023240D01*
X036545Y023359D02*
X040443Y023359D01*
X040443Y023477D02*
X032131Y023477D01*
X031999Y023477D02*
X031879Y023477D01*
X031879Y023359D02*
X031999Y023359D01*
X031999Y023240D02*
X031879Y023240D01*
X031879Y023122D02*
X031999Y023122D01*
X031999Y023003D02*
X031879Y023003D01*
X031879Y022885D02*
X031999Y022885D01*
X031999Y022766D02*
X031879Y022766D01*
X031879Y022648D02*
X031999Y022648D01*
X031999Y022529D02*
X031879Y022529D01*
X031879Y022411D02*
X031999Y022411D01*
X031999Y022055D02*
X031879Y022055D01*
X031879Y021937D02*
X031999Y021937D01*
X031999Y021818D02*
X031879Y021818D01*
X031879Y021700D02*
X031999Y021700D01*
X031999Y021581D02*
X031879Y021581D01*
X031879Y021463D02*
X031999Y021463D01*
X031999Y021344D02*
X031879Y021344D01*
X031879Y021226D02*
X031999Y021226D01*
X031999Y021107D02*
X031879Y021107D01*
X031879Y020989D02*
X031999Y020989D01*
X030842Y021463D02*
X019790Y021463D01*
X019948Y021581D02*
X030773Y021581D01*
X030720Y021700D02*
X020021Y021700D01*
X020052Y021818D02*
X022280Y021818D01*
X022261Y021937D02*
X020056Y021937D01*
X020056Y022055D02*
X022261Y022055D01*
X022261Y022292D02*
X020056Y022292D01*
X020056Y022411D02*
X022261Y022411D01*
X022261Y022529D02*
X020054Y022529D01*
X020025Y022648D02*
X022298Y022648D01*
X022697Y022648D02*
X022794Y022648D01*
X022794Y022529D02*
X022697Y022529D01*
X022697Y022411D02*
X022794Y022411D01*
X022794Y022292D02*
X022697Y022292D01*
X022697Y022055D02*
X022794Y022055D01*
X022794Y021937D02*
X022697Y021937D01*
X022697Y021818D02*
X022794Y021818D01*
X023211Y021818D02*
X027301Y021818D01*
X027288Y021937D02*
X023230Y021937D01*
X023230Y022055D02*
X027288Y022055D01*
X027288Y022292D02*
X023230Y022292D01*
X023230Y022411D02*
X027288Y022411D01*
X027288Y022529D02*
X023230Y022529D01*
X023193Y022648D02*
X027338Y022648D01*
X027725Y022648D02*
X027821Y022648D01*
X027821Y022529D02*
X027725Y022529D01*
X027725Y022411D02*
X027821Y022411D01*
X027821Y022292D02*
X027725Y022292D01*
X027725Y022055D02*
X027821Y022055D01*
X027821Y021937D02*
X027725Y021937D01*
X027725Y021818D02*
X027821Y021818D01*
X028246Y021818D02*
X030679Y021818D01*
X030651Y021937D02*
X028258Y021937D01*
X028258Y022055D02*
X030635Y022055D01*
X030633Y022292D02*
X028258Y022292D01*
X028258Y022411D02*
X030649Y022411D01*
X030676Y022529D02*
X028258Y022529D01*
X028209Y022648D02*
X030714Y022648D01*
X030767Y022766D02*
X019957Y022766D01*
X019815Y022885D02*
X030834Y022885D01*
X030920Y023003D02*
X018148Y023003D01*
X018266Y022885D02*
X018371Y022885D01*
X018029Y023122D02*
X031028Y023122D01*
X031168Y023240D02*
X017911Y023240D01*
X017760Y023359D02*
X031365Y023359D01*
X031746Y023477D02*
X002604Y023477D01*
X002603Y023478D02*
X002475Y023490D01*
X002471Y023490D01*
X002471Y022240D01*
X003721Y022240D01*
X003721Y022244D01*
X003708Y022373D01*
X003683Y022499D01*
X003646Y022622D01*
X003597Y022741D01*
X003536Y022854D01*
X003464Y022961D01*
X003383Y023061D01*
X003292Y023152D01*
X003192Y023234D01*
X003085Y023305D01*
X002972Y023366D01*
X002853Y023415D01*
X002730Y023452D01*
X002603Y023478D01*
X002471Y023477D02*
X002351Y023477D01*
X002351Y023490D02*
X002347Y023490D01*
X002219Y023478D01*
X002092Y023452D01*
X001969Y023415D01*
X001850Y023366D01*
X001737Y023305D01*
X001630Y023234D01*
X001530Y023152D01*
X001439Y023061D01*
X001358Y022961D01*
X001286Y022854D01*
X001225Y022741D01*
X001176Y022622D01*
X001139Y022499D01*
X001114Y022373D01*
X001101Y022244D01*
X001101Y022240D01*
X002351Y022240D01*
X002351Y022120D01*
X002471Y022120D01*
X002471Y020870D01*
X002475Y020870D01*
X002603Y020883D01*
X002730Y020908D01*
X002853Y020945D01*
X002972Y020994D01*
X003085Y021055D01*
X003192Y021127D01*
X003292Y021208D01*
X003383Y021299D01*
X003464Y021399D01*
X003536Y021506D01*
X003597Y021619D01*
X003646Y021738D01*
X003683Y021861D01*
X003708Y021988D01*
X003721Y022116D01*
X003721Y022120D01*
X002471Y022120D01*
X002471Y022240D01*
X002351Y022240D01*
X002351Y023490D01*
X002351Y023359D02*
X002471Y023359D01*
X002471Y023240D02*
X002351Y023240D01*
X002351Y023122D02*
X002471Y023122D01*
X002471Y023003D02*
X002351Y023003D01*
X002351Y022885D02*
X002471Y022885D01*
X002471Y022766D02*
X002351Y022766D01*
X002351Y022648D02*
X002471Y022648D01*
X002471Y022529D02*
X002351Y022529D01*
X002351Y022411D02*
X002471Y022411D01*
X002471Y022292D02*
X002351Y022292D01*
X002351Y022174D02*
X000943Y022174D01*
X000943Y022292D02*
X001106Y022292D01*
X001121Y022411D02*
X000943Y022411D01*
X000943Y022529D02*
X001148Y022529D01*
X001187Y022648D02*
X000943Y022648D01*
X000943Y022766D02*
X001239Y022766D01*
X001306Y022885D02*
X000943Y022885D01*
X000943Y023003D02*
X001392Y023003D01*
X001500Y023122D02*
X000943Y023122D01*
X000943Y023240D02*
X001640Y023240D01*
X001837Y023359D02*
X000943Y023359D01*
X000943Y023477D02*
X002218Y023477D01*
X002985Y023359D02*
X009861Y023359D01*
X009711Y023240D02*
X003182Y023240D01*
X003322Y023122D02*
X009592Y023122D01*
X009474Y023003D02*
X003430Y023003D01*
X003516Y022885D02*
X004377Y022885D01*
X004355Y022874D02*
X004296Y022831D01*
X004245Y022780D01*
X004203Y022721D01*
X004170Y022657D01*
X004147Y022588D01*
X004136Y022516D01*
X004136Y022220D01*
X004556Y022220D01*
X004556Y022140D01*
X004636Y022140D01*
X004636Y021421D01*
X004704Y021431D01*
X004773Y021454D01*
X004837Y021487D01*
X004896Y021529D01*
X004947Y021580D01*
X004989Y021639D01*
X005022Y021704D01*
X005045Y021772D01*
X005056Y021844D01*
X005056Y022140D01*
X004636Y022140D01*
X004636Y022220D01*
X005056Y022220D01*
X005056Y022516D01*
X005045Y022588D01*
X005022Y022657D01*
X004989Y022721D01*
X004947Y022780D01*
X004896Y022831D01*
X004837Y022874D01*
X004773Y022906D01*
X004704Y022929D01*
X004636Y022940D01*
X004636Y022220D01*
X004556Y022220D01*
X004556Y022940D01*
X004488Y022929D01*
X004419Y022906D01*
X004355Y022874D01*
X004235Y022766D02*
X003583Y022766D01*
X003635Y022648D02*
X004167Y022648D01*
X004138Y022529D02*
X003674Y022529D01*
X003701Y022411D02*
X004136Y022411D01*
X004136Y022292D02*
X003716Y022292D01*
X003715Y022055D02*
X004136Y022055D01*
X004136Y022140D02*
X004136Y021844D01*
X004147Y021772D01*
X004170Y021704D01*
X004203Y021639D01*
X004245Y021580D01*
X004296Y021529D01*
X004355Y021487D01*
X004419Y021454D01*
X004488Y021431D01*
X004556Y021421D01*
X004556Y022140D01*
X004136Y022140D01*
X004136Y021937D02*
X003698Y021937D01*
X003670Y021818D02*
X004140Y021818D01*
X004172Y021700D02*
X003630Y021700D01*
X003576Y021581D02*
X004244Y021581D01*
X004402Y021463D02*
X003507Y021463D01*
X003420Y021344D02*
X005225Y021344D01*
X005225Y021226D02*
X003309Y021226D01*
X003164Y021107D02*
X005225Y021107D01*
X005225Y020989D02*
X002958Y020989D01*
X002471Y020989D02*
X002351Y020989D01*
X002351Y021107D02*
X002471Y021107D01*
X002471Y021226D02*
X002351Y021226D01*
X002351Y021344D02*
X002471Y021344D01*
X002471Y021463D02*
X002351Y021463D01*
X002351Y021581D02*
X002471Y021581D01*
X002471Y021700D02*
X002351Y021700D01*
X002351Y021818D02*
X002471Y021818D01*
X002471Y021937D02*
X002351Y021937D01*
X002351Y022055D02*
X002471Y022055D01*
X002471Y022174D02*
X004556Y022174D01*
X004636Y022174D02*
X005136Y022174D01*
X005136Y022292D02*
X005056Y022292D01*
X005056Y022411D02*
X005136Y022411D01*
X005136Y022529D02*
X005054Y022529D01*
X005025Y022648D02*
X005168Y022648D01*
X005232Y022766D02*
X004957Y022766D01*
X004815Y022885D02*
X005371Y022885D01*
X005821Y022885D02*
X006371Y022885D01*
X006232Y022766D02*
X005960Y022766D01*
X006024Y022648D02*
X006168Y022648D01*
X006136Y022529D02*
X006056Y022529D01*
X006056Y022411D02*
X006136Y022411D01*
X006136Y022292D02*
X006056Y022292D01*
X006056Y022174D02*
X006136Y022174D01*
X006136Y022055D02*
X006056Y022055D01*
X006056Y021937D02*
X006136Y021937D01*
X006136Y021818D02*
X006056Y021818D01*
X006045Y021700D02*
X006173Y021700D01*
X006244Y021581D02*
X006045Y021581D01*
X006045Y021463D02*
X006356Y021463D01*
X006356Y021344D02*
X006045Y021344D01*
X006045Y021226D02*
X006356Y021226D01*
X006356Y021107D02*
X006048Y021107D01*
X006166Y020989D02*
X006356Y020989D01*
X006356Y020870D02*
X006285Y020870D01*
X006337Y020752D02*
X006356Y020752D01*
X006353Y020633D02*
X006356Y020633D01*
X006353Y020515D02*
X006356Y020515D01*
X006353Y020396D02*
X006356Y020396D01*
X006353Y020278D02*
X006356Y020278D01*
X006353Y020159D02*
X006356Y020159D01*
X006353Y020041D02*
X006356Y020041D01*
X006353Y019922D02*
X006356Y019922D01*
X006353Y019804D02*
X006356Y019804D01*
X006353Y019685D02*
X006356Y019685D01*
X006353Y019567D02*
X006356Y019567D01*
X006353Y019448D02*
X006356Y019448D01*
X006353Y019330D02*
X006356Y019330D01*
X006353Y019211D02*
X006356Y019211D01*
X006353Y019093D02*
X006356Y019093D01*
X006353Y018974D02*
X006356Y018974D01*
X006353Y018856D02*
X006356Y018856D01*
X006353Y018737D02*
X006356Y018737D01*
X006353Y018619D02*
X006356Y018619D01*
X006353Y018500D02*
X006356Y018500D01*
X006353Y018382D02*
X006356Y018382D01*
X006353Y018263D02*
X006356Y018263D01*
X006353Y018145D02*
X006356Y018145D01*
X006353Y018026D02*
X006356Y018026D01*
X006353Y017908D02*
X006356Y017908D01*
X006353Y017789D02*
X006356Y017789D01*
X006353Y017671D02*
X006356Y017671D01*
X006356Y017552D02*
X006312Y017552D01*
X006356Y017434D02*
X006225Y017434D01*
X006106Y017315D02*
X006356Y017315D01*
X006356Y017197D02*
X006036Y017197D01*
X005936Y017078D02*
X006356Y017078D01*
X006836Y017078D02*
X007823Y017078D01*
X007941Y016960D02*
X006858Y016960D01*
X006948Y016841D02*
X008060Y016841D01*
X008178Y016723D02*
X006982Y016723D01*
X006977Y016604D02*
X008248Y016604D01*
X008319Y016486D02*
X006928Y016486D01*
X006836Y017197D02*
X007704Y017197D01*
X007586Y017315D02*
X006836Y017315D01*
X006836Y017434D02*
X007467Y017434D01*
X007381Y017552D02*
X006836Y017552D01*
X006836Y017671D02*
X007368Y017671D01*
X007368Y017789D02*
X006836Y017789D01*
X006836Y017908D02*
X007368Y017908D01*
X007368Y018026D02*
X006836Y018026D01*
X006836Y018145D02*
X007368Y018145D01*
X007368Y018263D02*
X006836Y018263D01*
X006836Y018382D02*
X007368Y018382D01*
X007368Y018500D02*
X006836Y018500D01*
X006836Y018619D02*
X007368Y018619D01*
X007368Y018737D02*
X006836Y018737D01*
X006836Y018856D02*
X007368Y018856D01*
X007368Y018974D02*
X006836Y018974D01*
X006836Y019093D02*
X007368Y019093D01*
X007368Y019211D02*
X006836Y019211D01*
X006836Y019330D02*
X007368Y019330D01*
X007368Y019448D02*
X006836Y019448D01*
X006836Y019567D02*
X007368Y019567D01*
X007368Y019685D02*
X006836Y019685D01*
X006836Y019804D02*
X007368Y019804D01*
X007368Y019922D02*
X006836Y019922D01*
X006836Y020041D02*
X007368Y020041D01*
X007368Y020159D02*
X006836Y020159D01*
X006836Y020278D02*
X007368Y020278D01*
X007368Y020396D02*
X006836Y020396D01*
X006836Y020515D02*
X007368Y020515D01*
X007368Y020633D02*
X006836Y020633D01*
X006836Y020752D02*
X007368Y020752D01*
X007368Y020870D02*
X006836Y020870D01*
X006836Y020989D02*
X007368Y020989D01*
X007368Y021107D02*
X006836Y021107D01*
X006836Y021226D02*
X007368Y021226D01*
X007368Y021344D02*
X006836Y021344D01*
X006836Y021463D02*
X007368Y021463D01*
X007244Y021581D02*
X006948Y021581D01*
X007019Y021700D02*
X007173Y021700D01*
X007136Y021818D02*
X007056Y021818D01*
X007056Y021937D02*
X007136Y021937D01*
X007136Y022055D02*
X007056Y022055D01*
X007056Y022174D02*
X007136Y022174D01*
X007136Y022292D02*
X007056Y022292D01*
X007056Y022411D02*
X007136Y022411D01*
X007136Y022529D02*
X007056Y022529D01*
X007024Y022648D02*
X007168Y022648D01*
X007232Y022766D02*
X006960Y022766D01*
X006821Y022885D02*
X007371Y022885D01*
X007821Y022885D02*
X008377Y022885D01*
X008355Y022874D02*
X008296Y022831D01*
X008245Y022780D01*
X008203Y022721D01*
X008170Y022657D01*
X008147Y022588D01*
X008136Y022516D01*
X008136Y022220D01*
X008556Y022220D01*
X008556Y022140D01*
X008636Y022140D01*
X008636Y021421D01*
X008704Y021431D01*
X008773Y021454D01*
X008837Y021487D01*
X008896Y021529D01*
X008947Y021580D01*
X008989Y021639D01*
X009022Y021704D01*
X009045Y021772D01*
X009056Y021844D01*
X009056Y022140D01*
X008636Y022140D01*
X008636Y022220D01*
X009056Y022220D01*
X009056Y022516D01*
X009045Y022588D01*
X009022Y022657D01*
X008989Y022721D01*
X008947Y022780D01*
X008896Y022831D01*
X008837Y022874D01*
X008773Y022906D01*
X008704Y022929D01*
X008636Y022940D01*
X008636Y022220D01*
X008556Y022220D01*
X008556Y022940D01*
X008488Y022929D01*
X008419Y022906D01*
X008355Y022874D01*
X008235Y022766D02*
X007960Y022766D01*
X008024Y022648D02*
X008167Y022648D01*
X008138Y022529D02*
X008056Y022529D01*
X008056Y022411D02*
X008136Y022411D01*
X008136Y022292D02*
X008056Y022292D01*
X008056Y022174D02*
X008556Y022174D01*
X008556Y022140D02*
X008136Y022140D01*
X008136Y021844D01*
X008147Y021772D01*
X008170Y021704D01*
X008203Y021639D01*
X008245Y021580D01*
X008296Y021529D01*
X008355Y021487D01*
X008419Y021454D01*
X008488Y021431D01*
X008556Y021421D01*
X008556Y022140D01*
X008556Y022055D02*
X008636Y022055D01*
X008636Y021937D02*
X008556Y021937D01*
X008556Y021818D02*
X008636Y021818D01*
X008636Y021700D02*
X008556Y021700D01*
X008556Y021581D02*
X008636Y021581D01*
X008636Y021463D02*
X008556Y021463D01*
X008402Y021463D02*
X007848Y021463D01*
X007848Y021344D02*
X010203Y021344D01*
X010203Y021463D02*
X009791Y021463D01*
X009948Y021581D02*
X010203Y021581D01*
X010173Y021700D02*
X010019Y021700D01*
X010056Y021818D02*
X010136Y021818D01*
X010136Y021937D02*
X010056Y021937D01*
X010056Y022055D02*
X010136Y022055D01*
X010136Y022174D02*
X010056Y022174D01*
X010056Y022292D02*
X010136Y022292D01*
X010136Y022411D02*
X010056Y022411D01*
X010056Y022529D02*
X010136Y022529D01*
X010168Y022648D02*
X010024Y022648D01*
X009960Y022766D02*
X010232Y022766D01*
X010371Y022885D02*
X010034Y022885D01*
X009371Y022885D02*
X008815Y022885D01*
X008636Y022885D02*
X008556Y022885D01*
X008556Y022766D02*
X008636Y022766D01*
X008636Y022648D02*
X008556Y022648D01*
X008556Y022529D02*
X008636Y022529D01*
X008636Y022411D02*
X008556Y022411D01*
X008556Y022292D02*
X008636Y022292D01*
X008636Y022174D02*
X009136Y022174D01*
X009136Y022292D02*
X009056Y022292D01*
X009056Y022411D02*
X009136Y022411D01*
X009136Y022529D02*
X009054Y022529D01*
X009025Y022648D02*
X009168Y022648D01*
X009232Y022766D02*
X008957Y022766D01*
X009056Y022055D02*
X009136Y022055D01*
X009136Y021937D02*
X009056Y021937D01*
X009052Y021818D02*
X009136Y021818D01*
X009173Y021700D02*
X009021Y021700D01*
X008948Y021581D02*
X009244Y021581D01*
X009401Y021463D02*
X008790Y021463D01*
X008859Y021313D02*
X008705Y021249D01*
X008586Y021131D01*
X008523Y020976D01*
X008523Y020289D01*
X008586Y020135D01*
X008705Y020017D01*
X008859Y019953D01*
X009026Y019953D01*
X009180Y020017D01*
X009299Y020135D01*
X009363Y020289D01*
X009363Y020976D01*
X009299Y021131D01*
X009180Y021249D01*
X009026Y021313D01*
X008859Y021313D01*
X008682Y021226D02*
X007848Y021226D01*
X007848Y021107D02*
X008577Y021107D01*
X008528Y020989D02*
X007848Y020989D01*
X007848Y020870D02*
X008523Y020870D01*
X008523Y020752D02*
X007848Y020752D01*
X007848Y020633D02*
X008523Y020633D01*
X008523Y020515D02*
X007848Y020515D01*
X007848Y020396D02*
X008523Y020396D01*
X008527Y020278D02*
X007848Y020278D01*
X007848Y020159D02*
X008576Y020159D01*
X008681Y020041D02*
X007848Y020041D01*
X007848Y019922D02*
X010203Y019922D01*
X010203Y019804D02*
X007848Y019804D01*
X007848Y019685D02*
X010203Y019685D01*
X010203Y019567D02*
X007848Y019567D01*
X007848Y019448D02*
X010203Y019448D01*
X010203Y019330D02*
X007848Y019330D01*
X007848Y019211D02*
X010203Y019211D01*
X010203Y019093D02*
X007848Y019093D01*
X007848Y018974D02*
X010203Y018974D01*
X010203Y018856D02*
X007848Y018856D01*
X007848Y018737D02*
X010203Y018737D01*
X010203Y018619D02*
X007848Y018619D01*
X007848Y018500D02*
X010238Y018500D01*
X010354Y018382D02*
X007848Y018382D01*
X007848Y018263D02*
X008740Y018263D01*
X008601Y018145D02*
X007848Y018145D01*
X007848Y018026D02*
X008543Y018026D01*
X008523Y017908D02*
X007848Y017908D01*
X007848Y017789D02*
X008523Y017789D01*
X008523Y017671D02*
X007909Y017671D01*
X008028Y017552D02*
X008523Y017552D01*
X008523Y017434D02*
X008146Y017434D01*
X008265Y017315D02*
X008523Y017315D01*
X008561Y017197D02*
X008383Y017197D01*
X005533Y017908D02*
X005038Y017908D01*
X005049Y017914D02*
X005139Y017983D01*
X005219Y018063D01*
X005287Y018153D01*
X005344Y018250D01*
X005387Y018355D01*
X005416Y018464D01*
X005431Y018573D01*
X004629Y018573D01*
X004629Y018693D01*
X005431Y018693D01*
X005416Y018802D01*
X005387Y018911D01*
X005344Y019015D01*
X005287Y019113D01*
X005219Y019203D01*
X005139Y019283D01*
X005049Y019352D01*
X004951Y019408D01*
X004846Y019452D01*
X004737Y019481D01*
X004629Y019495D01*
X004629Y018693D01*
X004509Y018693D01*
X004509Y019495D01*
X004400Y019481D01*
X004291Y019452D01*
X004186Y019408D01*
X004088Y019352D01*
X003998Y019283D01*
X003918Y019203D01*
X003850Y019113D01*
X003793Y019015D01*
X003750Y018911D01*
X003721Y018802D01*
X003706Y018693D01*
X004508Y018693D01*
X004508Y018573D01*
X003706Y018573D01*
X003721Y018464D01*
X003750Y018355D01*
X003793Y018250D01*
X003850Y018153D01*
X003918Y018063D01*
X003998Y017983D01*
X004088Y017914D01*
X004186Y017857D01*
X004291Y017814D01*
X004400Y017785D01*
X004509Y017771D01*
X004509Y018573D01*
X004629Y018573D01*
X004629Y017771D01*
X004737Y017785D01*
X004846Y017814D01*
X004951Y017857D01*
X005049Y017914D01*
X005182Y018026D02*
X005533Y018026D01*
X005533Y018145D02*
X005282Y018145D01*
X005349Y018263D02*
X005533Y018263D01*
X005533Y018382D02*
X005394Y018382D01*
X005421Y018500D02*
X005533Y018500D01*
X005533Y018619D02*
X004629Y018619D01*
X004629Y018737D02*
X004509Y018737D01*
X004508Y018619D02*
X000943Y018619D01*
X000943Y018737D02*
X003712Y018737D01*
X003735Y018856D02*
X000943Y018856D01*
X000943Y018974D02*
X003776Y018974D01*
X003838Y019093D02*
X000943Y019093D01*
X000943Y019211D02*
X003927Y019211D01*
X004060Y019330D02*
X000943Y019330D01*
X000943Y019448D02*
X004283Y019448D01*
X004509Y019448D02*
X004629Y019448D01*
X004629Y019330D02*
X004509Y019330D01*
X004509Y019211D02*
X004629Y019211D01*
X004629Y019093D02*
X004509Y019093D01*
X004509Y018974D02*
X004629Y018974D01*
X004629Y018856D02*
X004509Y018856D01*
X005210Y019211D02*
X005533Y019211D01*
X005533Y019093D02*
X005299Y019093D01*
X005361Y018974D02*
X005533Y018974D01*
X005533Y018856D02*
X005402Y018856D01*
X005425Y018737D02*
X005533Y018737D01*
X004629Y018500D02*
X004509Y018500D01*
X004509Y018382D02*
X004629Y018382D01*
X004629Y018263D02*
X004509Y018263D01*
X004509Y018145D02*
X004629Y018145D01*
X004629Y018026D02*
X004509Y018026D01*
X004509Y017908D02*
X004629Y017908D01*
X004629Y017789D02*
X004509Y017789D01*
X004383Y017789D02*
X000943Y017789D01*
X000943Y017671D02*
X005243Y017671D01*
X005194Y017552D02*
X000943Y017552D01*
X000943Y017434D02*
X005179Y017434D01*
X005186Y017315D02*
X000943Y017315D01*
X000943Y017197D02*
X005235Y017197D01*
X005355Y017789D02*
X004754Y017789D01*
X004099Y017908D02*
X000943Y017908D01*
X000943Y018026D02*
X003955Y018026D01*
X003855Y018145D02*
X000943Y018145D01*
X000943Y018263D02*
X003788Y018263D01*
X003743Y018382D02*
X000943Y018382D01*
X000943Y018500D02*
X003716Y018500D01*
X004854Y019448D02*
X005533Y019448D01*
X005533Y019330D02*
X005077Y019330D01*
X005533Y019567D02*
X000943Y019567D01*
X000943Y019685D02*
X005533Y019685D01*
X005533Y019804D02*
X000943Y019804D01*
X000943Y019922D02*
X005533Y019922D01*
X005533Y020041D02*
X000943Y020041D01*
X000943Y020159D02*
X005533Y020159D01*
X005533Y020278D02*
X000943Y020278D01*
X000943Y020396D02*
X005533Y020396D01*
X005481Y020515D02*
X000943Y020515D01*
X000943Y020633D02*
X005362Y020633D01*
X005270Y020752D02*
X000943Y020752D01*
X000943Y020870D02*
X002344Y020870D01*
X002347Y020870D02*
X002351Y020870D01*
X002351Y022120D01*
X001101Y022120D01*
X001101Y022116D01*
X001114Y021988D01*
X001139Y021861D01*
X001176Y021738D01*
X001225Y021619D01*
X001286Y021506D01*
X001358Y021399D01*
X001439Y021299D01*
X001530Y021208D01*
X001630Y021127D01*
X001737Y021055D01*
X001850Y020994D01*
X001969Y020945D01*
X002092Y020908D01*
X002219Y020883D01*
X002347Y020870D01*
X002351Y020870D02*
X002471Y020870D01*
X002478Y020870D02*
X005225Y020870D01*
X005225Y021463D02*
X004790Y021463D01*
X004636Y021463D02*
X004556Y021463D01*
X004556Y021581D02*
X004636Y021581D01*
X004636Y021700D02*
X004556Y021700D01*
X004556Y021818D02*
X004636Y021818D01*
X004636Y021937D02*
X004556Y021937D01*
X004556Y022055D02*
X004636Y022055D01*
X004636Y022292D02*
X004556Y022292D01*
X004556Y022411D02*
X004636Y022411D01*
X004636Y022529D02*
X004556Y022529D01*
X004556Y022648D02*
X004636Y022648D01*
X004636Y022766D02*
X004556Y022766D01*
X004556Y022885D02*
X004636Y022885D01*
X005056Y022055D02*
X005136Y022055D01*
X005136Y021937D02*
X005056Y021937D01*
X005052Y021818D02*
X005136Y021818D01*
X005173Y021700D02*
X005021Y021700D01*
X004948Y021581D02*
X005225Y021581D01*
X007948Y021581D02*
X008244Y021581D01*
X008172Y021700D02*
X008019Y021700D01*
X008056Y021818D02*
X008140Y021818D01*
X008136Y021937D02*
X008056Y021937D01*
X008056Y022055D02*
X008136Y022055D01*
X009203Y021226D02*
X009682Y021226D01*
X009577Y021107D02*
X009308Y021107D01*
X009357Y020989D02*
X009528Y020989D01*
X009523Y020870D02*
X009363Y020870D01*
X009363Y020752D02*
X009523Y020752D01*
X009523Y020633D02*
X009363Y020633D01*
X009363Y020515D02*
X009523Y020515D01*
X009523Y020396D02*
X009363Y020396D01*
X009358Y020278D02*
X009527Y020278D01*
X009576Y020159D02*
X009309Y020159D01*
X009205Y020041D02*
X009681Y020041D01*
X013683Y021344D02*
X017860Y021344D01*
X017860Y021226D02*
X015203Y021226D01*
X015308Y021107D02*
X017774Y021107D01*
X017742Y020989D02*
X015357Y020989D01*
X015363Y020870D02*
X017749Y020870D01*
X017801Y020752D02*
X015363Y020752D01*
X015363Y020633D02*
X017952Y020633D01*
X017860Y021463D02*
X017791Y021463D01*
X017401Y021463D02*
X016791Y021463D01*
X016948Y021581D02*
X017244Y021581D01*
X017173Y021700D02*
X017019Y021700D01*
X017056Y021818D02*
X017136Y021818D01*
X017136Y021937D02*
X017056Y021937D01*
X017056Y022055D02*
X017136Y022055D01*
X017136Y022174D02*
X017056Y022174D01*
X017056Y022292D02*
X017136Y022292D01*
X017136Y022411D02*
X017056Y022411D01*
X017056Y022529D02*
X017136Y022529D01*
X017168Y022648D02*
X017024Y022648D01*
X016960Y022766D02*
X017232Y022766D01*
X017371Y022885D02*
X016821Y022885D01*
X016371Y022885D02*
X015821Y022885D01*
X015960Y022766D02*
X016232Y022766D01*
X016168Y022648D02*
X016024Y022648D01*
X016056Y022529D02*
X016136Y022529D01*
X016136Y022411D02*
X016056Y022411D01*
X016056Y022292D02*
X016136Y022292D01*
X016136Y022174D02*
X016056Y022174D01*
X016056Y022055D02*
X016136Y022055D01*
X016136Y021937D02*
X016056Y021937D01*
X016056Y021818D02*
X016136Y021818D01*
X016173Y021700D02*
X016019Y021700D01*
X015948Y021581D02*
X016244Y021581D01*
X016401Y021463D02*
X015791Y021463D01*
X015401Y021463D02*
X014791Y021463D01*
X014948Y021581D02*
X015244Y021581D01*
X015173Y021700D02*
X015019Y021700D01*
X015056Y021818D02*
X015136Y021818D01*
X015136Y021937D02*
X015056Y021937D01*
X015056Y022055D02*
X015136Y022055D01*
X015136Y022174D02*
X015056Y022174D01*
X015056Y022292D02*
X015136Y022292D01*
X015136Y022411D02*
X015056Y022411D01*
X015056Y022529D02*
X015136Y022529D01*
X015168Y022648D02*
X015024Y022648D01*
X014960Y022766D02*
X015232Y022766D01*
X015371Y022885D02*
X014821Y022885D01*
X014371Y022885D02*
X013821Y022885D01*
X013960Y022766D02*
X014232Y022766D01*
X014168Y022648D02*
X014024Y022648D01*
X014056Y022529D02*
X014136Y022529D01*
X014136Y022411D02*
X014056Y022411D01*
X014056Y022292D02*
X014136Y022292D01*
X014136Y022174D02*
X014056Y022174D01*
X014056Y022055D02*
X014136Y022055D01*
X014136Y021937D02*
X014056Y021937D01*
X014056Y021818D02*
X014136Y021818D01*
X014173Y021700D02*
X014019Y021700D01*
X013948Y021581D02*
X014244Y021581D01*
X014401Y021463D02*
X013791Y021463D01*
X014203Y021226D02*
X014682Y021226D01*
X014577Y021107D02*
X014308Y021107D01*
X014357Y020989D02*
X014528Y020989D01*
X014523Y020870D02*
X014363Y020870D01*
X014363Y020752D02*
X014523Y020752D01*
X014523Y020633D02*
X014363Y020633D01*
X014363Y020515D02*
X014523Y020515D01*
X014523Y020396D02*
X014363Y020396D01*
X014358Y020278D02*
X014527Y020278D01*
X014576Y020159D02*
X014309Y020159D01*
X014205Y020041D02*
X014681Y020041D01*
X018948Y021581D02*
X019244Y021581D01*
X019172Y021700D02*
X019019Y021700D01*
X019056Y021818D02*
X019140Y021818D01*
X019136Y021937D02*
X019056Y021937D01*
X019056Y022055D02*
X019136Y022055D01*
X021262Y020633D02*
X021277Y020633D01*
X021277Y020642D02*
X021277Y019860D01*
X021370Y019766D01*
X022152Y019766D01*
X022246Y019860D01*
X022246Y020642D01*
X022152Y020736D01*
X021370Y020736D01*
X021277Y020642D01*
X021262Y020515D02*
X021277Y020515D01*
X021262Y020396D02*
X021277Y020396D01*
X021262Y020278D02*
X021277Y020278D01*
X021262Y020159D02*
X021277Y020159D01*
X021262Y020041D02*
X021277Y020041D01*
X021262Y019922D02*
X021277Y019922D01*
X021333Y019804D02*
X021206Y019804D01*
X022190Y019804D02*
X022405Y019804D01*
X022507Y019922D02*
X022246Y019922D01*
X022246Y020041D02*
X023245Y020041D01*
X023245Y020159D02*
X022246Y020159D01*
X022246Y020278D02*
X023245Y020278D01*
X023245Y020396D02*
X022246Y020396D01*
X022246Y020515D02*
X023245Y020515D01*
X023245Y020633D02*
X022246Y020633D01*
X023245Y020642D02*
X023245Y019860D01*
X023339Y019766D01*
X024121Y019766D01*
X024215Y019860D01*
X024215Y020642D01*
X024121Y020736D01*
X023339Y020736D01*
X023245Y020642D01*
X024215Y020633D02*
X024229Y020633D01*
X024229Y020642D02*
X024229Y019860D01*
X024323Y019766D01*
X025105Y019766D01*
X025199Y019860D01*
X025199Y020642D01*
X025105Y020736D01*
X024323Y020736D01*
X024229Y020642D01*
X024215Y020515D02*
X024229Y020515D01*
X024215Y020396D02*
X024229Y020396D01*
X024215Y020278D02*
X024229Y020278D01*
X024215Y020159D02*
X024229Y020159D01*
X024215Y020041D02*
X024229Y020041D01*
X024215Y019922D02*
X024229Y019922D01*
X024285Y019804D02*
X024159Y019804D01*
X023617Y019330D02*
X030060Y019330D01*
X030178Y019448D02*
X023498Y019448D01*
X023380Y019567D02*
X030297Y019567D01*
X030415Y019685D02*
X023261Y019685D01*
X023301Y019804D02*
X023143Y019804D01*
X023245Y019922D02*
X023024Y019922D01*
X023735Y019211D02*
X029941Y019211D01*
X029823Y019093D02*
X023789Y019093D01*
X023805Y018974D02*
X029704Y018974D01*
X029586Y018856D02*
X023805Y018856D01*
X023805Y018737D02*
X029467Y018737D01*
X029349Y018619D02*
X023805Y018619D01*
X023805Y018500D02*
X029230Y018500D01*
X029112Y018382D02*
X023805Y018382D01*
X023805Y018263D02*
X028993Y018263D01*
X028875Y018145D02*
X023805Y018145D01*
X023805Y018026D02*
X028756Y018026D01*
X028638Y017908D02*
X023805Y017908D01*
X023805Y017789D02*
X028519Y017789D01*
X028401Y017671D02*
X023805Y017671D01*
X023805Y017552D02*
X028282Y017552D01*
X028164Y017434D02*
X023805Y017434D01*
X023805Y017315D02*
X028045Y017315D01*
X027927Y017197D02*
X023805Y017197D01*
X023805Y017078D02*
X027808Y017078D01*
X027783Y017053D02*
X027599Y017053D01*
X027445Y016989D01*
X027326Y016871D01*
X027263Y016716D01*
X027263Y016549D01*
X027326Y016395D01*
X027445Y016277D01*
X027599Y016213D01*
X028286Y016213D01*
X028440Y016277D01*
X028559Y016395D01*
X028623Y016549D01*
X028623Y016716D01*
X028618Y016728D01*
X031160Y019271D01*
X031167Y019273D01*
X031282Y019389D01*
X031345Y019540D01*
X031345Y019703D01*
X031282Y019853D01*
X031167Y019969D01*
X031016Y020031D01*
X030849Y020031D01*
X030698Y019969D01*
X027783Y017053D01*
X027416Y016960D02*
X025469Y016960D01*
X025440Y016989D02*
X025286Y017053D01*
X024599Y017053D01*
X024445Y016989D01*
X024326Y016871D01*
X024263Y016716D01*
X024263Y016549D01*
X024326Y016395D01*
X024445Y016277D01*
X024599Y016213D01*
X025286Y016213D01*
X025440Y016277D01*
X025559Y016395D01*
X025623Y016549D01*
X025623Y016716D01*
X025559Y016871D01*
X025440Y016989D01*
X025571Y016841D02*
X027314Y016841D01*
X027265Y016723D02*
X025620Y016723D01*
X025623Y016604D02*
X027263Y016604D01*
X027289Y016486D02*
X025596Y016486D01*
X025531Y016367D02*
X027354Y016367D01*
X027512Y016249D02*
X025373Y016249D01*
X025286Y016053D02*
X025440Y015989D01*
X025559Y015871D01*
X025623Y015716D01*
X025623Y015549D01*
X025559Y015395D01*
X025440Y015277D01*
X025286Y015213D01*
X024599Y015213D01*
X024445Y015277D01*
X024326Y015395D01*
X024263Y015549D01*
X024263Y015716D01*
X024326Y015871D01*
X024445Y015989D01*
X024599Y016053D01*
X025286Y016053D01*
X025385Y016012D02*
X027500Y016012D01*
X027445Y015989D02*
X027326Y015871D01*
X027263Y015716D01*
X027263Y015549D01*
X027326Y015395D01*
X027445Y015277D01*
X027599Y015213D01*
X028286Y015213D01*
X028440Y015277D01*
X028559Y015395D01*
X028623Y015549D01*
X028623Y015716D01*
X028559Y015871D01*
X028440Y015989D01*
X028286Y016053D01*
X027599Y016053D01*
X027445Y015989D01*
X027349Y015893D02*
X025536Y015893D01*
X025598Y015775D02*
X027287Y015775D01*
X027263Y015656D02*
X025623Y015656D01*
X025618Y015538D02*
X027267Y015538D01*
X027316Y015419D02*
X025569Y015419D01*
X025465Y015301D02*
X027421Y015301D01*
X027599Y015053D02*
X027445Y014989D01*
X027326Y014871D01*
X027313Y014839D01*
X027307Y014836D01*
X027239Y014769D01*
X027239Y014769D01*
X025450Y012980D01*
X025440Y012989D01*
X025286Y013053D01*
X024599Y013053D01*
X024445Y012989D01*
X024326Y012871D01*
X024263Y012716D01*
X024263Y012549D01*
X024326Y012395D01*
X024445Y012277D01*
X024599Y012213D01*
X025286Y012213D01*
X025440Y012277D01*
X025559Y012395D01*
X025572Y012427D01*
X025578Y012429D01*
X027435Y014286D01*
X027445Y014277D01*
X027599Y014213D01*
X028286Y014213D01*
X028440Y014277D01*
X028559Y014395D01*
X028623Y014549D01*
X028623Y014716D01*
X028559Y014871D01*
X028440Y014989D01*
X028286Y015053D01*
X027599Y015053D01*
X027401Y014945D02*
X025484Y014945D01*
X025440Y014989D02*
X025559Y014871D01*
X025623Y014716D01*
X025623Y014549D01*
X025559Y014395D01*
X025440Y014277D01*
X025286Y014213D01*
X024599Y014213D01*
X024445Y014277D01*
X024326Y014395D01*
X024263Y014549D01*
X024263Y014716D01*
X024326Y014871D01*
X024445Y014989D01*
X024599Y015053D01*
X025286Y015053D01*
X025440Y014989D01*
X025577Y014827D02*
X027297Y014827D01*
X027179Y014708D02*
X025623Y014708D01*
X025623Y014590D02*
X027060Y014590D01*
X026942Y014471D02*
X025590Y014471D01*
X025517Y014353D02*
X026823Y014353D01*
X026705Y014234D02*
X025338Y014234D01*
X025286Y014053D02*
X025440Y013989D01*
X025559Y013871D01*
X025623Y013716D01*
X025623Y013549D01*
X025559Y013395D01*
X025440Y013277D01*
X025286Y013213D01*
X024599Y013213D01*
X024445Y013277D01*
X024326Y013395D01*
X024263Y013549D01*
X024263Y013716D01*
X024326Y013871D01*
X024445Y013989D01*
X024599Y014053D01*
X025286Y014053D01*
X025420Y013997D02*
X026468Y013997D01*
X026349Y013879D02*
X025550Y013879D01*
X025604Y013760D02*
X026231Y013760D01*
X026112Y013642D02*
X025623Y013642D01*
X025612Y013523D02*
X025994Y013523D01*
X025875Y013405D02*
X025563Y013405D01*
X025450Y013286D02*
X025757Y013286D01*
X025638Y013168D02*
X022671Y013168D01*
X022671Y013286D02*
X024435Y013286D01*
X024322Y013405D02*
X022671Y013405D01*
X022671Y013523D02*
X024273Y013523D01*
X024263Y013642D02*
X022671Y013642D01*
X022671Y013760D02*
X024281Y013760D01*
X024335Y013879D02*
X022671Y013879D01*
X022671Y013997D02*
X024465Y013997D01*
X024547Y014234D02*
X022564Y014234D01*
X022651Y014116D02*
X026586Y014116D01*
X026909Y013760D02*
X027282Y013760D01*
X027273Y013731D02*
X027293Y013794D01*
X027323Y013853D01*
X027362Y013906D01*
X027409Y013953D01*
X027462Y013992D01*
X027521Y014022D01*
X027584Y014043D01*
X027649Y014053D01*
X027923Y014053D01*
X027923Y013653D01*
X027963Y013653D01*
X028623Y013653D01*
X028623Y013666D01*
X028612Y013731D01*
X028592Y013794D01*
X028562Y013853D01*
X028523Y013906D01*
X028476Y013953D01*
X028423Y013992D01*
X028364Y014022D01*
X028301Y014043D01*
X028236Y014053D01*
X027963Y014053D01*
X027963Y013653D01*
X027963Y013613D01*
X028623Y013613D01*
X028623Y013600D01*
X028612Y013535D01*
X028592Y013472D01*
X028562Y013413D01*
X028523Y013359D01*
X028476Y013313D01*
X028423Y013274D01*
X028364Y013244D01*
X028301Y013223D01*
X028236Y013213D01*
X027963Y013213D01*
X027963Y013613D01*
X027923Y013613D01*
X027923Y013213D01*
X027649Y013213D01*
X027584Y013223D01*
X027521Y013244D01*
X027462Y013274D01*
X027409Y013313D01*
X027362Y013359D01*
X027323Y013413D01*
X027293Y013472D01*
X027273Y013535D01*
X027263Y013600D01*
X027263Y013613D01*
X027923Y013613D01*
X027923Y013653D01*
X027263Y013653D01*
X027263Y013666D01*
X027273Y013731D01*
X027342Y013879D02*
X027028Y013879D01*
X027146Y013997D02*
X027473Y013997D01*
X027265Y014116D02*
X034061Y014116D01*
X034061Y014234D02*
X028338Y014234D01*
X028517Y014353D02*
X034061Y014353D01*
X034061Y014471D02*
X028590Y014471D01*
X028623Y014590D02*
X033983Y014590D01*
X033885Y014708D02*
X028623Y014708D01*
X028577Y014827D02*
X033844Y014827D01*
X033844Y014945D02*
X028484Y014945D01*
X028465Y015301D02*
X034407Y015301D01*
X034401Y015182D02*
X034493Y015182D01*
X034513Y015064D02*
X034553Y015064D01*
X034376Y015419D02*
X028569Y015419D01*
X028618Y015538D02*
X034384Y015538D01*
X034436Y015656D02*
X028623Y015656D01*
X028598Y015775D02*
X034588Y015775D01*
X034880Y015775D02*
X035637Y015775D01*
X035669Y015742D02*
X036050Y015742D01*
X036320Y016012D01*
X036320Y016393D01*
X036050Y016662D01*
X035669Y016662D01*
X035400Y016393D01*
X035400Y016012D01*
X028385Y016012D01*
X028536Y015893D02*
X035518Y015893D01*
X035400Y016012D02*
X035669Y015742D01*
X035669Y015582D02*
X035400Y015313D01*
X035400Y015162D01*
X035820Y015162D01*
X035820Y015082D01*
X035900Y015082D01*
X035900Y014662D01*
X036050Y014662D01*
X036320Y014932D01*
X036320Y015082D01*
X035900Y015082D01*
X035900Y015162D01*
X036320Y015162D01*
X036320Y015313D01*
X036050Y015582D01*
X035900Y015582D01*
X035900Y015162D01*
X035820Y015162D01*
X035820Y015582D01*
X035669Y015582D01*
X035625Y015538D02*
X035084Y015538D01*
X035092Y015419D02*
X035506Y015419D01*
X035400Y015301D02*
X035061Y015301D01*
X035033Y015182D02*
X035400Y015182D01*
X035400Y015082D02*
X035400Y014932D01*
X035669Y014662D01*
X035820Y014662D01*
X035820Y015082D01*
X035400Y015082D01*
X035400Y015064D02*
X035033Y015064D01*
X035033Y014945D02*
X035400Y014945D01*
X035505Y014827D02*
X035033Y014827D01*
X035033Y014708D02*
X035623Y014708D01*
X035820Y014708D02*
X035900Y014708D01*
X035900Y014827D02*
X035820Y014827D01*
X035820Y014945D02*
X035900Y014945D01*
X035900Y015064D02*
X035820Y015064D01*
X035820Y015182D02*
X035900Y015182D01*
X035900Y015301D02*
X035820Y015301D01*
X035820Y015419D02*
X035900Y015419D01*
X035900Y015538D02*
X035820Y015538D01*
X036095Y015538D02*
X036400Y015538D01*
X036400Y015472D02*
X036669Y015202D01*
X037050Y015202D01*
X037320Y015472D01*
X037320Y015853D01*
X037050Y016122D01*
X036669Y016122D01*
X036400Y015853D01*
X036400Y015472D01*
X036452Y015419D02*
X036213Y015419D01*
X036320Y015301D02*
X036571Y015301D01*
X036320Y015182D02*
X040443Y015182D01*
X040443Y015064D02*
X036320Y015064D01*
X036320Y014945D02*
X040443Y014945D01*
X040443Y014827D02*
X036215Y014827D01*
X036096Y014708D02*
X040443Y014708D01*
X040443Y014590D02*
X035033Y014590D01*
X035033Y014471D02*
X040443Y014471D01*
X040443Y014353D02*
X035033Y014353D01*
X035033Y014234D02*
X040443Y014234D01*
X040443Y014116D02*
X035033Y014116D01*
X035033Y013997D02*
X040443Y013997D01*
X040443Y013879D02*
X035033Y013879D01*
X035033Y013760D02*
X040443Y013760D01*
X040443Y013642D02*
X035033Y013642D01*
X035033Y013523D02*
X040443Y013523D01*
X040443Y013405D02*
X036848Y013405D01*
X036804Y013426D02*
X036681Y013469D01*
X036554Y013498D01*
X036425Y013512D01*
X036420Y013512D01*
X036420Y012412D01*
X037520Y012412D01*
X037520Y012418D01*
X037505Y012547D01*
X037476Y012674D01*
X037433Y012797D01*
X037377Y012914D01*
X037307Y013025D01*
X037226Y013127D01*
X037134Y013219D01*
X037032Y013300D01*
X036922Y013369D01*
X036804Y013426D01*
X037049Y013286D02*
X040443Y013286D01*
X040443Y013168D02*
X037185Y013168D01*
X037288Y013049D02*
X040443Y013049D01*
X040443Y012931D02*
X037366Y012931D01*
X037426Y012812D02*
X040443Y012812D01*
X040443Y012694D02*
X037469Y012694D01*
X037499Y012575D02*
X040443Y012575D01*
X040443Y012457D02*
X037515Y012457D01*
X037520Y012292D02*
X036420Y012292D01*
X036420Y011192D01*
X036425Y011192D01*
X036554Y011207D01*
X036681Y011236D01*
X036804Y011279D01*
X036922Y011336D01*
X037032Y011405D01*
X037134Y011486D01*
X037226Y011578D01*
X037307Y011680D01*
X037377Y011790D01*
X037433Y011908D01*
X037476Y012031D01*
X037505Y012158D01*
X037520Y012287D01*
X037520Y012292D01*
X037512Y012220D02*
X040443Y012220D01*
X040443Y012338D02*
X036420Y012338D01*
X036420Y012292D02*
X036420Y012412D01*
X036300Y012412D01*
X036300Y012292D01*
X036420Y012292D01*
X036420Y012220D02*
X036300Y012220D01*
X036300Y012292D02*
X036300Y011192D01*
X036295Y011192D01*
X036165Y011207D01*
X036038Y011236D01*
X035915Y011279D01*
X035798Y011336D01*
X035688Y011405D01*
X035586Y011486D01*
X035494Y011578D01*
X035412Y011680D01*
X035343Y011790D01*
X035286Y011908D01*
X035243Y012031D01*
X035214Y012158D01*
X035200Y012287D01*
X035200Y012292D01*
X036300Y012292D01*
X036300Y012338D02*
X031487Y012338D01*
X031369Y012220D02*
X035207Y012220D01*
X035227Y012101D02*
X031250Y012101D01*
X031132Y011983D02*
X035260Y011983D01*
X035307Y011864D02*
X031013Y011864D01*
X030895Y011746D02*
X035371Y011746D01*
X035454Y011627D02*
X030776Y011627D01*
X030658Y011509D02*
X035563Y011509D01*
X035711Y011390D02*
X030539Y011390D01*
X030421Y011272D02*
X031742Y011272D01*
X031746Y011273D02*
X031620Y011248D01*
X031497Y011210D01*
X031378Y011161D01*
X031264Y011100D01*
X031157Y011029D01*
X031058Y010947D01*
X030967Y010856D01*
X030885Y010757D01*
X030814Y010650D01*
X030753Y010536D01*
X030704Y010417D01*
X030666Y010294D01*
X030641Y010168D01*
X030629Y010040D01*
X030629Y010035D01*
X031879Y010035D01*
X031879Y009915D01*
X031999Y009915D01*
X031999Y010035D01*
X033249Y010035D01*
X033249Y010040D01*
X033236Y010168D01*
X033211Y010294D01*
X033173Y010417D01*
X033124Y010536D01*
X033064Y010650D01*
X032992Y010757D01*
X032910Y010856D01*
X032819Y010947D01*
X032720Y011029D01*
X032613Y011100D01*
X032499Y011161D01*
X032380Y011210D01*
X032257Y011248D01*
X032131Y011273D01*
X032003Y011285D01*
X031999Y011285D01*
X031999Y010035D01*
X031879Y010035D01*
X031879Y011285D01*
X031874Y011285D01*
X031746Y011273D01*
X031879Y011272D02*
X031999Y011272D01*
X031999Y011153D02*
X031879Y011153D01*
X031879Y011035D02*
X031999Y011035D01*
X031999Y010916D02*
X031879Y010916D01*
X031879Y010798D02*
X031999Y010798D01*
X031999Y010679D02*
X031879Y010679D01*
X031879Y010561D02*
X031999Y010561D01*
X031999Y010442D02*
X031879Y010442D01*
X031879Y010324D02*
X031999Y010324D01*
X031999Y010205D02*
X031879Y010205D01*
X031879Y010087D02*
X031999Y010087D01*
X031999Y009968D02*
X035667Y009968D01*
X035667Y009955D02*
X036668Y009955D01*
X036668Y010526D01*
X036210Y010526D01*
X036118Y010511D01*
X036030Y010483D01*
X035947Y010441D01*
X035872Y010386D01*
X035807Y010320D01*
X035752Y010245D01*
X035710Y010163D01*
X035681Y010074D01*
X035667Y009982D01*
X035667Y009955D01*
X035667Y009917D02*
X035667Y009890D01*
X035681Y009798D01*
X035710Y009710D01*
X035752Y009627D01*
X035807Y009552D01*
X035872Y009486D01*
X035947Y009431D01*
X036030Y009389D01*
X036118Y009361D01*
X036210Y009346D01*
X036668Y009346D01*
X036668Y009917D01*
X036705Y009917D01*
X036705Y009346D01*
X037163Y009346D01*
X037255Y009361D01*
X037343Y009389D01*
X037426Y009431D01*
X037501Y009486D01*
X037567Y009552D01*
X037621Y009627D01*
X037663Y009710D01*
X037692Y009798D01*
X037707Y009890D01*
X037707Y009917D01*
X036705Y009917D01*
X036705Y009955D01*
X036668Y009955D01*
X036668Y009917D01*
X035667Y009917D01*
X035673Y009850D02*
X033243Y009850D01*
X033249Y009911D02*
X033236Y009783D01*
X033211Y009657D01*
X033173Y009534D01*
X033124Y009415D01*
X033064Y009301D01*
X032992Y009194D01*
X032910Y009095D01*
X032819Y009004D01*
X032720Y008922D01*
X032613Y008850D01*
X032499Y008790D01*
X032380Y008740D01*
X032257Y008703D01*
X032131Y008678D01*
X032003Y008665D01*
X031999Y008665D01*
X031999Y009915D01*
X033249Y009915D01*
X033249Y009911D01*
X033244Y010087D02*
X035685Y010087D01*
X035732Y010205D02*
X033228Y010205D01*
X033202Y010324D02*
X035810Y010324D01*
X035951Y010442D02*
X033163Y010442D01*
X033111Y010561D02*
X040443Y010561D01*
X040443Y010679D02*
X033044Y010679D01*
X032958Y010798D02*
X040443Y010798D01*
X040443Y010916D02*
X032850Y010916D01*
X032711Y011035D02*
X040443Y011035D01*
X040443Y011153D02*
X032514Y011153D01*
X032135Y011272D02*
X035936Y011272D01*
X036300Y011272D02*
X036420Y011272D01*
X036420Y011390D02*
X036300Y011390D01*
X036300Y011509D02*
X036420Y011509D01*
X036420Y011627D02*
X036300Y011627D01*
X036300Y011746D02*
X036420Y011746D01*
X036420Y011864D02*
X036300Y011864D01*
X036300Y011983D02*
X036420Y011983D01*
X036420Y012101D02*
X036300Y012101D01*
X036300Y012412D02*
X035200Y012412D01*
X035200Y012418D01*
X035214Y012547D01*
X035243Y012674D01*
X035286Y012797D01*
X035343Y012914D01*
X035412Y013025D01*
X035494Y013127D01*
X035586Y013219D01*
X035688Y013300D01*
X035798Y013369D01*
X035915Y013426D01*
X036038Y013469D01*
X036165Y013498D01*
X036295Y013512D01*
X036300Y013512D01*
X036300Y012412D01*
X036300Y012457D02*
X036420Y012457D01*
X036420Y012575D02*
X036300Y012575D01*
X036300Y012694D02*
X036420Y012694D01*
X036420Y012812D02*
X036300Y012812D01*
X036300Y012931D02*
X036420Y012931D01*
X036420Y013049D02*
X036300Y013049D01*
X036300Y013168D02*
X036420Y013168D01*
X036420Y013286D02*
X036300Y013286D01*
X036300Y013405D02*
X036420Y013405D01*
X035872Y013405D02*
X035033Y013405D01*
X035014Y013286D02*
X035670Y013286D01*
X035535Y013168D02*
X034919Y013168D01*
X034801Y013049D02*
X035432Y013049D01*
X035353Y012931D02*
X034682Y012931D01*
X034564Y012812D02*
X035294Y012812D01*
X035250Y012694D02*
X034445Y012694D01*
X034327Y012575D02*
X035221Y012575D01*
X035204Y012457D02*
X034208Y012457D01*
X033789Y013405D02*
X028556Y013405D01*
X028609Y013523D02*
X033907Y013523D01*
X034026Y013642D02*
X027963Y013642D01*
X027923Y013642D02*
X026791Y013642D01*
X026672Y013523D02*
X027276Y013523D01*
X027329Y013405D02*
X026554Y013405D01*
X026435Y013286D02*
X027445Y013286D01*
X027591Y013049D02*
X026198Y013049D01*
X026080Y012931D02*
X027387Y012931D01*
X027445Y012989D02*
X027326Y012871D01*
X027263Y012716D01*
X027263Y012549D01*
X027326Y012395D01*
X027445Y012277D01*
X027599Y012213D01*
X028286Y012213D01*
X028440Y012277D01*
X028559Y012395D01*
X028623Y012549D01*
X028623Y012716D01*
X028559Y012871D01*
X028440Y012989D01*
X028286Y013053D01*
X027599Y013053D01*
X027445Y012989D01*
X027302Y012812D02*
X025961Y012812D01*
X025843Y012694D02*
X027263Y012694D01*
X027263Y012575D02*
X025724Y012575D01*
X025606Y012457D02*
X027301Y012457D01*
X027383Y012338D02*
X025502Y012338D01*
X025303Y012220D02*
X027582Y012220D01*
X027599Y012053D02*
X027445Y011989D01*
X027326Y011871D01*
X027263Y011716D01*
X027263Y011549D01*
X027326Y011395D01*
X027445Y011277D01*
X027599Y011213D01*
X028286Y011213D01*
X028440Y011277D01*
X028559Y011395D01*
X028623Y011549D01*
X028623Y011716D01*
X028559Y011871D01*
X028440Y011989D01*
X028286Y012053D01*
X027599Y012053D01*
X027439Y011983D02*
X025446Y011983D01*
X025440Y011989D02*
X025286Y012053D01*
X024599Y012053D01*
X024445Y011989D01*
X024326Y011871D01*
X024263Y011716D01*
X024263Y011549D01*
X024326Y011395D01*
X024445Y011277D01*
X024599Y011213D01*
X025286Y011213D01*
X025440Y011277D01*
X025559Y011395D01*
X025623Y011549D01*
X025623Y011716D01*
X025559Y011871D01*
X025440Y011989D01*
X025561Y011864D02*
X027324Y011864D01*
X027275Y011746D02*
X025610Y011746D01*
X025623Y011627D02*
X027263Y011627D01*
X027279Y011509D02*
X025606Y011509D01*
X025554Y011390D02*
X027331Y011390D01*
X027456Y011272D02*
X025429Y011272D01*
X025324Y011035D02*
X027556Y011035D01*
X027372Y010916D02*
X025513Y010916D01*
X025590Y010798D02*
X027296Y010798D01*
X027263Y010679D02*
X025620Y010679D01*
X025623Y010613D02*
X024963Y010613D01*
X024963Y010213D01*
X025236Y010213D01*
X025301Y010223D01*
X025364Y010244D01*
X025423Y010274D01*
X025476Y010313D01*
X025523Y010359D01*
X025562Y010413D01*
X025592Y010472D01*
X025612Y010535D01*
X025623Y010600D01*
X025623Y010613D01*
X025616Y010561D02*
X027263Y010561D01*
X027307Y010442D02*
X025577Y010442D01*
X025488Y010324D02*
X027398Y010324D01*
X027939Y009968D02*
X024923Y009968D01*
X024804Y010087D02*
X028057Y010087D01*
X028176Y010205D02*
X024686Y010205D01*
X024923Y010324D02*
X024963Y010324D01*
X024963Y010442D02*
X024923Y010442D01*
X024923Y010561D02*
X024963Y010561D01*
X024963Y010679D02*
X024923Y010679D01*
X024923Y010798D02*
X024963Y010798D01*
X024963Y010916D02*
X024923Y010916D01*
X024923Y011035D02*
X024963Y011035D01*
X024561Y011035D02*
X023856Y011035D01*
X023738Y011153D02*
X029124Y011153D01*
X029005Y011035D02*
X028329Y011035D01*
X028513Y010916D02*
X028887Y010916D01*
X028768Y010798D02*
X028589Y010798D01*
X028623Y010679D02*
X028650Y010679D01*
X028429Y011272D02*
X029242Y011272D01*
X029361Y011390D02*
X028554Y011390D01*
X028606Y011509D02*
X029479Y011509D01*
X029598Y011627D02*
X028623Y011627D01*
X028610Y011746D02*
X029716Y011746D01*
X029835Y011864D02*
X028561Y011864D01*
X028446Y011983D02*
X029953Y011983D01*
X030072Y012101D02*
X022790Y012101D01*
X022908Y011983D02*
X024439Y011983D01*
X024324Y011864D02*
X023027Y011864D01*
X023145Y011746D02*
X024275Y011746D01*
X024263Y011627D02*
X023264Y011627D01*
X023382Y011509D02*
X024279Y011509D01*
X024331Y011390D02*
X023501Y011390D01*
X023619Y011272D02*
X024456Y011272D01*
X024372Y010916D02*
X023975Y010916D01*
X024093Y010798D02*
X024295Y010798D01*
X024265Y010679D02*
X024212Y010679D01*
X023515Y010205D02*
X020761Y010205D01*
X020761Y010087D02*
X023633Y010087D01*
X023752Y009968D02*
X020761Y009968D01*
X020761Y009850D02*
X023870Y009850D01*
X023989Y009731D02*
X020761Y009731D01*
X020761Y009613D02*
X024107Y009613D01*
X024226Y009494D02*
X020761Y009494D01*
X020761Y009376D02*
X024344Y009376D01*
X024463Y009257D02*
X021450Y009257D01*
X020970Y009257D02*
X020761Y009257D01*
X020761Y009139D02*
X020884Y009139D01*
X020852Y009020D02*
X020761Y009020D01*
X020761Y008902D02*
X020860Y008902D01*
X020912Y008783D02*
X020761Y008783D01*
X020736Y008665D02*
X020870Y008665D01*
X020721Y008546D02*
X020632Y008546D01*
X020603Y008428D02*
X020514Y008428D01*
X020484Y008309D02*
X020395Y008309D01*
X020808Y007954D02*
X021575Y007954D01*
X021561Y007835D02*
X020742Y007835D01*
X020698Y007717D02*
X021586Y007717D01*
X021663Y007598D02*
X020586Y007598D01*
X020220Y007598D02*
X020167Y007598D01*
X020078Y007480D02*
X021910Y007480D01*
X022028Y007361D02*
X019959Y007361D01*
X019841Y007243D02*
X022147Y007243D01*
X022265Y007124D02*
X019722Y007124D01*
X019604Y007006D02*
X022384Y007006D01*
X022502Y006887D02*
X019513Y006887D01*
X019757Y006769D02*
X022621Y006769D01*
X022683Y006650D02*
X019848Y006650D01*
X019893Y006532D02*
X022683Y006532D01*
X022683Y006413D02*
X019903Y006413D01*
X019903Y006295D02*
X022683Y006295D01*
X022683Y006176D02*
X019903Y006176D01*
X019903Y006093D02*
X019483Y006093D01*
X019483Y005373D01*
X019550Y005384D01*
X019619Y005407D01*
X019684Y005439D01*
X019742Y005482D01*
X019793Y005533D01*
X019836Y005592D01*
X019869Y005656D01*
X019891Y005725D01*
X019903Y005797D01*
X019903Y006093D01*
X019903Y006058D02*
X022683Y006058D01*
X022683Y005939D02*
X019903Y005939D01*
X019903Y005821D02*
X022683Y005821D01*
X022683Y005702D02*
X019884Y005702D01*
X019830Y005584D02*
X022683Y005584D01*
X022683Y005465D02*
X019719Y005465D01*
X019483Y005465D02*
X019403Y005465D01*
X019403Y005584D02*
X019483Y005584D01*
X019483Y005702D02*
X019403Y005702D01*
X019403Y005821D02*
X019483Y005821D01*
X019483Y005939D02*
X019403Y005939D01*
X019403Y006058D02*
X019483Y006058D01*
X019186Y005347D02*
X022683Y005347D01*
X022683Y005228D02*
X019713Y005228D01*
X019837Y005110D02*
X022683Y005110D01*
X022683Y004991D02*
X019895Y004991D01*
X019922Y004873D02*
X022683Y004873D01*
X022683Y004754D02*
X019922Y004754D01*
X019922Y004636D02*
X022683Y004636D01*
X022683Y004517D02*
X019922Y004517D01*
X019922Y004399D02*
X022683Y004399D01*
X022683Y004280D02*
X019922Y004280D01*
X019922Y004162D02*
X022656Y004162D01*
X022537Y004043D02*
X019881Y004043D01*
X019803Y003925D02*
X022445Y003925D01*
X022427Y003806D02*
X019683Y003806D01*
X019683Y003688D02*
X022427Y003688D01*
X022427Y003569D02*
X019683Y003569D01*
X019683Y003451D02*
X022427Y003451D01*
X022427Y003332D02*
X019683Y003332D01*
X019683Y003214D02*
X022427Y003214D01*
X022427Y003095D02*
X019758Y003095D01*
X019809Y002977D02*
X022427Y002977D01*
X022427Y002858D02*
X019816Y002858D01*
X019784Y002740D02*
X022427Y002740D01*
X022427Y002621D02*
X019697Y002621D01*
X019219Y002621D02*
X015702Y002621D01*
X015702Y002503D02*
X022427Y002503D01*
X022427Y002384D02*
X015764Y002384D01*
X015814Y002266D02*
X022427Y002266D01*
X022415Y002147D02*
X015820Y002147D01*
X015787Y002029D02*
X022340Y002029D01*
X022317Y001910D02*
X015699Y001910D01*
X015702Y002740D02*
X019132Y002740D01*
X019100Y002858D02*
X015702Y002858D01*
X015702Y002977D02*
X019107Y002977D01*
X019158Y003095D02*
X015702Y003095D01*
X015702Y003214D02*
X019203Y003214D01*
X019203Y003332D02*
X015702Y003332D01*
X015702Y003451D02*
X019203Y003451D01*
X019203Y003569D02*
X015702Y003569D01*
X015702Y003688D02*
X019203Y003688D01*
X019203Y003806D02*
X018631Y003806D01*
X018803Y003925D02*
X019121Y003925D01*
X019202Y003844D02*
X019203Y003844D01*
X019043Y004043D02*
X018881Y004043D01*
X018922Y004162D02*
X019002Y004162D01*
X019002Y004280D02*
X018922Y004280D01*
X018922Y004399D02*
X019002Y004399D01*
X019002Y004517D02*
X018922Y004517D01*
X018922Y004636D02*
X019002Y004636D01*
X019186Y005228D02*
X019211Y005228D01*
X018706Y005347D02*
X016996Y005347D01*
X017114Y005465D02*
X017159Y005465D01*
X017286Y005261D02*
X017221Y005228D01*
X017163Y005185D01*
X017111Y005134D01*
X017069Y005076D01*
X017036Y005011D01*
X017014Y004942D01*
X017002Y004871D01*
X017002Y004574D01*
X017422Y004574D01*
X017422Y004494D01*
X017502Y004494D01*
X017502Y003775D01*
X017570Y003786D01*
X017639Y003808D01*
X017703Y003841D01*
X017762Y003884D01*
X017813Y003935D01*
X017856Y003993D01*
X017889Y004058D01*
X017911Y004127D01*
X017922Y004198D01*
X017922Y004494D01*
X017502Y004494D01*
X017502Y004574D01*
X017922Y004574D01*
X017922Y004871D01*
X017911Y004942D01*
X017889Y005011D01*
X017856Y005076D01*
X017813Y005134D01*
X017762Y005185D01*
X017703Y005228D01*
X017639Y005261D01*
X017570Y005283D01*
X017502Y005294D01*
X017502Y004574D01*
X017422Y004574D01*
X017422Y005294D01*
X017354Y005283D01*
X017286Y005261D01*
X017222Y005228D02*
X016877Y005228D01*
X016837Y005110D02*
X017094Y005110D01*
X017030Y004991D02*
X016895Y004991D01*
X016922Y004873D02*
X017003Y004873D01*
X017002Y004754D02*
X016922Y004754D01*
X016922Y004636D02*
X017002Y004636D01*
X017002Y004494D02*
X017002Y004198D01*
X017014Y004127D01*
X017036Y004058D01*
X017069Y003993D01*
X017111Y003935D01*
X017163Y003884D01*
X017221Y003841D01*
X017286Y003808D01*
X017354Y003786D01*
X017422Y003775D01*
X017422Y004494D01*
X017002Y004494D01*
X016922Y004517D02*
X017422Y004517D01*
X017502Y004517D02*
X018002Y004517D01*
X018002Y004399D02*
X017922Y004399D01*
X017922Y004280D02*
X018002Y004280D01*
X018002Y004162D02*
X017916Y004162D01*
X017881Y004043D02*
X018043Y004043D01*
X018121Y003925D02*
X017803Y003925D01*
X017633Y003806D02*
X018294Y003806D01*
X017502Y003806D02*
X017422Y003806D01*
X017422Y003925D02*
X017502Y003925D01*
X017502Y004043D02*
X017422Y004043D01*
X017422Y004162D02*
X017502Y004162D01*
X017502Y004280D02*
X017422Y004280D01*
X017422Y004399D02*
X017502Y004399D01*
X017502Y004636D02*
X017422Y004636D01*
X017422Y004754D02*
X017502Y004754D01*
X017502Y004873D02*
X017422Y004873D01*
X017422Y004991D02*
X017502Y004991D01*
X017502Y005110D02*
X017422Y005110D01*
X017422Y005228D02*
X017502Y005228D01*
X017702Y005228D02*
X018211Y005228D01*
X018087Y005110D02*
X017831Y005110D01*
X017895Y004991D02*
X018029Y004991D01*
X018002Y004873D02*
X017922Y004873D01*
X017922Y004754D02*
X018002Y004754D01*
X018002Y004636D02*
X017922Y004636D01*
X017002Y004399D02*
X016922Y004399D01*
X016922Y004280D02*
X017002Y004280D01*
X017008Y004162D02*
X016922Y004162D01*
X016881Y004043D02*
X017043Y004043D01*
X017121Y003925D02*
X016803Y003925D01*
X016631Y003806D02*
X017291Y003806D01*
X016294Y003806D02*
X015702Y003806D01*
X015803Y003925D02*
X016121Y003925D01*
X016043Y004043D02*
X015881Y004043D01*
X015922Y004162D02*
X016002Y004162D01*
X016002Y004280D02*
X015922Y004280D01*
X015922Y004399D02*
X016002Y004399D01*
X016002Y004517D02*
X015922Y004517D01*
X015922Y004636D02*
X016002Y004636D01*
X016002Y004754D02*
X015922Y004754D01*
X015922Y004873D02*
X016002Y004873D01*
X016029Y004991D02*
X015895Y004991D01*
X015995Y005110D02*
X016087Y005110D01*
X016114Y005228D02*
X016211Y005228D01*
X016189Y005347D02*
X016317Y005347D01*
X015553Y005347D02*
X013227Y005347D01*
X013290Y005228D02*
X014211Y005228D01*
X014087Y005110D02*
X013305Y005110D01*
X013416Y004991D02*
X014029Y004991D01*
X014002Y004873D02*
X013534Y004873D01*
X013653Y004754D02*
X014002Y004754D01*
X014002Y004636D02*
X013771Y004636D01*
X013917Y004517D02*
X014002Y004517D01*
X013987Y004399D02*
X014002Y004399D01*
X013990Y004280D02*
X014002Y004280D01*
X013990Y004162D02*
X014002Y004162D01*
X013990Y004043D02*
X014043Y004043D01*
X013990Y003925D02*
X014121Y003925D01*
X012688Y004873D02*
X012181Y004873D01*
X012264Y004991D02*
X012613Y004991D01*
X012588Y005110D02*
X012293Y005110D01*
X012283Y005228D02*
X012603Y005228D01*
X012666Y005347D02*
X012227Y005347D01*
X015547Y006887D02*
X015775Y006887D01*
X015893Y007006D02*
X015655Y007006D01*
X015773Y007124D02*
X016012Y007124D01*
X016130Y007243D02*
X015892Y007243D01*
X016177Y007361D02*
X016249Y007361D01*
X016267Y007480D02*
X016367Y007480D01*
X016301Y007598D02*
X016486Y007598D01*
X016295Y007717D02*
X017608Y007717D01*
X017828Y007835D02*
X016246Y007835D01*
X016585Y007954D02*
X017731Y007954D01*
X017695Y008072D02*
X016714Y008072D01*
X016804Y008191D02*
X017701Y008191D01*
X017755Y008309D02*
X016922Y008309D01*
X017041Y008428D02*
X017918Y008428D01*
X018159Y008546D02*
X017159Y008546D01*
X017278Y008665D02*
X018215Y008665D01*
X018215Y008783D02*
X017396Y008783D01*
X017515Y008902D02*
X018215Y008902D01*
X018215Y009020D02*
X017633Y009020D01*
X017752Y009139D02*
X018215Y009139D01*
X018215Y009257D02*
X017870Y009257D01*
X018156Y009376D02*
X018215Y009376D01*
X017931Y009629D02*
X016533Y008231D01*
X015643Y009139D02*
X014985Y009139D01*
X015103Y009257D02*
X015349Y009257D01*
X015230Y009376D02*
X015222Y009376D01*
X016293Y010679D02*
X018215Y010679D01*
X018210Y010561D02*
X018215Y010561D01*
X018215Y010798D02*
X016293Y010798D01*
X016293Y010916D02*
X018215Y010916D01*
X018215Y011035D02*
X016293Y011035D01*
X016293Y011153D02*
X018215Y011153D01*
X018215Y011272D02*
X016293Y011272D01*
X016293Y011390D02*
X018215Y011390D01*
X018215Y011509D02*
X016293Y011509D01*
X016293Y011627D02*
X018215Y011627D01*
X018215Y011746D02*
X016293Y011746D01*
X016293Y011864D02*
X018215Y011864D01*
X018215Y011983D02*
X016293Y011983D01*
X016293Y012101D02*
X018215Y012101D01*
X018215Y012220D02*
X016293Y012220D01*
X016293Y012338D02*
X018215Y012338D01*
X018162Y012457D02*
X016293Y012457D01*
X016287Y012575D02*
X018015Y012575D01*
X017896Y012694D02*
X016213Y012694D01*
X016095Y012812D02*
X017778Y012812D01*
X017659Y012931D02*
X015976Y012931D01*
X015858Y013049D02*
X017541Y013049D01*
X017422Y013168D02*
X015739Y013168D01*
X015621Y013286D02*
X017304Y013286D01*
X017185Y013405D02*
X015502Y013405D01*
X017112Y014708D02*
X019229Y014708D01*
X019105Y014827D02*
X017781Y014827D01*
X017730Y014777D02*
X017849Y014895D01*
X017913Y015049D01*
X017913Y015216D01*
X017849Y015371D01*
X017730Y015489D01*
X017576Y015553D01*
X017409Y015553D01*
X017255Y015489D01*
X017136Y015371D01*
X017073Y015216D01*
X017073Y015049D01*
X017136Y014895D01*
X017255Y014777D01*
X017409Y014713D01*
X017576Y014713D01*
X017730Y014777D01*
X017869Y014945D02*
X019016Y014945D01*
X018973Y015064D02*
X017913Y015064D01*
X017913Y015182D02*
X018973Y015182D01*
X019008Y015301D02*
X017878Y015301D01*
X017800Y015419D02*
X019085Y015419D01*
X019273Y015538D02*
X017612Y015538D01*
X017373Y015538D02*
X016746Y015538D01*
X016746Y015656D02*
X022088Y015656D01*
X021970Y015538D02*
X019512Y015538D01*
X019700Y015419D02*
X021851Y015419D01*
X021733Y015301D02*
X019778Y015301D01*
X019813Y015182D02*
X021614Y015182D01*
X021496Y015064D02*
X019813Y015064D01*
X019090Y014590D02*
X017230Y014590D01*
X017349Y014471D02*
X019041Y014471D01*
X019041Y014353D02*
X017467Y014353D01*
X017586Y014234D02*
X019084Y014234D01*
X019192Y014116D02*
X017704Y014116D01*
X017823Y013997D02*
X022009Y013997D01*
X022111Y013879D02*
X017941Y013879D01*
X018060Y013760D02*
X022111Y013760D01*
X022111Y013642D02*
X018178Y013642D01*
X018297Y013523D02*
X022111Y013523D01*
X022111Y013405D02*
X018415Y013405D01*
X018534Y013286D02*
X022111Y013286D01*
X022111Y013168D02*
X018652Y013168D01*
X018771Y013049D02*
X022111Y013049D01*
X022091Y012931D02*
X021910Y012931D01*
X022671Y013049D02*
X024591Y013049D01*
X024387Y012931D02*
X022691Y012931D01*
X022730Y012812D02*
X024302Y012812D01*
X024263Y012694D02*
X022726Y012694D01*
X022675Y012575D02*
X024263Y012575D01*
X024301Y012457D02*
X022518Y012457D01*
X022553Y012338D02*
X024383Y012338D01*
X024582Y012220D02*
X022671Y012220D01*
X021781Y012279D02*
X019608Y012279D01*
X019437Y011983D02*
X019397Y011983D01*
X019442Y011864D02*
X019499Y011864D01*
X019315Y012101D02*
X019275Y012101D01*
X019269Y012220D02*
X018871Y012220D01*
X018871Y012338D02*
X019269Y012338D01*
X019315Y012457D02*
X018871Y012457D01*
X018871Y012575D02*
X019440Y012575D01*
X019776Y012575D02*
X020144Y012575D01*
X020124Y012694D02*
X018871Y012694D01*
X018891Y012812D02*
X020146Y012812D01*
X020223Y012931D02*
X018869Y012931D01*
X018651Y012830D02*
X018651Y010527D01*
X018828Y010349D01*
X018828Y009601D01*
X018848Y009582D01*
X019261Y009286D02*
X019261Y010664D01*
X019124Y010802D01*
X019576Y011097D02*
X019104Y011570D01*
X019104Y011806D01*
X018933Y012101D02*
X018871Y012101D01*
X018435Y012495D02*
X018435Y008511D01*
X018033Y008109D01*
X018120Y007594D02*
X018631Y008105D01*
X018631Y008656D01*
X019261Y009286D01*
X019576Y009109D02*
X019576Y011097D01*
X020761Y010916D02*
X022804Y010916D01*
X022922Y010798D02*
X020761Y010798D01*
X020761Y010679D02*
X023041Y010679D01*
X023159Y010561D02*
X020761Y010561D01*
X020761Y010442D02*
X023278Y010442D01*
X023396Y010324D02*
X020761Y010324D01*
X020818Y011035D02*
X022685Y011035D01*
X022567Y011153D02*
X022063Y011153D01*
X022191Y011272D02*
X022448Y011272D01*
X022330Y011390D02*
X022238Y011390D01*
X021735Y011153D02*
X020936Y011153D01*
X018435Y012495D02*
X018238Y012692D01*
X019567Y014116D02*
X021890Y014116D01*
X021772Y014234D02*
X019675Y014234D01*
X019780Y014353D02*
X021653Y014353D01*
X022090Y014708D02*
X024263Y014708D01*
X024263Y014590D02*
X022208Y014590D01*
X022327Y014471D02*
X024295Y014471D01*
X024369Y014353D02*
X022445Y014353D01*
X022164Y014827D02*
X024308Y014827D01*
X024401Y014945D02*
X022282Y014945D01*
X022401Y015064D02*
X033892Y015064D01*
X034004Y015182D02*
X022519Y015182D01*
X022638Y015301D02*
X024421Y015301D01*
X024316Y015419D02*
X022756Y015419D01*
X022875Y015538D02*
X024267Y015538D01*
X024263Y015656D02*
X022993Y015656D01*
X023112Y015775D02*
X024287Y015775D01*
X024349Y015893D02*
X023230Y015893D01*
X023349Y016012D02*
X024500Y016012D01*
X024512Y016249D02*
X023586Y016249D01*
X023682Y016367D02*
X024354Y016367D01*
X024289Y016486D02*
X023715Y016486D01*
X023715Y016604D02*
X024263Y016604D01*
X024265Y016723D02*
X023715Y016723D01*
X023756Y016841D02*
X024314Y016841D01*
X024416Y016960D02*
X023805Y016960D01*
X023075Y016723D02*
X016298Y016723D01*
X016180Y016841D02*
X023035Y016841D01*
X022986Y016960D02*
X016061Y016960D01*
X015901Y017078D02*
X022985Y017078D01*
X022985Y017197D02*
X015324Y017197D01*
X015359Y017315D02*
X022985Y017315D01*
X022985Y017434D02*
X015363Y017434D01*
X015363Y017552D02*
X022985Y017552D01*
X023036Y016604D02*
X016417Y016604D01*
X016535Y016486D02*
X022918Y016486D01*
X022799Y016367D02*
X016654Y016367D01*
X016735Y016249D02*
X022681Y016249D01*
X022562Y016130D02*
X016746Y016130D01*
X016746Y016012D02*
X022444Y016012D01*
X022325Y015893D02*
X016746Y015893D01*
X016746Y015775D02*
X022207Y015775D01*
X023467Y016130D02*
X035400Y016130D01*
X035400Y016249D02*
X028373Y016249D01*
X028531Y016367D02*
X035400Y016367D01*
X035493Y016486D02*
X028596Y016486D01*
X028623Y016604D02*
X035611Y016604D01*
X035669Y016822D02*
X036050Y016822D01*
X036320Y017092D01*
X036320Y017473D01*
X036050Y017742D01*
X035669Y017742D01*
X035400Y017473D01*
X035400Y017092D01*
X035669Y016822D01*
X035650Y016841D02*
X028731Y016841D01*
X028620Y016723D02*
X036400Y016723D01*
X036400Y016841D02*
X036069Y016841D01*
X036188Y016960D02*
X036427Y016960D01*
X036400Y016933D02*
X036400Y016552D01*
X036669Y016282D01*
X037050Y016282D01*
X037320Y016552D01*
X037320Y016933D01*
X037050Y017202D01*
X036669Y017202D01*
X036400Y016933D01*
X036306Y017078D02*
X036545Y017078D01*
X036664Y017197D02*
X036320Y017197D01*
X036320Y017315D02*
X040443Y017315D01*
X040443Y017197D02*
X037056Y017197D01*
X037050Y017362D02*
X037320Y017632D01*
X037320Y018013D01*
X037050Y018282D01*
X036669Y018282D01*
X036400Y018013D01*
X036400Y017632D01*
X036669Y017362D01*
X037050Y017362D01*
X037122Y017434D02*
X040443Y017434D01*
X040443Y017552D02*
X037240Y017552D01*
X037320Y017671D02*
X040443Y017671D01*
X040443Y017789D02*
X037320Y017789D01*
X037320Y017908D02*
X040443Y017908D01*
X040443Y018026D02*
X037306Y018026D01*
X037188Y018145D02*
X040443Y018145D01*
X040443Y018263D02*
X037069Y018263D01*
X037050Y018442D02*
X036669Y018442D01*
X036400Y018712D01*
X036400Y019093D01*
X036669Y019362D01*
X037050Y019362D01*
X037320Y019093D01*
X037320Y018712D01*
X037050Y018442D01*
X037108Y018500D02*
X040443Y018500D01*
X040443Y018382D02*
X036320Y018382D01*
X036320Y018500D02*
X036611Y018500D01*
X036493Y018619D02*
X036254Y018619D01*
X036320Y018553D02*
X036050Y018822D01*
X035669Y018822D01*
X035400Y018553D01*
X035400Y018172D01*
X035669Y017902D01*
X036050Y017902D01*
X036320Y018172D01*
X036320Y018553D01*
X036400Y018737D02*
X036135Y018737D01*
X036050Y018982D02*
X035669Y018982D01*
X035400Y019252D01*
X035400Y019633D01*
X035669Y019902D01*
X036050Y019902D01*
X036320Y019633D01*
X036320Y019252D01*
X036050Y018982D01*
X036161Y019093D02*
X036400Y019093D01*
X036400Y018974D02*
X030864Y018974D01*
X030745Y018856D02*
X036400Y018856D01*
X036518Y019211D02*
X036279Y019211D01*
X036320Y019330D02*
X036637Y019330D01*
X036320Y019448D02*
X040443Y019448D01*
X040443Y019330D02*
X037083Y019330D01*
X037201Y019211D02*
X040443Y019211D01*
X040443Y019093D02*
X037320Y019093D01*
X037320Y018974D02*
X040443Y018974D01*
X040443Y018856D02*
X037320Y018856D01*
X037320Y018737D02*
X040443Y018737D01*
X040443Y018619D02*
X037227Y018619D01*
X036650Y018263D02*
X036320Y018263D01*
X036293Y018145D02*
X036532Y018145D01*
X036413Y018026D02*
X036174Y018026D01*
X036056Y017908D02*
X036400Y017908D01*
X036400Y017789D02*
X029679Y017789D01*
X029560Y017671D02*
X035598Y017671D01*
X035479Y017552D02*
X029442Y017552D01*
X029323Y017434D02*
X035400Y017434D01*
X035400Y017315D02*
X029205Y017315D01*
X029086Y017197D02*
X035400Y017197D01*
X035413Y017078D02*
X028968Y017078D01*
X028849Y016960D02*
X035532Y016960D01*
X036108Y016604D02*
X036400Y016604D01*
X036466Y016486D02*
X036227Y016486D01*
X036320Y016367D02*
X036584Y016367D01*
X036320Y016249D02*
X040443Y016249D01*
X040443Y016367D02*
X037135Y016367D01*
X037254Y016486D02*
X040443Y016486D01*
X040443Y016604D02*
X037320Y016604D01*
X037320Y016723D02*
X040443Y016723D01*
X040443Y016841D02*
X037320Y016841D01*
X037293Y016960D02*
X040443Y016960D01*
X040443Y017078D02*
X037174Y017078D01*
X036598Y017434D02*
X036320Y017434D01*
X036240Y017552D02*
X036479Y017552D01*
X036400Y017671D02*
X036122Y017671D01*
X035664Y017908D02*
X029797Y017908D01*
X029916Y018026D02*
X035545Y018026D01*
X035427Y018145D02*
X030034Y018145D01*
X030153Y018263D02*
X035400Y018263D01*
X035400Y018382D02*
X030271Y018382D01*
X030390Y018500D02*
X035400Y018500D01*
X035466Y018619D02*
X030508Y018619D01*
X030627Y018737D02*
X035584Y018737D01*
X035559Y019093D02*
X030982Y019093D01*
X031101Y019211D02*
X035440Y019211D01*
X035400Y019330D02*
X031223Y019330D01*
X031307Y019448D02*
X035400Y019448D01*
X035400Y019567D02*
X031345Y019567D01*
X031345Y019685D02*
X035452Y019685D01*
X035571Y019804D02*
X031303Y019804D01*
X031213Y019922D02*
X040443Y019922D01*
X040443Y019804D02*
X036149Y019804D01*
X036267Y019685D02*
X040443Y019685D01*
X040443Y019567D02*
X036320Y019567D01*
X036970Y021226D02*
X040443Y021226D01*
X040443Y021344D02*
X037132Y021344D01*
X037246Y021463D02*
X040443Y021463D01*
X040443Y021581D02*
X037333Y021581D01*
X037401Y021700D02*
X040443Y021700D01*
X040443Y021818D02*
X037451Y021818D01*
X037487Y021937D02*
X040443Y021937D01*
X040443Y022055D02*
X037509Y022055D01*
X040443Y020633D02*
X030223Y020633D01*
X030227Y020630D02*
X030133Y020724D01*
X029351Y020724D01*
X029257Y020630D01*
X029257Y019848D01*
X029351Y019754D01*
X030133Y019754D01*
X030227Y019848D01*
X030227Y020630D01*
X030227Y020515D02*
X040443Y020515D01*
X040443Y020396D02*
X030227Y020396D01*
X030227Y020278D02*
X040443Y020278D01*
X040443Y020159D02*
X030227Y020159D01*
X030227Y020041D02*
X040443Y020041D01*
X040443Y023596D02*
X000943Y023596D01*
X000943Y022055D02*
X001107Y022055D01*
X001124Y021937D02*
X000943Y021937D01*
X000943Y021818D02*
X001152Y021818D01*
X001192Y021700D02*
X000943Y021700D01*
X000943Y021581D02*
X001246Y021581D01*
X001315Y021463D02*
X000943Y021463D01*
X000943Y021344D02*
X001402Y021344D01*
X001513Y021226D02*
X000943Y021226D01*
X000943Y021107D02*
X001658Y021107D01*
X001864Y020989D02*
X000943Y020989D01*
X016746Y015419D02*
X017185Y015419D01*
X017108Y015301D02*
X016746Y015301D01*
X016746Y015182D02*
X017073Y015182D01*
X017073Y015064D02*
X016756Y015064D01*
X016875Y014945D02*
X017116Y014945D01*
X017205Y014827D02*
X016993Y014827D01*
X017620Y010310D02*
X017982Y010310D01*
X020926Y008072D02*
X021635Y008072D01*
X021808Y008191D02*
X021045Y008191D01*
X022030Y008191D02*
X024388Y008191D01*
X024506Y008072D02*
X022872Y008072D01*
X022944Y007954D02*
X024625Y007954D01*
X024743Y007835D02*
X022966Y007835D01*
X023040Y007717D02*
X024862Y007717D01*
X024992Y007598D02*
X023159Y007598D01*
X023277Y007480D02*
X029557Y007480D01*
X029557Y007481D02*
X029536Y007444D01*
X029525Y007404D01*
X029525Y007144D01*
X029924Y007144D01*
X029924Y007542D01*
X029664Y007542D01*
X029623Y007532D01*
X029587Y007511D01*
X029557Y007481D01*
X029525Y007361D02*
X023396Y007361D01*
X023483Y007243D02*
X029525Y007243D01*
X029525Y007106D02*
X029525Y006846D01*
X029536Y006806D01*
X029557Y006769D01*
X029587Y006739D01*
X029623Y006718D01*
X029664Y006708D01*
X029924Y006708D01*
X029924Y007106D01*
X029961Y007106D01*
X029961Y006708D01*
X030221Y006708D01*
X030262Y006718D01*
X030298Y006739D01*
X030328Y006769D01*
X030349Y006806D01*
X030360Y006846D01*
X030360Y007106D01*
X029961Y007106D01*
X029961Y007144D01*
X029924Y007144D01*
X029924Y007106D01*
X029525Y007106D01*
X029525Y007006D02*
X023497Y007006D01*
X023497Y007124D02*
X029924Y007124D01*
X029961Y007124D02*
X031025Y007124D01*
X031143Y007006D02*
X030360Y007006D01*
X030360Y006887D02*
X031262Y006887D01*
X031380Y006769D02*
X030328Y006769D01*
X030266Y006558D02*
X029619Y006558D01*
X029525Y006465D01*
X029525Y005817D01*
X029619Y005723D01*
X030266Y005723D01*
X030360Y005817D01*
X030360Y006465D01*
X030266Y006558D01*
X030293Y006532D02*
X031617Y006532D01*
X031499Y006650D02*
X023497Y006650D01*
X023497Y006532D02*
X029592Y006532D01*
X029525Y006413D02*
X023497Y006413D01*
X023497Y006295D02*
X029525Y006295D01*
X029525Y006176D02*
X023497Y006176D01*
X023497Y006058D02*
X029525Y006058D01*
X029525Y005939D02*
X023497Y005939D01*
X023497Y005821D02*
X029525Y005821D01*
X030360Y005821D02*
X040443Y005821D01*
X040443Y005939D02*
X030360Y005939D01*
X030360Y006058D02*
X040443Y006058D01*
X040443Y006176D02*
X030360Y006176D01*
X030360Y006295D02*
X033006Y006295D01*
X033509Y006295D02*
X040443Y006295D01*
X040443Y006413D02*
X033588Y006413D01*
X033616Y006532D02*
X040443Y006532D01*
X040443Y006650D02*
X033604Y006650D01*
X033545Y006769D02*
X040443Y006769D01*
X040443Y006887D02*
X033379Y006887D01*
X033136Y006887D02*
X031941Y006887D01*
X031822Y007006D02*
X040443Y007006D01*
X040443Y007124D02*
X038194Y007124D01*
X038177Y007112D02*
X038252Y007166D01*
X038318Y007232D01*
X038372Y007307D01*
X038414Y007390D01*
X038443Y007478D01*
X038458Y007570D01*
X038458Y008028D01*
X037886Y008028D01*
X037886Y008065D01*
X037849Y008065D01*
X037849Y009066D01*
X037821Y009066D01*
X037730Y009052D01*
X037641Y009023D01*
X037558Y008981D01*
X037483Y008926D01*
X037418Y008861D01*
X037363Y008785D01*
X037321Y008703D01*
X037292Y008614D01*
X037278Y008523D01*
X037278Y008065D01*
X037849Y008065D01*
X037849Y008028D01*
X037278Y008028D01*
X037278Y007570D01*
X037292Y007478D01*
X037321Y007390D01*
X037363Y007307D01*
X037418Y007232D01*
X037483Y007166D01*
X037558Y007112D01*
X037641Y007069D01*
X037730Y007041D01*
X037821Y007026D01*
X037849Y007026D01*
X037849Y008028D01*
X037886Y008028D01*
X037886Y007026D01*
X037914Y007026D01*
X038006Y007041D01*
X038094Y007069D01*
X038177Y007112D01*
X038326Y007243D02*
X040443Y007243D01*
X040443Y007361D02*
X038400Y007361D01*
X038443Y007480D02*
X040443Y007480D01*
X040443Y007598D02*
X038458Y007598D01*
X038458Y007717D02*
X040443Y007717D01*
X040443Y007835D02*
X038458Y007835D01*
X038458Y007954D02*
X040443Y007954D01*
X040443Y008072D02*
X038458Y008072D01*
X038458Y008065D02*
X038458Y008523D01*
X038443Y008614D01*
X038414Y008703D01*
X038372Y008785D01*
X038318Y008861D01*
X038252Y008926D01*
X038177Y008981D01*
X038094Y009023D01*
X038006Y009052D01*
X037914Y009066D01*
X037886Y009066D01*
X037886Y008065D01*
X038458Y008065D01*
X038458Y008191D02*
X040443Y008191D01*
X040443Y008309D02*
X038458Y008309D01*
X038458Y008428D02*
X040443Y008428D01*
X040443Y008546D02*
X038454Y008546D01*
X038427Y008665D02*
X040443Y008665D01*
X040443Y008783D02*
X038373Y008783D01*
X038276Y008902D02*
X040443Y008902D01*
X040443Y009020D02*
X038099Y009020D01*
X037886Y009020D02*
X037849Y009020D01*
X037849Y008902D02*
X037886Y008902D01*
X037886Y008783D02*
X037849Y008783D01*
X037849Y008665D02*
X037886Y008665D01*
X037886Y008546D02*
X037849Y008546D01*
X037849Y008428D02*
X037886Y008428D01*
X037886Y008309D02*
X037849Y008309D01*
X037849Y008191D02*
X037886Y008191D01*
X037886Y008072D02*
X037849Y008072D01*
X037849Y007954D02*
X037886Y007954D01*
X037886Y007835D02*
X037849Y007835D01*
X037849Y007717D02*
X037886Y007717D01*
X037886Y007598D02*
X037849Y007598D01*
X037849Y007480D02*
X037886Y007480D01*
X037886Y007361D02*
X037849Y007361D01*
X037849Y007243D02*
X037886Y007243D01*
X037886Y007124D02*
X037849Y007124D01*
X037541Y007124D02*
X035848Y007124D01*
X035840Y007116D02*
X036006Y007282D01*
X036096Y007499D01*
X036096Y008594D01*
X036006Y008810D01*
X035840Y008976D01*
X035623Y009066D01*
X035388Y009066D01*
X035171Y008976D01*
X035005Y008810D01*
X034916Y008594D01*
X034916Y007499D01*
X035005Y007282D01*
X035171Y007116D01*
X035388Y007026D01*
X035623Y007026D01*
X035840Y007116D01*
X035967Y007243D02*
X037410Y007243D01*
X037335Y007361D02*
X036039Y007361D01*
X036088Y007480D02*
X037292Y007480D01*
X037278Y007598D02*
X036096Y007598D01*
X036096Y007717D02*
X037278Y007717D01*
X037278Y007835D02*
X036096Y007835D01*
X036096Y007954D02*
X037278Y007954D01*
X037278Y008072D02*
X036096Y008072D01*
X036096Y008191D02*
X037278Y008191D01*
X037278Y008309D02*
X036096Y008309D01*
X036096Y008428D02*
X037278Y008428D01*
X037281Y008546D02*
X036096Y008546D01*
X036066Y008665D02*
X037309Y008665D01*
X037362Y008783D02*
X036017Y008783D01*
X035914Y008902D02*
X037459Y008902D01*
X037636Y009020D02*
X035734Y009020D01*
X035277Y009020D02*
X032836Y009020D01*
X032947Y009139D02*
X040443Y009139D01*
X040443Y009257D02*
X033034Y009257D01*
X033104Y009376D02*
X036071Y009376D01*
X035864Y009494D02*
X033157Y009494D01*
X033198Y009613D02*
X035762Y009613D01*
X035703Y009731D02*
X033226Y009731D01*
X031999Y009731D02*
X031879Y009731D01*
X031879Y009613D02*
X031999Y009613D01*
X031999Y009494D02*
X031879Y009494D01*
X031879Y009376D02*
X031999Y009376D01*
X031999Y009257D02*
X031879Y009257D01*
X031879Y009139D02*
X031999Y009139D01*
X031999Y009020D02*
X031879Y009020D01*
X031879Y008902D02*
X031999Y008902D01*
X031999Y008783D02*
X031879Y008783D01*
X031879Y008665D02*
X031879Y009915D01*
X030629Y009915D01*
X030629Y009911D01*
X030641Y009783D01*
X030666Y009657D01*
X030704Y009534D01*
X030753Y009415D01*
X030814Y009301D01*
X030885Y009194D01*
X030967Y009095D01*
X031058Y009004D01*
X031157Y008922D01*
X031264Y008850D01*
X031378Y008790D01*
X031497Y008740D01*
X031620Y008703D01*
X031746Y008678D01*
X031874Y008665D01*
X031879Y008665D01*
X031393Y008783D02*
X024474Y008783D01*
X024592Y008665D02*
X034945Y008665D01*
X034916Y008546D02*
X024711Y008546D01*
X024829Y008428D02*
X034916Y008428D01*
X034916Y008309D02*
X024948Y008309D01*
X025066Y008191D02*
X034916Y008191D01*
X034916Y008072D02*
X025185Y008072D01*
X024269Y008309D02*
X023960Y008309D01*
X024031Y008428D02*
X024151Y008428D01*
X024355Y008902D02*
X024863Y008902D01*
X024700Y009020D02*
X024237Y009020D01*
X024118Y009139D02*
X024581Y009139D01*
X022344Y008072D02*
X022202Y008072D01*
X022263Y007954D02*
X022272Y007954D01*
X023497Y006887D02*
X029525Y006887D01*
X029557Y006769D02*
X023497Y006769D01*
X023497Y005702D02*
X040443Y005702D01*
X040443Y005584D02*
X023497Y005584D01*
X023497Y005465D02*
X040443Y005465D01*
X040443Y005347D02*
X023497Y005347D01*
X023497Y005228D02*
X040443Y005228D01*
X040443Y005110D02*
X023497Y005110D01*
X023497Y004991D02*
X040443Y004991D01*
X040443Y004873D02*
X023497Y004873D01*
X023497Y004754D02*
X040443Y004754D01*
X040443Y004636D02*
X023497Y004636D01*
X023497Y004517D02*
X040443Y004517D01*
X040443Y004399D02*
X023497Y004399D01*
X023497Y004280D02*
X029572Y004280D01*
X029548Y004256D02*
X029642Y004350D01*
X030424Y004350D01*
X030518Y004256D01*
X030518Y003474D01*
X030424Y003380D01*
X029642Y003380D01*
X029548Y003474D01*
X029548Y004256D01*
X029548Y004162D02*
X023497Y004162D01*
X023497Y004043D02*
X029548Y004043D01*
X029548Y003925D02*
X023497Y003925D01*
X023497Y003806D02*
X029548Y003806D01*
X029548Y003688D02*
X023497Y003688D01*
X023550Y003569D02*
X029548Y003569D01*
X029571Y003451D02*
X023584Y003451D01*
X023576Y003332D02*
X040443Y003332D01*
X040443Y003214D02*
X023518Y003214D01*
X023346Y003095D02*
X040443Y003095D01*
X040443Y002977D02*
X022907Y002977D01*
X022907Y003095D02*
X023146Y003095D01*
X022973Y003214D02*
X022907Y003214D01*
X022907Y003332D02*
X022916Y003332D01*
X022907Y003451D02*
X022907Y003451D01*
X022907Y003569D02*
X022941Y003569D01*
X022907Y003688D02*
X023017Y003688D01*
X023017Y003806D02*
X022979Y003806D01*
X022531Y004037D02*
X022531Y004037D01*
X022907Y002858D02*
X040443Y002858D01*
X040443Y002740D02*
X022907Y002740D01*
X022907Y002621D02*
X040443Y002621D01*
X040443Y002503D02*
X022907Y002503D01*
X022907Y002384D02*
X040443Y002384D01*
X040443Y002266D02*
X038382Y002266D01*
X038377Y002283D02*
X038356Y002320D01*
X038326Y002349D01*
X038290Y002371D01*
X038249Y002381D01*
X037951Y002381D01*
X037951Y001945D01*
X037855Y001945D01*
X037855Y002381D01*
X037557Y002381D01*
X037517Y002371D01*
X037480Y002349D01*
X037450Y002320D01*
X037429Y002283D01*
X037418Y002243D01*
X037418Y001945D01*
X037855Y001945D01*
X037855Y001848D01*
X037951Y001848D01*
X037951Y001412D01*
X038249Y001412D01*
X038290Y001423D01*
X038326Y001444D01*
X038356Y001474D01*
X038377Y001510D01*
X038388Y001551D01*
X038388Y001848D01*
X037951Y001848D01*
X037951Y001945D01*
X038388Y001945D01*
X038388Y002243D01*
X038377Y002283D01*
X038388Y002147D02*
X040443Y002147D01*
X040443Y002029D02*
X038388Y002029D01*
X038388Y001792D02*
X040443Y001792D01*
X040443Y001910D02*
X037951Y001910D01*
X037855Y001910D02*
X032050Y001910D01*
X031953Y001910D02*
X023033Y001910D01*
X023017Y001792D02*
X031517Y001792D01*
X031517Y001673D02*
X022954Y001673D01*
X023009Y002029D02*
X031517Y002029D01*
X031517Y001945D02*
X031953Y001945D01*
X031953Y002381D01*
X031656Y002381D01*
X031615Y002371D01*
X031579Y002349D01*
X031549Y002320D01*
X031528Y002283D01*
X031517Y002243D01*
X031517Y001945D01*
X031517Y002147D02*
X022934Y002147D01*
X022907Y002266D02*
X031523Y002266D01*
X031953Y002266D02*
X032050Y002266D01*
X032050Y002147D02*
X031953Y002147D01*
X031953Y002029D02*
X032050Y002029D01*
X032050Y001792D02*
X031953Y001792D01*
X031953Y001673D02*
X032050Y001673D01*
X032050Y001555D02*
X031953Y001555D01*
X031953Y001436D02*
X032050Y001436D01*
X032412Y001436D02*
X037493Y001436D01*
X037480Y001444D02*
X037517Y001423D01*
X037557Y001412D01*
X037855Y001412D01*
X037855Y001848D01*
X037418Y001848D01*
X037418Y001551D01*
X037429Y001510D01*
X037450Y001474D01*
X037480Y001444D01*
X037418Y001555D02*
X032486Y001555D01*
X032486Y001673D02*
X037418Y001673D01*
X037418Y001792D02*
X032486Y001792D01*
X032486Y002029D02*
X037418Y002029D01*
X037418Y002147D02*
X032486Y002147D01*
X032480Y002266D02*
X037425Y002266D01*
X037855Y002266D02*
X037951Y002266D01*
X037951Y002147D02*
X037855Y002147D01*
X037855Y002029D02*
X037951Y002029D01*
X037951Y001792D02*
X037855Y001792D01*
X037855Y001673D02*
X037951Y001673D01*
X037951Y001555D02*
X037855Y001555D01*
X037855Y001436D02*
X037951Y001436D01*
X038313Y001436D02*
X040443Y001436D01*
X040443Y001555D02*
X038388Y001555D01*
X038388Y001673D02*
X040443Y001673D01*
X040263Y003380D02*
X039481Y003380D01*
X039387Y003474D01*
X039387Y004256D01*
X039481Y004350D01*
X040263Y004350D01*
X040356Y004256D01*
X040356Y003474D01*
X040263Y003380D01*
X040333Y003451D02*
X040443Y003451D01*
X040443Y003569D02*
X040356Y003569D01*
X040356Y003688D02*
X040443Y003688D01*
X040443Y003806D02*
X040356Y003806D01*
X040356Y003925D02*
X040443Y003925D01*
X040443Y004043D02*
X040356Y004043D01*
X040356Y004162D02*
X040443Y004162D01*
X040443Y004280D02*
X040332Y004280D01*
X039411Y004280D02*
X039348Y004280D01*
X039372Y004256D02*
X039278Y004350D01*
X038496Y004350D01*
X038403Y004256D01*
X038403Y003474D01*
X038496Y003380D01*
X039278Y003380D01*
X039372Y003474D01*
X039372Y004256D01*
X039372Y004162D02*
X039387Y004162D01*
X039372Y004043D02*
X039387Y004043D01*
X039372Y003925D02*
X039387Y003925D01*
X039372Y003806D02*
X039387Y003806D01*
X039372Y003688D02*
X039387Y003688D01*
X039372Y003569D02*
X039387Y003569D01*
X039410Y003451D02*
X039349Y003451D01*
X038426Y003451D02*
X037381Y003451D01*
X037404Y003474D02*
X037404Y004256D01*
X037310Y004350D01*
X036528Y004350D01*
X036434Y004256D01*
X036434Y003474D01*
X036528Y003380D01*
X037310Y003380D01*
X037404Y003474D01*
X037404Y003569D02*
X038403Y003569D01*
X038403Y003688D02*
X037404Y003688D01*
X037404Y003806D02*
X038403Y003806D01*
X038403Y003925D02*
X037404Y003925D01*
X037404Y004043D02*
X038403Y004043D01*
X038403Y004162D02*
X037404Y004162D01*
X037380Y004280D02*
X038427Y004280D01*
X036458Y004280D02*
X036395Y004280D01*
X036419Y004256D02*
X036326Y004350D01*
X035544Y004350D01*
X035450Y004256D01*
X035450Y003474D01*
X035544Y003380D01*
X036326Y003380D01*
X036419Y003474D01*
X036419Y004256D01*
X036419Y004162D02*
X036434Y004162D01*
X036419Y004043D02*
X036434Y004043D01*
X036419Y003925D02*
X036434Y003925D01*
X036419Y003806D02*
X036434Y003806D01*
X036419Y003688D02*
X036434Y003688D01*
X036419Y003569D02*
X036434Y003569D01*
X036457Y003451D02*
X036396Y003451D01*
X035473Y003451D02*
X034432Y003451D01*
X034455Y003474D02*
X034455Y004256D01*
X034361Y004350D01*
X033579Y004350D01*
X033485Y004256D01*
X033485Y003474D01*
X033579Y003380D01*
X034361Y003380D01*
X034455Y003474D01*
X034455Y003569D02*
X035450Y003569D01*
X035450Y003688D02*
X034455Y003688D01*
X034455Y003806D02*
X035450Y003806D01*
X035450Y003925D02*
X034455Y003925D01*
X034455Y004043D02*
X035450Y004043D01*
X035450Y004162D02*
X034455Y004162D01*
X034431Y004280D02*
X035474Y004280D01*
X033509Y004280D02*
X033446Y004280D01*
X033471Y004256D02*
X033377Y004350D01*
X032595Y004350D01*
X032501Y004256D01*
X032501Y003474D01*
X032595Y003380D01*
X033377Y003380D01*
X033471Y003474D01*
X033471Y004256D01*
X033471Y004162D02*
X033485Y004162D01*
X033471Y004043D02*
X033485Y004043D01*
X033471Y003925D02*
X033485Y003925D01*
X033471Y003806D02*
X033485Y003806D01*
X033471Y003688D02*
X033485Y003688D01*
X033471Y003569D02*
X033485Y003569D01*
X033508Y003451D02*
X033447Y003451D01*
X032524Y003451D02*
X031479Y003451D01*
X031502Y003474D02*
X031502Y004256D01*
X031408Y004350D01*
X030626Y004350D01*
X030533Y004256D01*
X030533Y003474D01*
X030626Y003380D01*
X031408Y003380D01*
X031502Y003474D01*
X031502Y003569D02*
X032501Y003569D01*
X032501Y003688D02*
X031502Y003688D01*
X031502Y003806D02*
X032501Y003806D01*
X032501Y003925D02*
X031502Y003925D01*
X031502Y004043D02*
X032501Y004043D01*
X032501Y004162D02*
X031502Y004162D01*
X031478Y004280D02*
X032525Y004280D01*
X030557Y004280D02*
X030494Y004280D01*
X030518Y004162D02*
X030533Y004162D01*
X030518Y004043D02*
X030533Y004043D01*
X030518Y003925D02*
X030533Y003925D01*
X030518Y003806D02*
X030533Y003806D01*
X030518Y003688D02*
X030533Y003688D01*
X030518Y003569D02*
X030533Y003569D01*
X030556Y003451D02*
X030495Y003451D01*
X030360Y006413D02*
X031736Y006413D01*
X031704Y007124D02*
X035163Y007124D01*
X035044Y007243D02*
X031585Y007243D01*
X031467Y007361D02*
X034972Y007361D01*
X034923Y007480D02*
X031348Y007480D01*
X031230Y007598D02*
X034916Y007598D01*
X034916Y007717D02*
X031111Y007717D01*
X030993Y007835D02*
X034916Y007835D01*
X034916Y007954D02*
X030874Y007954D01*
X030669Y007480D02*
X030329Y007480D01*
X030328Y007481D02*
X030298Y007511D01*
X030262Y007532D01*
X030221Y007542D01*
X029961Y007542D01*
X029961Y007144D01*
X030360Y007144D01*
X030360Y007404D01*
X030349Y007444D01*
X030328Y007481D01*
X030360Y007361D02*
X030788Y007361D01*
X030906Y007243D02*
X030360Y007243D01*
X029961Y007243D02*
X029924Y007243D01*
X029924Y007361D02*
X029961Y007361D01*
X029961Y007480D02*
X029924Y007480D01*
X029924Y007006D02*
X029961Y007006D01*
X029961Y006887D02*
X029924Y006887D01*
X029924Y006769D02*
X029961Y006769D01*
X031187Y008902D02*
X028012Y008902D01*
X028169Y009020D02*
X031041Y009020D01*
X030930Y009139D02*
X028288Y009139D01*
X028406Y009257D02*
X030843Y009257D01*
X030774Y009376D02*
X028525Y009376D01*
X028643Y009494D02*
X030720Y009494D01*
X030680Y009613D02*
X028762Y009613D01*
X028880Y009731D02*
X030651Y009731D01*
X030635Y009850D02*
X028999Y009850D01*
X029117Y009968D02*
X031879Y009968D01*
X031879Y009850D02*
X031999Y009850D01*
X030633Y010087D02*
X029236Y010087D01*
X029354Y010205D02*
X030649Y010205D01*
X030675Y010324D02*
X029473Y010324D01*
X029591Y010442D02*
X030714Y010442D01*
X030766Y010561D02*
X029710Y010561D01*
X029828Y010679D02*
X030833Y010679D01*
X030919Y010798D02*
X029947Y010798D01*
X030065Y010916D02*
X031027Y010916D01*
X031166Y011035D02*
X030184Y011035D01*
X030302Y011153D02*
X031363Y011153D01*
X030190Y012220D02*
X028303Y012220D01*
X028502Y012338D02*
X030309Y012338D01*
X030427Y012457D02*
X028584Y012457D01*
X028623Y012575D02*
X030546Y012575D01*
X030664Y012694D02*
X028623Y012694D01*
X028583Y012812D02*
X030783Y012812D01*
X030901Y012931D02*
X028498Y012931D01*
X028294Y013049D02*
X031020Y013049D01*
X031138Y013168D02*
X026317Y013168D01*
X025520Y013049D02*
X025294Y013049D01*
X027383Y014234D02*
X027547Y014234D01*
X027923Y013997D02*
X027963Y013997D01*
X027963Y013879D02*
X027923Y013879D01*
X027923Y013760D02*
X027963Y013760D01*
X027963Y013523D02*
X027923Y013523D01*
X027923Y013405D02*
X027963Y013405D01*
X027963Y013286D02*
X027923Y013286D01*
X028440Y013286D02*
X031257Y013286D01*
X028603Y013760D02*
X034061Y013760D01*
X034061Y013879D02*
X028543Y013879D01*
X028412Y013997D02*
X034061Y013997D01*
X035032Y015656D02*
X036400Y015656D01*
X036400Y015775D02*
X036083Y015775D01*
X036201Y015893D02*
X036440Y015893D01*
X036559Y016012D02*
X036320Y016012D01*
X036320Y016130D02*
X040443Y016130D01*
X040443Y016012D02*
X037161Y016012D01*
X037279Y015893D02*
X040443Y015893D01*
X040443Y015775D02*
X037320Y015775D01*
X037320Y015656D02*
X040443Y015656D01*
X040443Y015538D02*
X037320Y015538D01*
X037267Y015419D02*
X040443Y015419D01*
X040443Y015301D02*
X037149Y015301D01*
X037492Y012101D02*
X040443Y012101D01*
X040443Y011983D02*
X037459Y011983D01*
X037412Y011864D02*
X040443Y011864D01*
X040443Y011746D02*
X037349Y011746D01*
X037265Y011627D02*
X040443Y011627D01*
X040443Y011509D02*
X037157Y011509D01*
X037009Y011390D02*
X040443Y011390D01*
X040443Y011272D02*
X036784Y011272D01*
X036705Y010526D02*
X036705Y009955D01*
X037707Y009955D01*
X037707Y009982D01*
X037692Y010074D01*
X037663Y010163D01*
X037621Y010245D01*
X037567Y010320D01*
X037501Y010386D01*
X037426Y010441D01*
X037343Y010483D01*
X037255Y010511D01*
X037163Y010526D01*
X036705Y010526D01*
X036705Y010442D02*
X036668Y010442D01*
X036668Y010324D02*
X036705Y010324D01*
X036705Y010205D02*
X036668Y010205D01*
X036668Y010087D02*
X036705Y010087D01*
X036705Y009968D02*
X036668Y009968D01*
X036668Y009850D02*
X036705Y009850D01*
X036705Y009731D02*
X036668Y009731D01*
X036668Y009613D02*
X036705Y009613D01*
X036705Y009494D02*
X036668Y009494D01*
X036668Y009376D02*
X036705Y009376D01*
X037302Y009376D02*
X040443Y009376D01*
X040443Y009494D02*
X037509Y009494D01*
X037611Y009613D02*
X040443Y009613D01*
X040443Y009731D02*
X037670Y009731D01*
X037700Y009850D02*
X040443Y009850D01*
X040443Y009968D02*
X037707Y009968D01*
X037688Y010087D02*
X040443Y010087D01*
X040443Y010205D02*
X037642Y010205D01*
X037563Y010324D02*
X040443Y010324D01*
X040443Y010442D02*
X037422Y010442D01*
X035097Y008902D02*
X032690Y008902D01*
X032484Y008783D02*
X034994Y008783D01*
X018159Y005465D02*
X017726Y005465D01*
X017837Y005584D02*
X018048Y005584D01*
X017999Y005702D02*
X017886Y005702D01*
X017903Y005821D02*
X017983Y005821D01*
X017983Y005939D02*
X017903Y005939D01*
X017903Y006058D02*
X017983Y006058D01*
X017983Y006176D02*
X017903Y006176D01*
X017903Y006295D02*
X017983Y006295D01*
X017983Y006413D02*
X017948Y006413D01*
X025414Y019754D02*
X026196Y019754D01*
X026290Y019848D01*
X026290Y020630D01*
X026196Y020724D01*
X025414Y020724D01*
X025320Y020630D01*
X025320Y019848D01*
X025414Y019754D01*
X025364Y019804D02*
X025143Y019804D01*
X025199Y019922D02*
X025320Y019922D01*
X025320Y020041D02*
X025199Y020041D01*
X025199Y020159D02*
X025320Y020159D01*
X025320Y020278D02*
X025199Y020278D01*
X025199Y020396D02*
X025320Y020396D01*
X025320Y020515D02*
X025199Y020515D01*
X025199Y020633D02*
X025323Y020633D01*
X026286Y020633D02*
X026307Y020633D01*
X026304Y020630D02*
X026304Y019848D01*
X026398Y019754D01*
X027180Y019754D01*
X027274Y019848D01*
X027274Y020630D01*
X027180Y020724D01*
X026398Y020724D01*
X026304Y020630D01*
X026290Y020515D02*
X026304Y020515D01*
X026290Y020396D02*
X026304Y020396D01*
X026290Y020278D02*
X026304Y020278D01*
X026290Y020159D02*
X026304Y020159D01*
X026290Y020041D02*
X026304Y020041D01*
X026290Y019922D02*
X026304Y019922D01*
X026348Y019804D02*
X026245Y019804D01*
X027230Y019804D02*
X028317Y019804D01*
X028273Y019848D02*
X028366Y019754D01*
X029149Y019754D01*
X029242Y019848D01*
X029242Y020630D01*
X029149Y020724D01*
X028366Y020724D01*
X028273Y020630D01*
X028273Y019848D01*
X028273Y019922D02*
X027274Y019922D01*
X027274Y020041D02*
X028273Y020041D01*
X028273Y020159D02*
X027274Y020159D01*
X027274Y020278D02*
X028273Y020278D01*
X028273Y020396D02*
X027274Y020396D01*
X027274Y020515D02*
X028273Y020515D01*
X028276Y020633D02*
X027271Y020633D01*
X029239Y020633D02*
X029260Y020633D01*
X029257Y020515D02*
X029242Y020515D01*
X029242Y020396D02*
X029257Y020396D01*
X029242Y020278D02*
X029257Y020278D01*
X029242Y020159D02*
X029257Y020159D01*
X029242Y020041D02*
X029257Y020041D01*
X029242Y019922D02*
X029257Y019922D01*
X029301Y019804D02*
X029198Y019804D01*
X030182Y019804D02*
X030534Y019804D01*
X030652Y019922D02*
X030227Y019922D01*
M02*
