%
M48
M72
T01C0.0197
T02C0.0236
T03C0.0315
T04C0.0320
T05C0.0394
T06C0.0400
T07C0.0413
T08C0.0433
T09C0.0937
T10C0.1181
T11C0.1300
%
T01
X23710Y8538
X20403Y7889
X18033Y8109
X15856Y9405
X15915Y10074
X17931Y9629
X18848Y9582
X17982Y10310
X19124Y10802
X19104Y11806
X19722Y11609
X20344Y11865
X19608Y12279
X20462Y12692
X21899Y11452
X23907Y11275
X22391Y12771
X19380Y14405
X18750Y14247
X15088Y12731
X14419Y12751
X13691Y12751
X13218Y12259
X10187Y10684
X23246Y3420
T02
X3242Y3912
X8553Y1334
X12057Y2869
X13891Y2975
X15462Y2180
X14635Y1334
X19458Y2889
X20344Y1334
X22675Y1901
X22411Y6235
X21171Y6235
X21919Y7849
X22608Y7830
X21210Y8991
X25305Y8361
X26092Y8361
X33257Y6550
X34202Y14877
X34734Y15448
X32588Y16668
X30935Y19621
X23395Y17042
X21820Y15763
X18435Y16117
X22765Y19601
X18100Y20960
X8584Y16727
X6624Y16688
X11702Y13243
X8139Y12712
X6624Y12286
X5305Y11842
X5324Y11137
X8376Y9464
X8395Y8775
X8946Y8164
X4360Y8932
X10939Y5133
X11935Y5133
X12946Y5121
X15943Y7633
X15943Y8633
X14675Y10645
T03
X29943Y7125
X29943Y6141
X37868Y8046
X36687Y9936
T04
X27943Y10633
X27943Y11633
X27943Y12633
X27943Y13633
X27943Y14633
X27943Y15633
X27943Y16633
X24943Y16633
X24943Y15633
X24943Y14633
X24943Y13633
X24943Y12633
X24943Y11633
X24943Y10633
X19393Y15133
X17493Y15133
X14943Y17633
X13943Y17633
X12943Y17633
X11943Y17633
X10943Y17633
X9943Y17633
X8943Y17633
X8943Y20633
X9943Y20633
X10943Y20633
X11943Y20633
X12943Y20633
X13943Y20633
X14943Y20633
X14393Y9633
X12493Y9633
T05
X5635Y14668
X5635Y15653
X5635Y16440
X5635Y17424
X35506Y8046
T06
X35860Y15122
X36860Y15662
X35860Y16202
X36860Y16742
X35860Y17282
X36860Y17822
X35860Y18362
X36860Y18902
X35860Y19442
X19596Y22180
X18596Y22180
X17596Y22180
X16596Y22180
X15596Y22180
X14596Y22180
X13596Y22180
X12596Y22180
X11596Y22180
X10596Y22180
X9596Y22180
X8596Y22180
X7596Y22180
X6596Y22180
X5596Y22180
X4596Y22180
X15443Y6133
X16443Y6133
X17443Y6133
X18443Y6133
X19443Y6133
X19462Y4534
X18462Y4534
X17462Y4534
X16462Y4534
X15462Y4534
X14462Y4534
T07
X9411Y5633
X8427Y6617
X7443Y5633
T08
X36919Y3865
X35935Y3865
X33970Y3865
X32986Y3865
X31017Y3865
X30033Y3865
X32002Y1897
X37903Y1897
X38887Y3865
X39872Y3865
X29742Y20239
X28757Y20239
X26789Y20239
X25805Y20239
X24714Y20251
X23730Y20251
X21761Y20251
X20777Y20251
X22746Y22219
X27773Y22208
T09
X4569Y13460
X4569Y18633
T10
X2411Y22180
X2411Y9975
X31939Y9975
X31939Y22180
T11
X36360Y22212
X36360Y12352
M30
