G75*
%MOIN*%
%OFA0B0*%
%FSLAX24Y24*%
%IPPOS*%
%LPD*%
%AMOC8*
5,1,8,0,0,1.08239X$1,22.5*
%
%ADD10R,0.0197X0.0591*%
%ADD11R,0.0591X0.0197*%
%ADD12R,0.0820X0.1500*%
%ADD13R,0.4500X0.3500*%
%ADD14R,0.0515X0.0515*%
%ADD15R,0.0827X0.0551*%
%ADD16R,0.0394X0.1102*%
%ADD17R,0.0591X0.0512*%
%ADD18C,0.0860*%
%ADD19R,0.0630X0.0512*%
%ADD20R,0.0866X0.0236*%
%ADD21C,0.0520*%
%ADD22C,0.0600*%
%ADD23R,0.0650X0.0650*%
%ADD24OC8,0.0600*%
%ADD25C,0.2000*%
%ADD26R,0.0709X0.0551*%
%ADD27R,0.0551X0.0394*%
%ADD28R,0.0512X0.0630*%
%ADD29R,0.0551X0.0709*%
%ADD30R,0.0630X0.0709*%
%ADD31R,0.0709X0.0630*%
%ADD32R,0.0709X0.0669*%
%ADD33R,0.0512X0.0591*%
%ADD34R,0.0236X0.0866*%
%ADD35C,0.0594*%
%ADD36C,0.1406*%
%ADD37R,0.0472X0.0472*%
%ADD38C,0.0520*%
%ADD39C,0.0620*%
%ADD40C,0.2300*%
%ADD41C,0.0500*%
%ADD42C,0.0160*%
%ADD43C,0.0240*%
%ADD44C,0.0320*%
%ADD45C,0.0396*%
%ADD46C,0.0357*%
%ADD47C,0.0400*%
%ADD48C,0.0120*%
D10*
X017368Y008849D03*
X017683Y008849D03*
X017998Y008849D03*
X018313Y008849D03*
X018628Y008849D03*
X018943Y008849D03*
X019257Y008849D03*
X019572Y008849D03*
X019887Y008849D03*
X020202Y008849D03*
X020517Y008849D03*
X020517Y013416D03*
X020202Y013416D03*
X019887Y013416D03*
X019572Y013416D03*
X019257Y013416D03*
X018943Y013416D03*
X018628Y013416D03*
X018313Y013416D03*
X017998Y013416D03*
X017683Y013416D03*
X017368Y013416D03*
D11*
X016659Y012708D03*
X016659Y012393D03*
X016659Y012078D03*
X016659Y011763D03*
X016659Y011448D03*
X016659Y011133D03*
X016659Y010818D03*
X016659Y010503D03*
X016659Y010188D03*
X016659Y009873D03*
X016659Y009558D03*
X021226Y009558D03*
X021226Y009873D03*
X021226Y010188D03*
X021226Y010503D03*
X021226Y010818D03*
X021226Y011133D03*
X021226Y011448D03*
X021226Y011763D03*
X021226Y012078D03*
X021226Y012393D03*
X021226Y012708D03*
D12*
X025443Y007133D03*
X027443Y007133D03*
D13*
X026443Y002633D03*
D14*
X029943Y006141D03*
X029943Y007125D03*
D15*
X002006Y001094D03*
X002006Y002865D03*
X005588Y002865D03*
X007517Y002865D03*
X007517Y001094D03*
X005588Y001094D03*
X011100Y001094D03*
X013033Y001094D03*
X013033Y002865D03*
X011100Y002865D03*
X016616Y002865D03*
X018557Y002865D03*
X018557Y001094D03*
X016616Y001094D03*
X022139Y001094D03*
X022139Y002865D03*
X005592Y004956D03*
X005592Y006727D03*
X002009Y006727D03*
X002009Y004956D03*
D16*
X021797Y004389D03*
X021797Y006239D03*
D17*
X023647Y005771D03*
X023647Y005023D03*
X023041Y011042D03*
X023041Y011790D03*
X029423Y015279D03*
X029423Y016027D03*
X028265Y017936D03*
X028265Y018684D03*
X034443Y018507D03*
X034443Y017759D03*
X007478Y018660D03*
X007478Y019408D03*
X007443Y017507D03*
X007443Y016759D03*
D18*
X035506Y008476D02*
X035506Y007616D01*
X037868Y007616D02*
X037868Y008476D01*
X037117Y009936D02*
X036257Y009936D01*
D19*
X034943Y005007D03*
X034943Y004259D03*
X034943Y003007D03*
X034943Y002259D03*
X021265Y007216D03*
X021265Y007964D03*
X013943Y006507D03*
X013943Y005759D03*
X012950Y005759D03*
X011943Y005759D03*
X010943Y005759D03*
X010943Y006507D03*
X011943Y006507D03*
X012950Y006507D03*
X007443Y014259D03*
X007443Y015007D03*
X029324Y017897D03*
X029324Y018645D03*
D20*
X030525Y017383D03*
X030525Y016883D03*
X030525Y016383D03*
X030525Y015883D03*
X030525Y015383D03*
X030525Y014883D03*
X030525Y014383D03*
X030525Y013883D03*
X033360Y013883D03*
X033360Y014383D03*
X033360Y014883D03*
X033360Y015383D03*
X033360Y015883D03*
X033360Y016383D03*
X033360Y016883D03*
X033360Y017383D03*
X007525Y010383D03*
X007525Y009883D03*
X007525Y009383D03*
X007525Y008883D03*
X005360Y008883D03*
X005360Y009383D03*
X005360Y009883D03*
X005360Y010383D03*
D21*
X008943Y017373D02*
X008943Y017893D01*
X009943Y017893D02*
X009943Y017373D01*
X010943Y017373D02*
X010943Y017893D01*
X011943Y017893D02*
X011943Y017373D01*
X012943Y017373D02*
X012943Y017893D01*
X013943Y017893D02*
X013943Y017373D01*
X014943Y017373D02*
X014943Y017893D01*
X014943Y020373D02*
X014943Y020893D01*
X013943Y020893D02*
X013943Y020373D01*
X012943Y020373D02*
X012943Y020893D01*
X011943Y020893D02*
X011943Y020373D01*
X010943Y020373D02*
X010943Y020893D01*
X009943Y020893D02*
X009943Y020373D01*
X008943Y020373D02*
X008943Y020893D01*
X024683Y016633D02*
X025203Y016633D01*
X025203Y015633D02*
X024683Y015633D01*
X024683Y014633D02*
X025203Y014633D01*
X025203Y013633D02*
X024683Y013633D01*
X024683Y012633D02*
X025203Y012633D01*
X025203Y011633D02*
X024683Y011633D01*
X024683Y010633D02*
X025203Y010633D01*
X027683Y010633D02*
X028203Y010633D01*
X028203Y011633D02*
X027683Y011633D01*
X027683Y012633D02*
X028203Y012633D01*
X028203Y013633D02*
X027683Y013633D01*
X027683Y014633D02*
X028203Y014633D01*
X028203Y015633D02*
X027683Y015633D01*
X027683Y016633D02*
X028203Y016633D01*
D22*
X019596Y021880D02*
X019596Y022480D01*
X018596Y022480D02*
X018596Y021880D01*
X017596Y021880D02*
X017596Y022480D01*
X016596Y022480D02*
X016596Y021880D01*
X015596Y021880D02*
X015596Y022480D01*
X014596Y022480D02*
X014596Y021880D01*
X013596Y021880D02*
X013596Y022480D01*
X012596Y022480D02*
X012596Y021880D01*
X011596Y021880D02*
X011596Y022480D01*
X010596Y022480D02*
X010596Y021880D01*
X009596Y021880D02*
X009596Y022480D01*
X008596Y022480D02*
X008596Y021880D01*
X007596Y021880D02*
X007596Y022480D01*
X006596Y022480D02*
X006596Y021880D01*
X005596Y021880D02*
X005596Y022480D01*
X004596Y022480D02*
X004596Y021880D01*
X015443Y006433D02*
X015443Y005833D01*
X016443Y005833D02*
X016443Y006433D01*
X017443Y006433D02*
X017443Y005833D01*
X018443Y005833D02*
X018443Y006433D01*
X019443Y006433D02*
X019443Y005833D01*
X019462Y004834D02*
X019462Y004234D01*
X018462Y004234D02*
X018462Y004834D01*
X017462Y004834D02*
X017462Y004234D01*
X016462Y004234D02*
X016462Y004834D01*
X015462Y004834D02*
X015462Y004234D01*
X014462Y004234D02*
X014462Y004834D01*
D23*
X030033Y003865D03*
X031017Y003865D03*
X032986Y003865D03*
X033970Y003865D03*
X035935Y003865D03*
X036919Y003865D03*
X038887Y003865D03*
X039872Y003865D03*
X037903Y001897D03*
X032002Y001897D03*
X029742Y020239D03*
X028757Y020239D03*
X026789Y020239D03*
X025805Y020239D03*
X024714Y020251D03*
X023730Y020251D03*
X021761Y020251D03*
X020777Y020251D03*
X022746Y022219D03*
X027773Y022208D03*
D24*
X035860Y019442D03*
X036860Y018902D03*
X035860Y018362D03*
X036860Y017822D03*
X035860Y017282D03*
X036860Y016742D03*
X035860Y016202D03*
X036860Y015662D03*
X035860Y015122D03*
D25*
X036360Y012352D03*
X036360Y022212D03*
D26*
X027147Y018842D03*
X027147Y017503D03*
X029159Y011216D03*
X029159Y009877D03*
D27*
X022509Y015759D03*
X023376Y016133D03*
X022509Y016507D03*
D28*
X022817Y017633D03*
X022069Y017633D03*
X021817Y018633D03*
X021069Y018633D03*
X023950Y017633D03*
X024698Y017633D03*
X023797Y014948D03*
X023049Y014948D03*
X023088Y012794D03*
X023836Y012794D03*
X034069Y006133D03*
X034817Y006133D03*
D29*
X027112Y009310D03*
X025773Y009310D03*
D30*
X031604Y005605D03*
X032706Y005605D03*
X035891Y005633D03*
X036994Y005633D03*
X023797Y013901D03*
X022694Y013901D03*
X022891Y018633D03*
X023994Y018633D03*
X025049Y018633D03*
X026151Y018633D03*
D31*
X029159Y013223D03*
X029159Y012121D03*
D32*
X032135Y007633D03*
X033750Y007633D03*
D33*
X032596Y012826D03*
X031848Y012826D03*
X031317Y018633D03*
X030569Y018633D03*
X032569Y018633D03*
X033317Y018633D03*
X019817Y016633D03*
X019069Y016633D03*
X017817Y016633D03*
X017069Y016633D03*
X006817Y011133D03*
X006069Y011133D03*
X009836Y009940D03*
X010584Y009940D03*
X012069Y008133D03*
X012817Y008133D03*
X014069Y008133D03*
X014817Y008133D03*
D34*
X014693Y011468D03*
X015193Y011468D03*
X014193Y011468D03*
X013693Y011468D03*
X013193Y011468D03*
X012693Y011468D03*
X012193Y011468D03*
X011693Y011468D03*
X011193Y011468D03*
X010693Y011468D03*
X010193Y011468D03*
X009693Y011468D03*
X009193Y011468D03*
X008693Y011468D03*
X008693Y015798D03*
X009193Y015798D03*
X009693Y015798D03*
X010193Y015798D03*
X010693Y015798D03*
X011193Y015798D03*
X011693Y015798D03*
X012193Y015798D03*
X012693Y015798D03*
X013193Y015798D03*
X013693Y015798D03*
X014193Y015798D03*
X014693Y015798D03*
X015193Y015798D03*
D35*
X005635Y015653D03*
X005635Y016440D03*
X005635Y017424D03*
X005635Y014668D03*
D36*
X004569Y013460D03*
X004569Y018633D03*
D37*
X007443Y013046D03*
X007443Y012219D03*
D38*
X012493Y009633D03*
X014393Y009633D03*
X017493Y015133D03*
X019393Y015133D03*
D39*
X008427Y006617D03*
X009411Y005633D03*
X007443Y005633D03*
D40*
X002411Y009975D03*
X002411Y022180D03*
X031939Y022180D03*
X031939Y009975D03*
D41*
X029159Y009877D02*
X027679Y009877D01*
X027112Y009310D01*
X027443Y008979D01*
X027443Y008401D01*
X027403Y008361D01*
X026092Y008361D01*
X025305Y008361D01*
X024943Y008361D01*
X024943Y010633D01*
X027943Y011633D02*
X029159Y011633D01*
X029159Y012121D01*
X029159Y011633D02*
X029159Y011216D01*
X027443Y008401D02*
X027443Y007133D01*
X027450Y007125D01*
X029943Y007125D01*
X029943Y006141D02*
X028950Y006141D01*
X028443Y005633D01*
X025943Y005633D01*
X025443Y006133D01*
X025443Y007133D01*
X024675Y008361D02*
X023647Y007334D01*
X023647Y006294D01*
X023588Y006235D01*
X022411Y006235D01*
X021801Y006235D01*
X021797Y006239D01*
X022411Y006235D02*
X021171Y006235D01*
X023647Y006294D02*
X023647Y005771D01*
X023647Y005023D02*
X023013Y004389D01*
X021797Y004389D01*
X023647Y004928D02*
X025943Y002633D01*
X026443Y002633D01*
X028037Y001038D01*
X038513Y001038D01*
X038927Y001452D01*
X038927Y002259D01*
X037883Y003302D01*
X037883Y005133D01*
X038946Y006196D01*
X038946Y018342D01*
X036820Y020468D01*
X033946Y020468D01*
X033671Y020192D01*
X033443Y020192D01*
X031151Y020192D01*
X031151Y019838D01*
X030935Y019621D01*
X031151Y020192D02*
X028080Y023263D01*
X023943Y023263D01*
X023943Y021960D01*
X022765Y020782D01*
X022765Y019601D01*
X022817Y017633D02*
X023443Y017633D01*
X023395Y017586D01*
X023395Y017042D01*
X023443Y017633D02*
X023950Y017633D01*
X023943Y023263D02*
X018710Y023263D01*
X014045Y023263D01*
X009124Y023263D01*
X006013Y023263D01*
X005620Y022869D01*
X005620Y022204D01*
X005596Y022180D01*
X024675Y008361D02*
X024943Y008361D01*
X029943Y006141D02*
X029950Y006133D01*
X030443Y006133D01*
X031943Y007633D01*
X032135Y007633D01*
X033750Y007633D02*
X034163Y008046D01*
X035506Y008046D01*
X034817Y006133D02*
X034943Y006007D01*
X034943Y005007D01*
X034817Y005133D01*
X033443Y005133D01*
X032970Y005605D01*
X032706Y005605D01*
X031604Y005605D02*
X031112Y005605D01*
X030069Y004562D01*
X030069Y003901D01*
X030033Y003865D01*
X034943Y004259D02*
X034943Y003007D01*
X034943Y002259D02*
X037541Y002259D01*
X037903Y001897D01*
X023647Y004928D02*
X023647Y005023D01*
X015443Y006133D02*
X015069Y006507D01*
X013943Y006507D01*
X012950Y006507D01*
X011943Y006507D01*
X010943Y006507D01*
X010285Y006507D01*
X010228Y006450D01*
X009411Y005633D01*
D42*
X010439Y004633D02*
X007443Y004633D01*
X005592Y006483D01*
X005592Y006727D01*
X004793Y007101D02*
X004793Y002515D01*
X005167Y002141D01*
X006131Y002141D01*
X006545Y002554D01*
X006545Y003086D01*
X006958Y003499D01*
X016230Y003499D01*
X016466Y003735D01*
X016466Y004531D01*
X016462Y004534D01*
X015462Y004534D02*
X015462Y004916D01*
X014655Y005723D01*
X013978Y005723D01*
X013943Y005759D01*
X012950Y005759D02*
X012950Y005125D01*
X012946Y005121D01*
X011935Y005133D02*
X011935Y005751D01*
X011943Y005759D01*
X011935Y005133D02*
X010935Y004133D01*
X005943Y004133D01*
X005588Y003779D01*
X005588Y002865D01*
X010439Y004633D02*
X010939Y005133D01*
X010943Y005137D01*
X010943Y005759D01*
X010718Y007180D02*
X009193Y008706D01*
X009193Y011468D01*
X009693Y011468D02*
X009693Y010084D01*
X009836Y009940D01*
X009836Y008968D01*
X011289Y007515D01*
X012588Y007515D01*
X012824Y007751D01*
X012824Y008125D01*
X012817Y008133D01*
X014069Y008133D01*
X013868Y008334D01*
X013868Y009956D01*
X014193Y010281D01*
X014193Y011468D01*
X014693Y011468D02*
X014693Y010662D01*
X014675Y010645D01*
X015193Y010433D02*
X014393Y009633D01*
X014817Y009209D01*
X014817Y008133D01*
X014069Y008133D02*
X013943Y008259D01*
X014990Y007180D02*
X015364Y007554D01*
X015364Y010192D01*
X015679Y010507D01*
X016663Y010507D01*
X016659Y010503D01*
X016659Y010188D02*
X016029Y010188D01*
X015915Y010074D01*
X016324Y009873D02*
X015856Y009405D01*
X016324Y009873D02*
X016659Y009873D01*
X016659Y009558D02*
X016974Y009558D01*
X015943Y008633D02*
X015943Y007633D01*
X014990Y007180D02*
X010718Y007180D01*
X012069Y008133D02*
X012069Y009209D01*
X012493Y009633D01*
X011159Y010633D02*
X010584Y010058D01*
X010584Y009940D01*
X010187Y010684D02*
X010187Y011462D01*
X010193Y011468D01*
X009693Y011468D01*
X010693Y011468D02*
X011193Y011468D01*
X010698Y011473D02*
X010693Y011468D01*
X010698Y011473D02*
X010698Y012042D01*
X010561Y012180D01*
X010600Y012219D01*
X012076Y012219D01*
X012193Y012103D01*
X012193Y011468D01*
X012693Y011468D02*
X012693Y010883D01*
X012443Y010633D01*
X011159Y010633D01*
X013193Y011468D02*
X013193Y012233D01*
X013218Y012259D01*
X013693Y012749D02*
X013691Y012751D01*
X013693Y012749D02*
X013693Y011468D01*
X014537Y012259D02*
X014419Y012377D01*
X014419Y012751D01*
X015088Y012731D02*
X013187Y014633D01*
X012443Y014633D01*
X012193Y014883D01*
X012193Y015798D01*
X012693Y015798D02*
X012693Y015383D01*
X012943Y015133D01*
X013435Y015133D01*
X015541Y013027D01*
X015541Y012436D01*
X015364Y012259D01*
X014537Y012259D01*
X015364Y012259D02*
X015860Y011763D01*
X016659Y011763D01*
X015193Y011468D02*
X015193Y010433D01*
X018943Y008849D02*
X018943Y007633D01*
X019443Y007133D01*
X019443Y006133D01*
X020443Y006633D02*
X020943Y007133D01*
X021183Y007133D01*
X021265Y007216D01*
X020443Y006633D02*
X019257Y007818D01*
X019257Y008849D01*
X019887Y008849D02*
X019887Y008168D01*
X020167Y007889D01*
X020403Y007889D01*
X020344Y008322D02*
X020757Y008322D01*
X021191Y008755D01*
X021191Y008971D01*
X021210Y008991D01*
X020202Y008849D02*
X020202Y008464D01*
X020344Y008322D01*
X021265Y007964D02*
X021805Y007964D01*
X021919Y007849D01*
X021761Y008007D01*
X021761Y010074D01*
X021647Y010188D01*
X021226Y010188D01*
X021226Y010503D02*
X022061Y010503D01*
X022608Y009956D01*
X022608Y007830D01*
X023710Y008538D02*
X023943Y008771D01*
X023943Y010633D01*
X024443Y011133D01*
X025466Y011133D01*
X025482Y011117D01*
X025777Y011412D01*
X025777Y013381D01*
X025561Y013597D01*
X024978Y013597D01*
X024943Y013633D01*
X024013Y013901D02*
X024734Y014621D01*
X024931Y014621D01*
X024943Y014633D01*
X025943Y014633D01*
X026443Y014133D01*
X026443Y010633D01*
X025773Y009964D01*
X025773Y009310D01*
X027443Y010633D02*
X027943Y010633D01*
X027443Y010633D02*
X026943Y011133D01*
X026943Y015633D01*
X025943Y016633D01*
X024943Y016633D01*
X024635Y017338D02*
X024635Y017570D01*
X024698Y017633D01*
X024943Y017877D01*
X024943Y018527D01*
X025049Y018633D01*
X023994Y018633D02*
X023994Y019184D01*
X024443Y019633D01*
X024443Y019979D01*
X024714Y020251D01*
X026151Y018633D02*
X026151Y016924D01*
X027147Y015928D01*
X027147Y017503D01*
X027943Y016633D02*
X028265Y016956D01*
X028265Y017936D01*
X028265Y018684D02*
X028108Y018842D01*
X027943Y018842D01*
X027773Y019011D01*
X027773Y022208D01*
X029742Y020239D02*
X029742Y019062D01*
X029324Y018645D01*
X029324Y017897D02*
X028769Y017342D01*
X028769Y013613D01*
X029159Y013223D01*
X029832Y012534D02*
X030600Y011767D01*
X033297Y011767D01*
X035383Y013853D01*
X037116Y013853D01*
X037824Y014562D01*
X037824Y017574D01*
X037569Y017830D01*
X036867Y017830D01*
X036860Y017822D01*
X035860Y018227D02*
X034025Y016393D01*
X033370Y016393D01*
X033360Y016383D01*
X033360Y015883D02*
X034460Y015883D01*
X035860Y017282D01*
X036860Y016742D02*
X037450Y016152D01*
X037450Y014916D01*
X036919Y014385D01*
X035324Y014385D01*
X033120Y012180D01*
X030974Y012180D01*
X030525Y012629D01*
X030525Y013883D01*
X030525Y014383D02*
X030047Y014383D01*
X029832Y014168D01*
X029832Y012534D01*
X031840Y012834D02*
X031848Y012826D01*
X031840Y012834D02*
X031840Y014483D01*
X031441Y014883D01*
X030525Y014883D01*
X030525Y015383D02*
X029527Y015383D01*
X029423Y015279D01*
X029567Y015883D02*
X029423Y016027D01*
X029567Y015883D02*
X030525Y015883D01*
X030525Y016383D02*
X030515Y016393D01*
X030069Y016393D01*
X029891Y016570D01*
X029891Y018027D01*
X030498Y018633D01*
X030569Y018633D01*
X031309Y018625D02*
X031317Y018633D01*
X031309Y018625D02*
X031309Y018145D01*
X030547Y017383D01*
X030525Y017383D01*
X030525Y016883D02*
X031149Y016883D01*
X032569Y018302D01*
X032569Y018633D01*
X033317Y018633D02*
X034317Y018633D01*
X034443Y018507D01*
X034443Y017759D02*
X034443Y017342D01*
X033986Y016885D01*
X033362Y016885D01*
X033360Y016883D01*
X033358Y016885D01*
X032805Y016885D01*
X032588Y016668D01*
X032596Y016660D01*
X033317Y017426D02*
X033360Y017383D01*
X033317Y017426D02*
X033317Y018633D01*
X035860Y018362D02*
X035860Y018227D01*
X034734Y015448D02*
X034669Y015383D01*
X033360Y015383D01*
X033360Y014883D02*
X034196Y014883D01*
X034202Y014877D01*
X027943Y015633D02*
X027443Y015633D01*
X027147Y015928D01*
X024943Y015633D02*
X024482Y015633D01*
X023797Y014948D01*
X023049Y014948D02*
X022694Y014594D01*
X022694Y013901D01*
X022694Y013188D01*
X023088Y012794D01*
X023828Y012786D02*
X023836Y012794D01*
X023828Y012786D02*
X023828Y012239D01*
X024435Y011633D01*
X024943Y011633D01*
X021899Y011452D02*
X021856Y011448D01*
X021226Y011448D01*
X020537Y012078D02*
X020344Y011865D01*
X020537Y012078D02*
X021226Y012078D01*
X021226Y012393D02*
X021702Y012393D01*
X021943Y012633D01*
X021943Y014696D01*
X021250Y015389D01*
X021250Y016924D01*
X018100Y020074D01*
X018100Y020960D01*
X017443Y019956D02*
X015923Y018436D01*
X010639Y018436D01*
X009943Y019133D01*
X009943Y020633D01*
X008943Y020633D02*
X008702Y020633D01*
X008159Y020090D01*
X008159Y017003D01*
X007915Y016759D01*
X007915Y016576D01*
X008693Y015798D01*
X009193Y015798D01*
X010693Y015798D02*
X010698Y015792D01*
X010698Y015133D01*
X010572Y015007D01*
X007443Y015007D01*
X007443Y014259D02*
X007443Y013046D01*
X008139Y012712D02*
X008572Y013145D01*
X011604Y013145D01*
X011702Y013243D01*
X011693Y013253D01*
X011693Y015798D01*
X013693Y015798D02*
X013710Y015781D01*
X013710Y015408D01*
X015757Y013361D01*
X016722Y013361D01*
X017273Y012810D01*
X017998Y013416D02*
X017998Y014628D01*
X017493Y015133D01*
X017069Y015557D01*
X017069Y016633D01*
X017817Y016633D02*
X017919Y016633D01*
X018435Y016117D01*
X018950Y016633D01*
X019069Y016633D01*
X019817Y016633D02*
X019817Y015557D01*
X019393Y015133D01*
X018943Y015133D01*
X018313Y014503D01*
X018313Y013416D01*
X018628Y013416D02*
X018628Y014125D01*
X018750Y014247D01*
X018943Y013771D02*
X019301Y014129D01*
X019301Y014326D01*
X019380Y014405D01*
X018943Y013771D02*
X018943Y013416D01*
X021226Y012708D02*
X021443Y012924D01*
X021443Y014633D01*
X020943Y015133D01*
X020943Y016633D01*
X020198Y017377D01*
X016742Y017377D01*
X016092Y016727D01*
X008584Y016727D01*
X007915Y016759D02*
X007443Y016759D01*
X006624Y016688D02*
X006624Y012286D01*
X007443Y012219D02*
X007443Y011759D01*
X006817Y011133D01*
X006943Y011133D01*
X007443Y010633D01*
X007443Y010466D01*
X007525Y010383D01*
X007525Y009883D01*
X006964Y009883D01*
X006840Y009759D01*
X006840Y008322D01*
X006072Y008381D02*
X004793Y007101D01*
X006072Y008381D02*
X006072Y010133D01*
X005822Y010383D01*
X005360Y010383D01*
X004807Y009883D02*
X004655Y010034D01*
X004655Y011393D01*
X005104Y011842D01*
X005305Y011842D01*
X005324Y011137D02*
X005328Y011133D01*
X006069Y011133D01*
X007443Y012219D02*
X010521Y012219D01*
X010561Y012180D01*
X008693Y011468D02*
X008693Y010032D01*
X008848Y009877D01*
X008848Y008263D01*
X008946Y008164D01*
X008395Y008775D02*
X008287Y008883D01*
X007525Y008883D01*
X007525Y009383D02*
X008295Y009383D01*
X008376Y009464D01*
X005360Y009883D02*
X004807Y009883D01*
X004360Y008932D02*
X005311Y008932D01*
X005360Y008883D01*
X015443Y006133D02*
X015443Y005881D01*
X016013Y005310D02*
X018443Y005310D01*
X018462Y005290D01*
X018462Y004534D01*
X018443Y005310D02*
X020344Y005310D01*
X021773Y004365D02*
X021797Y004389D01*
X023246Y003420D02*
X017313Y003420D01*
X016757Y002865D01*
X016616Y002865D01*
X016506Y002975D01*
X013891Y002975D01*
X014439Y002653D02*
X014143Y002357D01*
X012273Y002357D01*
X012076Y002554D01*
X012076Y002849D01*
X012057Y002869D01*
X011100Y002865D02*
X011100Y002133D01*
X011486Y001747D01*
X022521Y001747D01*
X022675Y001901D01*
X022139Y002830D02*
X021443Y002054D01*
X015588Y002054D01*
X015462Y002180D01*
X015777Y002653D02*
X014439Y002653D01*
X015777Y002653D02*
X016072Y002357D01*
X019281Y002357D01*
X019458Y002534D01*
X019458Y002889D01*
X022139Y002865D02*
X022139Y002830D01*
X016616Y002865D02*
X016616Y002960D01*
X033257Y006550D02*
X033675Y006133D01*
X034069Y006133D01*
X035891Y005633D02*
X035895Y005629D01*
X035895Y004995D01*
X035159Y004259D01*
X034943Y004259D01*
X035935Y004050D02*
X036978Y005094D01*
X036978Y005617D01*
X036994Y005633D01*
X035935Y004050D02*
X035935Y003865D01*
X024013Y013901D02*
X023797Y013901D01*
X022509Y015759D02*
X022509Y015763D01*
X021820Y015763D01*
X022509Y016507D02*
X022069Y016948D01*
X022069Y017633D01*
X021931Y017771D01*
X021781Y017771D01*
X021069Y018483D01*
X021069Y018633D01*
X021817Y018633D02*
X022891Y018633D01*
X024635Y017338D02*
X023431Y016133D01*
X023376Y016133D01*
X027147Y018842D02*
X027943Y018842D01*
X018596Y022180D02*
X018596Y023149D01*
X018710Y023263D01*
X018592Y022184D02*
X018596Y022180D01*
X017596Y022180D02*
X017443Y022027D01*
X017443Y019956D01*
X016328Y019523D02*
X015702Y018897D01*
X011679Y018897D01*
X010943Y019633D01*
X010943Y020633D01*
X011943Y020633D02*
X011943Y019633D01*
X012191Y019385D01*
X015482Y019385D01*
X015915Y019818D01*
X015915Y021412D01*
X015639Y021688D01*
X015639Y022137D01*
X015596Y022180D01*
X014931Y021845D02*
X014596Y022180D01*
X014931Y021845D02*
X014931Y021668D01*
X015521Y021078D01*
X015521Y020113D01*
X015246Y019838D01*
X013238Y019838D01*
X012943Y020133D01*
X012943Y020633D01*
X013943Y020633D02*
X013943Y021271D01*
X014104Y021432D01*
X014104Y023204D01*
X014045Y023263D01*
X016328Y021912D02*
X016328Y019523D01*
X016328Y021912D02*
X016596Y022180D01*
X009104Y021531D02*
X008943Y021369D01*
X008943Y020633D01*
X008596Y021286D02*
X007943Y020633D01*
X007443Y020633D01*
X006943Y020133D01*
X006943Y018948D01*
X007254Y018637D01*
X007454Y018637D01*
X007478Y018660D01*
X004596Y018660D01*
X004569Y018633D01*
X007443Y018625D02*
X007443Y017507D01*
X008943Y017633D02*
X009943Y017633D01*
X007478Y018660D02*
X007443Y018625D01*
X007478Y019408D02*
X008159Y020090D01*
X008596Y021286D02*
X008596Y022180D01*
X009104Y021531D02*
X009104Y023243D01*
X009124Y023263D01*
X005635Y022141D02*
X005596Y022180D01*
X005600Y022184D01*
X004596Y022180D02*
X004569Y022153D01*
D43*
X004569Y018633D01*
X022391Y012771D02*
X022391Y012279D01*
X022880Y011790D01*
X023041Y011790D01*
X023675Y011042D02*
X023907Y011275D01*
X023675Y011042D02*
X023041Y011042D01*
X020443Y006633D02*
X020443Y005212D01*
X020344Y005310D01*
X020443Y005212D02*
X021289Y004365D01*
X021773Y004365D01*
X016013Y005310D02*
X015443Y005881D01*
X032509Y012912D02*
X032596Y012826D01*
X032509Y012912D02*
X032509Y016574D01*
X032596Y016660D01*
X033317Y018633D02*
X033317Y020066D01*
X033443Y020192D01*
D44*
X010228Y006450D02*
X009261Y007416D01*
X008021Y007416D01*
X007746Y007416D01*
X006840Y008322D01*
D45*
X008395Y008775D03*
X008376Y009464D03*
X008946Y008164D03*
X004360Y008932D03*
X005324Y011137D03*
X005305Y011842D03*
X006624Y012286D03*
X008139Y012712D03*
X011702Y013243D03*
X014675Y010645D03*
X015943Y008633D03*
X015943Y007633D03*
X012946Y005121D03*
X011935Y005133D03*
X010939Y005133D03*
X013891Y002975D03*
X015462Y002180D03*
X014635Y001334D03*
X012057Y002869D03*
X008553Y001334D03*
X003242Y003912D03*
X019458Y002889D03*
X020344Y001334D03*
X022675Y001901D03*
X022411Y006235D03*
X021171Y006235D03*
X021919Y007849D03*
X022608Y007830D03*
X021210Y008991D03*
X025305Y008361D03*
X026092Y008361D03*
X033257Y006550D03*
X034202Y014877D03*
X034734Y015448D03*
X032588Y016668D03*
X030935Y019621D03*
X023395Y017042D03*
X021820Y015763D03*
X018435Y016117D03*
X022765Y019601D03*
X018100Y020960D03*
X008584Y016727D03*
X006624Y016688D03*
D46*
X013691Y012751D03*
X013218Y012259D03*
X014419Y012751D03*
X015088Y012731D03*
X018750Y014247D03*
X019380Y014405D03*
X020462Y012692D03*
X019608Y012279D03*
X020344Y011865D03*
X019722Y011609D03*
X019104Y011806D03*
X019124Y010802D03*
X017982Y010310D03*
X017931Y009629D03*
X018848Y009582D03*
X018033Y008109D03*
X020403Y007889D03*
X023710Y008538D03*
X023907Y011275D03*
X021899Y011452D03*
X022391Y012771D03*
X015915Y010074D03*
X015856Y009405D03*
X010187Y010684D03*
X023246Y003420D03*
D47*
X020344Y001334D02*
X020104Y001094D01*
X018557Y001094D01*
X014635Y001334D02*
X014395Y001094D01*
X013033Y001094D01*
X008553Y001334D02*
X008313Y001094D01*
X007517Y001094D01*
X003242Y001432D02*
X002943Y001133D01*
X002045Y001133D01*
X002006Y001094D01*
X003242Y001432D02*
X003242Y003912D01*
X002198Y004956D01*
X002009Y004956D01*
D48*
X016443Y006133D02*
X016443Y007294D01*
X017687Y008538D01*
X017687Y008845D01*
X017683Y008849D01*
X017368Y008849D02*
X017368Y009204D01*
X017431Y009267D01*
X017431Y010408D01*
X017785Y010763D01*
X017785Y011983D01*
X018080Y012279D01*
X019608Y012279D01*
X019722Y011609D02*
X019958Y011393D01*
X020541Y011393D01*
X020915Y011767D01*
X021222Y011767D01*
X021226Y011763D01*
X021183Y011176D02*
X021226Y011133D01*
X021183Y011176D02*
X019458Y011176D01*
X019104Y011531D01*
X019104Y011806D01*
X017785Y012692D02*
X017588Y012495D01*
X017529Y012436D01*
X017529Y010842D01*
X017194Y010507D01*
X017194Y009779D01*
X016974Y009558D01*
X017931Y009629D02*
X018297Y009995D01*
X019320Y009995D01*
X019572Y009743D01*
X019572Y008849D01*
X018628Y008849D02*
X018628Y008436D01*
X018297Y008105D01*
X018037Y008105D01*
X018033Y008109D01*
X018313Y008849D02*
X018313Y009282D01*
X018612Y009582D01*
X018848Y009582D01*
X018041Y010369D02*
X017982Y010310D01*
X018041Y010369D02*
X020324Y010369D01*
X020517Y010176D01*
X020517Y008849D01*
X021226Y010818D02*
X019139Y010818D01*
X019124Y010802D01*
X017273Y010960D02*
X017131Y010818D01*
X016659Y010818D01*
X017273Y010960D02*
X017273Y012810D01*
X017785Y012692D02*
X020462Y012692D01*
M02*
