%FSLAX45Y45*%
G04 Gerber Fmt 4.5, Leading zero omitted, Abs format (unit mm)*
G04 Created by KiCad (PCBNEW (6.0.5)) date 2023-10-27 13:23:16*
%MOMM*%
%LPD*%
G01*
G04 APERTURE LIST*
%TA.AperFunction,Profile*%
%ADD10C,0.100000*%
%TD*%
%ADD11C,0.200000*%
%ADD12C,0.065000*%
%ADD13C,0.120000*%
G04 APERTURE END LIST*
D10*
X17320000Y-12420000D02*
X17320000Y-12460000D01*
X17320000Y-9330000D02*
X17320000Y-9230000D01*
X15560000Y-12460000D02*
X17290000Y-12460000D01*
X13850000Y-5080000D02*
X13770000Y-5080000D01*
X10470000Y-12460000D02*
X15560000Y-12460000D01*
X7700000Y-5080000D02*
X7110000Y-5080000D01*
X17320000Y-5970000D02*
X17320000Y-5080000D01*
X7110000Y-5160000D02*
X7110000Y-7500000D01*
X11380000Y-5080000D02*
X9400000Y-5080000D01*
X17320000Y-12460000D02*
X17290000Y-12460000D01*
X7110000Y-5080000D02*
X7110000Y-5160000D01*
X15150000Y-5080000D02*
X17280000Y-5080000D01*
X17320000Y-5080000D02*
X17280000Y-5080000D01*
X7110000Y-10830000D02*
X7110000Y-12440000D01*
X7110000Y-8940000D02*
X7110000Y-10830000D01*
X7110000Y-7500000D02*
X7110000Y-8940000D01*
X17320000Y-10630000D02*
X17320000Y-12420000D01*
X7140000Y-12460000D02*
X10470000Y-12460000D01*
X7140000Y-12460000D02*
X7110000Y-12460000D01*
X9400000Y-5080000D02*
X7700000Y-5080000D01*
X17320000Y-7930000D02*
X17320000Y-5970000D01*
X12470000Y-5080000D02*
X11380000Y-5080000D01*
X7110000Y-12460000D02*
X7110000Y-12440000D01*
D11*
D12*
X15515600Y-5731100D02*
X15580600Y-5796100D01*
X15580600Y-5731100D02*
X15515600Y-5796100D01*
X16093600Y-5731100D02*
X16158600Y-5796100D01*
X16158600Y-5731100D02*
X16093600Y-5796100D01*
X16611200Y-6879400D02*
X16676200Y-6944400D01*
X16676200Y-6879400D02*
X16611200Y-6944400D01*
X16611200Y-7457400D02*
X16676200Y-7522400D01*
X16676200Y-7457400D02*
X16611200Y-7522400D01*
D13*
X12680000Y-5280000D02*
G75*
G03*
X12680000Y-5280000I-60000J0D01*
G01*
X12680000Y-5530000D02*
G75*
G03*
X12680000Y-5530000I-60000J0D01*
G01*
X13180000Y-6030000D02*
G75*
G03*
X13180000Y-6030000I-60000J0D01*
G01*
X13680000Y-5280000D02*
G75*
G03*
X13680000Y-5280000I-60000J0D01*
G01*
X13680000Y-5530000D02*
G75*
G03*
X13680000Y-5530000I-60000J0D01*
G01*
X14060000Y-5280000D02*
G75*
G03*
X14060000Y-5280000I-60000J0D01*
G01*
X14060000Y-5530000D02*
G75*
G03*
X14060000Y-5530000I-60000J0D01*
G01*
X14560000Y-6030000D02*
G75*
G03*
X14560000Y-6030000I-60000J0D01*
G01*
X15060000Y-5280000D02*
G75*
G03*
X15060000Y-5280000I-60000J0D01*
G01*
X15060000Y-5530000D02*
G75*
G03*
X15060000Y-5530000I-60000J0D01*
G01*
X16430000Y-8580000D02*
G75*
G03*
X16430000Y-8580000I-60000J0D01*
G01*
X16430000Y-9980000D02*
G75*
G03*
X16430000Y-9980000I-60000J0D01*
G01*
X16930000Y-8080000D02*
G75*
G03*
X16930000Y-8080000I-60000J0D01*
G01*
X16930000Y-9080000D02*
G75*
G03*
X16930000Y-9080000I-60000J0D01*
G01*
X16930000Y-9480000D02*
G75*
G03*
X16930000Y-9480000I-60000J0D01*
G01*
X16930000Y-10480000D02*
G75*
G03*
X16930000Y-10480000I-60000J0D01*
G01*
X17180000Y-8080000D02*
G75*
G03*
X17180000Y-8080000I-60000J0D01*
G01*
X17180000Y-9080000D02*
G75*
G03*
X17180000Y-9080000I-60000J0D01*
G01*
X17180000Y-9480000D02*
G75*
G03*
X17180000Y-9480000I-60000J0D01*
G01*
X17180000Y-10480000D02*
G75*
G03*
X17180000Y-10480000I-60000J0D01*
G01*
D11*
X7362619Y-12775476D02*
X7362619Y-12575476D01*
X7410238Y-12575476D01*
X7438809Y-12585000D01*
X7457857Y-12604048D01*
X7467381Y-12623095D01*
X7476905Y-12661190D01*
X7476905Y-12689762D01*
X7467381Y-12727857D01*
X7457857Y-12746905D01*
X7438809Y-12765952D01*
X7410238Y-12775476D01*
X7362619Y-12775476D01*
X7562619Y-12775476D02*
X7562619Y-12642143D01*
X7562619Y-12680238D02*
X7572143Y-12661190D01*
X7581667Y-12651667D01*
X7600714Y-12642143D01*
X7619762Y-12642143D01*
X7686428Y-12775476D02*
X7686428Y-12642143D01*
X7686428Y-12575476D02*
X7676905Y-12585000D01*
X7686428Y-12594524D01*
X7695952Y-12585000D01*
X7686428Y-12575476D01*
X7686428Y-12594524D01*
X7810238Y-12775476D02*
X7791190Y-12765952D01*
X7781667Y-12746905D01*
X7781667Y-12575476D01*
X7915000Y-12775476D02*
X7895952Y-12765952D01*
X7886428Y-12746905D01*
X7886428Y-12575476D01*
X8143571Y-12775476D02*
X8143571Y-12575476D01*
X8210238Y-12718333D01*
X8276905Y-12575476D01*
X8276905Y-12775476D01*
X8457857Y-12775476D02*
X8457857Y-12670714D01*
X8448333Y-12651667D01*
X8429286Y-12642143D01*
X8391190Y-12642143D01*
X8372143Y-12651667D01*
X8457857Y-12765952D02*
X8438810Y-12775476D01*
X8391190Y-12775476D01*
X8372143Y-12765952D01*
X8362619Y-12746905D01*
X8362619Y-12727857D01*
X8372143Y-12708809D01*
X8391190Y-12699286D01*
X8438810Y-12699286D01*
X8457857Y-12689762D01*
X8553095Y-12642143D02*
X8553095Y-12842143D01*
X8553095Y-12651667D02*
X8572143Y-12642143D01*
X8610238Y-12642143D01*
X8629286Y-12651667D01*
X8638810Y-12661190D01*
X8648333Y-12680238D01*
X8648333Y-12737381D01*
X8638810Y-12756428D01*
X8629286Y-12765952D01*
X8610238Y-12775476D01*
X8572143Y-12775476D01*
X8553095Y-12765952D01*
X8734048Y-12756428D02*
X8743571Y-12765952D01*
X8734048Y-12775476D01*
X8724524Y-12765952D01*
X8734048Y-12756428D01*
X8734048Y-12775476D01*
X8734048Y-12651667D02*
X8743571Y-12661190D01*
X8734048Y-12670714D01*
X8724524Y-12661190D01*
X8734048Y-12651667D01*
X8734048Y-12670714D01*
D12*
X7040000Y-13072500D02*
X7105000Y-13137500D01*
X7105000Y-13072500D02*
X7040000Y-13137500D01*
D11*
X7400714Y-12995476D02*
X7419762Y-12995476D01*
X7438809Y-13005000D01*
X7448333Y-13014524D01*
X7457857Y-13033571D01*
X7467381Y-13071667D01*
X7467381Y-13119286D01*
X7457857Y-13157381D01*
X7448333Y-13176428D01*
X7438809Y-13185952D01*
X7419762Y-13195476D01*
X7400714Y-13195476D01*
X7381667Y-13185952D01*
X7372143Y-13176428D01*
X7362619Y-13157381D01*
X7353095Y-13119286D01*
X7353095Y-13071667D01*
X7362619Y-13033571D01*
X7372143Y-13014524D01*
X7381667Y-13005000D01*
X7400714Y-12995476D01*
X7553095Y-13176428D02*
X7562619Y-13185952D01*
X7553095Y-13195476D01*
X7543571Y-13185952D01*
X7553095Y-13176428D01*
X7553095Y-13195476D01*
X7734048Y-12995476D02*
X7695952Y-12995476D01*
X7676905Y-13005000D01*
X7667381Y-13014524D01*
X7648333Y-13043095D01*
X7638809Y-13081190D01*
X7638809Y-13157381D01*
X7648333Y-13176428D01*
X7657857Y-13185952D01*
X7676905Y-13195476D01*
X7715000Y-13195476D01*
X7734048Y-13185952D01*
X7743571Y-13176428D01*
X7753095Y-13157381D01*
X7753095Y-13109762D01*
X7743571Y-13090714D01*
X7734048Y-13081190D01*
X7715000Y-13071667D01*
X7676905Y-13071667D01*
X7657857Y-13081190D01*
X7648333Y-13090714D01*
X7638809Y-13109762D01*
X7934048Y-12995476D02*
X7838809Y-12995476D01*
X7829286Y-13090714D01*
X7838809Y-13081190D01*
X7857857Y-13071667D01*
X7905476Y-13071667D01*
X7924524Y-13081190D01*
X7934048Y-13090714D01*
X7943571Y-13109762D01*
X7943571Y-13157381D01*
X7934048Y-13176428D01*
X7924524Y-13185952D01*
X7905476Y-13195476D01*
X7857857Y-13195476D01*
X7838809Y-13185952D01*
X7829286Y-13176428D01*
X8067381Y-12995476D02*
X8086428Y-12995476D01*
X8105476Y-13005000D01*
X8115000Y-13014524D01*
X8124524Y-13033571D01*
X8134048Y-13071667D01*
X8134048Y-13119286D01*
X8124524Y-13157381D01*
X8115000Y-13176428D01*
X8105476Y-13185952D01*
X8086428Y-13195476D01*
X8067381Y-13195476D01*
X8048333Y-13185952D01*
X8038809Y-13176428D01*
X8029286Y-13157381D01*
X8019762Y-13119286D01*
X8019762Y-13071667D01*
X8029286Y-13033571D01*
X8038809Y-13014524D01*
X8048333Y-13005000D01*
X8067381Y-12995476D01*
X8219762Y-13195476D02*
X8219762Y-13062143D01*
X8219762Y-13081190D02*
X8229286Y-13071667D01*
X8248333Y-13062143D01*
X8276905Y-13062143D01*
X8295952Y-13071667D01*
X8305476Y-13090714D01*
X8305476Y-13195476D01*
X8305476Y-13090714D02*
X8315000Y-13071667D01*
X8334048Y-13062143D01*
X8362619Y-13062143D01*
X8381667Y-13071667D01*
X8391190Y-13090714D01*
X8391190Y-13195476D01*
X8486429Y-13195476D02*
X8486429Y-13062143D01*
X8486429Y-13081190D02*
X8495952Y-13071667D01*
X8515000Y-13062143D01*
X8543571Y-13062143D01*
X8562619Y-13071667D01*
X8572143Y-13090714D01*
X8572143Y-13195476D01*
X8572143Y-13090714D02*
X8581667Y-13071667D01*
X8600714Y-13062143D01*
X8629286Y-13062143D01*
X8648333Y-13071667D01*
X8657857Y-13090714D01*
X8657857Y-13195476D01*
X9048333Y-12985952D02*
X8876905Y-13243095D01*
X9305476Y-12995476D02*
X9324524Y-12995476D01*
X9343571Y-13005000D01*
X9353095Y-13014524D01*
X9362619Y-13033571D01*
X9372143Y-13071667D01*
X9372143Y-13119286D01*
X9362619Y-13157381D01*
X9353095Y-13176428D01*
X9343571Y-13185952D01*
X9324524Y-13195476D01*
X9305476Y-13195476D01*
X9286429Y-13185952D01*
X9276905Y-13176428D01*
X9267381Y-13157381D01*
X9257857Y-13119286D01*
X9257857Y-13071667D01*
X9267381Y-13033571D01*
X9276905Y-13014524D01*
X9286429Y-13005000D01*
X9305476Y-12995476D01*
X9457857Y-13176428D02*
X9467381Y-13185952D01*
X9457857Y-13195476D01*
X9448333Y-13185952D01*
X9457857Y-13176428D01*
X9457857Y-13195476D01*
X9591190Y-12995476D02*
X9610238Y-12995476D01*
X9629286Y-13005000D01*
X9638810Y-13014524D01*
X9648333Y-13033571D01*
X9657857Y-13071667D01*
X9657857Y-13119286D01*
X9648333Y-13157381D01*
X9638810Y-13176428D01*
X9629286Y-13185952D01*
X9610238Y-13195476D01*
X9591190Y-13195476D01*
X9572143Y-13185952D01*
X9562619Y-13176428D01*
X9553095Y-13157381D01*
X9543571Y-13119286D01*
X9543571Y-13071667D01*
X9553095Y-13033571D01*
X9562619Y-13014524D01*
X9572143Y-13005000D01*
X9591190Y-12995476D01*
X9734048Y-13014524D02*
X9743571Y-13005000D01*
X9762619Y-12995476D01*
X9810238Y-12995476D01*
X9829286Y-13005000D01*
X9838810Y-13014524D01*
X9848333Y-13033571D01*
X9848333Y-13052619D01*
X9838810Y-13081190D01*
X9724524Y-13195476D01*
X9848333Y-13195476D01*
X10029286Y-12995476D02*
X9934048Y-12995476D01*
X9924524Y-13090714D01*
X9934048Y-13081190D01*
X9953095Y-13071667D01*
X10000714Y-13071667D01*
X10019762Y-13081190D01*
X10029286Y-13090714D01*
X10038810Y-13109762D01*
X10038810Y-13157381D01*
X10029286Y-13176428D01*
X10019762Y-13185952D01*
X10000714Y-13195476D01*
X9953095Y-13195476D01*
X9934048Y-13185952D01*
X9924524Y-13176428D01*
X10210238Y-12995476D02*
X10172143Y-12995476D01*
X10153095Y-13005000D01*
X10143571Y-13014524D01*
X10124524Y-13043095D01*
X10115000Y-13081190D01*
X10115000Y-13157381D01*
X10124524Y-13176428D01*
X10134048Y-13185952D01*
X10153095Y-13195476D01*
X10191190Y-13195476D01*
X10210238Y-13185952D01*
X10219762Y-13176428D01*
X10229286Y-13157381D01*
X10229286Y-13109762D01*
X10219762Y-13090714D01*
X10210238Y-13081190D01*
X10191190Y-13071667D01*
X10153095Y-13071667D01*
X10134048Y-13081190D01*
X10124524Y-13090714D01*
X10115000Y-13109762D01*
X10305476Y-12995476D02*
X10305476Y-13033571D01*
X10381667Y-12995476D02*
X10381667Y-13033571D01*
X10676905Y-13271667D02*
X10667381Y-13262143D01*
X10648333Y-13233571D01*
X10638810Y-13214524D01*
X10629286Y-13185952D01*
X10619762Y-13138333D01*
X10619762Y-13100238D01*
X10629286Y-13052619D01*
X10638810Y-13024048D01*
X10648333Y-13005000D01*
X10667381Y-12976428D01*
X10676905Y-12966905D01*
X10838810Y-13062143D02*
X10838810Y-13195476D01*
X10791190Y-12985952D02*
X10743571Y-13128809D01*
X10867381Y-13128809D01*
X11095952Y-13195476D02*
X11095952Y-12995476D01*
X11181667Y-13195476D02*
X11181667Y-13090714D01*
X11172143Y-13071667D01*
X11153095Y-13062143D01*
X11124524Y-13062143D01*
X11105476Y-13071667D01*
X11095952Y-13081190D01*
X11305476Y-13195476D02*
X11286428Y-13185952D01*
X11276905Y-13176428D01*
X11267381Y-13157381D01*
X11267381Y-13100238D01*
X11276905Y-13081190D01*
X11286428Y-13071667D01*
X11305476Y-13062143D01*
X11334048Y-13062143D01*
X11353095Y-13071667D01*
X11362619Y-13081190D01*
X11372143Y-13100238D01*
X11372143Y-13157381D01*
X11362619Y-13176428D01*
X11353095Y-13185952D01*
X11334048Y-13195476D01*
X11305476Y-13195476D01*
X11486428Y-13195476D02*
X11467381Y-13185952D01*
X11457857Y-13166905D01*
X11457857Y-12995476D01*
X11638809Y-13185952D02*
X11619762Y-13195476D01*
X11581667Y-13195476D01*
X11562619Y-13185952D01*
X11553095Y-13166905D01*
X11553095Y-13090714D01*
X11562619Y-13071667D01*
X11581667Y-13062143D01*
X11619762Y-13062143D01*
X11638809Y-13071667D01*
X11648333Y-13090714D01*
X11648333Y-13109762D01*
X11553095Y-13128809D01*
X11724524Y-13185952D02*
X11743571Y-13195476D01*
X11781667Y-13195476D01*
X11800714Y-13185952D01*
X11810238Y-13166905D01*
X11810238Y-13157381D01*
X11800714Y-13138333D01*
X11781667Y-13128809D01*
X11753095Y-13128809D01*
X11734048Y-13119286D01*
X11724524Y-13100238D01*
X11724524Y-13090714D01*
X11734048Y-13071667D01*
X11753095Y-13062143D01*
X11781667Y-13062143D01*
X11800714Y-13071667D01*
X11876905Y-13271667D02*
X11886428Y-13262143D01*
X11905476Y-13233571D01*
X11915000Y-13214524D01*
X11924524Y-13185952D01*
X11934048Y-13138333D01*
X11934048Y-13100238D01*
X11924524Y-13052619D01*
X11915000Y-13024048D01*
X11905476Y-13005000D01*
X11886428Y-12976428D01*
X11876905Y-12966905D01*
X12238809Y-13271667D02*
X12229286Y-13262143D01*
X12210238Y-13233571D01*
X12200714Y-13214524D01*
X12191190Y-13185952D01*
X12181667Y-13138333D01*
X12181667Y-13100238D01*
X12191190Y-13052619D01*
X12200714Y-13024048D01*
X12210238Y-13005000D01*
X12229286Y-12976428D01*
X12238809Y-12966905D01*
X12315000Y-13062143D02*
X12315000Y-13195476D01*
X12315000Y-13081190D02*
X12324524Y-13071667D01*
X12343571Y-13062143D01*
X12372143Y-13062143D01*
X12391190Y-13071667D01*
X12400714Y-13090714D01*
X12400714Y-13195476D01*
X12524524Y-13195476D02*
X12505476Y-13185952D01*
X12495952Y-13176428D01*
X12486428Y-13157381D01*
X12486428Y-13100238D01*
X12495952Y-13081190D01*
X12505476Y-13071667D01*
X12524524Y-13062143D01*
X12553095Y-13062143D01*
X12572143Y-13071667D01*
X12581667Y-13081190D01*
X12591190Y-13100238D01*
X12591190Y-13157381D01*
X12581667Y-13176428D01*
X12572143Y-13185952D01*
X12553095Y-13195476D01*
X12524524Y-13195476D01*
X12648333Y-13062143D02*
X12724524Y-13062143D01*
X12676905Y-12995476D02*
X12676905Y-13166905D01*
X12686428Y-13185952D01*
X12705476Y-13195476D01*
X12724524Y-13195476D01*
X12943571Y-13062143D02*
X12943571Y-13262143D01*
X12943571Y-13071667D02*
X12962619Y-13062143D01*
X13000714Y-13062143D01*
X13019762Y-13071667D01*
X13029286Y-13081190D01*
X13038809Y-13100238D01*
X13038809Y-13157381D01*
X13029286Y-13176428D01*
X13019762Y-13185952D01*
X13000714Y-13195476D01*
X12962619Y-13195476D01*
X12943571Y-13185952D01*
X13153095Y-13195476D02*
X13134048Y-13185952D01*
X13124524Y-13166905D01*
X13124524Y-12995476D01*
X13315000Y-13195476D02*
X13315000Y-13090714D01*
X13305476Y-13071667D01*
X13286428Y-13062143D01*
X13248333Y-13062143D01*
X13229286Y-13071667D01*
X13315000Y-13185952D02*
X13295952Y-13195476D01*
X13248333Y-13195476D01*
X13229286Y-13185952D01*
X13219762Y-13166905D01*
X13219762Y-13147857D01*
X13229286Y-13128809D01*
X13248333Y-13119286D01*
X13295952Y-13119286D01*
X13315000Y-13109762D01*
X13381667Y-13062143D02*
X13457857Y-13062143D01*
X13410238Y-12995476D02*
X13410238Y-13166905D01*
X13419762Y-13185952D01*
X13438809Y-13195476D01*
X13457857Y-13195476D01*
X13600714Y-13185952D02*
X13581667Y-13195476D01*
X13543571Y-13195476D01*
X13524524Y-13185952D01*
X13515000Y-13166905D01*
X13515000Y-13090714D01*
X13524524Y-13071667D01*
X13543571Y-13062143D01*
X13581667Y-13062143D01*
X13600714Y-13071667D01*
X13610238Y-13090714D01*
X13610238Y-13109762D01*
X13515000Y-13128809D01*
X13781667Y-13195476D02*
X13781667Y-12995476D01*
X13781667Y-13185952D02*
X13762619Y-13195476D01*
X13724524Y-13195476D01*
X13705476Y-13185952D01*
X13695952Y-13176428D01*
X13686428Y-13157381D01*
X13686428Y-13100238D01*
X13695952Y-13081190D01*
X13705476Y-13071667D01*
X13724524Y-13062143D01*
X13762619Y-13062143D01*
X13781667Y-13071667D01*
X13857857Y-13271667D02*
X13867381Y-13262143D01*
X13886428Y-13233571D01*
X13895952Y-13214524D01*
X13905476Y-13185952D01*
X13915000Y-13138333D01*
X13915000Y-13100238D01*
X13905476Y-13052619D01*
X13895952Y-13024048D01*
X13886428Y-13005000D01*
X13867381Y-12976428D01*
X13857857Y-12966905D01*
D13*
X7105000Y-13369000D02*
G75*
G03*
X7105000Y-13369000I-60000J0D01*
G01*
D11*
X7467381Y-13459476D02*
X7353095Y-13459476D01*
X7410238Y-13459476D02*
X7410238Y-13259476D01*
X7391190Y-13288048D01*
X7372143Y-13307095D01*
X7353095Y-13316619D01*
X7553095Y-13440428D02*
X7562619Y-13449952D01*
X7553095Y-13459476D01*
X7543571Y-13449952D01*
X7553095Y-13440428D01*
X7553095Y-13459476D01*
X7638809Y-13278524D02*
X7648333Y-13269000D01*
X7667381Y-13259476D01*
X7715000Y-13259476D01*
X7734048Y-13269000D01*
X7743571Y-13278524D01*
X7753095Y-13297571D01*
X7753095Y-13316619D01*
X7743571Y-13345190D01*
X7629286Y-13459476D01*
X7753095Y-13459476D01*
X7876905Y-13259476D02*
X7895952Y-13259476D01*
X7915000Y-13269000D01*
X7924524Y-13278524D01*
X7934048Y-13297571D01*
X7943571Y-13335667D01*
X7943571Y-13383286D01*
X7934048Y-13421381D01*
X7924524Y-13440428D01*
X7915000Y-13449952D01*
X7895952Y-13459476D01*
X7876905Y-13459476D01*
X7857857Y-13449952D01*
X7848333Y-13440428D01*
X7838809Y-13421381D01*
X7829286Y-13383286D01*
X7829286Y-13335667D01*
X7838809Y-13297571D01*
X7848333Y-13278524D01*
X7857857Y-13269000D01*
X7876905Y-13259476D01*
X8067381Y-13259476D02*
X8086428Y-13259476D01*
X8105476Y-13269000D01*
X8115000Y-13278524D01*
X8124524Y-13297571D01*
X8134048Y-13335667D01*
X8134048Y-13383286D01*
X8124524Y-13421381D01*
X8115000Y-13440428D01*
X8105476Y-13449952D01*
X8086428Y-13459476D01*
X8067381Y-13459476D01*
X8048333Y-13449952D01*
X8038809Y-13440428D01*
X8029286Y-13421381D01*
X8019762Y-13383286D01*
X8019762Y-13335667D01*
X8029286Y-13297571D01*
X8038809Y-13278524D01*
X8048333Y-13269000D01*
X8067381Y-13259476D01*
X8219762Y-13459476D02*
X8219762Y-13326143D01*
X8219762Y-13345190D02*
X8229286Y-13335667D01*
X8248333Y-13326143D01*
X8276905Y-13326143D01*
X8295952Y-13335667D01*
X8305476Y-13354714D01*
X8305476Y-13459476D01*
X8305476Y-13354714D02*
X8315000Y-13335667D01*
X8334048Y-13326143D01*
X8362619Y-13326143D01*
X8381667Y-13335667D01*
X8391190Y-13354714D01*
X8391190Y-13459476D01*
X8486429Y-13459476D02*
X8486429Y-13326143D01*
X8486429Y-13345190D02*
X8495952Y-13335667D01*
X8515000Y-13326143D01*
X8543571Y-13326143D01*
X8562619Y-13335667D01*
X8572143Y-13354714D01*
X8572143Y-13459476D01*
X8572143Y-13354714D02*
X8581667Y-13335667D01*
X8600714Y-13326143D01*
X8629286Y-13326143D01*
X8648333Y-13335667D01*
X8657857Y-13354714D01*
X8657857Y-13459476D01*
X9048333Y-13249952D02*
X8876905Y-13507095D01*
X9305476Y-13259476D02*
X9324524Y-13259476D01*
X9343571Y-13269000D01*
X9353095Y-13278524D01*
X9362619Y-13297571D01*
X9372143Y-13335667D01*
X9372143Y-13383286D01*
X9362619Y-13421381D01*
X9353095Y-13440428D01*
X9343571Y-13449952D01*
X9324524Y-13459476D01*
X9305476Y-13459476D01*
X9286429Y-13449952D01*
X9276905Y-13440428D01*
X9267381Y-13421381D01*
X9257857Y-13383286D01*
X9257857Y-13335667D01*
X9267381Y-13297571D01*
X9276905Y-13278524D01*
X9286429Y-13269000D01*
X9305476Y-13259476D01*
X9457857Y-13440428D02*
X9467381Y-13449952D01*
X9457857Y-13459476D01*
X9448333Y-13449952D01*
X9457857Y-13440428D01*
X9457857Y-13459476D01*
X9591190Y-13259476D02*
X9610238Y-13259476D01*
X9629286Y-13269000D01*
X9638810Y-13278524D01*
X9648333Y-13297571D01*
X9657857Y-13335667D01*
X9657857Y-13383286D01*
X9648333Y-13421381D01*
X9638810Y-13440428D01*
X9629286Y-13449952D01*
X9610238Y-13459476D01*
X9591190Y-13459476D01*
X9572143Y-13449952D01*
X9562619Y-13440428D01*
X9553095Y-13421381D01*
X9543571Y-13383286D01*
X9543571Y-13335667D01*
X9553095Y-13297571D01*
X9562619Y-13278524D01*
X9572143Y-13269000D01*
X9591190Y-13259476D01*
X9829286Y-13326143D02*
X9829286Y-13459476D01*
X9781667Y-13249952D02*
X9734048Y-13392809D01*
X9857857Y-13392809D01*
X9915000Y-13259476D02*
X10048333Y-13259476D01*
X9962619Y-13459476D01*
X10115000Y-13278524D02*
X10124524Y-13269000D01*
X10143571Y-13259476D01*
X10191190Y-13259476D01*
X10210238Y-13269000D01*
X10219762Y-13278524D01*
X10229286Y-13297571D01*
X10229286Y-13316619D01*
X10219762Y-13345190D01*
X10105476Y-13459476D01*
X10229286Y-13459476D01*
X10305476Y-13259476D02*
X10305476Y-13297571D01*
X10381667Y-13259476D02*
X10381667Y-13297571D01*
X10676905Y-13535667D02*
X10667381Y-13526143D01*
X10648333Y-13497571D01*
X10638810Y-13478524D01*
X10629286Y-13449952D01*
X10619762Y-13402333D01*
X10619762Y-13364238D01*
X10629286Y-13316619D01*
X10638810Y-13288048D01*
X10648333Y-13269000D01*
X10667381Y-13240428D01*
X10676905Y-13230905D01*
X10743571Y-13278524D02*
X10753095Y-13269000D01*
X10772143Y-13259476D01*
X10819762Y-13259476D01*
X10838810Y-13269000D01*
X10848333Y-13278524D01*
X10857857Y-13297571D01*
X10857857Y-13316619D01*
X10848333Y-13345190D01*
X10734048Y-13459476D01*
X10857857Y-13459476D01*
X10981667Y-13259476D02*
X11000714Y-13259476D01*
X11019762Y-13269000D01*
X11029286Y-13278524D01*
X11038810Y-13297571D01*
X11048333Y-13335667D01*
X11048333Y-13383286D01*
X11038810Y-13421381D01*
X11029286Y-13440428D01*
X11019762Y-13449952D01*
X11000714Y-13459476D01*
X10981667Y-13459476D01*
X10962619Y-13449952D01*
X10953095Y-13440428D01*
X10943571Y-13421381D01*
X10934048Y-13383286D01*
X10934048Y-13335667D01*
X10943571Y-13297571D01*
X10953095Y-13278524D01*
X10962619Y-13269000D01*
X10981667Y-13259476D01*
X11286428Y-13459476D02*
X11286428Y-13259476D01*
X11372143Y-13459476D02*
X11372143Y-13354714D01*
X11362619Y-13335667D01*
X11343571Y-13326143D01*
X11315000Y-13326143D01*
X11295952Y-13335667D01*
X11286428Y-13345190D01*
X11495952Y-13459476D02*
X11476905Y-13449952D01*
X11467381Y-13440428D01*
X11457857Y-13421381D01*
X11457857Y-13364238D01*
X11467381Y-13345190D01*
X11476905Y-13335667D01*
X11495952Y-13326143D01*
X11524524Y-13326143D01*
X11543571Y-13335667D01*
X11553095Y-13345190D01*
X11562619Y-13364238D01*
X11562619Y-13421381D01*
X11553095Y-13440428D01*
X11543571Y-13449952D01*
X11524524Y-13459476D01*
X11495952Y-13459476D01*
X11676905Y-13459476D02*
X11657857Y-13449952D01*
X11648333Y-13430905D01*
X11648333Y-13259476D01*
X11829286Y-13449952D02*
X11810238Y-13459476D01*
X11772143Y-13459476D01*
X11753095Y-13449952D01*
X11743571Y-13430905D01*
X11743571Y-13354714D01*
X11753095Y-13335667D01*
X11772143Y-13326143D01*
X11810238Y-13326143D01*
X11829286Y-13335667D01*
X11838809Y-13354714D01*
X11838809Y-13373762D01*
X11743571Y-13392809D01*
X11915000Y-13449952D02*
X11934048Y-13459476D01*
X11972143Y-13459476D01*
X11991190Y-13449952D01*
X12000714Y-13430905D01*
X12000714Y-13421381D01*
X11991190Y-13402333D01*
X11972143Y-13392809D01*
X11943571Y-13392809D01*
X11924524Y-13383286D01*
X11915000Y-13364238D01*
X11915000Y-13354714D01*
X11924524Y-13335667D01*
X11943571Y-13326143D01*
X11972143Y-13326143D01*
X11991190Y-13335667D01*
X12067381Y-13535667D02*
X12076905Y-13526143D01*
X12095952Y-13497571D01*
X12105476Y-13478524D01*
X12115000Y-13449952D01*
X12124524Y-13402333D01*
X12124524Y-13364238D01*
X12115000Y-13316619D01*
X12105476Y-13288048D01*
X12095952Y-13269000D01*
X12076905Y-13240428D01*
X12067381Y-13230905D01*
X12429286Y-13535667D02*
X12419762Y-13526143D01*
X12400714Y-13497571D01*
X12391190Y-13478524D01*
X12381667Y-13449952D01*
X12372143Y-13402333D01*
X12372143Y-13364238D01*
X12381667Y-13316619D01*
X12391190Y-13288048D01*
X12400714Y-13269000D01*
X12419762Y-13240428D01*
X12429286Y-13230905D01*
X12505476Y-13326143D02*
X12505476Y-13459476D01*
X12505476Y-13345190D02*
X12515000Y-13335667D01*
X12534048Y-13326143D01*
X12562619Y-13326143D01*
X12581667Y-13335667D01*
X12591190Y-13354714D01*
X12591190Y-13459476D01*
X12715000Y-13459476D02*
X12695952Y-13449952D01*
X12686428Y-13440428D01*
X12676905Y-13421381D01*
X12676905Y-13364238D01*
X12686428Y-13345190D01*
X12695952Y-13335667D01*
X12715000Y-13326143D01*
X12743571Y-13326143D01*
X12762619Y-13335667D01*
X12772143Y-13345190D01*
X12781667Y-13364238D01*
X12781667Y-13421381D01*
X12772143Y-13440428D01*
X12762619Y-13449952D01*
X12743571Y-13459476D01*
X12715000Y-13459476D01*
X12838809Y-13326143D02*
X12915000Y-13326143D01*
X12867381Y-13259476D02*
X12867381Y-13430905D01*
X12876905Y-13449952D01*
X12895952Y-13459476D01*
X12915000Y-13459476D01*
X13134048Y-13326143D02*
X13134048Y-13526143D01*
X13134048Y-13335667D02*
X13153095Y-13326143D01*
X13191190Y-13326143D01*
X13210238Y-13335667D01*
X13219762Y-13345190D01*
X13229286Y-13364238D01*
X13229286Y-13421381D01*
X13219762Y-13440428D01*
X13210238Y-13449952D01*
X13191190Y-13459476D01*
X13153095Y-13459476D01*
X13134048Y-13449952D01*
X13343571Y-13459476D02*
X13324524Y-13449952D01*
X13315000Y-13430905D01*
X13315000Y-13259476D01*
X13505476Y-13459476D02*
X13505476Y-13354714D01*
X13495952Y-13335667D01*
X13476905Y-13326143D01*
X13438809Y-13326143D01*
X13419762Y-13335667D01*
X13505476Y-13449952D02*
X13486428Y-13459476D01*
X13438809Y-13459476D01*
X13419762Y-13449952D01*
X13410238Y-13430905D01*
X13410238Y-13411857D01*
X13419762Y-13392809D01*
X13438809Y-13383286D01*
X13486428Y-13383286D01*
X13505476Y-13373762D01*
X13572143Y-13326143D02*
X13648333Y-13326143D01*
X13600714Y-13259476D02*
X13600714Y-13430905D01*
X13610238Y-13449952D01*
X13629286Y-13459476D01*
X13648333Y-13459476D01*
X13791190Y-13449952D02*
X13772143Y-13459476D01*
X13734048Y-13459476D01*
X13715000Y-13449952D01*
X13705476Y-13430905D01*
X13705476Y-13354714D01*
X13715000Y-13335667D01*
X13734048Y-13326143D01*
X13772143Y-13326143D01*
X13791190Y-13335667D01*
X13800714Y-13354714D01*
X13800714Y-13373762D01*
X13705476Y-13392809D01*
X13972143Y-13459476D02*
X13972143Y-13259476D01*
X13972143Y-13449952D02*
X13953095Y-13459476D01*
X13915000Y-13459476D01*
X13895952Y-13449952D01*
X13886428Y-13440428D01*
X13876905Y-13421381D01*
X13876905Y-13364238D01*
X13886428Y-13345190D01*
X13895952Y-13335667D01*
X13915000Y-13326143D01*
X13953095Y-13326143D01*
X13972143Y-13335667D01*
X14048333Y-13535667D02*
X14057857Y-13526143D01*
X14076905Y-13497571D01*
X14086428Y-13478524D01*
X14095952Y-13449952D01*
X14105476Y-13402333D01*
X14105476Y-13364238D01*
X14095952Y-13316619D01*
X14086428Y-13288048D01*
X14076905Y-13269000D01*
X14057857Y-13240428D01*
X14048333Y-13230905D01*
M02*
