M48
; DRILL file {KiCad (6.0.5)} date Fri Oct 27 13:22:41 2023
; FORMAT={-:-/ absolute / metric / decimal}
; #@! TF.CreationDate,2023-10-27T13:22:41+02:00
; #@! TF.GenerationSoftware,Kicad,Pcbnew,(6.0.5)
; #@! TF.FileFunction,Plated,1,4,PTH
FMAT,2
METRIC
; #@! TA.AperFunction,Plated,PTH,ViaDrill
T1C0.400
; #@! TA.AperFunction,Plated,PTH,ComponentDrill
T2C0.400
; #@! TA.AperFunction,Plated,PTH,ComponentDrill
T3C0.600
; #@! TA.AperFunction,Plated,PTH,ComponentDrill
T4C0.800
; #@! TA.AperFunction,Plated,PTH,ComponentDrill
T5C0.920
; #@! TA.AperFunction,Plated,PTH,ComponentDrill
T6C1.000
; #@! TA.AperFunction,Plated,PTH,ComponentDrill
T7C1.200
; #@! TA.AperFunction,Plated,PTH,ComponentDrill
T8C2.300
; #@! TA.AperFunction,Plated,PTH,ComponentDrill
T9C3.400
%
G90
G05
T1
X76.454Y-83.058
X76.454Y-84.074
X78.207Y-117.881
X82.55Y-81.788
X84.582Y-80.264
X86.741Y-94.742
X86.741Y-107.95
X87.503Y-86.741
X89.535Y-87.249
X90.297Y-67.056
X90.678Y-101.092
X91.313Y-92.202
X91.567Y-102.362
X96.393Y-93.599
X97.917Y-87.503
X97.917Y-94.742
X98.298Y-82.042
X99.504Y-61.912
X99.949Y-66.929
X102.489Y-107.95
X102.87Y-69.342
X102.87Y-70.739
X102.87Y-72.136
X103.124Y-95.758
X103.759Y-94.869
X104.394Y-95.758
X104.648Y-79.629
X105.664Y-80.518
X106.68Y-90.932
X106.68Y-92.964
X107.061Y-59.69
X107.569Y-63.754
X108.712Y-71.247
X109.22Y-85.09
X109.22Y-88.9
X109.22Y-108.331
X109.601Y-106.68
X109.855Y-70.485
X109.901Y-85.922
X110.363Y-81.28
X110.363Y-83.312
X110.363Y-92.837
X110.617Y-66.929
X110.617Y-86.741
X110.617Y-111.76
X110.998Y-69.723
X111.506Y-110.49
X111.633Y-116.84
X111.76Y-92.837
X112.014Y-109.22
X112.141Y-68.961
X112.41Y-102.87
X113.157Y-92.837
X113.157Y-95.631
X114.173Y-94.107
X114.427Y-69.215
X114.554Y-90.805
X115.062Y-70.104
X115.062Y-89.027
X115.951Y-89.789
X116.332Y-64.135
X116.459Y-70.104
X116.593Y-90.805
X116.84Y-87.63
X116.84Y-94.615
X117.094Y-69.215
X117.594Y-85.598
X117.729Y-100.457
X118.364Y-99.441
X118.364Y-86.536
X118.872Y-101.346
X119.1Y-85.754
X119.888Y-82.423
X119.888Y-87.376
X119.888Y-102.362
X120.206Y-61.785
X120.523Y-96.647
X120.65Y-66.929
X122.174Y-83.693
X122.174Y-112.522
X122.428Y-96.52
X123.19Y-86.106
X124.206Y-98.679
X124.974Y-97.536
X126.746Y-83.693
X127.0Y-93.98
X128.27Y-112.522
X128.778Y-90.424
X129.794Y-63.881
X130.175Y-71.755
X133.096Y-93.726
X135.509Y-66.548
X135.956Y-71.882
X136.525Y-65.278
X137.16Y-69.723
X137.414Y-100.076
X137.795Y-78.994
X137.795Y-90.297
X139.827Y-75.565
X142.494Y-92.456
X143.256Y-100.076
X143.764Y-101.6
X145.034Y-70.993
X147.066Y-89.408
X147.574Y-85.09
X148.336Y-66.167
X148.336Y-70.866
X148.336Y-112.776
X149.86Y-79.502
X150.899Y-105.386
X152.908Y-98.171
X154.495Y-79.692
X155.829Y-60.96
X157.734Y-112.776
X158.668Y-120.732
X160.655Y-61.087
X162.433Y-69.469
X162.433Y-74.549
X166.243Y-61.214
X169.037Y-61.341
T4
X92.185Y-110.617
X97.065Y-110.617
X100.838Y-79.592
X100.838Y-84.472
X150.331Y-95.631
X155.211Y-95.631
T5
X84.594Y-66.223
X84.594Y-68.723
X84.594Y-70.723
X84.594Y-73.223
X84.594Y-94.036
X84.594Y-96.536
X84.594Y-98.536
X84.594Y-101.036
T6
X87.924Y-117.267
X90.424Y-122.267
X92.924Y-117.267
X100.457Y-117.109
X100.457Y-119.649
X100.457Y-122.189
X104.14Y-117.109
X104.14Y-119.649
X104.14Y-122.189
T7
X83.157Y-56.192
X85.697Y-56.192
X88.237Y-56.192
X90.777Y-56.192
X93.317Y-56.192
X95.857Y-56.192
X98.397Y-56.192
X100.937Y-56.192
X103.477Y-56.192
X106.017Y-56.192
X108.557Y-56.192
X111.097Y-56.192
X113.637Y-56.192
X116.177Y-56.192
X118.717Y-56.192
X121.257Y-56.192
T8
X81.885Y-63.153
X81.885Y-76.293
X81.885Y-90.966
X81.885Y-104.106
T9
X75.657Y-56.152
X75.657Y-111.152
X168.657Y-56.152
X168.657Y-111.152
T2
X126.2Y-59.8G85X126.2Y-60.8
G05
X128.7Y-59.8G85X128.7Y-60.8
G05
X131.7Y-55.3G85X130.7Y-55.3
G05
X133.7Y-60.8G85X133.7Y-59.8
G05
X136.2Y-60.8G85X136.2Y-59.8
G05
X140.0Y-59.8G85X140.0Y-60.8
G05
X142.5Y-59.8G85X142.5Y-60.8
G05
X145.5Y-55.3G85X144.5Y-55.3
G05
X147.5Y-60.8G85X147.5Y-59.8
G05
X150.0Y-60.8G85X150.0Y-59.8
G05
X164.2Y-80.8G85X163.2Y-80.8
G05
X164.2Y-83.3G85X163.2Y-83.3
G05
X163.2Y-88.3G85X164.2Y-88.3
G05
X163.2Y-90.8G85X164.2Y-90.8
G05
X164.2Y-94.8G85X163.2Y-94.8
G05
X164.2Y-97.3G85X163.2Y-97.3
G05
X163.2Y-102.3G85X164.2Y-102.3
G05
X163.2Y-104.8G85X164.2Y-104.8
G05
X168.7Y-86.3G85X168.7Y-85.3
G05
X168.7Y-100.3G85X168.7Y-99.3
G05
T3
X154.051Y-54.286G85X154.051Y-53.686
G05
X154.051Y-58.716G85X154.051Y-57.616
G05
X162.691Y-54.286G85X162.691Y-53.686
G05
X162.691Y-58.716G85X162.691Y-57.616
G05
X165.357Y-67.689G85X166.457Y-67.689
G05
X165.357Y-76.329G85X166.457Y-76.329
G05
X169.787Y-67.689G85X170.387Y-67.689
G05
X169.787Y-76.329G85X170.387Y-76.329
G05
T0
M30
