%TF.GenerationSoftware,KiCad,Pcbnew,(6.0.5)*%
%TF.CreationDate,2023-10-27T13:21:37+02:00*%
%TF.ProjectId,Tape_Emulator,54617065-5f45-46d7-956c-61746f722e6b,rev?*%
%TF.SameCoordinates,Original*%
%TF.FileFunction,Copper,L1,Top*%
%TF.FilePolarity,Positive*%
%FSLAX46Y46*%
G04 Gerber Fmt 4.6, Leading zero omitted, Abs format (unit mm)*
G04 Created by KiCad (PCBNEW (6.0.5)) date 2023-10-27 13:21:37*
%MOMM*%
%LPD*%
G01*
G04 APERTURE LIST*
G04 Aperture macros list*
%AMRoundRect*
0 Rectangle with rounded corners*
0 $1 Rounding radius*
0 $2 $3 $4 $5 $6 $7 $8 $9 X,Y pos of 4 corners*
0 Add a 4 corners polygon primitive as box body*
4,1,4,$2,$3,$4,$5,$6,$7,$8,$9,$2,$3,0*
0 Add four circle primitives for the rounded corners*
1,1,$1+$1,$2,$3*
1,1,$1+$1,$4,$5*
1,1,$1+$1,$6,$7*
1,1,$1+$1,$8,$9*
0 Add four rect primitives between the rounded corners*
20,1,$1+$1,$2,$3,$4,$5,0*
20,1,$1+$1,$4,$5,$6,$7,0*
20,1,$1+$1,$6,$7,$8,$9,0*
20,1,$1+$1,$8,$9,$2,$3,0*%
G04 Aperture macros list end*
%TA.AperFunction,SMDPad,CuDef*%
%ADD10RoundRect,0.250000X-0.262500X-0.450000X0.262500X-0.450000X0.262500X0.450000X-0.262500X0.450000X0*%
%TD*%
%TA.AperFunction,SMDPad,CuDef*%
%ADD11RoundRect,0.250000X-0.325000X-0.650000X0.325000X-0.650000X0.325000X0.650000X-0.325000X0.650000X0*%
%TD*%
%TA.AperFunction,SMDPad,CuDef*%
%ADD12R,0.450000X1.475000*%
%TD*%
%TA.AperFunction,SMDPad,CuDef*%
%ADD13RoundRect,0.150000X-0.512500X-0.150000X0.512500X-0.150000X0.512500X0.150000X-0.512500X0.150000X0*%
%TD*%
%TA.AperFunction,ComponentPad*%
%ADD14R,1.700000X1.700000*%
%TD*%
%TA.AperFunction,ComponentPad*%
%ADD15O,1.700000X1.700000*%
%TD*%
%TA.AperFunction,SMDPad,CuDef*%
%ADD16RoundRect,0.243750X0.456250X-0.243750X0.456250X0.243750X-0.456250X0.243750X-0.456250X-0.243750X0*%
%TD*%
%TA.AperFunction,SMDPad,CuDef*%
%ADD17R,2.100000X1.400000*%
%TD*%
%TA.AperFunction,ComponentPad*%
%ADD18R,1.560000X1.560000*%
%TD*%
%TA.AperFunction,ComponentPad*%
%ADD19C,1.560000*%
%TD*%
%TA.AperFunction,SMDPad,CuDef*%
%ADD20RoundRect,0.250000X0.450000X-0.262500X0.450000X0.262500X-0.450000X0.262500X-0.450000X-0.262500X0*%
%TD*%
%TA.AperFunction,ComponentPad*%
%ADD21C,1.500000*%
%TD*%
%TA.AperFunction,SMDPad,CuDef*%
%ADD22RoundRect,0.250000X0.325000X0.650000X-0.325000X0.650000X-0.325000X-0.650000X0.325000X-0.650000X0*%
%TD*%
%TA.AperFunction,SMDPad,CuDef*%
%ADD23R,1.500000X0.650000*%
%TD*%
%TA.AperFunction,ComponentPad*%
%ADD24R,1.524000X1.524000*%
%TD*%
%TA.AperFunction,ComponentPad*%
%ADD25C,1.524000*%
%TD*%
%TA.AperFunction,ComponentPad*%
%ADD26C,3.500000*%
%TD*%
%TA.AperFunction,SMDPad,CuDef*%
%ADD27RoundRect,0.250000X-0.475000X0.250000X-0.475000X-0.250000X0.475000X-0.250000X0.475000X0.250000X0*%
%TD*%
%TA.AperFunction,SMDPad,CuDef*%
%ADD28R,1.300000X1.700000*%
%TD*%
%TA.AperFunction,SMDPad,CuDef*%
%ADD29R,0.600000X1.450000*%
%TD*%
%TA.AperFunction,SMDPad,CuDef*%
%ADD30R,0.300000X1.450000*%
%TD*%
%TA.AperFunction,ComponentPad*%
%ADD31O,1.000000X2.100000*%
%TD*%
%TA.AperFunction,ComponentPad*%
%ADD32O,1.000000X1.600000*%
%TD*%
%TA.AperFunction,SMDPad,CuDef*%
%ADD33RoundRect,0.150000X-0.587500X-0.150000X0.587500X-0.150000X0.587500X0.150000X-0.587500X0.150000X0*%
%TD*%
%TA.AperFunction,SMDPad,CuDef*%
%ADD34RoundRect,0.250000X-0.250000X-0.475000X0.250000X-0.475000X0.250000X0.475000X-0.250000X0.475000X0*%
%TD*%
%TA.AperFunction,SMDPad,CuDef*%
%ADD35RoundRect,0.250000X-0.450000X0.262500X-0.450000X-0.262500X0.450000X-0.262500X0.450000X0.262500X0*%
%TD*%
%TA.AperFunction,SMDPad,CuDef*%
%ADD36RoundRect,0.250000X0.475000X-0.250000X0.475000X0.250000X-0.475000X0.250000X-0.475000X-0.250000X0*%
%TD*%
%TA.AperFunction,SMDPad,CuDef*%
%ADD37R,1.450000X0.600000*%
%TD*%
%TA.AperFunction,SMDPad,CuDef*%
%ADD38R,1.450000X0.300000*%
%TD*%
%TA.AperFunction,ComponentPad*%
%ADD39O,2.100000X1.000000*%
%TD*%
%TA.AperFunction,ComponentPad*%
%ADD40O,1.600000X1.000000*%
%TD*%
%TA.AperFunction,SMDPad,CuDef*%
%ADD41R,2.200000X0.600000*%
%TD*%
%TA.AperFunction,SMDPad,CuDef*%
%ADD42RoundRect,0.150000X-0.850000X-0.150000X0.850000X-0.150000X0.850000X0.150000X-0.850000X0.150000X0*%
%TD*%
%TA.AperFunction,ComponentPad*%
%ADD43O,1.200000X2.200000*%
%TD*%
%TA.AperFunction,ComponentPad*%
%ADD44O,2.200000X1.200000*%
%TD*%
%TA.AperFunction,SMDPad,CuDef*%
%ADD45RoundRect,0.250000X0.262500X0.450000X-0.262500X0.450000X-0.262500X-0.450000X0.262500X-0.450000X0*%
%TD*%
%TA.AperFunction,SMDPad,CuDef*%
%ADD46RoundRect,0.250000X0.250000X0.475000X-0.250000X0.475000X-0.250000X-0.475000X0.250000X-0.475000X0*%
%TD*%
%TA.AperFunction,SMDPad,CuDef*%
%ADD47RoundRect,0.150000X-0.150000X0.587500X-0.150000X-0.587500X0.150000X-0.587500X0.150000X0.587500X0*%
%TD*%
%TA.AperFunction,SMDPad,CuDef*%
%ADD48R,2.000000X1.500000*%
%TD*%
%TA.AperFunction,SMDPad,CuDef*%
%ADD49R,2.000000X3.800000*%
%TD*%
%TA.AperFunction,SMDPad,CuDef*%
%ADD50RoundRect,0.075000X-0.662500X-0.075000X0.662500X-0.075000X0.662500X0.075000X-0.662500X0.075000X0*%
%TD*%
%TA.AperFunction,SMDPad,CuDef*%
%ADD51RoundRect,0.075000X-0.075000X-0.662500X0.075000X-0.662500X0.075000X0.662500X-0.075000X0.662500X0*%
%TD*%
%TA.AperFunction,ComponentPad*%
%ADD52C,1.800000*%
%TD*%
%TA.AperFunction,ComponentPad*%
%ADD53C,5.100000*%
%TD*%
%TA.AperFunction,ViaPad*%
%ADD54C,0.800000*%
%TD*%
%TA.AperFunction,Conductor*%
%ADD55C,0.400000*%
%TD*%
%TA.AperFunction,Conductor*%
%ADD56C,0.300000*%
%TD*%
%TA.AperFunction,Conductor*%
%ADD57C,0.600000*%
%TD*%
%TA.AperFunction,Conductor*%
%ADD58C,0.250000*%
%TD*%
G04 APERTURE END LIST*
D10*
%TO.P,R14,1*%
%TO.N,/TAPE_OUT*%
X145899500Y-107315000D03*
%TO.P,R14,2*%
%TO.N,Net-(C10-Pad1)*%
X147724500Y-107315000D03*
%TD*%
%TO.P,R25,1*%
%TO.N,+3V3*%
X149709500Y-112649000D03*
%TO.P,R25,2*%
%TO.N,/SW2*%
X151534500Y-112649000D03*
%TD*%
%TO.P,R17,1*%
%TO.N,/MIC_IN*%
X126341500Y-65405000D03*
%TO.P,R17,2*%
%TO.N,Net-(C6-Pad1)*%
X128166500Y-65405000D03*
%TD*%
D11*
%TO.P,C10,1*%
%TO.N,Net-(C10-Pad1)*%
X149401000Y-107188000D03*
%TO.P,C10,2*%
%TO.N,Net-(C10-Pad2)*%
X152351000Y-107188000D03*
%TD*%
D12*
%TO.P,IC4,1,VCC(A)*%
%TO.N,+3V3*%
X114128000Y-67200000D03*
%TO.P,IC4,2,A1*%
%TO.N,/SHIFT_D4*%
X114778000Y-67200000D03*
%TO.P,IC4,3,A2*%
%TO.N,/SHIFT_D5*%
X115428000Y-67200000D03*
%TO.P,IC4,4,A3*%
%TO.N,/SHIFT_D6*%
X116078000Y-67200000D03*
%TO.P,IC4,5,A4*%
%TO.N,/SHIFT_D7*%
X116728000Y-67200000D03*
%TO.P,IC4,6,n.c._1*%
%TO.N,unconnected-(IC4-Pad6)*%
X117378000Y-67200000D03*
%TO.P,IC4,7,GND*%
%TO.N,GND*%
X118028000Y-67200000D03*
%TO.P,IC4,8,OE*%
%TO.N,+3V3*%
X118028000Y-61324000D03*
%TO.P,IC4,9,n.c._2*%
%TO.N,unconnected-(IC4-Pad9)*%
X117378000Y-61324000D03*
%TO.P,IC4,10,B4*%
%TO.N,/DISP_D7*%
X116728000Y-61324000D03*
%TO.P,IC4,11,B3*%
%TO.N,/DISP_D6*%
X116078000Y-61324000D03*
%TO.P,IC4,12,B2*%
%TO.N,/DISP_D5*%
X115428000Y-61324000D03*
%TO.P,IC4,13,B1*%
%TO.N,/DISP_D4*%
X114778000Y-61324000D03*
%TO.P,IC4,14,VCC(B)*%
%TO.N,+5V*%
X114128000Y-61324000D03*
%TD*%
D13*
%TO.P,U5,1*%
%TO.N,N/C*%
X144023500Y-67503000D03*
%TO.P,U5,2*%
%TO.N,Net-(C8-Pad2)*%
X144023500Y-68453000D03*
%TO.P,U5,3,GND*%
%TO.N,GND*%
X144023500Y-69403000D03*
%TO.P,U5,4*%
%TO.N,/SHAPED_B*%
X146298500Y-69403000D03*
%TO.P,U5,5,VCC*%
%TO.N,+3V3*%
X146298500Y-67503000D03*
%TD*%
D10*
%TO.P,R1,1*%
%TO.N,/SHAPED_A*%
X139168500Y-90424000D03*
%TO.P,R1,2*%
%TO.N,Net-(Q1-Pad1)*%
X140993500Y-90424000D03*
%TD*%
D14*
%TO.P,J10,1,Pin_1*%
%TO.N,+3V3*%
X100457000Y-117109000D03*
D15*
%TO.P,J10,2,Pin_2*%
%TO.N,/BOOT1*%
X100457000Y-119649000D03*
%TO.P,J10,3,Pin_3*%
%TO.N,GND*%
X100457000Y-122189000D03*
%TD*%
D10*
%TO.P,R9,1*%
%TO.N,GND*%
X138660500Y-65659000D03*
%TO.P,R9,2*%
%TO.N,/LINE_IN*%
X140485500Y-65659000D03*
%TD*%
D16*
%TO.P,D5,1,K*%
%TO.N,Net-(D5-Pad1)*%
X107696000Y-120698500D03*
%TO.P,D5,2,A*%
%TO.N,+3V3*%
X107696000Y-118823500D03*
%TD*%
D10*
%TO.P,R26,1*%
%TO.N,+3V3*%
X159107500Y-112649000D03*
%TO.P,R26,2*%
%TO.N,/SW3*%
X160932500Y-112649000D03*
%TD*%
D17*
%TO.P,S5,1,1*%
%TO.N,unconnected-(S5-Pad1)*%
X74825000Y-117257000D03*
%TO.P,S5,2,2*%
%TO.N,/~RESET*%
X83925000Y-117257000D03*
%TO.P,S5,3,3*%
%TO.N,GND*%
X74825000Y-121757000D03*
%TO.P,S5,4,4*%
%TO.N,unconnected-(S5-Pad4)*%
X83925000Y-121757000D03*
%TD*%
D18*
%TO.P,RV1,1,1*%
%TO.N,GND*%
X87924000Y-117267000D03*
D19*
%TO.P,RV1,2,2*%
%TO.N,Net-(DS1-Pad3)*%
X90424000Y-122267000D03*
%TO.P,RV1,3,3*%
%TO.N,+5V*%
X92924000Y-117267000D03*
%TD*%
D20*
%TO.P,R21,1*%
%TO.N,Net-(J8-PadB5)*%
X166243000Y-64666500D03*
%TO.P,R21,2*%
%TO.N,GND*%
X166243000Y-62841500D03*
%TD*%
D21*
%TO.P,Y1,1,1*%
%TO.N,Net-(C4-Pad1)*%
X100838000Y-79592000D03*
%TO.P,Y1,2,2*%
%TO.N,Net-(C5-Pad1)*%
X100838000Y-84472000D03*
%TD*%
D22*
%TO.P,C7,1*%
%TO.N,Net-(C7-Pad1)*%
X132158000Y-74295000D03*
%TO.P,C7,2*%
%TO.N,Net-(C7-Pad2)*%
X129208000Y-74295000D03*
%TD*%
D23*
%TO.P,IC1,1,~{CS}*%
%TO.N,/~RAM_CS*%
X130462000Y-94234000D03*
%TO.P,IC1,2,SO/SIO1*%
%TO.N,/RAM_MISO*%
X130462000Y-92964000D03*
%TO.P,IC1,3,SIO2*%
%TO.N,unconnected-(IC1-Pad3)*%
X130462000Y-91694000D03*
%TO.P,IC1,4,VSS*%
%TO.N,GND*%
X130462000Y-90424000D03*
%TO.P,IC1,5,SI/SIO0*%
%TO.N,/RAM_MOSI*%
X125062000Y-90424000D03*
%TO.P,IC1,6,SCK*%
%TO.N,/RAM_SCK*%
X125062000Y-91694000D03*
%TO.P,IC1,7,~{HOLD}/SIO3*%
%TO.N,+3V3*%
X125062000Y-92964000D03*
%TO.P,IC1,8,VCC*%
X125062000Y-94234000D03*
%TD*%
D24*
%TO.P,J5,1,VBUS*%
%TO.N,+5V*%
X84594500Y-66223000D03*
D25*
%TO.P,J5,2,D-*%
%TO.N,/USB2DM*%
X84594500Y-68723000D03*
%TO.P,J5,3,D+*%
%TO.N,/USB2DP*%
X84594500Y-70723000D03*
%TO.P,J5,4,GND*%
%TO.N,GND*%
X84594500Y-73223000D03*
D26*
%TO.P,J5,5,Shield*%
X81884500Y-76293000D03*
X81884500Y-63153000D03*
%TD*%
D16*
%TO.P,D4,1,K*%
%TO.N,Net-(D4-Pad1)*%
X75057000Y-86916500D03*
%TO.P,D4,2,A*%
%TO.N,+3V3*%
X75057000Y-85041500D03*
%TD*%
D11*
%TO.P,C1,1*%
%TO.N,+5V*%
X86663000Y-80772000D03*
%TO.P,C1,2*%
%TO.N,GND*%
X89613000Y-80772000D03*
%TD*%
D20*
%TO.P,R7,1*%
%TO.N,Net-(R5-Pad2)*%
X129794000Y-67079500D03*
%TO.P,R7,2*%
%TO.N,+5V*%
X129794000Y-65254500D03*
%TD*%
D27*
%TO.P,C15,1*%
%TO.N,GND*%
X86741000Y-109286000D03*
%TO.P,C15,2*%
%TO.N,Net-(C15-Pad2)*%
X86741000Y-111186000D03*
%TD*%
D17*
%TO.P,S3,1,1*%
%TO.N,unconnected-(S3-Pad1)*%
X146326000Y-117257000D03*
%TO.P,S3,2,2*%
%TO.N,/SW2*%
X155426000Y-117257000D03*
%TO.P,S3,3,3*%
%TO.N,GND*%
X146326000Y-121757000D03*
%TO.P,S3,4,4*%
%TO.N,unconnected-(S3-Pad4)*%
X155426000Y-121757000D03*
%TD*%
D28*
%TO.P,D1,1,K*%
%TO.N,Net-(C7-Pad2)*%
X130711000Y-77851000D03*
%TO.P,D1,2,A*%
%TO.N,GND*%
X134211000Y-77851000D03*
%TD*%
D29*
%TO.P,J7,A1,GND*%
%TO.N,GND*%
X161621000Y-59081000D03*
%TO.P,J7,A4,VBUS*%
%TO.N,+5V*%
X160821000Y-59081000D03*
D30*
%TO.P,J7,A5,CC1*%
%TO.N,Net-(J7-PadA5)*%
X159621000Y-59081000D03*
%TO.P,J7,A6,D+*%
%TO.N,/USB1DP*%
X158621000Y-59081000D03*
%TO.P,J7,A7,D-*%
%TO.N,/USB1DM*%
X158121000Y-59081000D03*
%TO.P,J7,A8,SBU1*%
%TO.N,unconnected-(J7-PadA8)*%
X157121000Y-59081000D03*
D29*
%TO.P,J7,A9,VBUS*%
%TO.N,+5V*%
X155921000Y-59081000D03*
%TO.P,J7,A12,GND*%
%TO.N,GND*%
X155121000Y-59081000D03*
%TO.P,J7,B1,GND*%
X155121000Y-59081000D03*
%TO.P,J7,B4,VBUS*%
%TO.N,+5V*%
X155921000Y-59081000D03*
D30*
%TO.P,J7,B5,CC2*%
%TO.N,Net-(J7-PadB5)*%
X156621000Y-59081000D03*
%TO.P,J7,B6,D+*%
%TO.N,/USB1DP*%
X157621000Y-59081000D03*
%TO.P,J7,B7,D-*%
%TO.N,/USB1DM*%
X159121000Y-59081000D03*
%TO.P,J7,B8,SBU2*%
%TO.N,unconnected-(J7-PadB8)*%
X160121000Y-59081000D03*
D29*
%TO.P,J7,B9,VBUS*%
%TO.N,+5V*%
X160821000Y-59081000D03*
%TO.P,J7,B12,GND*%
%TO.N,GND*%
X161621000Y-59081000D03*
D31*
%TO.P,J7,S1,SHIELD*%
X162691000Y-58166000D03*
X154051000Y-58166000D03*
D32*
X162691000Y-53986000D03*
X154051000Y-53986000D03*
%TD*%
D10*
%TO.P,R8,1*%
%TO.N,Net-(R6-Pad2)*%
X132437500Y-70993000D03*
%TO.P,R8,2*%
%TO.N,/MIC_AMP*%
X134262500Y-70993000D03*
%TD*%
D17*
%TO.P,S4,1,1*%
%TO.N,unconnected-(S4-Pad1)*%
X161058000Y-117257000D03*
%TO.P,S4,2,2*%
%TO.N,/SW3*%
X170158000Y-117257000D03*
%TO.P,S4,3,3*%
%TO.N,GND*%
X161058000Y-121757000D03*
%TO.P,S4,4,4*%
%TO.N,unconnected-(S4-Pad4)*%
X170158000Y-121757000D03*
%TD*%
D28*
%TO.P,D2,1,K*%
%TO.N,Net-(C8-Pad2)*%
X142212000Y-69723000D03*
%TO.P,D2,2,A*%
%TO.N,GND*%
X138712000Y-69723000D03*
%TD*%
D12*
%TO.P,IC2,1,VCC(A)*%
%TO.N,+3V3*%
X92792000Y-67327000D03*
%TO.P,IC2,2,A1*%
%TO.N,/SHIFT_RS*%
X93442000Y-67327000D03*
%TO.P,IC2,3,A2*%
%TO.N,/SHIFT_RW*%
X94092000Y-67327000D03*
%TO.P,IC2,4,A3*%
%TO.N,/SHIFT_E*%
X94742000Y-67327000D03*
%TO.P,IC2,5,A4*%
%TO.N,unconnected-(IC2-Pad5)*%
X95392000Y-67327000D03*
%TO.P,IC2,6,n.c._1*%
%TO.N,unconnected-(IC2-Pad6)*%
X96042000Y-67327000D03*
%TO.P,IC2,7,GND*%
%TO.N,GND*%
X96692000Y-67327000D03*
%TO.P,IC2,8,OE*%
%TO.N,+3V3*%
X96692000Y-61451000D03*
%TO.P,IC2,9,n.c._2*%
%TO.N,unconnected-(IC2-Pad9)*%
X96042000Y-61451000D03*
%TO.P,IC2,10,B4*%
%TO.N,unconnected-(IC2-Pad10)*%
X95392000Y-61451000D03*
%TO.P,IC2,11,B3*%
%TO.N,/DISP_E*%
X94742000Y-61451000D03*
%TO.P,IC2,12,B2*%
%TO.N,/DISP_RW*%
X94092000Y-61451000D03*
%TO.P,IC2,13,B1*%
%TO.N,/DISP_RS*%
X93442000Y-61451000D03*
%TO.P,IC2,14,VCC(B)*%
%TO.N,+5V*%
X92792000Y-61451000D03*
%TD*%
D33*
%TO.P,Q3,1,B*%
%TO.N,Net-(Q3-Pad1)*%
X147652500Y-103063000D03*
%TO.P,Q3,2,E*%
%TO.N,GND*%
X147652500Y-104963000D03*
%TO.P,Q3,3,C*%
%TO.N,Net-(C9-Pad1)*%
X149527500Y-104013000D03*
%TD*%
D34*
%TO.P,C27,1*%
%TO.N,+3V3*%
X135956000Y-73660000D03*
%TO.P,C27,2*%
%TO.N,GND*%
X137856000Y-73660000D03*
%TD*%
D35*
%TO.P,R19,1*%
%TO.N,Net-(J7-PadB5)*%
X156210000Y-63476500D03*
%TO.P,R19,2*%
%TO.N,GND*%
X156210000Y-65301500D03*
%TD*%
D36*
%TO.P,C22,1*%
%TO.N,+3V3*%
X112014000Y-83246000D03*
%TO.P,C22,2*%
%TO.N,GND*%
X112014000Y-81346000D03*
%TD*%
D34*
%TO.P,C3,1*%
%TO.N,+3V3*%
X86614000Y-83058000D03*
%TO.P,C3,2*%
%TO.N,GND*%
X88514000Y-83058000D03*
%TD*%
D27*
%TO.P,C4,1*%
%TO.N,Net-(C4-Pad1)*%
X96774000Y-79314000D03*
%TO.P,C4,2*%
%TO.N,GND*%
X96774000Y-81214000D03*
%TD*%
D36*
%TO.P,C21,1*%
%TO.N,+3V3*%
X132969000Y-92390000D03*
%TO.P,C21,2*%
%TO.N,GND*%
X132969000Y-90490000D03*
%TD*%
D37*
%TO.P,J8,A1,GND*%
%TO.N,GND*%
X164992000Y-75259000D03*
%TO.P,J8,A4,VBUS*%
%TO.N,+5V*%
X164992000Y-74459000D03*
D38*
%TO.P,J8,A5,CC1*%
%TO.N,Net-(J8-PadA5)*%
X164992000Y-73259000D03*
%TO.P,J8,A6,D+*%
%TO.N,/USBSDP*%
X164992000Y-72259000D03*
%TO.P,J8,A7,D-*%
%TO.N,/USBSDM*%
X164992000Y-71759000D03*
%TO.P,J8,A8,SBU1*%
%TO.N,unconnected-(J8-PadA8)*%
X164992000Y-70759000D03*
D37*
%TO.P,J8,A9,VBUS*%
%TO.N,+5V*%
X164992000Y-69559000D03*
%TO.P,J8,A12,GND*%
%TO.N,GND*%
X164992000Y-68759000D03*
%TO.P,J8,B1,GND*%
X164992000Y-68759000D03*
%TO.P,J8,B4,VBUS*%
%TO.N,+5V*%
X164992000Y-69559000D03*
D38*
%TO.P,J8,B5,CC2*%
%TO.N,Net-(J8-PadB5)*%
X164992000Y-70259000D03*
%TO.P,J8,B6,D+*%
%TO.N,/USBSDP*%
X164992000Y-71259000D03*
%TO.P,J8,B7,D-*%
%TO.N,/USBSDM*%
X164992000Y-72759000D03*
%TO.P,J8,B8,SBU2*%
%TO.N,unconnected-(J8-PadB8)*%
X164992000Y-73759000D03*
D37*
%TO.P,J8,B9,VBUS*%
%TO.N,+5V*%
X164992000Y-74459000D03*
%TO.P,J8,B12,GND*%
%TO.N,GND*%
X164992000Y-75259000D03*
D39*
%TO.P,J8,S1,SHIELD*%
X165907000Y-76329000D03*
D40*
X170087000Y-67689000D03*
D39*
X165907000Y-67689000D03*
D40*
X170087000Y-76329000D03*
%TD*%
D41*
%TO.P,U6,1,INT#*%
%TO.N,/CH376_INT*%
X88988000Y-89662000D03*
%TO.P,U6,2,RSTI*%
%TO.N,/CH376_RST*%
X88988000Y-90932000D03*
%TO.P,U6,3,WR#*%
%TO.N,GND*%
X88988000Y-92202000D03*
%TO.P,U6,4,RD#*%
X88988000Y-93472000D03*
%TO.P,U6,5,TXD*%
%TO.N,+3V3*%
X88988000Y-94742000D03*
%TO.P,U6,6,RXD*%
X88988000Y-96012000D03*
%TO.P,U6,7,SD_DI*%
%TO.N,unconnected-(U6-Pad7)*%
X88988000Y-97282000D03*
%TO.P,U6,8,A0*%
%TO.N,+3V3*%
X88988000Y-98552000D03*
%TO.P,U6,9,V3*%
X88988000Y-99822000D03*
%TO.P,U6,10,UD+*%
%TO.N,/USBFDP*%
X88988000Y-101092000D03*
%TO.P,U6,11,UD-*%
%TO.N,/USBFDM*%
X88988000Y-102362000D03*
%TO.P,U6,12,GND*%
%TO.N,GND*%
X88988000Y-103632000D03*
%TO.P,U6,13,XI*%
%TO.N,Net-(C14-Pad1)*%
X88988000Y-104902000D03*
%TO.P,U6,14,XO*%
%TO.N,Net-(C15-Pad2)*%
X88988000Y-106172000D03*
%TO.P,U6,15,D0*%
%TO.N,unconnected-(U6-Pad15)*%
X99988000Y-106172000D03*
%TO.P,U6,16,D1*%
%TO.N,unconnected-(U6-Pad16)*%
X99988000Y-104902000D03*
%TO.P,U6,17,D2*%
%TO.N,unconnected-(U6-Pad17)*%
X99988000Y-103632000D03*
%TO.P,U6,18,SCS/D3*%
%TO.N,/CH376_CS*%
X99988000Y-102362000D03*
%TO.P,U6,19,BZ/D4*%
%TO.N,unconnected-(U6-Pad19)*%
X99988000Y-101092000D03*
%TO.P,U6,20,SCK/D5*%
%TO.N,/CH376_SCK*%
X99988000Y-99822000D03*
%TO.P,U6,21,SDI/D6*%
%TO.N,/CH376_MOSI*%
X99988000Y-98552000D03*
%TO.P,U6,22,SDO/D7*%
%TO.N,/CH376_MISO*%
X99988000Y-97282000D03*
%TO.P,U6,23,SD_CS*%
%TO.N,unconnected-(U6-Pad23)*%
X99988000Y-96012000D03*
%TO.P,U6,24,ACT#*%
%TO.N,Net-(R22-Pad1)*%
X99988000Y-94742000D03*
%TO.P,U6,25,SD_DO*%
%TO.N,unconnected-(U6-Pad25)*%
X99988000Y-93472000D03*
%TO.P,U6,26,SD_CK*%
%TO.N,unconnected-(U6-Pad26)*%
X99988000Y-92202000D03*
%TO.P,U6,27,PCS#*%
%TO.N,+3V3*%
X99988000Y-90932000D03*
%TO.P,U6,28,VCC*%
X99988000Y-89662000D03*
%TD*%
D13*
%TO.P,U3,1,+*%
%TO.N,Net-(R5-Pad2)*%
X132212500Y-67249000D03*
%TO.P,U3,2,V-*%
%TO.N,GND*%
X132212500Y-68199000D03*
%TO.P,U3,3,-*%
%TO.N,Net-(R6-Pad2)*%
X132212500Y-69149000D03*
%TO.P,U3,4*%
%TO.N,/MIC_AMP*%
X134487500Y-69149000D03*
%TO.P,U3,5,V+*%
%TO.N,+5V*%
X134487500Y-67249000D03*
%TD*%
D17*
%TO.P,S2,1,1*%
%TO.N,unconnected-(S2-Pad1)*%
X131513000Y-117257000D03*
%TO.P,S2,2,2*%
%TO.N,/SW1*%
X140613000Y-117257000D03*
%TO.P,S2,3,3*%
%TO.N,GND*%
X131513000Y-121757000D03*
%TO.P,S2,4,4*%
%TO.N,unconnected-(S2-Pad4)*%
X140613000Y-121757000D03*
%TD*%
D10*
%TO.P,R6,1*%
%TO.N,Net-(C6-Pad2)*%
X126341500Y-72009000D03*
%TO.P,R6,2*%
%TO.N,Net-(R6-Pad2)*%
X128166500Y-72009000D03*
%TD*%
D12*
%TO.P,IC3,1,VCC(A)*%
%TO.N,+3V3*%
X103079000Y-67327000D03*
%TO.P,IC3,2,A1*%
%TO.N,/SHIFT_D0*%
X103729000Y-67327000D03*
%TO.P,IC3,3,A2*%
%TO.N,/SHIFT_D1*%
X104379000Y-67327000D03*
%TO.P,IC3,4,A3*%
%TO.N,/SHIFT_D2*%
X105029000Y-67327000D03*
%TO.P,IC3,5,A4*%
%TO.N,/SHIFT_D3*%
X105679000Y-67327000D03*
%TO.P,IC3,6,n.c._1*%
%TO.N,unconnected-(IC3-Pad6)*%
X106329000Y-67327000D03*
%TO.P,IC3,7,GND*%
%TO.N,GND*%
X106979000Y-67327000D03*
%TO.P,IC3,8,OE*%
%TO.N,+3V3*%
X106979000Y-61451000D03*
%TO.P,IC3,9,n.c._2*%
%TO.N,unconnected-(IC3-Pad9)*%
X106329000Y-61451000D03*
%TO.P,IC3,10,B4*%
%TO.N,/DISP_D3*%
X105679000Y-61451000D03*
%TO.P,IC3,11,B3*%
%TO.N,/DISP_D2*%
X105029000Y-61451000D03*
%TO.P,IC3,12,B2*%
%TO.N,/DISP_D1*%
X104379000Y-61451000D03*
%TO.P,IC3,13,B1*%
%TO.N,/DISP_D0*%
X103729000Y-61451000D03*
%TO.P,IC3,14,VCC(B)*%
%TO.N,+5V*%
X103079000Y-61451000D03*
%TD*%
D42*
%TO.P,U7,1,GND*%
%TO.N,GND*%
X149773000Y-81407000D03*
%TO.P,U7,2,TXD*%
%TO.N,/CH_TXD*%
X149773000Y-82677000D03*
%TO.P,U7,3,RXD*%
%TO.N,/CH_RXD*%
X149773000Y-83947000D03*
%TO.P,U7,4,V3*%
%TO.N,+3V3*%
X149773000Y-85217000D03*
%TO.P,U7,5,UD+*%
%TO.N,/USBSDP*%
X149773000Y-86487000D03*
%TO.P,U7,6,UD-*%
%TO.N,/USBSDM*%
X149773000Y-87757000D03*
%TO.P,U7,7,XI*%
%TO.N,Net-(C11-Pad1)*%
X149773000Y-89027000D03*
%TO.P,U7,8,XO*%
%TO.N,Net-(C12-Pad2)*%
X149773000Y-90297000D03*
%TO.P,U7,9,CTS/*%
%TO.N,Net-(U7-Pad14)*%
X154773000Y-90297000D03*
%TO.P,U7,10,DSR/*%
%TO.N,Net-(U7-Pad10)*%
X154773000Y-89027000D03*
%TO.P,U7,11,RI/*%
%TO.N,+3V3*%
X154773000Y-87757000D03*
%TO.P,U7,12,DCD/*%
X154773000Y-86487000D03*
%TO.P,U7,13,DTR/*%
%TO.N,Net-(U7-Pad10)*%
X154773000Y-85217000D03*
%TO.P,U7,14,RTS/*%
%TO.N,Net-(U7-Pad14)*%
X154773000Y-83947000D03*
%TO.P,U7,15,RS232*%
%TO.N,unconnected-(U7-Pad15)*%
X154773000Y-82677000D03*
%TO.P,U7,16,VCC*%
%TO.N,+3V3*%
X154773000Y-81407000D03*
%TD*%
D36*
%TO.P,C23,1*%
%TO.N,+3V3*%
X108204000Y-92898000D03*
%TO.P,C23,2*%
%TO.N,GND*%
X108204000Y-90998000D03*
%TD*%
D35*
%TO.P,R28,1*%
%TO.N,/LED*%
X111633000Y-118848500D03*
%TO.P,R28,2*%
%TO.N,Net-(D5-Pad1)*%
X111633000Y-120673500D03*
%TD*%
D34*
%TO.P,C12,1*%
%TO.N,GND*%
X153990000Y-99568000D03*
%TO.P,C12,2*%
%TO.N,Net-(C12-Pad2)*%
X155890000Y-99568000D03*
%TD*%
D43*
%TO.P,J2,R*%
%TO.N,unconnected-(J2-PadR)*%
X150000000Y-60300000D03*
%TO.P,J2,RN*%
%TO.N,unconnected-(J2-PadRN)*%
X147500000Y-60300000D03*
D44*
%TO.P,J2,S*%
%TO.N,GND*%
X145000000Y-55300000D03*
D43*
%TO.P,J2,T*%
%TO.N,/LINE_IN*%
X140000000Y-60300000D03*
%TO.P,J2,TN*%
%TO.N,unconnected-(J2-PadTN)*%
X142500000Y-60300000D03*
%TD*%
D20*
%TO.P,R16,1*%
%TO.N,Net-(C10-Pad2)*%
X154305000Y-107211500D03*
%TO.P,R16,2*%
%TO.N,GND*%
X154305000Y-105386500D03*
%TD*%
D45*
%TO.P,R3,1*%
%TO.N,+5V*%
X142771500Y-98552000D03*
%TO.P,R3,2*%
%TO.N,/TAPE_IN*%
X140946500Y-98552000D03*
%TD*%
D22*
%TO.P,C6,1*%
%TO.N,Net-(C6-Pad1)*%
X128094000Y-69850000D03*
%TO.P,C6,2*%
%TO.N,Net-(C6-Pad2)*%
X125144000Y-69850000D03*
%TD*%
D11*
%TO.P,C8,1*%
%TO.N,Net-(C8-Pad1)*%
X142416000Y-65405000D03*
%TO.P,C8,2*%
%TO.N,Net-(C8-Pad2)*%
X145366000Y-65405000D03*
%TD*%
D35*
%TO.P,R15,1*%
%TO.N,Net-(C9-Pad2)*%
X156464000Y-102973500D03*
%TO.P,R15,2*%
%TO.N,GND*%
X156464000Y-104798500D03*
%TD*%
D14*
%TO.P,J9,1,Pin_1*%
%TO.N,+3V3*%
X104140000Y-117109000D03*
D15*
%TO.P,J9,2,Pin_2*%
%TO.N,/BOOT0*%
X104140000Y-119649000D03*
%TO.P,J9,3,Pin_3*%
%TO.N,GND*%
X104140000Y-122189000D03*
%TD*%
D27*
%TO.P,C16,1*%
%TO.N,+3V3*%
X120650000Y-63627000D03*
%TO.P,C16,2*%
%TO.N,GND*%
X120650000Y-65527000D03*
%TD*%
D17*
%TO.P,S1,1,1*%
%TO.N,unconnected-(S1-Pad1)*%
X116735000Y-117257000D03*
%TO.P,S1,2,2*%
%TO.N,/SW0*%
X125835000Y-117257000D03*
%TO.P,S1,3,3*%
%TO.N,GND*%
X116735000Y-121757000D03*
%TO.P,S1,4,4*%
%TO.N,unconnected-(S1-Pad4)*%
X125835000Y-121757000D03*
%TD*%
D27*
%TO.P,C17,1*%
%TO.N,+5V*%
X110617000Y-63754000D03*
%TO.P,C17,2*%
%TO.N,GND*%
X110617000Y-65654000D03*
%TD*%
D10*
%TO.P,R23,1*%
%TO.N,+3V3*%
X123547500Y-112395000D03*
%TO.P,R23,2*%
%TO.N,/SW0*%
X125372500Y-112395000D03*
%TD*%
%TO.P,R11,1*%
%TO.N,/LINE_IN*%
X140565500Y-67691000D03*
%TO.P,R11,2*%
%TO.N,Net-(C8-Pad1)*%
X142390500Y-67691000D03*
%TD*%
D27*
%TO.P,C20,1*%
%TO.N,+3V3*%
X99949000Y-63693000D03*
%TO.P,C20,2*%
%TO.N,GND*%
X99949000Y-65593000D03*
%TD*%
D28*
%TO.P,D3,1,K*%
%TO.N,Net-(C6-Pad1)*%
X127988000Y-67564000D03*
%TO.P,D3,2,A*%
%TO.N,GND*%
X124488000Y-67564000D03*
%TD*%
D10*
%TO.P,R24,1*%
%TO.N,+3V3*%
X129770500Y-112395000D03*
%TO.P,R24,2*%
%TO.N,/SW1*%
X131595500Y-112395000D03*
%TD*%
D46*
%TO.P,C13,1*%
%TO.N,+3V3*%
X153223000Y-79248000D03*
%TO.P,C13,2*%
%TO.N,GND*%
X151323000Y-79248000D03*
%TD*%
D10*
%TO.P,R12,1*%
%TO.N,/TAPE_OUT*%
X143867500Y-105283000D03*
%TO.P,R12,2*%
%TO.N,Net-(Q3-Pad1)*%
X145692500Y-105283000D03*
%TD*%
D36*
%TO.P,C5,1*%
%TO.N,Net-(C5-Pad1)*%
X96774000Y-84770000D03*
%TO.P,C5,2*%
%TO.N,GND*%
X96774000Y-82870000D03*
%TD*%
D47*
%TO.P,Q2,1,B*%
%TO.N,Net-(Q2-Pad1)*%
X139253000Y-94566500D03*
%TO.P,Q2,2,E*%
%TO.N,/SHAPED_A*%
X137353000Y-94566500D03*
%TO.P,Q2,3,C*%
%TO.N,/TAPE_IN*%
X138303000Y-96441500D03*
%TD*%
%TO.P,Q1,1,B*%
%TO.N,Net-(Q1-Pad1)*%
X142809000Y-94566500D03*
%TO.P,Q1,2,E*%
%TO.N,/SHAPED_B*%
X140909000Y-94566500D03*
%TO.P,Q1,3,C*%
%TO.N,/TAPE_IN*%
X141859000Y-96441500D03*
%TD*%
D21*
%TO.P,Y3,1,1*%
%TO.N,Net-(C14-Pad1)*%
X97065000Y-110617000D03*
%TO.P,Y3,2,2*%
%TO.N,Net-(C15-Pad2)*%
X92185000Y-110617000D03*
%TD*%
D45*
%TO.P,R2,1*%
%TO.N,/SHAPED_B*%
X140993500Y-92456000D03*
%TO.P,R2,2*%
%TO.N,Net-(Q2-Pad1)*%
X139168500Y-92456000D03*
%TD*%
D13*
%TO.P,U4,1*%
%TO.N,N/C*%
X136022500Y-75504000D03*
%TO.P,U4,2*%
%TO.N,Net-(C7-Pad2)*%
X136022500Y-76454000D03*
%TO.P,U4,3,GND*%
%TO.N,GND*%
X136022500Y-77404000D03*
%TO.P,U4,4*%
%TO.N,/SHAPED_A*%
X138297500Y-77404000D03*
%TO.P,U4,5,VCC*%
%TO.N,+3V3*%
X138297500Y-75504000D03*
%TD*%
D45*
%TO.P,R4,1*%
%TO.N,/TAPE_IN*%
X139215500Y-98552000D03*
%TO.P,R4,2*%
%TO.N,GND*%
X137390500Y-98552000D03*
%TD*%
D27*
%TO.P,C28,1*%
%TO.N,+3V3*%
X148336000Y-67503000D03*
%TO.P,C28,2*%
%TO.N,GND*%
X148336000Y-69403000D03*
%TD*%
D48*
%TO.P,U2,1,GND*%
%TO.N,GND*%
X84557000Y-86374000D03*
D49*
%TO.P,U2,2,VO*%
%TO.N,+3V3*%
X78257000Y-84074000D03*
D48*
X84557000Y-84074000D03*
%TO.P,U2,3,VI*%
%TO.N,+5V*%
X84557000Y-81774000D03*
%TD*%
D20*
%TO.P,R5,1*%
%TO.N,GND*%
X129794000Y-70508500D03*
%TO.P,R5,2*%
%TO.N,Net-(R5-Pad2)*%
X129794000Y-68683500D03*
%TD*%
D34*
%TO.P,C18,1*%
%TO.N,+3V3*%
X123510000Y-83693000D03*
%TO.P,C18,2*%
%TO.N,GND*%
X125410000Y-83693000D03*
%TD*%
D44*
%TO.P,J3,R*%
%TO.N,unconnected-(J3-PadR)*%
X163700000Y-90800000D03*
%TO.P,J3,RN*%
%TO.N,unconnected-(J3-PadRN)*%
X163700000Y-88300000D03*
D43*
%TO.P,J3,S*%
%TO.N,GND*%
X168700000Y-85800000D03*
D44*
%TO.P,J3,T*%
%TO.N,Net-(C9-Pad2)*%
X163700000Y-80800000D03*
%TO.P,J3,TN*%
%TO.N,unconnected-(J3-PadTN)*%
X163700000Y-83300000D03*
%TD*%
D46*
%TO.P,C25,1*%
%TO.N,+5V*%
X134300000Y-65405000D03*
%TO.P,C25,2*%
%TO.N,GND*%
X132400000Y-65405000D03*
%TD*%
D20*
%TO.P,R20,1*%
%TO.N,Net-(J8-PadA5)*%
X169037000Y-64666500D03*
%TO.P,R20,2*%
%TO.N,GND*%
X169037000Y-62841500D03*
%TD*%
D46*
%TO.P,C24,1*%
%TO.N,+3V3*%
X121854000Y-95123000D03*
%TO.P,C24,2*%
%TO.N,GND*%
X119954000Y-95123000D03*
%TD*%
D43*
%TO.P,J1,R*%
%TO.N,unconnected-(J1-PadR)*%
X136200000Y-60300000D03*
%TO.P,J1,RN*%
%TO.N,unconnected-(J1-PadRN)*%
X133700000Y-60300000D03*
D44*
%TO.P,J1,S*%
%TO.N,GND*%
X131200000Y-55300000D03*
D43*
%TO.P,J1,T*%
%TO.N,/MIC_IN*%
X126200000Y-60300000D03*
%TO.P,J1,TN*%
%TO.N,unconnected-(J1-PadTN)*%
X128700000Y-60300000D03*
%TD*%
D27*
%TO.P,C19,1*%
%TO.N,+5V*%
X90297000Y-63820000D03*
%TO.P,C19,2*%
%TO.N,GND*%
X90297000Y-65720000D03*
%TD*%
D24*
%TO.P,J6,1,VBUS*%
%TO.N,+5V*%
X84594500Y-94036000D03*
D25*
%TO.P,J6,2,D-*%
%TO.N,/USBFDM*%
X84594500Y-96536000D03*
%TO.P,J6,3,D+*%
%TO.N,/USBFDP*%
X84594500Y-98536000D03*
%TO.P,J6,4,GND*%
%TO.N,GND*%
X84594500Y-101036000D03*
D26*
%TO.P,J6,5,Shield*%
X81884500Y-104106000D03*
X81884500Y-90966000D03*
%TD*%
D50*
%TO.P,U1,1,VBAT*%
%TO.N,unconnected-(U1-Pad1)*%
X112931500Y-85515000D03*
%TO.P,U1,2,PC13_TAMPER_RTC*%
%TO.N,/SW0*%
X112931500Y-86015000D03*
%TO.P,U1,3,PC14_OSC32IN*%
%TO.N,/SW1*%
X112931500Y-86515000D03*
%TO.P,U1,4,PC15_OSC32OUT*%
%TO.N,/TAPE_OUT*%
X112931500Y-87015000D03*
%TO.P,U1,5,OSC_IN_PD0*%
%TO.N,Net-(C4-Pad1)*%
X112931500Y-87515000D03*
%TO.P,U1,6,OSC_OUT_PD1*%
%TO.N,Net-(C5-Pad1)*%
X112931500Y-88015000D03*
%TO.P,U1,7,NRST*%
%TO.N,/~RESET*%
X112931500Y-88515000D03*
%TO.P,U1,8,VSSA*%
%TO.N,GND*%
X112931500Y-89015000D03*
%TO.P,U1,9,VDDA*%
%TO.N,+3V3*%
X112931500Y-89515000D03*
%TO.P,U1,10,PA0_WKUP_ADC0*%
%TO.N,/SHIFT_D0*%
X112931500Y-90015000D03*
%TO.P,U1,11,PA1_ADC1*%
%TO.N,/SHIFT_D1*%
X112931500Y-90515000D03*
%TO.P,U1,12,PA2_ADC2*%
%TO.N,/SHIFT_D2*%
X112931500Y-91015000D03*
D51*
%TO.P,U1,13,PA3_ADC3*%
%TO.N,/SHIFT_D3*%
X114344000Y-92427500D03*
%TO.P,U1,14,PA4_ADC4*%
%TO.N,/SHIFT_D4*%
X114844000Y-92427500D03*
%TO.P,U1,15,PA5_ADC5*%
%TO.N,/SHIFT_D5*%
X115344000Y-92427500D03*
%TO.P,U1,16,PA6_ADC6*%
%TO.N,/SHIFT_D6*%
X115844000Y-92427500D03*
%TO.P,U1,17,PA7_ADC7*%
%TO.N,/SHIFT_D7*%
X116344000Y-92427500D03*
%TO.P,U1,18,PB0_ADC8*%
%TO.N,/SHIFT_RW*%
X116844000Y-92427500D03*
%TO.P,U1,19,PB1_ADC9*%
%TO.N,/LED*%
X117344000Y-92427500D03*
%TO.P,U1,20,PB2_BOOT1*%
%TO.N,/BOOT1*%
X117844000Y-92427500D03*
%TO.P,U1,21,PB10*%
%TO.N,/SHIFT_E*%
X118344000Y-92427500D03*
%TO.P,U1,22,PB11*%
%TO.N,/SHIFT_RS*%
X118844000Y-92427500D03*
%TO.P,U1,23,VSS1*%
%TO.N,GND*%
X119344000Y-92427500D03*
%TO.P,U1,24,VDD_VIO1*%
%TO.N,+3V3*%
X119844000Y-92427500D03*
D50*
%TO.P,U1,25,PB12*%
%TO.N,/~RAM_CS*%
X121256500Y-91015000D03*
%TO.P,U1,26,PB13*%
%TO.N,/RAM_SCK*%
X121256500Y-90515000D03*
%TO.P,U1,27,PB14*%
%TO.N,/RAM_MISO*%
X121256500Y-90015000D03*
%TO.P,U1,28,PB15*%
%TO.N,/RAM_MOSI*%
X121256500Y-89515000D03*
%TO.P,U1,29,PA8*%
%TO.N,/TAPE_IN*%
X121256500Y-89015000D03*
%TO.P,U1,30,PA9*%
%TO.N,/CH_RXD*%
X121256500Y-88515000D03*
%TO.P,U1,31,PA10*%
%TO.N,/CH_TXD*%
X121256500Y-88015000D03*
%TO.P,U1,32,PA11_USB1DM*%
%TO.N,/USB1DM*%
X121256500Y-87515000D03*
%TO.P,U1,33,PA12_USB1DP*%
%TO.N,/USB1DP*%
X121256500Y-87015000D03*
%TO.P,U1,34,PA13_SWDIO*%
%TO.N,/CH376_INT*%
X121256500Y-86515000D03*
%TO.P,U1,35,VSS_2*%
%TO.N,GND*%
X121256500Y-86015000D03*
%TO.P,U1,36,VDD_2*%
%TO.N,+3V3*%
X121256500Y-85515000D03*
D51*
%TO.P,U1,37,PA14_SWCLK*%
%TO.N,/CH376_RST*%
X119844000Y-84102500D03*
%TO.P,U1,38,PA15*%
%TO.N,/CH376_CS*%
X119344000Y-84102500D03*
%TO.P,U1,39,PB3*%
%TO.N,/CH376_SCK*%
X118844000Y-84102500D03*
%TO.P,U1,40,PB4*%
%TO.N,/CH376_MISO*%
X118344000Y-84102500D03*
%TO.P,U1,41,PB5*%
%TO.N,/CH376_MOSI*%
X117844000Y-84102500D03*
%TO.P,U1,42,PB6_USB2DM*%
%TO.N,/USB2DM*%
X117344000Y-84102500D03*
%TO.P,U1,43,PB7_USB2DP*%
%TO.N,/USB2DP*%
X116844000Y-84102500D03*
%TO.P,U1,44,BOOT0*%
%TO.N,/BOOT0*%
X116344000Y-84102500D03*
%TO.P,U1,45,PB8*%
%TO.N,/SW2*%
X115844000Y-84102500D03*
%TO.P,U1,46,PB9*%
%TO.N,/SW3*%
X115344000Y-84102500D03*
%TO.P,U1,47,VSS_3*%
%TO.N,GND*%
X114844000Y-84102500D03*
%TO.P,U1,48,VDD_VIO_3*%
%TO.N,+3V3*%
X114344000Y-84102500D03*
%TD*%
D11*
%TO.P,C2,1*%
%TO.N,+3V3*%
X86663000Y-85217000D03*
%TO.P,C2,2*%
%TO.N,GND*%
X89613000Y-85217000D03*
%TD*%
D35*
%TO.P,R10,1*%
%TO.N,/MIC_AMP*%
X134112000Y-72874500D03*
%TO.P,R10,2*%
%TO.N,Net-(C7-Pad1)*%
X134112000Y-74699500D03*
%TD*%
D44*
%TO.P,J4,R*%
%TO.N,unconnected-(J4-PadR)*%
X163700000Y-104800000D03*
%TO.P,J4,RN*%
%TO.N,unconnected-(J4-PadRN)*%
X163700000Y-102300000D03*
D43*
%TO.P,J4,S*%
%TO.N,GND*%
X168700000Y-99800000D03*
D44*
%TO.P,J4,T*%
%TO.N,Net-(C10-Pad2)*%
X163700000Y-94800000D03*
%TO.P,J4,TN*%
%TO.N,unconnected-(J4-PadTN)*%
X163700000Y-97300000D03*
%TD*%
D35*
%TO.P,R18,1*%
%TO.N,Net-(J7-PadA5)*%
X159639000Y-63476500D03*
%TO.P,R18,2*%
%TO.N,GND*%
X159639000Y-65301500D03*
%TD*%
D34*
%TO.P,C11,1*%
%TO.N,Net-(C11-Pad1)*%
X149865000Y-99568000D03*
%TO.P,C11,2*%
%TO.N,GND*%
X151765000Y-99568000D03*
%TD*%
D10*
%TO.P,R13,1*%
%TO.N,+5V*%
X143867500Y-103124000D03*
%TO.P,R13,2*%
%TO.N,Net-(C9-Pad1)*%
X145692500Y-103124000D03*
%TD*%
D27*
%TO.P,C26,1*%
%TO.N,+3V3*%
X147066000Y-86299000D03*
%TO.P,C26,2*%
%TO.N,GND*%
X147066000Y-88199000D03*
%TD*%
D11*
%TO.P,C9,1*%
%TO.N,Net-(C9-Pad1)*%
X151560000Y-103378000D03*
%TO.P,C9,2*%
%TO.N,Net-(C9-Pad2)*%
X154510000Y-103378000D03*
%TD*%
D45*
%TO.P,R22,1*%
%TO.N,Net-(R22-Pad1)*%
X96567000Y-86995000D03*
%TO.P,R22,2*%
%TO.N,Net-(D4-Pad1)*%
X94742000Y-86995000D03*
%TD*%
D35*
%TO.P,R27,1*%
%TO.N,+3V3*%
X96520000Y-117070500D03*
%TO.P,R27,2*%
%TO.N,/~RESET*%
X96520000Y-118895500D03*
%TD*%
D21*
%TO.P,Y2,1,1*%
%TO.N,Net-(C11-Pad1)*%
X150331000Y-95631000D03*
%TO.P,Y2,2,2*%
%TO.N,Net-(C12-Pad2)*%
X155211000Y-95631000D03*
%TD*%
D52*
%TO.P,DS1,1,VSS*%
%TO.N,GND*%
X83157000Y-56192000D03*
%TO.P,DS1,2,VDD*%
%TO.N,+5V*%
X85697000Y-56192000D03*
%TO.P,DS1,3,V0*%
%TO.N,Net-(DS1-Pad3)*%
X88237000Y-56192000D03*
%TO.P,DS1,4,RS*%
%TO.N,/DISP_RS*%
X90777000Y-56192000D03*
%TO.P,DS1,5,R/W*%
%TO.N,/DISP_RW*%
X93317000Y-56192000D03*
%TO.P,DS1,6,E*%
%TO.N,/DISP_E*%
X95857000Y-56192000D03*
%TO.P,DS1,7,DB0*%
%TO.N,/DISP_D0*%
X98397000Y-56192000D03*
%TO.P,DS1,8,DB1*%
%TO.N,/DISP_D1*%
X100937000Y-56192000D03*
%TO.P,DS1,9,DB2*%
%TO.N,/DISP_D2*%
X103477000Y-56192000D03*
%TO.P,DS1,10,DB3*%
%TO.N,/DISP_D3*%
X106017000Y-56192000D03*
%TO.P,DS1,11,DB4*%
%TO.N,/DISP_D4*%
X108557000Y-56192000D03*
%TO.P,DS1,12,DB5*%
%TO.N,/DISP_D5*%
X111097000Y-56192000D03*
%TO.P,DS1,13,DB6*%
%TO.N,/DISP_D6*%
X113637000Y-56192000D03*
%TO.P,DS1,14,DB7*%
%TO.N,/DISP_D7*%
X116177000Y-56192000D03*
%TO.P,DS1,15,A*%
%TO.N,+5V*%
X118717000Y-56192000D03*
%TO.P,DS1,16,K*%
%TO.N,GND*%
X121257000Y-56192000D03*
D53*
%TO.P,DS1,MH1,MH1*%
X75657000Y-56152000D03*
%TO.P,DS1,MH2,MH2*%
X168657000Y-56152000D03*
%TO.P,DS1,MH3,MH3*%
X168657000Y-111152000D03*
%TO.P,DS1,MH4,MH4*%
X75657000Y-111152000D03*
%TD*%
D36*
%TO.P,C14,1*%
%TO.N,Net-(C14-Pad1)*%
X102489000Y-111186000D03*
%TO.P,C14,2*%
%TO.N,GND*%
X102489000Y-109286000D03*
%TD*%
D54*
%TO.N,/BOOT0*%
X116840000Y-87630000D03*
%TO.N,/BOOT1*%
X113157000Y-95631000D03*
%TO.N,/SW0*%
X109220000Y-85090000D03*
X111506000Y-110490000D03*
%TO.N,/SW1*%
X112014000Y-109220000D03*
X109901424Y-85921636D03*
%TO.N,/SW2*%
X104648000Y-79629000D03*
X109220000Y-108331000D03*
%TO.N,/SW3*%
X109601000Y-106680000D03*
X105664000Y-80518000D03*
%TO.N,/~RESET*%
X109220000Y-88900000D03*
X110617000Y-111760000D03*
%TO.N,/LED*%
X111633000Y-116840000D03*
X116840000Y-94615000D03*
%TO.N,+5V*%
X143256000Y-100076000D03*
X84582000Y-80264000D03*
X143764000Y-101600000D03*
X135509000Y-66548000D03*
X129794000Y-63881000D03*
X162433000Y-74549000D03*
X155829000Y-60960000D03*
X107569000Y-63754000D03*
X162433000Y-69469000D03*
X160655000Y-61087000D03*
X82550000Y-81788000D03*
%TO.N,GND*%
X91313000Y-92202000D03*
X78207000Y-117881000D03*
X169037000Y-61341000D03*
X166243000Y-61214000D03*
X137414000Y-100076000D03*
X89535000Y-87249000D03*
X126746000Y-83693000D03*
X136525000Y-65278000D03*
X110363000Y-81280000D03*
X86741000Y-107950000D03*
X147066000Y-89408000D03*
X137160000Y-69723000D03*
X120523000Y-96647000D03*
X98298000Y-82042000D03*
X150899500Y-105386500D03*
X152908000Y-98171000D03*
X120650000Y-66929000D03*
X149860000Y-79502000D03*
X106680000Y-90932000D03*
X139827000Y-75565000D03*
X128778000Y-90424000D03*
X130175000Y-71755000D03*
X102489000Y-107950000D03*
X99949000Y-66929000D03*
X148336000Y-70866000D03*
X158667511Y-120732489D03*
X110617000Y-66929000D03*
X90297000Y-67056000D03*
%TO.N,+3V3*%
X154495500Y-79692500D03*
X76454000Y-83058000D03*
X133096000Y-93726000D03*
X157734000Y-112776000D03*
X96393000Y-93599000D03*
X99504500Y-61912500D03*
X148336000Y-112776000D03*
X122174000Y-112522000D03*
X135956000Y-71882000D03*
X120205500Y-61785500D03*
X128270000Y-112522000D03*
X87503000Y-86741000D03*
X110363000Y-83312000D03*
X122174000Y-83693000D03*
X148336000Y-66167000D03*
X116332000Y-64135000D03*
X147574000Y-85090000D03*
X107061000Y-59690000D03*
X122428000Y-96520000D03*
X76454000Y-84074000D03*
X86741000Y-94742000D03*
X127000000Y-93980000D03*
X106680000Y-92964000D03*
%TO.N,/SHAPED_B*%
X142494000Y-92456000D03*
X145034000Y-70993000D03*
%TO.N,/SHAPED_A*%
X137795000Y-78994000D03*
X137795000Y-90297000D03*
%TO.N,/TAPE_OUT*%
X112410286Y-102870000D03*
X110617000Y-86741000D03*
%TO.N,/CH376_INT*%
X123190000Y-86106000D03*
X124973845Y-97536000D03*
%TO.N,/CH376_RST*%
X119888000Y-82423000D03*
X124206000Y-98678989D03*
%TO.N,/CH376_CS*%
X119888000Y-102362000D03*
X119888000Y-87376000D03*
%TO.N,/CH376_SCK*%
X118872000Y-101346000D03*
X119100438Y-85754301D03*
%TO.N,/CH376_MISO*%
X118364011Y-86536115D03*
X118364000Y-99441000D03*
%TO.N,/CH376_MOSI*%
X117594500Y-85598000D03*
X117729000Y-100457000D03*
%TO.N,/USBFDM*%
X91567000Y-102362000D03*
%TO.N,/USBFDP*%
X90678000Y-101092000D03*
%TO.N,/SHIFT_RS*%
X102870000Y-72136000D03*
X103124000Y-95758000D03*
%TO.N,/SHIFT_RW*%
X103759000Y-94869000D03*
X102870000Y-70739000D03*
%TO.N,/SHIFT_E*%
X104394000Y-95758000D03*
X102870000Y-69342000D03*
%TO.N,/SHIFT_D0*%
X110363000Y-92837000D03*
X108712000Y-71247000D03*
%TO.N,/SHIFT_D1*%
X111760000Y-92837000D03*
X109855000Y-70485000D03*
%TO.N,/SHIFT_D2*%
X110998000Y-69723000D03*
X113157000Y-92837000D03*
%TO.N,/SHIFT_D3*%
X112141000Y-68961000D03*
X114173000Y-94107000D03*
%TO.N,/SHIFT_D4*%
X114427000Y-69215000D03*
X114554000Y-90805000D03*
%TO.N,/SHIFT_D5*%
X115062000Y-89027000D03*
X115062000Y-70104000D03*
%TO.N,/SHIFT_D6*%
X116459000Y-70104000D03*
X115951000Y-89789000D03*
%TO.N,/SHIFT_D7*%
X116593500Y-90805000D03*
X117094000Y-69215000D03*
%TO.N,Net-(R22-Pad1)*%
X97917000Y-94742000D03*
X97917000Y-87503000D03*
%TD*%
D55*
%TO.N,Net-(D4-Pad1)*%
X93345000Y-88392000D02*
X94742000Y-86995000D01*
X75057000Y-86916500D02*
X76532500Y-88392000D01*
X76532500Y-88392000D02*
X93345000Y-88392000D01*
D56*
%TO.N,Net-(D5-Pad1)*%
X111633000Y-120673500D02*
X107721000Y-120673500D01*
X107721000Y-120673500D02*
X107696000Y-120698500D01*
D55*
%TO.N,/DISP_RS*%
X90777000Y-56192000D02*
X93442000Y-58857000D01*
X93442000Y-58857000D02*
X93442000Y-61451000D01*
%TO.N,/DISP_RW*%
X93317000Y-56192000D02*
X94092000Y-56967000D01*
X94092000Y-56967000D02*
X94092000Y-61451000D01*
%TO.N,/DISP_E*%
X94742000Y-57307000D02*
X94742000Y-61451000D01*
X95857000Y-56192000D02*
X94742000Y-57307000D01*
%TO.N,/DISP_D0*%
X102063150Y-58166000D02*
X103729000Y-59831850D01*
X100371000Y-58166000D02*
X102063150Y-58166000D01*
X103729000Y-59831850D02*
X103729000Y-61451000D01*
X98397000Y-56192000D02*
X100371000Y-58166000D01*
%TO.N,/DISP_D1*%
X104379000Y-59634000D02*
X104379000Y-61451000D01*
X100937000Y-56192000D02*
X104379000Y-59634000D01*
%TO.N,/DISP_D2*%
X103477000Y-56192000D02*
X105029000Y-57744000D01*
X105029000Y-57744000D02*
X105029000Y-61451000D01*
%TO.N,/DISP_D3*%
X106017000Y-56192000D02*
X105679000Y-56530000D01*
X105679000Y-56530000D02*
X105679000Y-61451000D01*
%TO.N,/DISP_D4*%
X110531000Y-58166000D02*
X112522000Y-58166000D01*
X112522000Y-58166000D02*
X114778000Y-60422000D01*
X108557000Y-56192000D02*
X110531000Y-58166000D01*
X114778000Y-60422000D02*
X114778000Y-61324000D01*
%TO.N,/DISP_D5*%
X111407522Y-56192000D02*
X115428000Y-60212478D01*
X115428000Y-60212478D02*
X115428000Y-61324000D01*
X111097000Y-56192000D02*
X111407522Y-56192000D01*
%TO.N,/DISP_D6*%
X116078000Y-58633000D02*
X116078000Y-61324000D01*
X113637000Y-56192000D02*
X116078000Y-58633000D01*
%TO.N,/DISP_D7*%
X116728000Y-56743000D02*
X116728000Y-61324000D01*
X116177000Y-56192000D02*
X116728000Y-56743000D01*
D56*
%TO.N,/~RAM_CS*%
X130462000Y-94234000D02*
X129787489Y-94908511D01*
X123698000Y-94644022D02*
X123698000Y-92456000D01*
X123962489Y-94908511D02*
X123698000Y-94644022D01*
X122257000Y-91015000D02*
X121256500Y-91015000D01*
X123698000Y-92456000D02*
X122257000Y-91015000D01*
X129787489Y-94908511D02*
X123962489Y-94908511D01*
%TO.N,/RAM_MISO*%
X123198480Y-94850930D02*
X123198480Y-92662908D01*
X123198480Y-92662908D02*
X122050092Y-91514520D01*
X120142000Y-90291639D02*
X120418639Y-90015000D01*
X120418159Y-91514520D02*
X120142000Y-91238361D01*
X131561511Y-93559489D02*
X131561511Y-94908511D01*
X123755580Y-95408030D02*
X123198480Y-94850930D01*
X131561511Y-94908511D02*
X131061991Y-95408031D01*
X120418639Y-90015000D02*
X121256500Y-90015000D01*
X130966022Y-92964000D02*
X131561511Y-93559489D01*
X130462000Y-92964000D02*
X130966022Y-92964000D01*
X120142000Y-91238361D02*
X120142000Y-90291639D01*
X131061991Y-95408031D02*
X123755580Y-95408030D01*
X122050092Y-91514520D02*
X120418159Y-91514520D01*
%TO.N,/RAM_MOSI*%
X121256500Y-89515000D02*
X122169856Y-89515000D01*
X122169856Y-89515000D02*
X123078856Y-90424000D01*
X123078856Y-90424000D02*
X125062000Y-90424000D01*
%TO.N,/RAM_SCK*%
X125062000Y-91694000D02*
X123642428Y-91694000D01*
X122463428Y-90515000D02*
X121256500Y-90515000D01*
X123642428Y-91694000D02*
X122463428Y-90515000D01*
%TO.N,/BOOT0*%
X116344000Y-84102500D02*
X116344000Y-87134000D01*
X116344000Y-87134000D02*
X116840000Y-87630000D01*
%TO.N,Net-(C11-Pad1)*%
X148336000Y-89408000D02*
X148336000Y-91511428D01*
X148336000Y-91511428D02*
X150331000Y-93506428D01*
X150331000Y-93506428D02*
X150331000Y-95631000D01*
X148717000Y-89027000D02*
X148336000Y-89408000D01*
D55*
X150331000Y-99102000D02*
X150331000Y-95631000D01*
D56*
X149773000Y-89027000D02*
X148717000Y-89027000D01*
D55*
X149865000Y-99568000D02*
X150331000Y-99102000D01*
%TO.N,Net-(C12-Pad2)*%
X155890000Y-99568000D02*
X155211000Y-98889000D01*
X155211000Y-98889000D02*
X155211000Y-95631000D01*
D56*
X153162000Y-95631000D02*
X155211000Y-95631000D01*
X149773000Y-90297000D02*
X149773000Y-92242000D01*
X149773000Y-92242000D02*
X153162000Y-95631000D01*
%TO.N,/USB2DM*%
X117344000Y-81411000D02*
X117344000Y-84102500D01*
X111478214Y-73814786D02*
X117348000Y-79684572D01*
X117348000Y-81407000D02*
X117344000Y-81411000D01*
X110696907Y-73033480D02*
X111478214Y-73814786D01*
X117348000Y-79684572D02*
X117348000Y-81407000D01*
X84594500Y-68723000D02*
X88904980Y-73033480D01*
X88904980Y-73033480D02*
X110696907Y-73033480D01*
%TO.N,/USB2DP*%
X110490000Y-73533000D02*
X116844000Y-79887000D01*
X116844000Y-79887000D02*
X116844000Y-84102500D01*
X87404500Y-73533000D02*
X110490000Y-73533000D01*
X84594500Y-70723000D02*
X87404500Y-73533000D01*
%TO.N,/BOOT1*%
X116883970Y-95631000D02*
X113157000Y-95631000D01*
X117844000Y-94670970D02*
X116883970Y-95631000D01*
X117844000Y-92427500D02*
X117844000Y-94670970D01*
%TO.N,/SW0*%
X111168639Y-85090000D02*
X112093639Y-86015000D01*
D55*
X122997011Y-110019511D02*
X111976489Y-110019511D01*
X125835000Y-117257000D02*
X125835000Y-112857500D01*
D56*
X112093639Y-86015000D02*
X112931500Y-86015000D01*
D55*
X125372500Y-112395000D02*
X122997011Y-110019511D01*
X125835000Y-112857500D02*
X125372500Y-112395000D01*
X111976489Y-110019511D02*
X111506000Y-110490000D01*
D56*
X109220000Y-85090000D02*
X111168639Y-85090000D01*
D55*
%TO.N,/SW1*%
X136457500Y-117257000D02*
X140613000Y-117257000D01*
X124823350Y-110998000D02*
X130198500Y-110998000D01*
D56*
X109971060Y-85852000D02*
X111224211Y-85852000D01*
X109901424Y-85921636D02*
X109971060Y-85852000D01*
X111887211Y-86515000D02*
X112931500Y-86515000D01*
D55*
X131595500Y-112395000D02*
X136457500Y-117257000D01*
X130198500Y-110998000D02*
X131595500Y-112395000D01*
X112014000Y-109220000D02*
X123045350Y-109220000D01*
X123045350Y-109220000D02*
X124823350Y-110998000D01*
D56*
X111224211Y-85852000D02*
X111887211Y-86515000D01*
D55*
%TO.N,/SW2*%
X151511000Y-114300000D02*
X151511000Y-112672500D01*
X151511000Y-112672500D02*
X151534500Y-112649000D01*
D56*
X115844000Y-81609572D02*
X115844000Y-84102500D01*
X104648000Y-79629000D02*
X113863428Y-79629000D01*
D55*
X125036200Y-110363000D02*
X123004200Y-108331000D01*
X155426000Y-117257000D02*
X154468000Y-117257000D01*
D56*
X113863428Y-79629000D02*
X115844000Y-81609572D01*
D55*
X154468000Y-117257000D02*
X151511000Y-114300000D01*
X151534500Y-112649000D02*
X149248500Y-110363000D01*
X149248500Y-110363000D02*
X125036200Y-110363000D01*
X123004200Y-108331000D02*
X109220000Y-108331000D01*
D56*
%TO.N,/SW3*%
X115344000Y-81816000D02*
X115344000Y-84102500D01*
D55*
X123252529Y-107731480D02*
X110652480Y-107731480D01*
X170158000Y-117257000D02*
X165540500Y-117257000D01*
D56*
X106045000Y-80137000D02*
X113665000Y-80137000D01*
D55*
X125284530Y-109763480D02*
X123252529Y-107731480D01*
X110652480Y-107731480D02*
X109601000Y-106680000D01*
X165540500Y-117257000D02*
X160932500Y-112649000D01*
X158046980Y-109763480D02*
X125284530Y-109763480D01*
D56*
X105664000Y-80518000D02*
X106045000Y-80137000D01*
D55*
X160932500Y-112649000D02*
X158046980Y-109763480D01*
D56*
X113665000Y-80137000D02*
X115344000Y-81816000D01*
%TO.N,/~RESET*%
X99762151Y-112268000D02*
X94718500Y-117311651D01*
X110617000Y-111760000D02*
X110109000Y-112268000D01*
D55*
X83925000Y-117257000D02*
X85563500Y-118895500D01*
X94718500Y-118895500D02*
X96520000Y-118895500D01*
X85563500Y-118895500D02*
X94718500Y-118895500D01*
D56*
X110109000Y-112268000D02*
X99762151Y-112268000D01*
X112931500Y-88515000D02*
X109605000Y-88515000D01*
X94718500Y-117311651D02*
X94718500Y-118895500D01*
X109605000Y-88515000D02*
X109220000Y-88900000D01*
%TO.N,Net-(J7-PadA5)*%
X159621000Y-63458500D02*
X159621000Y-59081000D01*
X159639000Y-63476500D02*
X159621000Y-63458500D01*
%TO.N,/LED*%
X117344000Y-92427500D02*
X117344000Y-94111000D01*
X117344000Y-94111000D02*
X116840000Y-94615000D01*
X111633000Y-118848500D02*
X111633000Y-116840000D01*
D57*
%TO.N,+5V*%
X142771500Y-99591500D02*
X143256000Y-100076000D01*
D56*
X91203000Y-61451000D02*
X92792000Y-61451000D01*
D57*
X143764000Y-101600000D02*
X143764000Y-103020500D01*
D55*
X85661000Y-81774000D02*
X86663000Y-80772000D01*
X162523000Y-69559000D02*
X162433000Y-69469000D01*
D56*
X110617000Y-63754000D02*
X113047000Y-61324000D01*
D55*
X160821000Y-59081000D02*
X160821000Y-60921000D01*
X84594500Y-66223000D02*
X86997500Y-63820000D01*
D57*
X142771500Y-98552000D02*
X142771500Y-99591500D01*
X84582000Y-81749000D02*
X84557000Y-81774000D01*
D55*
X155921000Y-59081000D02*
X155921000Y-60868000D01*
X162523000Y-74459000D02*
X162433000Y-74549000D01*
X135509000Y-66548000D02*
X134493000Y-66548000D01*
X134487500Y-67249000D02*
X134487500Y-65592500D01*
D56*
X104140000Y-63754000D02*
X107569000Y-63754000D01*
X103079000Y-62693000D02*
X104140000Y-63754000D01*
D57*
X84543000Y-81788000D02*
X84557000Y-81774000D01*
D55*
X86997500Y-63820000D02*
X90297000Y-63820000D01*
X84557000Y-81774000D02*
X85661000Y-81774000D01*
X134493000Y-66548000D02*
X134487500Y-66553500D01*
D56*
X113047000Y-61324000D02*
X114128000Y-61324000D01*
D55*
X92792000Y-59054850D02*
X92792000Y-61451000D01*
D56*
X103079000Y-61451000D02*
X103079000Y-62693000D01*
D55*
X91903150Y-58166000D02*
X92792000Y-59054850D01*
D56*
X90297000Y-62357000D02*
X91203000Y-61451000D01*
X107569000Y-63754000D02*
X110617000Y-63754000D01*
D55*
X85697000Y-56192000D02*
X87671000Y-58166000D01*
X160821000Y-60921000D02*
X160655000Y-61087000D01*
X164992000Y-74459000D02*
X162523000Y-74459000D01*
X164992000Y-69559000D02*
X162523000Y-69559000D01*
D56*
X90297000Y-63820000D02*
X90297000Y-62357000D01*
D55*
X129794000Y-65254500D02*
X129794000Y-63881000D01*
X134487500Y-65592500D02*
X134300000Y-65405000D01*
X87671000Y-58166000D02*
X91903150Y-58166000D01*
D57*
X84582000Y-80264000D02*
X84582000Y-81749000D01*
X143764000Y-103020500D02*
X143867500Y-103124000D01*
D55*
X155921000Y-60868000D02*
X155829000Y-60960000D01*
D57*
X82550000Y-81788000D02*
X84543000Y-81788000D01*
D55*
%TO.N,GND*%
X86741000Y-109286000D02*
X86741000Y-107950000D01*
D56*
X112014000Y-81346000D02*
X110429000Y-81346000D01*
D55*
X110219000Y-67327000D02*
X110617000Y-66929000D01*
D56*
X151323000Y-79248000D02*
X150114000Y-79248000D01*
X110429000Y-81346000D02*
X110363000Y-81280000D01*
X112925361Y-81346000D02*
X112014000Y-81346000D01*
D55*
X162536000Y-58166000D02*
X161621000Y-59081000D01*
X89243489Y-87540511D02*
X89535000Y-87249000D01*
X121285000Y-67564000D02*
X124488000Y-67564000D01*
D56*
X135575500Y-77851000D02*
X136022500Y-77404000D01*
X108204000Y-90998000D02*
X106746000Y-90998000D01*
D58*
X117759511Y-120732489D02*
X116735000Y-121757000D01*
D56*
X139827000Y-74803000D02*
X138684000Y-73660000D01*
X138712000Y-72804000D02*
X138712000Y-69723000D01*
X133350000Y-66355000D02*
X132400000Y-65405000D01*
X119344000Y-92427500D02*
X119344000Y-94513000D01*
D55*
X89613000Y-81959000D02*
X88514000Y-83058000D01*
D56*
X132903000Y-90424000D02*
X132969000Y-90490000D01*
D55*
X145234542Y-68703480D02*
X144535022Y-69403000D01*
X78207000Y-117881000D02*
X78207000Y-113702000D01*
X154940000Y-59262000D02*
X155121000Y-59081000D01*
D56*
X149733000Y-81367000D02*
X149773000Y-81407000D01*
D55*
X97470000Y-82870000D02*
X98298000Y-82042000D01*
D56*
X129794000Y-70508500D02*
X130786500Y-70508500D01*
D55*
X166243000Y-62841500D02*
X166243000Y-61214000D01*
D56*
X139827000Y-75565000D02*
X139827000Y-74803000D01*
X164992000Y-68759000D02*
X164992000Y-68604000D01*
D55*
X147066000Y-88199000D02*
X147066000Y-89408000D01*
X159639000Y-65301500D02*
X160758500Y-65301500D01*
D56*
X138660500Y-65659000D02*
X138712000Y-65710500D01*
D55*
X88988000Y-92202000D02*
X91313000Y-92202000D01*
X86741000Y-103182500D02*
X84594500Y-101036000D01*
X102489000Y-109286000D02*
X102489000Y-107950000D01*
X154940000Y-64770000D02*
X154940000Y-59262000D01*
X162691000Y-58166000D02*
X162536000Y-58166000D01*
D56*
X122094361Y-86015000D02*
X123341841Y-84767520D01*
X135771480Y-96932980D02*
X137390500Y-98552000D01*
D55*
X85723511Y-87540511D02*
X89243489Y-87540511D01*
D56*
X150114000Y-79248000D02*
X149860000Y-79502000D01*
D55*
X84557000Y-86374000D02*
X85723511Y-87540511D01*
D56*
X131064000Y-68580000D02*
X131445000Y-68199000D01*
D55*
X89613000Y-85217000D02*
X89613000Y-87171000D01*
D56*
X114844000Y-84102500D02*
X114844000Y-83264639D01*
X133350000Y-67564000D02*
X133350000Y-66355000D01*
D58*
X90297000Y-67056000D02*
X90297000Y-65720000D01*
D56*
X138712000Y-65710500D02*
X138712000Y-69723000D01*
D55*
X120650000Y-66929000D02*
X120379000Y-67200000D01*
D57*
X151765000Y-99568000D02*
X151765000Y-99314000D01*
D55*
X155471500Y-65301500D02*
X154940000Y-64770000D01*
D56*
X121256500Y-86015000D02*
X122094361Y-86015000D01*
X124335480Y-84767520D02*
X125410000Y-83693000D01*
D55*
X147636480Y-68703480D02*
X145234542Y-68703480D01*
X110617000Y-65654000D02*
X110617000Y-66929000D01*
D56*
X106746000Y-90998000D02*
X106680000Y-90932000D01*
D55*
X96774000Y-82870000D02*
X97470000Y-82870000D01*
D56*
X131064000Y-70231000D02*
X131064000Y-68580000D01*
X119954000Y-95123000D02*
X119954000Y-96078000D01*
X108204000Y-90998000D02*
X110187000Y-89015000D01*
D55*
X88988000Y-93472000D02*
X88988000Y-92202000D01*
D56*
X144023500Y-70110522D02*
X143141022Y-70993000D01*
D55*
X78207000Y-113702000D02*
X75657000Y-111152000D01*
D56*
X139982000Y-70993000D02*
X138712000Y-69723000D01*
X144023500Y-69403000D02*
X144023500Y-70110522D01*
D55*
X148336000Y-69403000D02*
X147636480Y-68703480D01*
D58*
X160033489Y-120732489D02*
X158667511Y-120732489D01*
D55*
X150899500Y-105386500D02*
X154305000Y-105386500D01*
X96692000Y-67327000D02*
X99551000Y-67327000D01*
X86741000Y-107950000D02*
X86741000Y-103182500D01*
D58*
X131513000Y-121757000D02*
X130488489Y-120732489D01*
D56*
X137878573Y-76454000D02*
X138938000Y-76454000D01*
X133474520Y-64330480D02*
X135577480Y-64330480D01*
D57*
X153990000Y-99568000D02*
X153990000Y-99253000D01*
D56*
X137390500Y-98552000D02*
X137390500Y-100052500D01*
X134211000Y-77851000D02*
X135575500Y-77851000D01*
D55*
X148336000Y-70866000D02*
X148336000Y-69403000D01*
X99949000Y-65593000D02*
X99949000Y-66929000D01*
D58*
X147350511Y-120732489D02*
X146326000Y-121757000D01*
X104140000Y-122189000D02*
X116303000Y-122189000D01*
D56*
X137856000Y-73660000D02*
X138712000Y-72804000D01*
X149733000Y-79629000D02*
X149733000Y-81367000D01*
X130462000Y-90424000D02*
X128778000Y-90424000D01*
D55*
X89613000Y-85217000D02*
X89613000Y-84157000D01*
X155876000Y-105386500D02*
X156464000Y-104798500D01*
D56*
X129794000Y-70508500D02*
X129794000Y-71374000D01*
D55*
X156210000Y-65301500D02*
X155471500Y-65301500D01*
X154305000Y-105386500D02*
X155876000Y-105386500D01*
X74825000Y-121757000D02*
X78207000Y-118375000D01*
D56*
X131445000Y-68199000D02*
X132212500Y-68199000D01*
D55*
X99551000Y-67327000D02*
X99949000Y-66929000D01*
D56*
X136928573Y-77404000D02*
X137878573Y-76454000D01*
X114844000Y-83264639D02*
X112925361Y-81346000D01*
D55*
X147652500Y-104963000D02*
X148076000Y-105386500D01*
X96774000Y-81214000D02*
X96840000Y-81214000D01*
X106979000Y-67327000D02*
X110219000Y-67327000D01*
D56*
X138938000Y-76454000D02*
X139827000Y-75565000D01*
X129794000Y-71374000D02*
X130175000Y-71755000D01*
D55*
X169037000Y-62841500D02*
X169037000Y-61341000D01*
X148076000Y-105386500D02*
X150899500Y-105386500D01*
D57*
X151765000Y-99314000D02*
X152908000Y-98171000D01*
D56*
X119954000Y-96078000D02*
X120523000Y-96647000D01*
D55*
X87190500Y-103632000D02*
X86741000Y-103182500D01*
D58*
X161058000Y-121757000D02*
X160033489Y-120732489D01*
D56*
X135577480Y-64330480D02*
X136525000Y-65278000D01*
D55*
X155121000Y-59081000D02*
X154966000Y-59081000D01*
X161621000Y-64439000D02*
X161290000Y-64770000D01*
D56*
X123341841Y-84767520D02*
X124335480Y-84767520D01*
X138684000Y-73660000D02*
X137856000Y-73660000D01*
D55*
X154966000Y-59081000D02*
X154051000Y-58166000D01*
D56*
X110187000Y-89015000D02*
X112931500Y-89015000D01*
X130786500Y-70508500D02*
X131064000Y-70231000D01*
D58*
X145301489Y-120732489D02*
X132537511Y-120732489D01*
D56*
X137390500Y-100052500D02*
X137414000Y-100076000D01*
D55*
X120650000Y-65527000D02*
X120650000Y-66929000D01*
X89613000Y-84157000D02*
X88514000Y-83058000D01*
D58*
X130488489Y-120732489D02*
X117759511Y-120732489D01*
D56*
X164992000Y-75259000D02*
X164992000Y-75414000D01*
D58*
X158667511Y-120732489D02*
X147350511Y-120732489D01*
D56*
X164992000Y-68604000D02*
X165907000Y-67689000D01*
D55*
X161621000Y-59081000D02*
X161621000Y-64439000D01*
X88988000Y-103632000D02*
X87190500Y-103632000D01*
D56*
X132212500Y-68199000D02*
X132715000Y-68199000D01*
X130462000Y-90424000D02*
X132903000Y-90424000D01*
D55*
X120650000Y-66929000D02*
X121285000Y-67564000D01*
D56*
X125410000Y-83693000D02*
X126746000Y-83693000D01*
D58*
X146326000Y-121757000D02*
X145301489Y-120732489D01*
D55*
X120379000Y-67200000D02*
X118028000Y-67200000D01*
D56*
X136022500Y-77404000D02*
X136928573Y-77404000D01*
D55*
X160758500Y-65301500D02*
X161290000Y-64770000D01*
X89613000Y-87171000D02*
X89535000Y-87249000D01*
D58*
X132537511Y-120732489D02*
X131513000Y-121757000D01*
D55*
X96840000Y-81214000D02*
X97470000Y-81214000D01*
D56*
X137160000Y-69723000D02*
X138712000Y-69723000D01*
X134716500Y-90490000D02*
X135771480Y-91544980D01*
D57*
X153990000Y-99253000D02*
X152908000Y-98171000D01*
D55*
X78207000Y-118375000D02*
X78207000Y-117881000D01*
X89613000Y-80772000D02*
X89613000Y-81959000D01*
D56*
X138660500Y-65659000D02*
X136906000Y-65659000D01*
X132715000Y-68199000D02*
X133350000Y-67564000D01*
D58*
X116303000Y-122189000D02*
X116735000Y-121757000D01*
D56*
X119344000Y-94513000D02*
X119954000Y-95123000D01*
X164992000Y-75414000D02*
X165907000Y-76329000D01*
X135771480Y-91544980D02*
X135771480Y-96932980D01*
D55*
X144535022Y-69403000D02*
X144023500Y-69403000D01*
D56*
X149860000Y-79502000D02*
X149733000Y-79629000D01*
X143141022Y-70993000D02*
X139982000Y-70993000D01*
D55*
X97470000Y-81214000D02*
X98298000Y-82042000D01*
D56*
X132400000Y-65405000D02*
X133474520Y-64330480D01*
X132969000Y-90490000D02*
X134716500Y-90490000D01*
X136906000Y-65659000D02*
X136525000Y-65278000D01*
%TO.N,+3V3*%
X121854000Y-95123000D02*
X121854000Y-95946000D01*
D55*
X86741000Y-97234022D02*
X86741000Y-94742000D01*
D56*
X123510000Y-83693000D02*
X122174000Y-83693000D01*
D57*
X76454000Y-84074000D02*
X78257000Y-84074000D01*
D55*
X95248978Y-94742000D02*
X88988000Y-94742000D01*
D56*
X125062000Y-94234000D02*
X126746000Y-94234000D01*
X108204000Y-92710000D02*
X111399000Y-89515000D01*
D55*
X85700000Y-85217000D02*
X84557000Y-84074000D01*
X88988000Y-99822000D02*
X88988000Y-98552000D01*
D56*
X106746000Y-92898000D02*
X106680000Y-92964000D01*
D55*
X88988000Y-96012000D02*
X88988000Y-94742000D01*
D57*
X157734000Y-112776000D02*
X158980500Y-112776000D01*
D56*
X115189000Y-64135000D02*
X116332000Y-64135000D01*
D57*
X147066000Y-86299000D02*
X147066000Y-85598000D01*
D55*
X88988000Y-94742000D02*
X86741000Y-94742000D01*
D57*
X149709500Y-112649000D02*
X148463000Y-112649000D01*
D56*
X154813000Y-81367000D02*
X154773000Y-81407000D01*
D55*
X96391978Y-93599000D02*
X95248978Y-94742000D01*
X100457000Y-117109000D02*
X104140000Y-117109000D01*
D56*
X149773000Y-85217000D02*
X147701000Y-85217000D01*
D55*
X135956000Y-71882000D02*
X135956000Y-73660000D01*
D56*
X125062000Y-94234000D02*
X125062000Y-92964000D01*
X111399000Y-89515000D02*
X112931500Y-89515000D01*
D55*
X96393000Y-93599000D02*
X96391978Y-93599000D01*
D56*
X121256500Y-85515000D02*
X121887933Y-85515000D01*
D57*
X148463000Y-112649000D02*
X148336000Y-112776000D01*
D56*
X108204000Y-92898000D02*
X106746000Y-92898000D01*
X126746000Y-94234000D02*
X127000000Y-93980000D01*
X123249999Y-84268001D02*
X123510000Y-84008000D01*
X123134932Y-84268001D02*
X123249999Y-84268001D01*
D57*
X128397000Y-112395000D02*
X128270000Y-112522000D01*
D55*
X88988000Y-98552000D02*
X88058978Y-98552000D01*
D56*
X153543000Y-81407000D02*
X153035000Y-81915000D01*
D55*
X105981500Y-117109000D02*
X107696000Y-118823500D01*
D56*
X114128000Y-67200000D02*
X114128000Y-65196000D01*
X153035000Y-81915000D02*
X153035000Y-86487000D01*
D57*
X77241000Y-83058000D02*
X78257000Y-84074000D01*
X147066000Y-85598000D02*
X147574000Y-85090000D01*
D55*
X148336000Y-67503000D02*
X148336000Y-66167000D01*
D56*
X99504500Y-61912500D02*
X99949000Y-62357000D01*
X118028000Y-61324000D02*
X118028000Y-63582000D01*
D57*
X78257000Y-84074000D02*
X84557000Y-84074000D01*
X123547500Y-112395000D02*
X122301000Y-112395000D01*
D56*
X154813000Y-80010000D02*
X154813000Y-81367000D01*
X119844000Y-93113000D02*
X121854000Y-95123000D01*
D55*
X96520000Y-117070500D02*
X100418500Y-117070500D01*
D56*
X100010000Y-63754000D02*
X99949000Y-63693000D01*
X96012000Y-64643000D02*
X93853000Y-64643000D01*
D57*
X76454000Y-83058000D02*
X77241000Y-83058000D01*
X129770500Y-112395000D02*
X128397000Y-112395000D01*
D56*
X103079000Y-67327000D02*
X103079000Y-64852000D01*
X96692000Y-61451000D02*
X99043000Y-61451000D01*
X96692000Y-61451000D02*
X96692000Y-63963000D01*
X96692000Y-63963000D02*
X96012000Y-64643000D01*
D55*
X104140000Y-117109000D02*
X105981500Y-117109000D01*
D57*
X132969000Y-93599000D02*
X133096000Y-93726000D01*
D55*
X86614000Y-83058000D02*
X85573000Y-83058000D01*
X86663000Y-85901000D02*
X86663000Y-85217000D01*
D56*
X149773000Y-85217000D02*
X151257000Y-85217000D01*
X120650000Y-62230000D02*
X120650000Y-63627000D01*
X135956000Y-73660000D02*
X137800000Y-75504000D01*
X154051000Y-79248000D02*
X154495500Y-79692500D01*
D55*
X85573000Y-83058000D02*
X84557000Y-84074000D01*
X96393000Y-93599000D02*
X99060000Y-90932000D01*
D56*
X114128000Y-65196000D02*
X115189000Y-64135000D01*
D57*
X158980500Y-112776000D02*
X159107500Y-112649000D01*
D56*
X99949000Y-62357000D02*
X99949000Y-63693000D01*
X118028000Y-63582000D02*
X117475000Y-64135000D01*
X151257000Y-85217000D02*
X152527000Y-86487000D01*
X153035000Y-86487000D02*
X154773000Y-86487000D01*
D55*
X99060000Y-90932000D02*
X99988000Y-90932000D01*
X86663000Y-85217000D02*
X85700000Y-85217000D01*
D56*
X119744000Y-61324000D02*
X120205500Y-61785500D01*
D57*
X122301000Y-112395000D02*
X122174000Y-112522000D01*
D55*
X106979000Y-61451000D02*
X106979000Y-59772000D01*
D56*
X121854000Y-95946000D02*
X122428000Y-96520000D01*
X152527000Y-86487000D02*
X153035000Y-86487000D01*
X99043000Y-61451000D02*
X99504500Y-61912500D01*
X137800000Y-75504000D02*
X138297500Y-75504000D01*
X120205500Y-61785500D02*
X120650000Y-62230000D01*
D55*
X99988000Y-90932000D02*
X99988000Y-90258000D01*
D56*
X123510000Y-84008000D02*
X123510000Y-83693000D01*
X121887933Y-85515000D02*
X123134932Y-84268001D01*
X118028000Y-61324000D02*
X119744000Y-61324000D01*
D55*
X87503000Y-86741000D02*
X86663000Y-85901000D01*
D56*
X103079000Y-64852000D02*
X101981000Y-63754000D01*
D55*
X88058978Y-98552000D02*
X86741000Y-97234022D01*
D56*
X101981000Y-63754000D02*
X100010000Y-63754000D01*
X108204000Y-92898000D02*
X108204000Y-92710000D01*
D55*
X75057000Y-85041500D02*
X77289500Y-85041500D01*
D56*
X153223000Y-79248000D02*
X154051000Y-79248000D01*
X116332000Y-64135000D02*
X117475000Y-64135000D01*
X154773000Y-81407000D02*
X153543000Y-81407000D01*
D55*
X99988000Y-90258000D02*
X99988000Y-89662000D01*
D56*
X154495500Y-79692500D02*
X154813000Y-80010000D01*
D55*
X100418500Y-117070500D02*
X100457000Y-117109000D01*
D56*
X92792000Y-67327000D02*
X92792000Y-65704000D01*
D57*
X132969000Y-92390000D02*
X132969000Y-93599000D01*
D56*
X154773000Y-87757000D02*
X154773000Y-86487000D01*
X112870500Y-84102500D02*
X112014000Y-83246000D01*
X112014000Y-83246000D02*
X110429000Y-83246000D01*
D55*
X146298500Y-67503000D02*
X148336000Y-67503000D01*
D56*
X92792000Y-65704000D02*
X93853000Y-64643000D01*
D55*
X106979000Y-59772000D02*
X107061000Y-59690000D01*
X77289500Y-85041500D02*
X78257000Y-84074000D01*
D56*
X147701000Y-85217000D02*
X147574000Y-85090000D01*
X114344000Y-84102500D02*
X112870500Y-84102500D01*
X119844000Y-92427500D02*
X119844000Y-93113000D01*
X110429000Y-83246000D02*
X110363000Y-83312000D01*
D55*
%TO.N,Net-(C4-Pad1)*%
X97052000Y-79592000D02*
X100838000Y-79592000D01*
D56*
X102325000Y-79592000D02*
X110248000Y-87515000D01*
D55*
X96774000Y-79314000D02*
X97052000Y-79592000D01*
D56*
X100838000Y-79592000D02*
X102325000Y-79592000D01*
X110248000Y-87515000D02*
X112931500Y-87515000D01*
D55*
%TO.N,Net-(C5-Pad1)*%
X96774000Y-84770000D02*
X97072000Y-84472000D01*
D56*
X100838000Y-84472000D02*
X106498572Y-84472000D01*
X106498572Y-84472000D02*
X110041572Y-88015000D01*
D55*
X97072000Y-84472000D02*
X100838000Y-84472000D01*
D56*
X110041572Y-88015000D02*
X112931500Y-88015000D01*
%TO.N,Net-(C7-Pad2)*%
X132080000Y-77851000D02*
X130711000Y-77851000D01*
X132334000Y-77528978D02*
X132334000Y-77597000D01*
X133408978Y-76454000D02*
X132334000Y-77528978D01*
X129208000Y-74295000D02*
X130711000Y-75798000D01*
X130711000Y-75798000D02*
X130711000Y-77851000D01*
X132334000Y-77597000D02*
X132080000Y-77851000D01*
X136022500Y-76454000D02*
X133408978Y-76454000D01*
%TO.N,Net-(C8-Pad2)*%
X145161000Y-67734427D02*
X145161000Y-65610000D01*
X142212000Y-69723000D02*
X143482000Y-68453000D01*
X144442427Y-68453000D02*
X145161000Y-67734427D01*
X143482000Y-68453000D02*
X144023500Y-68453000D01*
X145161000Y-65610000D02*
X145366000Y-65405000D01*
X144023500Y-68453000D02*
X144442427Y-68453000D01*
%TO.N,Net-(Q1-Pad1)*%
X143510000Y-91567000D02*
X142367000Y-90424000D01*
X143510000Y-93865500D02*
X143510000Y-91567000D01*
X142367000Y-90424000D02*
X140993500Y-90424000D01*
X142809000Y-94566500D02*
X143510000Y-93865500D01*
%TO.N,Net-(Q2-Pad1)*%
X139253000Y-92540500D02*
X139168500Y-92456000D01*
X139253000Y-94566500D02*
X139253000Y-92540500D01*
%TO.N,Net-(C6-Pad1)*%
X128166500Y-65405000D02*
X128166500Y-67385500D01*
X128094000Y-67670000D02*
X127988000Y-67564000D01*
X128166500Y-67385500D02*
X127988000Y-67564000D01*
X128094000Y-69850000D02*
X128094000Y-67670000D01*
%TO.N,Net-(C6-Pad2)*%
X125603000Y-72009000D02*
X125222000Y-71628000D01*
X126341500Y-72009000D02*
X125603000Y-72009000D01*
X125222000Y-71628000D02*
X125222000Y-69928000D01*
X125222000Y-69928000D02*
X125144000Y-69850000D01*
%TO.N,Net-(C7-Pad1)*%
X134112000Y-74699500D02*
X132562500Y-74699500D01*
X132562500Y-74699500D02*
X132158000Y-74295000D01*
%TO.N,Net-(C8-Pad1)*%
X142390500Y-65430500D02*
X142416000Y-65405000D01*
X142390500Y-67691000D02*
X142390500Y-65430500D01*
%TO.N,Net-(C9-Pad1)*%
X145692500Y-102973500D02*
X146558000Y-102108000D01*
D55*
X149527500Y-104013000D02*
X150925000Y-104013000D01*
D56*
X149479000Y-103964500D02*
X149527500Y-104013000D01*
X148844000Y-102108000D02*
X149479000Y-102743000D01*
X146558000Y-102108000D02*
X148844000Y-102108000D01*
X145692500Y-103124000D02*
X145692500Y-102973500D01*
D55*
X150925000Y-104013000D02*
X151560000Y-103378000D01*
D56*
X149479000Y-102743000D02*
X149479000Y-103964500D01*
D55*
%TO.N,Net-(C9-Pad2)*%
X157884500Y-102973500D02*
X159674480Y-101183520D01*
X159674480Y-101183520D02*
X159674480Y-98020670D01*
X156059500Y-103378000D02*
X156464000Y-102973500D01*
X159674480Y-98020670D02*
X160274000Y-97421150D01*
X160274000Y-82169000D02*
X161643000Y-80800000D01*
X156464000Y-102973500D02*
X157884500Y-102973500D01*
X161643000Y-80800000D02*
X163700000Y-80800000D01*
X160274000Y-97421150D02*
X160274000Y-82169000D01*
X154510000Y-103378000D02*
X156059500Y-103378000D01*
%TO.N,Net-(C10-Pad1)*%
X147851500Y-107188000D02*
X147724500Y-107315000D01*
X149401000Y-107188000D02*
X147851500Y-107188000D01*
%TO.N,Net-(C10-Pad2)*%
X161417000Y-97282000D02*
X161417000Y-95377000D01*
X156313500Y-107211500D02*
X157563520Y-105961480D01*
X161417000Y-95377000D02*
X161994000Y-94800000D01*
X154305000Y-107211500D02*
X156313500Y-107211500D01*
X154281500Y-107188000D02*
X154305000Y-107211500D01*
X161994000Y-94800000D02*
X163700000Y-94800000D01*
X157563520Y-104142330D02*
X160274000Y-101431850D01*
X160274000Y-98425000D02*
X161417000Y-97282000D01*
X160274000Y-101431850D02*
X160274000Y-98425000D01*
X157563520Y-105961480D02*
X157563520Y-104142330D01*
X152351000Y-107188000D02*
X154281500Y-107188000D01*
D56*
%TO.N,/MIC_IN*%
X126200000Y-65263500D02*
X126200000Y-60300000D01*
X126341500Y-65405000D02*
X126200000Y-65263500D01*
%TO.N,/LINE_IN*%
X140565500Y-67691000D02*
X140565500Y-65739000D01*
X140565500Y-65739000D02*
X140485500Y-65659000D01*
X140485500Y-65659000D02*
X140000000Y-65173500D01*
X140000000Y-65173500D02*
X140000000Y-60300000D01*
%TO.N,/SHAPED_B*%
X140993500Y-92456000D02*
X142494000Y-92456000D01*
X140993500Y-94482000D02*
X140909000Y-94566500D01*
X146298500Y-69728500D02*
X145034000Y-70993000D01*
X146298500Y-69403000D02*
X146298500Y-69728500D01*
X140993500Y-92456000D02*
X140993500Y-94482000D01*
%TO.N,/TAPE_IN*%
X121256500Y-89015000D02*
X133947927Y-89015000D01*
X140946500Y-97354000D02*
X141859000Y-96441500D01*
X137160000Y-96393000D02*
X138254500Y-96393000D01*
X133947927Y-89015000D02*
X136271000Y-91338073D01*
X139215500Y-97354000D02*
X138303000Y-96441500D01*
X141859000Y-96441500D02*
X138303000Y-96441500D01*
X136271000Y-91338073D02*
X136271000Y-95504000D01*
X140946500Y-98552000D02*
X140946500Y-97354000D01*
X138254500Y-96393000D02*
X138303000Y-96441500D01*
X139215500Y-98552000D02*
X139215500Y-97354000D01*
X136271000Y-95504000D02*
X137160000Y-96393000D01*
%TO.N,/SHAPED_A*%
X137353000Y-94566500D02*
X137353000Y-92239500D01*
X137353000Y-92239500D02*
X139168500Y-90424000D01*
X139168500Y-90424000D02*
X137922000Y-90424000D01*
X137922000Y-90424000D02*
X137795000Y-90297000D01*
X138297500Y-78491500D02*
X137795000Y-78994000D01*
X138297500Y-77404000D02*
X138297500Y-78491500D01*
D55*
%TO.N,Net-(Q3-Pad1)*%
X145692500Y-105283000D02*
X145692500Y-105023000D01*
X145692500Y-105023000D02*
X147652500Y-103063000D01*
D56*
%TO.N,/USB1DP*%
X154860091Y-74938481D02*
X148891091Y-74938481D01*
X157621000Y-59081000D02*
X157621000Y-58152000D01*
X157621000Y-58152000D02*
X157861000Y-57912000D01*
X157621000Y-72177572D02*
X154860091Y-74938481D01*
X141386572Y-87015000D02*
X121256500Y-87015000D01*
X157621000Y-59081000D02*
X157621000Y-72177572D01*
X145550480Y-82851092D02*
X141386572Y-87015000D01*
X145550480Y-78279093D02*
X145550480Y-82851092D01*
X158621000Y-59081000D02*
X158621000Y-58164000D01*
X158369000Y-57912000D02*
X157861000Y-57912000D01*
X148891091Y-74938481D02*
X145550480Y-78279093D01*
X158621000Y-58164000D02*
X158369000Y-57912000D01*
D58*
%TO.N,/USB1DM*%
X159121000Y-59081000D02*
X159121000Y-60208000D01*
D56*
X158121000Y-60446000D02*
X158121000Y-72384000D01*
X149098000Y-75438000D02*
X146050000Y-78486000D01*
X158121000Y-72384000D02*
X155067000Y-75438000D01*
D58*
X158127000Y-60452000D02*
X158121000Y-60446000D01*
D56*
X146050000Y-78486000D02*
X146050000Y-83058000D01*
X141593000Y-87515000D02*
X121256500Y-87515000D01*
X146050000Y-83058000D02*
X141593000Y-87515000D01*
X158121000Y-59081000D02*
X158121000Y-60446000D01*
X155067000Y-75438000D02*
X149098000Y-75438000D01*
D58*
X158877000Y-60452000D02*
X158127000Y-60452000D01*
X159121000Y-60208000D02*
X158877000Y-60452000D01*
D56*
%TO.N,/MIC_AMP*%
X134262500Y-69374000D02*
X134487500Y-69149000D01*
X134112000Y-72874500D02*
X134112000Y-71143500D01*
X134262500Y-70993000D02*
X134262500Y-69374000D01*
X134112000Y-71143500D02*
X134262500Y-70993000D01*
%TO.N,Net-(J7-PadB5)*%
X156210000Y-63476500D02*
X156621000Y-63065500D01*
X156621000Y-63065500D02*
X156621000Y-59081000D01*
%TO.N,Net-(J8-PadA5)*%
X164992000Y-73259000D02*
X166390000Y-73259000D01*
X166390000Y-73259000D02*
X168275000Y-71374000D01*
X168275000Y-65428500D02*
X169037000Y-64666500D01*
X168275000Y-71374000D02*
X168275000Y-65428500D01*
D55*
%TO.N,Net-(R5-Pad2)*%
X132212500Y-67249000D02*
X129963500Y-67249000D01*
X129963500Y-67249000D02*
X129794000Y-67079500D01*
D56*
X129794000Y-68683500D02*
X129794000Y-67079500D01*
%TO.N,Net-(R6-Pad2)*%
X132437500Y-69374000D02*
X132212500Y-69149000D01*
X128166500Y-72009000D02*
X128674500Y-72517000D01*
X130913500Y-72517000D02*
X132437500Y-70993000D01*
X132437500Y-70993000D02*
X132437500Y-69374000D01*
X128674500Y-72517000D02*
X130913500Y-72517000D01*
%TO.N,/USBSDP*%
X149773000Y-86487000D02*
X150876000Y-86487000D01*
X163576000Y-71501000D02*
X163576000Y-72255000D01*
X163572000Y-72259000D02*
X164992000Y-72259000D01*
X152010519Y-91947999D02*
X158170573Y-91947999D01*
X163576000Y-72255000D02*
X163572000Y-72259000D01*
X150876000Y-86487000D02*
X151638000Y-87249000D01*
X151638000Y-91575480D02*
X152010519Y-91947999D01*
X158170573Y-91947999D02*
X158758480Y-91360092D01*
X151638000Y-87249000D02*
X151638000Y-91575480D01*
X158758480Y-91360092D02*
X158758480Y-75485093D01*
X161984573Y-72259000D02*
X163572000Y-72259000D01*
X158758480Y-75485093D02*
X161984573Y-72259000D01*
X163818000Y-71259000D02*
X163576000Y-71501000D01*
X164992000Y-71259000D02*
X163818000Y-71259000D01*
%TO.N,/USBSDM*%
X164992000Y-72759000D02*
X166066022Y-72759000D01*
X166243000Y-71935978D02*
X166066022Y-71759000D01*
X159258000Y-91567000D02*
X159258000Y-75692000D01*
X164992000Y-72759000D02*
X162191000Y-72759000D01*
X150772999Y-87757000D02*
X151130001Y-88114002D01*
X159258000Y-75692000D02*
X162191000Y-72759000D01*
X151130001Y-91773909D02*
X151803611Y-92447519D01*
X151803611Y-92447519D02*
X158377481Y-92447519D01*
X166066022Y-72759000D02*
X166243000Y-72582022D01*
X166066022Y-71759000D02*
X164992000Y-71759000D01*
X149773000Y-87757000D02*
X150772999Y-87757000D01*
X166243000Y-72582022D02*
X166243000Y-71935978D01*
X158377481Y-92447519D02*
X159258000Y-91567000D01*
X151130001Y-88114002D02*
X151130001Y-91773909D01*
%TO.N,Net-(J8-PadB5)*%
X167306520Y-65730020D02*
X166243000Y-64666500D01*
X164992000Y-70259000D02*
X166434766Y-70259000D01*
X167306520Y-69387246D02*
X167306520Y-65730020D01*
X166434766Y-70259000D02*
X167306520Y-69387246D01*
%TO.N,/TAPE_OUT*%
X110891000Y-87015000D02*
X110617000Y-86741000D01*
X112931500Y-87015000D02*
X110891000Y-87015000D01*
D55*
X145899500Y-107315000D02*
X144780000Y-107315000D01*
X144780000Y-107315000D02*
X143891000Y-106426000D01*
X143891000Y-106426000D02*
X143891000Y-105306500D01*
X143891000Y-105306500D02*
X143867500Y-105283000D01*
X112410286Y-102870000D02*
X114823286Y-105283000D01*
X114823286Y-105283000D02*
X143867500Y-105283000D01*
D56*
%TO.N,/CH_RXD*%
X142282610Y-88515000D02*
X121256500Y-88515000D01*
X142696909Y-88514519D02*
X142283091Y-88514519D01*
X147264428Y-83947000D02*
X142696909Y-88514519D01*
X142283091Y-88514519D02*
X142282610Y-88515000D01*
X149773000Y-83947000D02*
X147264428Y-83947000D01*
%TO.N,/CH_TXD*%
X121256500Y-88015000D02*
X142490000Y-88015000D01*
X147828000Y-82677000D02*
X149773000Y-82677000D01*
X142490000Y-88015000D02*
X147828000Y-82677000D01*
%TO.N,Net-(U7-Pad14)*%
X155956000Y-90297000D02*
X156963520Y-89289480D01*
X154773000Y-90297000D02*
X155956000Y-90297000D01*
X156963520Y-89289480D02*
X156963520Y-84446520D01*
X156464000Y-83947000D02*
X154773000Y-83947000D01*
X156963520Y-84446520D02*
X156464000Y-83947000D01*
%TO.N,Net-(U7-Pad10)*%
X156464000Y-88646000D02*
X156464000Y-85471000D01*
X156464000Y-85471000D02*
X156210000Y-85217000D01*
X156210000Y-85217000D02*
X154773000Y-85217000D01*
X154773000Y-89027000D02*
X156083000Y-89027000D01*
X156083000Y-89027000D02*
X156464000Y-88646000D01*
%TO.N,/CH376_INT*%
X116156451Y-99316561D02*
X104264439Y-99316561D01*
X98331580Y-88512970D02*
X97182550Y-89662000D01*
X101644419Y-88512970D02*
X98331580Y-88512970D01*
X97182550Y-89662000D02*
X88988000Y-89662000D01*
X121256500Y-86515000D02*
X122781000Y-86515000D01*
X122781000Y-86515000D02*
X123190000Y-86106000D01*
X124580356Y-97929489D02*
X117543523Y-97929489D01*
X104264439Y-99316561D02*
X102235000Y-97287122D01*
X102235000Y-89103551D02*
X101644419Y-88512970D01*
X102235000Y-97287122D02*
X102235000Y-89103551D01*
X117543523Y-97929489D02*
X116156451Y-99316561D01*
X124973845Y-97536000D02*
X124580356Y-97929489D01*
%TO.N,/CH376_RST*%
X101437511Y-89012489D02*
X98538489Y-89012489D01*
X89817022Y-90932000D02*
X88988000Y-90932000D01*
X124205989Y-98679000D02*
X117500440Y-98679000D01*
X116332000Y-99847440D02*
X104088890Y-99847440D01*
X117500440Y-98679000D02*
X116332000Y-99847440D01*
X124206000Y-98678989D02*
X124205989Y-98679000D01*
X101727000Y-89301978D02*
X101437511Y-89012489D01*
X90587502Y-90161520D02*
X89817022Y-90932000D01*
X119844000Y-84102500D02*
X119844000Y-82467000D01*
X98538489Y-89012489D02*
X97389457Y-90161520D01*
X104088890Y-99847440D02*
X101727000Y-97485550D01*
X101727000Y-97485550D02*
X101727000Y-89301978D01*
X119844000Y-82467000D02*
X119888000Y-82423000D01*
X97389457Y-90161520D02*
X90587502Y-90161520D01*
%TO.N,/CH376_CS*%
X118828030Y-102362000D02*
X119888000Y-102362000D01*
X119344000Y-84940361D02*
X119593159Y-85189520D01*
X119344000Y-84102500D02*
X119344000Y-84940361D01*
X103513480Y-101845520D02*
X118311550Y-101845520D01*
X118311550Y-101845520D02*
X118828030Y-102362000D01*
X102997000Y-102362000D02*
X103513480Y-101845520D01*
X119888000Y-85189520D02*
X119888000Y-87376000D01*
X119593159Y-85189520D02*
X119888000Y-85189520D01*
X99988000Y-102362000D02*
X102997000Y-102362000D01*
%TO.N,/CH376_SCK*%
X101944166Y-99822000D02*
X103468166Y-101346000D01*
X119100438Y-85754301D02*
X118844000Y-85497863D01*
X99988000Y-99822000D02*
X101944166Y-99822000D01*
X118844000Y-85497863D02*
X118844000Y-84102500D01*
X103468166Y-101346000D02*
X118872000Y-101346000D01*
%TO.N,/CH376_MISO*%
X118364011Y-86536115D02*
X118344000Y-86516104D01*
X117685030Y-99441000D02*
X118364000Y-99441000D01*
X116779070Y-100346960D02*
X117685030Y-99441000D01*
X103881982Y-100346960D02*
X116779070Y-100346960D01*
X100817022Y-97282000D02*
X103881982Y-100346960D01*
X118344000Y-86516104D02*
X118344000Y-84102500D01*
X99988000Y-97282000D02*
X100817022Y-97282000D01*
%TO.N,/CH376_MOSI*%
X117339520Y-100846480D02*
X117729000Y-100457000D01*
X99988000Y-98552000D02*
X101380594Y-98552000D01*
X101380594Y-98552000D02*
X103675075Y-100846480D01*
X117594500Y-85598000D02*
X117844000Y-85348500D01*
X103675075Y-100846480D02*
X117339520Y-100846480D01*
X117844000Y-85348500D02*
X117844000Y-84102500D01*
D55*
%TO.N,/USBFDM*%
X91567000Y-102362000D02*
X88988000Y-102362000D01*
%TO.N,/USBFDP*%
X90678000Y-101092000D02*
X88988000Y-101092000D01*
D56*
%TO.N,/SHIFT_RS*%
X118844000Y-95083825D02*
X118844000Y-92427500D01*
X101972520Y-71238520D02*
X102870000Y-72136000D01*
X104267000Y-96901000D02*
X117026825Y-96901000D01*
X93442000Y-67327000D02*
X93442000Y-68451377D01*
X103124000Y-95758000D02*
X104267000Y-96901000D01*
X117026825Y-96901000D02*
X118844000Y-95083825D01*
X93442000Y-68451377D02*
X96229143Y-71238520D01*
X96229143Y-71238520D02*
X101972520Y-71238520D01*
%TO.N,/SHIFT_RW*%
X94092000Y-68394950D02*
X96436050Y-70739000D01*
X116844000Y-93523572D02*
X116844000Y-92427500D01*
X96436050Y-70739000D02*
X102870000Y-70739000D01*
X103759000Y-94869000D02*
X115498572Y-94869000D01*
X115498572Y-94869000D02*
X116844000Y-93523572D01*
X94092000Y-67327000D02*
X94092000Y-68394950D01*
%TO.N,/SHIFT_E*%
X96642958Y-70239480D02*
X101972520Y-70239480D01*
X101972520Y-70239480D02*
X102870000Y-69342000D01*
X116819917Y-96401480D02*
X118344000Y-94877397D01*
X118344000Y-94877397D02*
X118344000Y-92427500D01*
X94742000Y-67327000D02*
X94742000Y-68338522D01*
X94742000Y-68338522D02*
X96642958Y-70239480D01*
X104394000Y-95758000D02*
X105037480Y-96401480D01*
X105037480Y-96401480D02*
X116819917Y-96401480D01*
%TO.N,/SHIFT_D0*%
X103729000Y-67327000D02*
X103729000Y-68533782D01*
X110363000Y-91440000D02*
X110363000Y-92837000D01*
X111788000Y-90015000D02*
X110998000Y-90805000D01*
X112931500Y-90015000D02*
X111788000Y-90015000D01*
X103729000Y-68533782D02*
X105917259Y-70722040D01*
X110998000Y-90805000D02*
X110363000Y-91440000D01*
X105917259Y-70722040D02*
X108187040Y-70722040D01*
X108187040Y-70722040D02*
X108712000Y-71247000D01*
%TO.N,/SHIFT_D1*%
X112931500Y-90515000D02*
X112093639Y-90515000D01*
X111760000Y-90848639D02*
X111760000Y-92837000D01*
X112093639Y-90515000D02*
X111760000Y-90848639D01*
X109592520Y-70222520D02*
X109855000Y-70485000D01*
X104379000Y-67327000D02*
X104379000Y-68477355D01*
X106124166Y-70222520D02*
X109592520Y-70222520D01*
X104379000Y-68477355D02*
X106124166Y-70222520D01*
%TO.N,/SHIFT_D2*%
X106331073Y-69723000D02*
X110998000Y-69723000D01*
X105029000Y-68420927D02*
X106331073Y-69723000D01*
X112931500Y-92611500D02*
X113157000Y-92837000D01*
X105029000Y-67327000D02*
X105029000Y-68420927D01*
X112931500Y-91015000D02*
X112931500Y-92611500D01*
%TO.N,/SHIFT_D3*%
X110437550Y-69223480D02*
X110700030Y-68961000D01*
X106537980Y-69223480D02*
X110437550Y-69223480D01*
X110700030Y-68961000D02*
X112141000Y-68961000D01*
X114344000Y-93936000D02*
X114173000Y-94107000D01*
X114344000Y-92427500D02*
X114344000Y-93936000D01*
X105679000Y-68364500D02*
X106537980Y-69223480D01*
X105679000Y-67327000D02*
X105679000Y-68364500D01*
%TO.N,/SHIFT_D4*%
X114844000Y-91095000D02*
X114554000Y-90805000D01*
X114778000Y-67200000D02*
X114778000Y-68864000D01*
X114778000Y-68864000D02*
X114427000Y-69215000D01*
X114844000Y-92427500D02*
X114844000Y-91095000D01*
%TO.N,/SHIFT_D5*%
X115344000Y-90241970D02*
X115062000Y-89959970D01*
X115428000Y-69738000D02*
X115062000Y-70104000D01*
X115062000Y-89959970D02*
X115062000Y-89027000D01*
X115428000Y-67200000D02*
X115428000Y-69738000D01*
X115344000Y-92427500D02*
X115344000Y-90241970D01*
%TO.N,/SHIFT_D6*%
X115844000Y-89896000D02*
X115951000Y-89789000D01*
X115844000Y-92427500D02*
X115844000Y-89896000D01*
X116078000Y-69723000D02*
X116459000Y-70104000D01*
X116078000Y-67200000D02*
X116078000Y-69723000D01*
%TO.N,/SHIFT_D7*%
X116728000Y-68849000D02*
X117094000Y-69215000D01*
X116344000Y-91054500D02*
X116593500Y-90805000D01*
X116344000Y-92427500D02*
X116344000Y-91054500D01*
X116728000Y-67200000D02*
X116728000Y-68849000D01*
D58*
%TO.N,Net-(C14-Pad1)*%
X91350000Y-104902000D02*
X97065000Y-110617000D01*
D55*
X97634000Y-111186000D02*
X97065000Y-110617000D01*
D58*
X88988000Y-104902000D02*
X91350000Y-104902000D01*
D55*
X102489000Y-111186000D02*
X97634000Y-111186000D01*
D58*
%TO.N,Net-(C15-Pad2)*%
X92202000Y-107823000D02*
X92185000Y-107840000D01*
X88988000Y-106172000D02*
X90551000Y-106172000D01*
D55*
X91616000Y-111186000D02*
X92185000Y-110617000D01*
D58*
X92185000Y-107840000D02*
X92185000Y-110617000D01*
X90551000Y-106172000D02*
X92202000Y-107823000D01*
D55*
X86741000Y-111186000D02*
X91616000Y-111186000D01*
%TO.N,Net-(R22-Pad1)*%
X99988000Y-94742000D02*
X97917000Y-94742000D01*
X97409000Y-86995000D02*
X97917000Y-87503000D01*
X96567000Y-86995000D02*
X97409000Y-86995000D01*
%TD*%
M02*
