%TF.GenerationSoftware,KiCad,Pcbnew,(6.0.5)*%
%TF.CreationDate,2023-10-27T13:21:37+02:00*%
%TF.ProjectId,Tape_Emulator,54617065-5f45-46d7-956c-61746f722e6b,rev?*%
%TF.SameCoordinates,Original*%
%TF.FileFunction,Soldermask,Bot*%
%TF.FilePolarity,Negative*%
%FSLAX46Y46*%
G04 Gerber Fmt 4.6, Leading zero omitted, Abs format (unit mm)*
G04 Created by KiCad (PCBNEW (6.0.5)) date 2023-10-27 13:21:37*
%MOMM*%
%LPD*%
G01*
G04 APERTURE LIST*
%ADD10R,1.700000X1.700000*%
%ADD11O,1.700000X1.700000*%
%ADD12R,1.560000X1.560000*%
%ADD13C,1.560000*%
%ADD14C,1.500000*%
%ADD15R,1.524000X1.524000*%
%ADD16C,1.524000*%
%ADD17C,3.500000*%
%ADD18C,0.650000*%
%ADD19O,1.000000X2.100000*%
%ADD20O,1.000000X1.600000*%
%ADD21O,2.100000X1.000000*%
%ADD22O,1.600000X1.000000*%
%ADD23O,1.200000X2.200000*%
%ADD24O,2.200000X1.200000*%
%ADD25C,1.800000*%
%ADD26C,5.100000*%
G04 APERTURE END LIST*
D10*
%TO.C,J10*%
X100457000Y-117109000D03*
D11*
X100457000Y-119649000D03*
X100457000Y-122189000D03*
%TD*%
D12*
%TO.C,RV1*%
X87924000Y-117267000D03*
D13*
X90424000Y-122267000D03*
X92924000Y-117267000D03*
%TD*%
D14*
%TO.C,Y1*%
X100838000Y-79592000D03*
X100838000Y-84472000D03*
%TD*%
D15*
%TO.C,J5*%
X84594500Y-66223000D03*
D16*
X84594500Y-68723000D03*
X84594500Y-70723000D03*
X84594500Y-73223000D03*
D17*
X81884500Y-76293000D03*
X81884500Y-63153000D03*
%TD*%
D18*
%TO.C,J7*%
X161261000Y-57636000D03*
X155481000Y-57636000D03*
D19*
X162691000Y-58166000D03*
X154051000Y-58166000D03*
D20*
X162691000Y-53986000D03*
X154051000Y-53986000D03*
%TD*%
D18*
%TO.C,J8*%
X166437000Y-74899000D03*
X166437000Y-69119000D03*
D21*
X165907000Y-76329000D03*
D22*
X170087000Y-67689000D03*
D21*
X165907000Y-67689000D03*
D22*
X170087000Y-76329000D03*
%TD*%
D23*
%TO.C,J2*%
X150000000Y-60300000D03*
X147500000Y-60300000D03*
D24*
X145000000Y-55300000D03*
D23*
X140000000Y-60300000D03*
X142500000Y-60300000D03*
%TD*%
D10*
%TO.C,J9*%
X104140000Y-117109000D03*
D11*
X104140000Y-119649000D03*
X104140000Y-122189000D03*
%TD*%
D14*
%TO.C,Y3*%
X97065000Y-110617000D03*
X92185000Y-110617000D03*
%TD*%
D24*
%TO.C,J3*%
X163700000Y-90800000D03*
X163700000Y-88300000D03*
D23*
X168700000Y-85800000D03*
D24*
X163700000Y-80800000D03*
X163700000Y-83300000D03*
%TD*%
D23*
%TO.C,J1*%
X136200000Y-60300000D03*
X133700000Y-60300000D03*
D24*
X131200000Y-55300000D03*
D23*
X126200000Y-60300000D03*
X128700000Y-60300000D03*
%TD*%
D15*
%TO.C,J6*%
X84594500Y-94036000D03*
D16*
X84594500Y-96536000D03*
X84594500Y-98536000D03*
X84594500Y-101036000D03*
D17*
X81884500Y-104106000D03*
X81884500Y-90966000D03*
%TD*%
D24*
%TO.C,J4*%
X163700000Y-104800000D03*
X163700000Y-102300000D03*
D23*
X168700000Y-99800000D03*
D24*
X163700000Y-94800000D03*
X163700000Y-97300000D03*
%TD*%
D14*
%TO.C,Y2*%
X150331000Y-95631000D03*
X155211000Y-95631000D03*
%TD*%
D25*
%TO.C,DS1*%
X83157000Y-56192000D03*
X85697000Y-56192000D03*
X88237000Y-56192000D03*
X90777000Y-56192000D03*
X93317000Y-56192000D03*
X95857000Y-56192000D03*
X98397000Y-56192000D03*
X100937000Y-56192000D03*
X103477000Y-56192000D03*
X106017000Y-56192000D03*
X108557000Y-56192000D03*
X111097000Y-56192000D03*
X113637000Y-56192000D03*
X116177000Y-56192000D03*
X118717000Y-56192000D03*
X121257000Y-56192000D03*
D26*
X75657000Y-56152000D03*
X168657000Y-56152000D03*
X168657000Y-111152000D03*
X75657000Y-111152000D03*
%TD*%
M02*
